<svg xmlns="http://www.w3.org/2000/svg" viewBox="0 0 321.74 300.82"><defs><style>.cls-1,.cls-2,.cls-3{fill:none;stroke-miterlimit:10;stroke-width:13px;}.cls-1,.cls-3{stroke:#323232;}.cls-2{stroke:#0066e5;}.cls-3{stroke-linecap:square;}</style></defs><title>자산 70</title><g id="레이어_2" data-name="레이어 2"><g id="레이어_2-2" data-name="레이어 2"><path class="cls-1" d="M6.5,20.86V284.32a10,10,0,0,0,10,10H305.24a10,10,0,0,0,10-10V21.15"/></g><g id="레이어_4" data-name="레이어 4"><path class="cls-2" d="M119.05,163,98.74,183.28s-21,19.73.1,40.82c22.18,22.19,42.53.87,42.53.87l19.9-20.76Z"/><line class="cls-2" x1="99.12" y1="224.95" x2="77.21" y2="246.87"/><line class="cls-2" x1="129.53" y1="173.2" x2="145.89" y2="156.84"/><line class="cls-2" x1="151.32" y1="194.49" x2="167.43" y2="178.38"/><path class="cls-1" d="M194.34,171.47l20.31-20.31s21-19.73-.1-40.83c-22.18-22.18-42.53-.86-42.53-.86l-19.9,20.75Z"/><line class="cls-1" x1="214.27" y1="109.48" x2="236.19" y2="87.57"/></g><g id="레이어_7" data-name="레이어 7"><path class="cls-3" d="M11.75,27.45c12.18,0,24.36-6.09,37.2-18.26"/><path class="cls-3" d="M49,9.19c25.74,24.38,48.75,24.32,74.42,0"/><path class="cls-3" d="M123.37,9.26c25.74,24.38,48.75,24.32,74.42,0"/><path class="cls-3" d="M197.79,9.26c25.74,24.38,48.74,24.32,74.42,0"/><path class="cls-3" d="M272.21,9.33c12.86,12.18,25,18.26,37.2,18.26"/></g></g></svg>