<svg version="1.1" xmlns="http://www.w3.org/2000/svg" viewBox="0 0 453.833 118.133">
  <g fill="#FA0F00">
    <polygon points="84.13,0 133.46,0 133.46,118.11"></polygon>
    <polygon points="49.37,0 0,0 0,118.11"></polygon>
    <polygon points="66.75,43.53 98.18,118.11 77.58,118.11 68.18,94.36 45.18,94.36"></polygon>
    <path d="M195.82,78.78l-4.89,15.08c-0.2,0.51-0.51,0.81-1.12,0.81h-11.82c-0.71,0-0.92-0.41-0.82-1.02l20.38-58.8
		c0.41-1.12,0.81-2.34,1.02-6.22c0-0.41,0.31-0.71,0.61-0.71h16.3c0.51,0,0.71,0.1,0.81,0.61l23.13,65.21
		c0.2,0.51,0.1,0.92-0.51,0.92h-13.25c-0.61,0-0.92-0.2-1.12-0.71l-5.2-15.18H195.82z M215.58,66.04
		c-2.04-6.73-6.11-19.06-8.05-26.29h-0.1c-1.63,6.83-5.3,18.04-7.95,26.29H215.58z"></path>
    <path d="M241.36,69.81c0-14.57,10.9-26.8,29.55-26.8c0.82,0,1.83,0.1,3.36,0.2V23.14c0-0.51,0.31-0.71,0.71-0.71h12.84
		c0.51,0,0.61,0.2,0.61,0.61v60.22c0,2.34,0.1,5.4,0.41,7.44c0,0.51-0.1,0.71-0.71,0.92c-7.03,2.96-13.76,4.08-20.07,4.08
		C252.98,95.69,241.36,87.13,241.36,69.81z M274.28,55.34c-1.02-0.41-2.34-0.51-3.77-0.51c-7.85,0-14.57,4.79-14.57,14.27
		c0,10.09,5.81,14.47,13.55,14.47c1.73,0,3.36-0.1,4.79-0.61V55.34z"></path>
    <path d="M346.73,69.09c0,16-10.39,26.6-25.07,26.6c-17.42,0-25.17-13.15-25.17-26.29c0-14.47,9.68-26.39,25.37-26.39
		C338.27,43.01,346.73,55.34,346.73,69.09z M310.86,69.2c0,8.97,4.18,14.67,11,14.67c5.91,0,10.39-5.09,10.39-14.47
		c0-7.95-3.26-14.57-11-14.57C315.34,54.83,310.86,60.13,310.86,69.2z"></path>
    <path d="M367.92,22.43c0.81,0,1.02,0.1,1.02,0.81v20.89c2.65-0.71,5.5-1.12,8.56-1.12c14.98,0,24.46,10.6,24.46,24.25
		c0,19.06-15.08,28.43-30.57,28.43c-5.4,0-10.8-0.71-16-2.34c-0.31-0.1-0.61-0.61-0.61-1.02V23.14c0-0.51,0.2-0.71,0.71-0.71H367.92
		z M374.95,55.03c-3.26,0-4.69,0.51-6.01,0.81v27.61c1.22,0.31,2.55,0.41,3.77,0.41c7.74,0,14.78-4.69,14.78-15.28
		C387.48,59.31,382.08,55.03,374.95,55.03z"></path>
    <path d="M422.13,73.07c0.51,5.81,4.59,10.6,14.57,10.6c4.58,0,8.66-0.71,12.53-2.34c0.31-0.2,0.61-0.1,0.61,0.51v9.68
		c0,0.71-0.2,1.02-0.71,1.22c-4.08,1.94-8.56,2.96-15.59,2.96c-19.16,0-25.88-13.15-25.88-25.78c0-14.06,8.66-26.9,24.66-26.9
		c15.39,0,21.5,11.92,21.5,22.01c0,3.16-0.2,5.71-0.51,6.83c-0.1,0.51-0.31,0.71-0.82,0.81c-1.32,0.2-5.2,0.41-10.5,0.41H422.13z
		 M435.37,63.18c3.26,0,4.69-0.1,5.09-0.2c0-0.2,0-0.61,0-0.71c0-2.45-1.94-8.05-8.66-8.05c-6.42,0-9.17,4.79-9.78,8.97H435.37z"></path>
  </g>
</svg>