<?xml version="1.0" encoding="utf-8"?>
<svg id="master-artboard" viewBox="0 0 1262.1292724609375 106.41143798828125" version="1.1" xmlns="http://www.w3.org/2000/svg" x="0px" y="0px" style="enable-background:new 0 0 1400 980;" width="1262.1292724609375px" height="106.41143798828125px"><rect id="ee-background" x="0" y="0" width="1262.1292724609375" height="106.41143798828125" style="fill: white; fill-opacity: 0; pointer-events: none;"/><g transform="matrix(9.06037425994873, 0, 0, 9.06037425994873, 3.6602779909161427, 1.1176922734834989)"><path d="M 0 0 H 0 V 0 H 0 V 0 Z" id="backgroundrect" fill="none" stroke="none"/><title>coppelia-robotics-outlines</title><g class="currentLayer" style=""><title>Layer 1</title><g id="svg_1">
    <path d="M 74.040998 5.705 A 5.703 5.703 0 0 1 68.337997 11.408 A 5.703 5.703 0 0 1 62.634997 5.705 A 5.703 5.703 0 0 1 68.337997 0.002 A 5.703 5.703 0 0 1 74.040998 5.705 Z" class="cls-1" id="svg_2" style="fill: rgb(211, 42, 42);"/>
    <path class="cls-2" d="M72.43099994659424,1.4129999637603756 c0,0.08000000000000002 -0.22800000000000004,0.171 0,0.16300000000000003 c-0.010000000000000002,0.254 -0.21500000000000002,-0.021000000000000005 -0.37800000000000006,0.05300000000000001 c-0.05000000000000001,0.17400000000000002 0.17500000000000002,0.07600000000000001 0.21500000000000002,0.16100000000000003 c-0.08800000000000002,0.21100000000000002 -0.21200000000000002,-0.023000000000000007 -0.37900000000000006,0.10800000000000001 a8.875,8.875 0 0 1 -1.7280000000000002,2.108 a3.175,3.175 0 0 1 -1.3,2.216 c0.04600000000000001,1.3 -0.48300000000000004,2.5300000000000002 -0.38000000000000006,3.782 c0.04500000000000001,0.5 0.24300000000000002,1.177 -0.32300000000000006,1.459 c-0.16900000000000004,-0.36800000000000005 0.08400000000000002,-0.8140000000000001 -0.272,-1.134 c0.07,-0.13 0.14,-0.259 0.21700000000000003,-0.37900000000000006 c-0.41800000000000004,-1.149 -0.13,-2.48 -0.27,-4 a33.956,33.956 0 0 1 -3.3,-1.787 c-0.6390000000000001,-0.16700000000000004 -1.423,-0.43100000000000005 -1.407,-1.079 c0.5,-0.15700000000000003 0.7660000000000001,0.48300000000000004 1.244,0.7000000000000001 c0.3480000000000001,0.15700000000000003 0.8410000000000001,0.11900000000000002 1.244,0.272 c0.266,0.1 0.47700000000000004,0.35300000000000004 0.7000000000000001,0.43300000000000005 c0.275,0.09300000000000003 0.6770000000000002,0.07200000000000001 1.025,0.16100000000000003 c0.6000000000000001,0.15000000000000002 1.464,0.6060000000000001 1.352,-0.37800000000000006 c-0.931,0.264 -1.576,-0.5710000000000001 -2.27,-0.21600000000000003 c-0.05600000000000001,-0.09500000000000003 0.18100000000000002,-0.037000000000000005 0.16200000000000003,-0.16400000000000003 c-0.133,-0.20600000000000002 -0.36700000000000005,0.252 -0.37900000000000006,0.05500000000000001 c0,-0.029000000000000005 -0.035,0.04100000000000001 -0.05400000000000001,0 c0.48000000000000004,-0.806 2.323,0.35800000000000004 3.025,-0.43300000000000005 c0.015000000000000003,-0.43300000000000005 -0.5700000000000001,-0.454 -0.5920000000000001,-0.809 c-0.025000000000000005,-0.406 0.38300000000000006,-0.53 0.971,-0.54 c0.23500000000000001,0.125 0.30000000000000004,0.42600000000000005 0.54,0.54 a0.5740000000000001,0.5740000000000001 0 0 0 0,0.32300000000000006 a2.257,2.257 0 0 1 -0.32200000000000006,0.32500000000000007 C70.97499994659424,3.238999963760376 71.06699994659424,1.5459999637603765 72.43099994659424,1.4129999637603756 z" id="svg_3" style="fill: rgb(255, 255, 255);"/>
    <g id="svg_4">
      <path class="cls-3" d="M7.081999946594239,9.717999963760375 a6.245,6.245 0 0 1 -2.1,0.35900000000000004 A5.322,5.322 0 0 1 1.3909999465942384,8.884999963760375 A3.939,3.939 0 0 1 -5.340576159085231e-8,5.740999963760377 A4,4 0 0 1 1.365999946594238,2.6309999637603756 A5,5 0 0 1 4.840999946594238,1.4029999637603758 a6.373,6.373 0 0 1 2.241,0.42000000000000004 L6.458999946594238,3.3329999637603756 a4.648,4.648 0 0 0 -1.187,-0.18000000000000002 a2.632,2.632 0 0 0 -1.929,0.7060000000000001 a2.536,2.536 0 0 0 -0.7200000000000001,1.8940000000000001 a2.5220000000000002,2.5220000000000002 0 0 0 0.6590000000000001,1.81 a2.6580000000000004,2.6580000000000004 0 0 0 2.037,0.7670000000000001 a4.7,4.7 0 0 0 1.294,-0.19100000000000003 z" id="svg_5" style="fill: rgb(84, 84, 84);"/>
      <path class="cls-3" d="M16.36799994659424,5.704999963760375 A4.4,4.4 0 0 1 15.24099994659424,8.812999963760376 a3.916,3.916 0 0 1 -3.031,1.27 a3.934,3.934 0 0 1 -3.031,-1.258 a4.359,4.359 0 0 1 -1.139,-3.092 a4.241,4.241 0 0 1 1.2,-3.115 A4.162,4.162 0 0 1 12.33099994659424,1.4029999637603758 a3.8,3.8 0 0 1 2.882,1.229 A4.309,4.309 0 0 1 16.36799994659424,5.704999963760375 zM13.730999946594238,5.776999963760376 q0,-2.625 -1.545,-2.624 q-1.522,0 -1.522,2.588 t1.534,2.588 Q13.730999946594238,8.328999963760376 13.730999946594238,5.776999963760376 z" id="svg_6" style="fill: rgb(84, 84, 84);"/>
      <path class="cls-3" d="M24.83099994659424,3.966999963760376 a2.773,2.773 0 0 1 -0.28200000000000003,1.21 a2.515,2.515 0 0 1 -0.7610000000000001,0.9460000000000001 a4.217,4.217 0 0 1 -2.611,0.8 H20.956999946594237 V5.440999963760376 a1.7000000000000002,1.7000000000000002 0 0 0 1.024,-0.40700000000000003 a1.1400000000000001,1.1400000000000001 0 0 0 0.37700000000000006,-0.8750000000000001 a0.8720000000000001,0.8720000000000001 0 0 0 -0.6350000000000001,-0.923 a3.662,3.662 0 0 0 -0.971,-0.08300000000000002 H20.430999946594238 v6.781 H17.930999946594238 V1.5459999637603765 h3.019 q1.066,0 1.4260000000000002,0.036000000000000004 a3.209,3.209 0 0 1 1.354,0.40700000000000003 A2.175,2.175 0 0 1 24.83099994659424,3.966999963760376 z" id="svg_7" style="fill: rgb(84, 84, 84);"/>
      <path class="cls-3" d="M33.02299994659424,3.966999963760376 a2.773,2.773 0 0 1 -0.28200000000000003,1.21 a2.515,2.515 0 0 1 -0.7610000000000001,0.9460000000000001 a4.217,4.217 0 0 1 -2.611,0.8 H29.152999946594235 V5.440999963760376 a1.7000000000000002,1.7000000000000002 0 0 0 1.024,-0.40700000000000003 a1.1400000000000001,1.1400000000000001 0 0 0 0.37700000000000006,-0.8750000000000001 a0.8720000000000001,0.8720000000000001 0 0 0 -0.6350000000000001,-0.923 a3.662,3.662 0 0 0 -0.971,-0.08300000000000002 H28.624999946594237 v6.781 h-2.5 V1.5459999637603765 h3.019 q1.066,0 1.4260000000000002,0.036000000000000004 a3.209,3.209 0 0 1 1.354,0.40700000000000003 A2.175,2.175 0 0 1 33.02299994659424,3.966999963760376 z" id="svg_8" style="fill: rgb(84, 84, 84);"/>
      <path class="cls-3" d="M39.923999946594236,9.933999963760376 H34.31699994659424 V1.5459999637603765 h5.1 V3.139999963760376 h-2.6 V4.745999963760376 h2.54 V6.350999963760376 H36.82099994659424 v1.9889999999999999 h3.1 v1.594 z" id="svg_9" style="fill: rgb(84, 84, 84);"/>
      <path class="cls-3" d="M46.98099994659424,9.933999963760376 H41.38599994659424 V1.5459999637603765 h2.5 v6.7940000000000005 H46.98099994659424 v1.594 z" id="svg_10" style="fill: rgb(84, 84, 84);"/>
      <path class="cls-3" d="M50.50299994659424,9.933999963760376 h-2.5 V1.5459999637603765 h2.5 v8.388 z" id="svg_11" style="fill: rgb(84, 84, 84);"/>
      <path class="cls-3" d="M60.23099994659424,9.933999963760376 H57.56099994659424 l-0.6590000000000001,-2.013 h-2.6 l-0.8150000000000001,2.013 H51.521999946594235 l3.415,-8.388 h2.12 zM56.50599994659424,6.602999963760375 L55.66699994659424,3.9789999637603763 L54.72099994659424,6.602999963760375 h1.7850000000000001 z" id="svg_12" style="fill: rgb(84, 84, 84);"/>
      <path class="cls-3" d="M84.37399994659424,9.801999963760377 L81.73099994659424,10.077999963760377 L80.33099994659423,6.650999963760377 H79.67799994659424 v3.283 h-2.5 V1.5459999637603765 H80.43099994659424 a12.7,12.7 0 0 1 1.33,0.04900000000000001 a2.911,2.911 0 0 1 1.233,0.43100000000000005 A2.162,2.162 0 0 1 83.93099994659424,3.942999963760376 a2.494,2.494 0 0 1 -1.545,2.313 zm-2.815,-5.7 a0.98,0.98 0 0 0 -0.4,-0.9 a2.055,2.055 0 0 0 -1.019,-0.18000000000000002 H79.67799994659424 V5.296999963760376 H80.12099994659424 A1.613,1.613 0 0 0 81.23099994659424,4.991999963760376 A1.169,1.169 0 0 0 81.55899994659424,4.098999963760376 z" id="svg_13" style="fill: rgb(84, 84, 84);"/>
      <path class="cls-3" d="M93.58899994659424,5.704999963760375 A4.4,4.4 0 0 1 92.46199994659423,8.812999963760376 a4.267,4.267 0 0 1 -6.062,0.012000000000000002 A4.359,4.359 0 0 1 85.26099994659424,5.727999963760375 a4.241,4.241 0 0 1 1.2,-3.115 A4.162,4.162 0 0 1 89.55099994659423,1.4029999637603758 A3.8,3.8 0 0 1 92.43099994659424,2.6309999637603756 A4.309,4.309 0 0 1 93.58899994659424,5.704999963760375 zm-2.637,0.07200000000000001 q0,-2.625 -1.545,-2.624 q-1.522,0 -1.522,2.588 t1.534,2.588 Q90.95299994659423,8.328999963760376 90.95199994659424,5.776999963760376 z" id="svg_14" style="fill: rgb(84, 84, 84);"/>
      <path class="cls-3" d="M102.16699994659425,7.477999963760377 a2.114,2.114 0 0 1 -0.5750000000000001,1.462 a2.6430000000000002,2.6430000000000002 0 0 1 -1.354,0.8140000000000001 a9.307,9.307 0 0 1 -2.192,0.18000000000000002 h-2.9 V1.5459999637603765 H98.13099994659424 a14.608,14.608 0 0 1 1.5270000000000001,0.05500000000000001 a2.906,2.906 0 0 1 0.8680000000000001,0.24500000000000002 a1.706,1.706 0 0 1 1.1,1.653 a1.585,1.585 0 0 1 -0.38300000000000006,1.091 a3.314,3.314 0 0 1 -1.271,0.778 a3.227,3.227 0 0 1 1.066,0.31200000000000006 A1.851,1.851 0 0 1 102.16699994659425,7.477999963760377 zm-2.8,-3.654 a0.8,0.8 0 0 0 -0.519,-0.8270000000000001 a2.536,2.536 0 0 0 -0.8,-0.08400000000000002 h-0.4 V4.865999963760377 h0.32500000000000007 a1.754,1.754 0 0 0 0.9540000000000001,-0.19100000000000003 A0.974,0.974 0 0 0 99.36399994659423,3.823999963760376 zm0.24000000000000002,3.486 a0.9610000000000001,0.9610000000000001 0 0 0 -0.5910000000000001,-0.994 a2.7,2.7 0 0 0 -0.8800000000000001,-0.1 H97.65099994659424 v2.36 h0.36100000000000004 a1.8290000000000002,1.8290000000000002 0 0 0 1.17,-0.28800000000000003 A1.223,1.223 0 0 0 99.60399994659424,7.312999963760376 z" id="svg_15" style="fill: rgb(84, 84, 84);"/>
      <path class="cls-3" d="M111.56099994659424,5.704999963760375 A4.4,4.4 0 0 1 110.43099994659424,8.812999963760376 a4.267,4.267 0 0 1 -6.062,0.012000000000000002 A4.359,4.359 0 0 1 103.23099994659424,5.727999963760375 A4.241,4.241 0 0 1 104.43099994659424,2.612999963760376 a4.162,4.162 0 0 1 3.092,-1.21 a3.8,3.8 0 0 1 2.882,1.229 A4.309,4.309 0 0 1 111.56099994659424,5.704999963760375 zm-2.637,0.07200000000000001 q0,-2.625 -1.545,-2.624 q-1.522,0 -1.522,2.588 t1.534,2.588 Q108.92499994659424,8.328999963760376 108.92399994659424,5.776999963760376 z" id="svg_16" style="fill: rgb(84, 84, 84);"/>
      <path class="cls-3" d="M119.57599994659424,3.139999963760376 h-2.457 v6.7940000000000005 h-2.5 V3.139999963760376 h-2.408 V1.5459999637603765 h7.369 V3.139999963760376 z" id="svg_17" style="fill: rgb(84, 84, 84);"/>
      <path class="cls-3" d="M123.08699994659423,9.933999963760376 h-2.5 V1.5459999637603765 h2.5 v8.388 z" id="svg_18" style="fill: rgb(84, 84, 84);"/>
      <path class="cls-3" d="M131.73899994659425,9.717999963760375 a6.245,6.245 0 0 1 -2.1,0.35900000000000004 a5.322,5.322 0 0 1 -3.5940000000000003,-1.192 a3.939,3.939 0 0 1 -1.391,-3.145 a4,4 0 0 1 1.366,-3.109 a5,5 0 0 1 3.475,-1.229 a6.373,6.373 0 0 1 2.241,0.42000000000000004 l-0.6230000000000001,1.51 a4.648,4.648 0 0 0 -1.187,-0.18000000000000002 a2.632,2.632 0 0 0 -1.929,0.7060000000000001 a2.536,2.536 0 0 0 -0.7200000000000001,1.8940000000000001 a2.5220000000000002,2.5220000000000002 0 0 0 0.6590000000000001,1.81 a2.6580000000000004,2.6580000000000004 0 0 0 2.037,0.7670000000000001 a4.7,4.7 0 0 0 1.294,-0.19100000000000003 z" id="svg_19" style="fill: rgb(84, 84, 84);"/>
      <path class="cls-3" d="M138.35199994659425,7.596999963760377 a2.156,2.156 0 0 1 -0.8930000000000001,1.8 a3.757,3.757 0 0 1 -2.343,0.6830000000000002 a4.647,4.647 0 0 1 -2.648,-0.778 L133.23099994659424,7.912999963760376 a2.3,2.3 0 0 0 1.521,0.6000000000000001 a1.249,1.249 0 0 0 0.7550000000000001,-0.22800000000000004 a0.7000000000000001,0.7000000000000001 0 0 0 0.31200000000000006,-0.5870000000000001 a1.151,1.151 0 0 0 -0.30000000000000004,-0.7070000000000001 a12.044,12.044 0 0 0 -0.923,-0.8870000000000001 q-0.44200000000000006,-0.38400000000000006 -1.138,-1.019 a2.16,2.16 0 0 1 -0.6230000000000001,-1.485 a1.883,1.883 0 0 1 0.8140000000000001,-1.594 a3.534,3.534 0 0 1 2.145,-0.6000000000000001 a4.648,4.648 0 0 1 2.217,0.5630000000000001 l-0.6710000000000002,1.318 a2.75,2.75 0 0 0 -1.139,-0.31200000000000006 q-0.79,0 -0.79,0.526 a0.6560000000000001,0.6560000000000001 0 0 0 0.16100000000000003,0.40800000000000003 a6.121,6.121 0 0 0 0.7130000000000001,0.6710000000000002 a16.03,16.03 0 0 1 1.259,1.2 A2.623,2.623 0 0 1 138.35199994659425,7.596999963760377 z" id="svg_20" style="fill: rgb(84, 84, 84);"/>
    </g>
  </g></g></g></svg>