<svg xmlns="http://www.w3.org/2000/svg" xmlns:xlink="http://www.w3.org/1999/xlink" viewBox="0 0 304.31 107.57"><defs><style>.cls-1{fill:#ef402f;}.cls-2{fill:#002461;}.cls-3{fill:url(#linear-gradient);}.cls-4{fill:#fff;}.cls-5{fill:url(#linear-gradient-2);}.cls-6{fill:url(#linear-gradient-3);}.cls-7{fill:url(#linear-gradient-4);}.cls-8{fill:#8dd8f8;}.cls-10,.cls-9{fill:#221e1f;}.cls-9{stroke:#000;stroke-width:0.44px;}</style><linearGradient id="linear-gradient" x1="46.81" y1="103" x2="46.81" y2="32.98" gradientUnits="userSpaceOnUse"><stop offset="0" stop-color="#0071bc"/><stop offset="0.8" stop-color="#00b9f2"/></linearGradient><linearGradient id="linear-gradient-2" x1="65.66" y1="32.86" x2="65.66" y2="55.69" gradientUnits="userSpaceOnUse"><stop offset="0.1" stop-color="#f58356"/><stop offset="0.41" stop-color="#ed1a2e"/></linearGradient><linearGradient id="linear-gradient-3" x1="39.33" y1="32.86" x2="39.33" y2="55.69" xlink:href="#linear-gradient-2"/><linearGradient id="linear-gradient-4" x1="21.21" y1="32.86" x2="21.21" y2="55.69" xlink:href="#linear-gradient-2"/></defs><title>자산 10</title><g id="레이어_2" data-name="레이어 2"><g id="Layer_1" data-name="Layer 1"><path class="cls-1" d="M46.84,4.57c19.48,0,42.21,3.14,42.21,12.17V59.06c0,27.4-19.78,43.94-42.21,43.94h-.06C24.36,103,4.57,86.46,4.57,59.06V16.74c0-9,22.73-12.17,42.21-12.17Z"/><path class="cls-2" d="M46.84,107.57h-.06a46.59,46.59,0,0,1-32.7-13h0C5.42,86.16,0,73.86,0,59.06H0V16.74H0A10,10,0,0,1,1.83,11h0A14.56,14.56,0,0,1,6,7.19H6A37.29,37.29,0,0,1,17.32,2.82h0C26,.78,36.79,0,46.78,0h.06V9.13h-.06A160.71,160.71,0,0,0,30.29,10h0a76.81,76.81,0,0,0-14,2.61h0a21.18,21.18,0,0,0-5.68,2.52h0a5.1,5.1,0,0,0-1.26,1.15h0a.86.86,0,0,0-.2.51h0V59.06h0c0,12.6,4.48,22.27,11.32,29h0a37.48,37.48,0,0,0,26.33,10.4h.06A37.48,37.48,0,0,0,73.17,88h0c6.84-6.71,11.3-16.38,11.32-29h0V16.74h0a.86.86,0,0,0-.2-.51h0a5.7,5.7,0,0,0-1.56-1.36h0a29.11,29.11,0,0,0-8.53-3.16h0C66.66,9.92,56.32,9.12,46.84,9.13h0V0A166.86,166.86,0,0,1,64.29.87h0A86,86,0,0,1,80,3.83h0a29.89,29.89,0,0,1,8.21,3.75h0A13.93,13.93,0,0,1,91.79,11h0a10,10,0,0,1,1.83,5.72h0V59.06h0c0,14.8-5.42,27.1-14.08,35.52h0a46.57,46.57,0,0,1-32.69,13h0Z"/><path class="cls-2" d="M4.57,31V15.53s.81-11,42.21-11S89,15.32,89,15.32V33.59H4.57"/><path class="cls-3" d="M89.05,33.59V59.06c0,27.4-19.78,43.94-42.21,43.94h-.06C24.36,103,4.57,86.46,4.57,59.06V33"/><path class="cls-4" d="M46.84,104.22h-.06a43.26,43.26,0,0,1-30.37-12h0c-8-7.79-13.07-19.13-13.06-33.12h0V33H5.78V59.06h0c0,13.41,4.83,24,12.33,31.38h0a40.9,40.9,0,0,0,28.67,11.35h.06A40.9,40.9,0,0,0,75.51,90.44h0c7.5-7.34,12.32-18,12.33-31.38h0V33.59h2.43V59.06h0c0,14-5.07,25.33-13.06,33.12h0a43.26,43.26,0,0,1-30.37,12Z"/><path class="cls-4" d="M88,33.59V16.74h0a4.28,4.28,0,0,0-.83-2.5h0a8.78,8.78,0,0,0-2.54-2.31h0A31.76,31.76,0,0,0,75,8.31h0C67,6.42,56.52,5.63,46.84,5.63h-.06C34.08,5.62,19.93,7,12,10.39h0a12.52,12.52,0,0,0-5.52,3.85h0a4.28,4.28,0,0,0-.83,2.5h0V33H3.5V16.74h0A6.45,6.45,0,0,1,4.71,13h0a11,11,0,0,1,3.14-2.89h0a33.86,33.86,0,0,1,10.27-3.9h0C26.38,4.29,37,3.5,46.78,3.5h.06c12.87,0,27.09,1.33,35.62,4.92h0c2.85,1.21,5.11,2.67,6.45,4.6h0a6.45,6.45,0,0,1,1.21,3.72h0V33.59H88Z"/><path class="cls-2" d="M35.6,75.05,21.35,97.5A39.59,39.59,0,0,0,25.06,100L38.18,79.5Z"/><path class="cls-2" d="M45.14,71.39,25.57,102.14s3.36-.3,4-.24L47,74.82Z"/><path class="cls-2" d="M52.56,69.58,32,102.31s16.27-.72,24.62.72c0,0,1.13.16,2.73.48,3.78-1.66,7.75-2.7,11.28-4.76Z"/><path class="cls-4" d="M10.75,75.52l4.69-3.79.47,1-2.17,1.64c-.58.44-1.2.89-1.69,1.23h0c.6-.19,1.29-.36,2-.55l2.65-.64.46.94L15,77c-.57.43-1.11.82-1.64,1.18h0c.63-.19,1.29-.37,2-.56L18,77l.45.91-5.93,1.27-.47-1,2.23-1.73c.55-.42,1-.75,1.55-1.09v0c-.6.19-1.16.35-1.84.5l-2.76.65Z"/><path class="cls-4" d="M17.79,82.45l-1.18-1.69-1.42,1,1.31,1.9-.72.5L13.9,81.42l4.83-3.35,1.82,2.62-.73.5-1.24-1.8-1.25.87L18.5,82Z"/><path class="cls-4" d="M20,86.5l-1.5.86-.74-.73,5.38-3,.91.89L21.23,90l-.76-.75.81-1.53Zm1.69.52.71-1.34c.17-.33.39-.68.57-1v0c-.3.19-.64.42-1,.6L20.73,86Z"/><path class="cls-4" d="M25.71,86.16A9.39,9.39,0,0,1,27,87a2.37,2.37,0,0,1,1.07,1.39,1.52,1.52,0,0,1-.33,1.22,1.56,1.56,0,0,1-1.67.6l0,0A1.47,1.47,0,0,1,26,91.55a13.94,13.94,0,0,0-.64,1.57l-.82-.61a8,8,0,0,1,.53-1.33c.34-.71.27-1.06-.17-1.41l-.4-.31L23,91.4l-.79-.59ZM25,88.83l.48.36a1,1,0,0,0,1.46-.12.92.92,0,0,0-.3-1.4,2.55,2.55,0,0,0-.53-.33Z"/><path class="cls-4" d="M30.39,93,28.6,92l-.85,1.5,2,1.14-.44.77-2.87-1.64,2.92-5.11,2.76,1.58-.44.76-1.89-1.08L29,91.26l1.8,1Z"/><path class="cls-4" d="M34.55,91.46a8.18,8.18,0,0,1,1.46.4,2.36,2.36,0,0,1,1.43,1,1.5,1.5,0,0,1,.05,1.27,1.56,1.56,0,0,1-1.43,1v0a1.47,1.47,0,0,1,.34,1.32,12.11,12.11,0,0,0-.15,1.69l-1-.35a10.67,10.67,0,0,1,.13-1.43c.11-.77,0-1.09-.58-1.3L34.34,95l-.81,2.27-.93-.33Zm.06,2.79.56.19a1,1,0,0,0,1.35-.54c.22-.61-.08-1-.69-1.25a3.39,3.39,0,0,0-.6-.16Z"/><path class="cls-4" d="M41,96.68l-2-.46-.38,1.69,2.25.5-.19.86-3.23-.72,1.29-5.74,3.1.7-.19.86-2.13-.48-.33,1.48,2,.45Z"/><path class="cls-4" d="M43.33,97.94l-.61,1.62-1-.09,2.25-5.71,1.27.11,1.27,6-1.07-.09-.35-1.71ZM45,97.26l-.31-1.48c-.07-.36-.13-.77-.18-1.12h0c-.11.33-.22.74-.35,1.08l-.54,1.4Z"/><path class="cls-4" d="M47.24,94.09a8.78,8.78,0,0,1,1.57-.27,3.14,3.14,0,0,1,2.29.47,2.75,2.75,0,0,1,1,2.07,3.2,3.2,0,0,1-.63,2.41,3.48,3.48,0,0,1-2.39,1,9.84,9.84,0,0,1-1.35,0ZM48.7,99a3.77,3.77,0,0,0,.55,0c1.3-.11,2-1,1.85-2.43A1.81,1.81,0,0,0,49,94.64a2.68,2.68,0,0,0-.67.13Z"/><path class="cls-4" d="M54.75,98.88l-.59-2.38-2.5-2.92,1.1-.27,1,1.31c.29.38.5.67.74,1h0c.05-.4.11-.79.19-1.25L55,92.76l1.09-.27-1,3.74.6,2.41Z"/><path class="cls-4" d="M58.24,91.67l2.89-1.28.36.81-2,.87.66,1.48L62,92.74l.36.81-1.84.81,1,2.28-.91.41Z"/><path class="cls-4" d="M67.46,90c1,1.69.65,3.22-.64,4s-2.81.22-3.7-1.26-.69-3.18.62-4S66.59,88.59,67.46,90ZM64,92.22c.62,1,1.6,1.55,2.42,1.06s.78-1.61.15-2.67S65,89,64.17,89.54,63.38,91.18,64,92.22Z"/><path class="cls-4" d="M66.47,87.24a8.59,8.59,0,0,1,1.09-1,2.39,2.39,0,0,1,1.61-.7,1.53,1.53,0,0,1,1.11.62,1.56,1.56,0,0,1,.16,1.77v0a1.45,1.45,0,0,1,1.31.4,12.54,12.54,0,0,0,1.37,1l-.8.65a8.1,8.1,0,0,1-1.16-.85c-.6-.5-1-.52-1.41-.18l-.39.32,1.52,1.88-.77.62Zm2.4,1.4.46-.38a1,1,0,0,0,.25-1.44.93.93,0,0,0-1.43-.06,2.71,2.71,0,0,0-.45.43Z"/><path class="cls-4" d="M76.18,86.16l-1.86-1.6-3.73-.93.75-.86,1.57.49c.45.14.79.25,1.19.4h0c-.19-.35-.37-.7-.57-1.13L72.83,81l.73-.85L75,83.79l1.88,1.62Z"/><path class="cls-4" d="M78.58,77.69c1.66,1.06,2,2.6,1.2,3.87s-2.42,1.44-3.88.51-2-2.55-1.2-3.85S77.16,76.78,78.58,77.69Zm-2.13,3.48c1,.64,2.12.69,2.64-.12s0-1.79-1-2.45-2.1-.74-2.64.1S75.43,80.52,76.45,81.17Z"/><path class="cls-4" d="M76.7,74.83l3.16,1.34c1.06.45,1.72.25,2-.37s0-1.27-1.1-1.72l-3.15-1.34.39-.92,3.09,1.31c1.67.71,2.07,1.83,1.56,3s-1.51,1.62-3.22.9l-3.1-1.32Z"/><path class="cls-2" d="M87.82,39.25a11.71,11.71,0,0,0-1.94-6.92,13.79,13.79,0,0,0-4.42-4.55,17.55,17.55,0,0,0-7.34-2.54,20,20,0,0,0-2.56-.16,25.89,25.89,0,0,0-15.5,5.57H5.88l8.39,9.2L5,66.22H45.68l1.17-3.33,1.47-4.17a13,13,0,0,0,5.78,4.9A17,17,0,0,0,60.22,65c-.34.77-5.51,12.91-5.51,12.91H75S87.59,42,87.82,39.25Z"/><path class="cls-4" d="M80.63,45.14c1.39-4.26-1.15-7.1-3.88-7.7a8.62,8.62,0,0,0-5.82.91c4.09,1.73,1.53,9-3.12,11.26C63,52,57.63,48.21,61.72,40.88c4.72-8.43,18.53-8.4,20.57-1.45,0,0,.6-8.62-9.47-9.91-10.31-1.32-23.53,8.4-22.4,21.22C51.5,63,66.84,59,68.18,57.31c0,0-5.39,11.65-6.53,14.9h9.69C74,64.67,79.71,47.91,80.63,45.14Z"/><path class="cls-4" d="M58.61,74.37s5.22-12.74,5.44-13.22h0a20.72,20.72,0,0,1-3.62.33h0a13.51,13.51,0,0,1-7.72-2.15h0a10.94,10.94,0,0,1-4.45-8.4h0c0-.58-.08-1.16-.08-1.73h0A21.31,21.31,0,0,1,55.6,33.46h0a23.62,23.62,0,0,1,15.29-6.22h0a16.15,16.15,0,0,1,2.2.14h0a14.82,14.82,0,0,1,6.18,2.11h0a10.89,10.89,0,0,1,3.52,3.63h0a12.1,12.1,0,0,1,1.67,6h0c0,1.58-1.44,5.62-1.78,6.65h0l-2.05-.67,2.05.67c-.93,2.82-6.68,19.55-9.3,27.1h0l-.5,1.46ZM69.8,70c2.78-8,7.93-23,8.77-25.58h0a5.22,5.22,0,0,0,.29-1.65h0a3.27,3.27,0,0,0-.78-2.2h0a3.42,3.42,0,0,0-1.8-1.06h0a5.31,5.31,0,0,0-1.17-.13h-.37a6.61,6.61,0,0,1,.4,2.31h0a10.68,10.68,0,0,1-1.79,5.59h0a11.63,11.63,0,0,1-4.59,4.22h0a8.85,8.85,0,0,1-3.86.92h0a6.84,6.84,0,0,1-4.75-1.8h0a6.75,6.75,0,0,1-2-5h0a12.15,12.15,0,0,1,1.74-5.84h0a14.39,14.39,0,0,1,6.09-5.78h0a17.17,17.17,0,0,1,7.67-1.84h0a14.88,14.88,0,0,1,1.64.09h0a12.33,12.33,0,0,0-2.7-.64h0a12.72,12.72,0,0,0-1.65-.1h0a19.34,19.34,0,0,0-12.4,5.12h0a17,17,0,0,0-6,12.52h0q0,.66.06,1.35h0c.28,2.88,1.29,4.27,2.62,5.23h0a9.23,9.23,0,0,0,5.24,1.38h0a16.77,16.77,0,0,0,4-.51h0a8.44,8.44,0,0,0,2.21-.83h0l.43.49,3.1,1.89s-1.35,2.91-2.83,6.21h0c-.85,1.9-1.76,4-2.47,5.62h5Zm-6.19-28.1a7.79,7.79,0,0,0-1.18,3.73h0a2.38,2.38,0,0,0,.68,1.85h0a2.54,2.54,0,0,0,1.79.63h0a4.53,4.53,0,0,0,2-.48h0A7.4,7.4,0,0,0,69.71,45h0a6.52,6.52,0,0,0,1.11-3.26h0a2.73,2.73,0,0,0-1.8-3,3.77,3.77,0,0,0-2.82.47,7,7,0,0,0-2.59,2.71Z"/><polygon class="cls-4" points="41.18 60.57 29.77 60.57 37.72 38.03 34.93 34.97 50.21 34.97 41.18 60.57"/><path class="cls-4" d="M26.72,62.73l8.53-24.2L30,32.81H53.26l-10,28.48-.51,1.44Zm14.46-2.16v0Zm-1-23L32.83,58.41h6.82l7.5-21.28H39.82l.37.4Z"/><polygon class="cls-4" points="23.06 60.57 11.65 60.57 19.6 38.03 16.81 34.97 32.09 34.97 23.06 60.57"/><path class="cls-4" d="M8.6,62.73l8.53-24.2-5.21-5.72H35.14l-10,28.48-.51,1.44Zm14.46-2.16v0Zm-1-23L14.71,58.41h6.82L29,37.13H21.7l.37.4Z"/><path class="cls-5" d="M80,44.47c1.4-4.25-1.15-7.1-3.88-7.7a8.55,8.55,0,0,0-5.81.92c4.09,1.72,1.53,9-3.13,11.25-4.84,2.37-10.17-1.4-6.08-8.72,4.71-8.44,18.52-8.4,20.57-1.46,0,0,.59-8.61-9.48-9.9-10.31-1.33-23.53,8.4-22.4,21.21,1.08,12.27,16.42,8.29,17.77,6.57,0,0-5.39,11.66-6.53,14.9h9.69C73.29,64,79.05,47.25,80,44.47Z"/><polygon class="cls-6" points="40.52 59.9 29.11 59.9 37.06 37.37 34.26 34.3 49.54 34.3 40.52 59.9"/><polygon class="cls-7" points="22.39 59.9 10.99 59.9 18.94 37.37 16.14 34.3 31.42 34.3 22.39 59.9"/><rect class="cls-2" x="85.8" y="31.56" width="2.44" height="7.71"/><path class="cls-4" d="M46.84,104.22h-.06a43.26,43.26,0,0,1-30.37-12h0c-8-7.79-13.07-19.13-13.06-33.12h0V16.74h0a6.58,6.58,0,0,1,1.23-3.81h0A11.09,11.09,0,0,1,7.76,10h0A33.93,33.93,0,0,1,18.09,6.08h0C26.36,4.13,37,3.35,46.78,3.35h.06V5.78h-.06C34.09,5.77,20,7.16,12,10.53h0a12.43,12.43,0,0,0-5.46,3.79h0a4.17,4.17,0,0,0-.8,2.42h0V59.06h0c0,13.41,4.83,24,12.33,31.38h0a40.9,40.9,0,0,0,28.67,11.35h.06A40.9,40.9,0,0,0,75.51,90.44h0c7.5-7.34,12.32-18,12.33-31.38h0V16.74h0a4.17,4.17,0,0,0-.8-2.42h0a8.92,8.92,0,0,0-2.5-2.27h0A32.09,32.09,0,0,0,75,8.45h0C67,6.57,56.51,5.78,46.84,5.78h0V3.35C59.72,3.36,74,4.68,82.53,8.28h0C85.38,9.5,87.66,11,89,12.93h0a6.65,6.65,0,0,1,1.23,3.81h0V59.06h0c0,14-5.07,25.33-13.06,33.12h0a43.26,43.26,0,0,1-30.37,12Z"/><path class="cls-8" d="M20.74,70.72a1.6,1.6,0,0,0,.84.24c.41,0,.63-.2.63-.5s-.17-.45-.62-.62-.93-.54-.93-1.07a1.1,1.1,0,0,1,1.22-1.07,1.73,1.73,0,0,1,.84.19l-.16.54a1.39,1.39,0,0,0-.69-.17c-.4,0-.57.23-.57.44s.2.42.66.61.9.56.9,1.1-.43,1.11-1.32,1.11a2,2,0,0,1-.94-.24Z"/><path class="cls-8" d="M24.08,68a.36.36,0,1,1-.36-.36A.35.35,0,0,1,24.08,68Zm-.68,3.42V68.79H24v2.67Z"/><path class="cls-8" d="M24.72,69.58c0-.3,0-.56,0-.79h.56l0,.4h0a.89.89,0,0,1,.8-.46c.44,0,.89.3.89,1.14v1.59h-.63V70c0-.38-.14-.67-.48-.67a.53.53,0,0,0-.49.39.73.73,0,0,0,0,.22v1.57h-.64Z"/><path class="cls-8" d="M29.51,71.38a1.83,1.83,0,0,1-.71.14,1.25,1.25,0,0,1-1.29-1.37,1.33,1.33,0,0,1,1.39-1.42,1.55,1.55,0,0,1,.62.12l-.12.51a1,1,0,0,0-.48-.11.87.87,0,0,0,0,1.73,1.22,1.22,0,0,0,.5-.1Z"/><path class="cls-8" d="M30.38,70.31a.7.7,0,0,0,.77.69,1.73,1.73,0,0,0,.7-.12l.09.47a2.23,2.23,0,0,1-.87.17,1.23,1.23,0,0,1-1.3-1.36A1.29,1.29,0,0,1,31,68.73c.82,0,1.08.71,1.08,1.3a1.8,1.8,0,0,1,0,.28Zm1.1-.47c0-.25-.09-.65-.52-.65s-.55.38-.58.65Z"/><path class="cls-8" d="M34.53,68.5h0l-.61.33-.11-.51.82-.43h.53v3.57h-.62Z"/><path class="cls-8" d="M36.56,71a1.52,1.52,0,0,0,.35,0,1.2,1.2,0,0,0,.68-.27A1.42,1.42,0,0,0,38,69.9h0a.91.91,0,0,1-.73.31,1,1,0,0,1-1-1.1,1.23,1.23,0,0,1,1.21-1.28c.78,0,1.2.66,1.2,1.52A2.26,2.26,0,0,1,38.08,71a1.81,1.81,0,0,1-1.14.49h-.38Zm.87-2.65c-.31,0-.54.3-.54.74s.2.65.55.65a.6.6,0,0,0,.54-.3.38.38,0,0,0,0-.19c0-.48-.17-.9-.58-.9Z"/><path class="cls-8" d="M40.46,71.46v-.91H38.94v-.43l1.37-2.23h.74V70h.44v.51h-.44v.91Zm0-1.42v-1c0-.2,0-.41,0-.62h0c-.11.23-.19.41-.3.61l-.61,1h.91Z"/><path class="cls-8" d="M44,68.45H42.66l-.1.72.25,0a1.42,1.42,0,0,1,.81.23,1,1,0,0,1,.44.91,1.26,1.26,0,0,1-1.36,1.23,1.86,1.86,0,0,1-.88-.21L42,70.8a1.61,1.61,0,0,0,.73.19.68.68,0,0,0,.73-.66c0-.4-.28-.67-.95-.67a3,3,0,0,0-.46,0l.22-1.8H44Z"/><path class="cls-4" d="M20.6,24a6.3,6.3,0,0,1,.93-.07,2,2,0,0,1,1.37.39,1.35,1.35,0,0,1,.48,1.1,1.56,1.56,0,0,1-.49,1.2,2.22,2.22,0,0,1-1.5.44,6,6,0,0,1-.79,0ZM21,26.72a2.82,2.82,0,0,0,.44,0c.93,0,1.44-.47,1.44-1.31s-.45-1.18-1.37-1.18a2.89,2.89,0,0,0-.51,0Z"/><path class="cls-4" d="M24.67,26.07l-.35,1h-.45L25,24h.53L26.7,27h-.47l-.36-1Zm1.11-.32-.33-.88c-.07-.2-.12-.39-.17-.56h0c-.05.18-.11.37-.18.55l-.33.89Z"/><path class="cls-4" d="M29.2,25.59H27.89V26.7h1.46V27h-1.9V24h1.83v.33H27.89v1H29.2Z"/><path class="cls-4" d="M32.75,26.9a3.64,3.64,0,0,1-1,.16,1.86,1.86,0,0,1-1.27-.4A1.52,1.52,0,0,1,30,25.51a1.63,1.63,0,0,1,1.83-1.59,2.39,2.39,0,0,1,.85.14l-.11.33a1.93,1.93,0,0,0-.74-.13,1.21,1.21,0,0,0-1.37,1.23,1.19,1.19,0,0,0,1.31,1.25,1.4,1.4,0,0,0,.58-.09v-.91h-.69v-.32h1.12Z"/><path class="cls-4" d="M34.11,24v1.82c0,.69.33,1,.78,1s.83-.3.83-1V24h.44v1.79a1.18,1.18,0,0,1-1.28,1.33,1.14,1.14,0,0,1-1.22-1.31V24Z"/><path class="cls-4" d="M38.49,24h1.82v.33H38.92v1H40.2v.33H38.92V27h-.43Z"/><path class="cls-4" d="M41.62,24V27h-.44V24Z"/><path class="cls-4" d="M42.63,24a5.18,5.18,0,0,1,.84-.07,1.5,1.5,0,0,1,1,.25.75.75,0,0,1,.27.59.82.82,0,0,1-.64.78v0a.78.78,0,0,1,.5.62,4.5,4.5,0,0,0,.26.84h-.45a3.68,3.68,0,0,1-.23-.73c-.1-.43-.28-.59-.68-.6h-.41V27h-.44Zm.44,1.4h.45c.47,0,.76-.23.76-.59s-.31-.57-.78-.57a3,3,0,0,0-.43,0Z"/><path class="cls-4" d="M47.34,25.59H46V26.7h1.46V27h-1.9V24h1.83v.33H46v1h1.31Z"/><path class="cls-4" d="M49.57,26.55a1.63,1.63,0,0,0,.78.2c.45,0,.71-.21.71-.53s-.18-.45-.64-.61-.89-.44-.89-.87.43-.84,1.09-.84a1.61,1.61,0,0,1,.75.16l-.12.32a1.52,1.52,0,0,0-.64-.15c-.47,0-.64.25-.64.46s.2.43.67.6.87.45.87.9-.39.89-1.19.89a1.85,1.85,0,0,1-.86-.2Z"/><path class="cls-4" d="M54.11,25.59H52.79V26.7h1.47V27H52.35V24h1.83v.33H52.79v1h1.32Z"/><path class="cls-4" d="M55.08,24a5,5,0,0,1,.83-.07,1.5,1.5,0,0,1,1,.25.75.75,0,0,1,.27.59.82.82,0,0,1-.64.78v0a.78.78,0,0,1,.5.62,4.5,4.5,0,0,0,.26.84h-.45a3.68,3.68,0,0,1-.23-.73c-.1-.43-.28-.59-.67-.6h-.42V27h-.43Zm.43,1.4H56c.47,0,.76-.23.76-.59s-.31-.57-.78-.57a3,3,0,0,0-.43,0Z"/><path class="cls-4" d="M58.85,27,57.75,24h.47l.53,1.51c.14.42.27.79.36,1.15h0c.1-.35.24-.74.39-1.14L60.08,24h.47L59.34,27Z"/><path class="cls-4" d="M61.6,24V27h-.44V24Z"/><path class="cls-4" d="M65,26.93a2.19,2.19,0,0,1-.89.15,1.52,1.52,0,0,1-1.68-1.56,1.62,1.62,0,0,1,1.77-1.62A2.11,2.11,0,0,1,65,24l-.11.33a1.58,1.58,0,0,0-.68-.13,1.2,1.2,0,0,0-1.32,1.27,1.17,1.17,0,0,0,1.3,1.24,2,2,0,0,0,.71-.13Z"/><path class="cls-4" d="M67.53,25.59H66.22V26.7h1.46V27h-1.9V24h1.83v.33H66.22v1h1.31Z"/><path class="cls-4" d="M68.44,26.55a1.7,1.7,0,0,0,.78.2c.45,0,.71-.21.71-.53s-.18-.45-.63-.61-.9-.44-.9-.87.44-.84,1.1-.84a1.59,1.59,0,0,1,.74.16l-.11.32a1.58,1.58,0,0,0-.65-.15c-.46,0-.64.25-.64.46s.21.43.68.6.86.45.86.9-.39.89-1.18.89a1.89,1.89,0,0,1-.87-.2Z"/><path class="cls-4" d="M30,13.94H28.55V10.3H26.86v7.41c0,.63-.45,1-1.47,1.24a7.52,7.52,0,0,1-1.47.13A11.43,11.43,0,0,1,22.65,19c-.27-.05-.37-.16-.38-.48V11.9H25.1V10.5H20.54v8.37A2,2,0,0,0,20.8,20a1.24,1.24,0,0,0,.94.46,9.4,9.4,0,0,0,1.13.06,11.93,11.93,0,0,0,2.49-.22,4.08,4.08,0,0,0,1.5-.61v3.15h1.69V15.34H30V23h1.75V10.3H30Z"/><path class="cls-4" d="M44,11.51v-.14a1,1,0,0,0-.15-.62,1.07,1.07,0,0,0-.84-.29H34.78v1.4h6.85c.33,0,.43.12.45.48v4.13h-9v1.4h5.1V23h1.75V17.86h5.53v-1.4H43.93Z"/><polygon class="cls-4" points="53.4 16.81 51.66 16.81 51.66 19.61 46.33 19.61 46.33 21 58.72 21 58.72 20.89 58.72 19.61 53.4 19.61 53.4 16.81"/><path class="cls-4" d="M47.8,16.9a9.49,9.49,0,0,0,3-1.26,5.09,5.09,0,0,0,1.82-1.89,5.92,5.92,0,0,0,1.91,1.92,9,9,0,0,0,2.88,1.21l.09,0L58,15.54l-.12,0a8.24,8.24,0,0,1-3.27-1.81A3.65,3.65,0,0,1,53.41,11v-.57H51.65V11c0,2.14-1.45,3.64-4.46,4.52l-.13,0,.64,1.38Z"/><path class="cls-4" d="M66.72,16.59V10.44H65v1.74H61.7V10.44H60v5.08a1.27,1.27,0,0,0,.27.89,1.26,1.26,0,0,0,.95.3h5.53Zm-1.74-3v1.75H62.15c-.34,0-.43-.11-.45-.41V13.57Z"/><polygon class="cls-4" points="70.36 12.86 70.37 10.3 68.63 10.3 68.63 17.25 70.37 17.25 70.36 14.25 71.96 14.25 71.96 14.13 71.96 12.86 70.36 12.86"/><path class="cls-4" d="M69.34,18.16a4.26,4.26,0,0,0-2.8-.86,4.21,4.21,0,0,0-2.79.86,2.84,2.84,0,0,0,0,4.33,4.26,4.26,0,0,0,2.79.85h0a4.28,4.28,0,0,0,2.79-.85,2.86,2.86,0,0,0,0-4.33ZM68,21.52a2.27,2.27,0,0,1-1.49.47,2.3,2.3,0,0,1-1.48-.47,1.54,1.54,0,0,1,0-2.39,2.3,2.3,0,0,1,1.48-.46,2.27,2.27,0,0,1,1.49.46,1.54,1.54,0,0,1,0,2.39Z"/><path class="cls-9" d="M120.45,50.9a6.18,6.18,0,0,1-3.08,1.4,21.29,21.29,0,0,1-4.62.41,18.08,18.08,0,0,1-2.09-.11,2.15,2.15,0,0,1-1.62-.76,3.48,3.48,0,0,1-.45-2V36.33h8.11V38.5h-5.3V49.21c0,.68.31,1.06.92,1.12a17.13,17.13,0,0,0,5.2-.1c2-.37,2.93-1.22,2.93-2.55V36h2.73v6.84h3.14V36h2.83V59.29h-2.83V45h-3.14V59h-2.73Z"/><path class="cls-9" d="M154.9,49.7H144.53v9.59H141.7V49.7h-9.57V47.53H149v-8c0-.75-.35-1.12-1.07-1.12H135.32V36.26h15.2a1.69,1.69,0,0,1,1.4.46,1.89,1.89,0,0,1,.23,1.27l-.53,9.54h3.28Z"/><path class="cls-9" d="M179.8,54.49H157V52.32h10V47.07h2.81v5.25h10Zm-1.36-8.8-.92,2.17a16.61,16.61,0,0,1-5.32-2.25,10.67,10.67,0,0,1-3.73-3.9A8.84,8.84,0,0,1,165,45.56a17.41,17.41,0,0,1-5.48,2.33l-1-2.2Q167,43.22,167,37v-.77h2.85v.84a7.06,7.06,0,0,0,2.4,5.18A15.74,15.74,0,0,0,178.44,45.69Z"/><path class="cls-9" d="M194.79,47.53H184.64a1.74,1.74,0,0,1-2.07-2V36.21h2.81v3.26H192V36.21h2.8ZM192,45.36V41.64h-6.61v2.73c0,.66.36,1,1.07,1Zm9.58,9.18a4.8,4.8,0,0,1-1.78,3.88,9.17,9.17,0,0,1-10.2,0,4.81,4.81,0,0,1-1.79-3.88,4.87,4.87,0,0,1,1.79-3.9,9.17,9.17,0,0,1,10.2,0A4.86,4.86,0,0,1,201.57,54.54Zm-2.8,0a2.93,2.93,0,0,0-1.15-2.42,5.11,5.11,0,0,0-5.85,0,3.09,3.09,0,0,0,0,4.83,5.06,5.06,0,0,0,5.85,0A2.94,2.94,0,0,0,198.77,54.54Zm6.83-11.63h-4l0,5.64h-2.83V36h2.83l0,4.8h4Z"/><path class="cls-9" d="M220.29,42.25a5.92,5.92,0,0,1-1.9,4.6,7.62,7.62,0,0,1-9.72,0,6,6,0,0,1-1.89-4.6,6,6,0,0,1,1.89-4.6,7.62,7.62,0,0,1,9.72,0A5.94,5.94,0,0,1,220.29,42.25Zm-2.83,0a4.07,4.07,0,0,0-1.08-2.92,4.15,4.15,0,0,0-5.69,0,4.47,4.47,0,0,0,0,5.83,4.09,4.09,0,0,0,5.69,0A4.09,4.09,0,0,0,217.46,42.25Zm10,16.65H212.87a2,2,0,0,1-1.29-.33,1.54,1.54,0,0,1-.37-1.17V51.1H214l0,4.72c0,.61.33.92,1,.92h12.42Zm3-15.14h-4l0,8.05h-2.83V36h2.83l0,5.64h4Z"/><path class="cls-9" d="M245.87,47.5l-1.33,1.92a10.59,10.59,0,0,1-3.35-2.29,9.54,9.54,0,0,1-2.23-3.2,8.68,8.68,0,0,1-2.18,3.32,11.51,11.51,0,0,1-3.61,2.5l-1.38-2q5.61-2.77,5.61-8V38.48h-4.89V36.31h12.72v2.17h-4.89v1.2a7.65,7.65,0,0,0,1.46,4.51A10.1,10.1,0,0,0,245.87,47.5Zm7.6,11.4H237.86a2,2,0,0,1-1.29-.33,1.54,1.54,0,0,1-.37-1.17V51.3H239v4.54q0,.9,1,.9h13.44Zm-.79-7.14h-2.81V43.17h-5.33V41.05h5.33V36h2.81Z"/><path class="cls-9" d="M279.25,50.39h-22.8V48.22h10V45.39h-4.9c-1.31,0-2-.58-2-1.74V36h2.81v2.53h11.06V36h2.81v9.44h-7v2.83h10Zm-2.55,8.77H261.09a1.8,1.8,0,0,1-1.25-.35,1.68,1.68,0,0,1-.35-1.21V52.37h2.83V56.1c0,.59.33.89,1,.89H276.7Zm-3.24-15.94V40.59H262.4v1.7q0,.93,1,.93Z"/><path class="cls-9" d="M304.09,51.71h-10v7.65h-2.83V51.71h-10V49.54h22.77Zm-2.93-5H286.32a2.29,2.29,0,0,1-1.6-.43,2,2,0,0,1-.45-1.48V36.18h2.81v3.11h11.27V36.18h2.81Zm-2.81-2.16V41.46H287.08v2.1q0,1,1.05,1Z"/><path class="cls-10" d="M130.46,66.81a14.64,14.64,0,0,1,2.36-.18,4.72,4.72,0,0,1,3.31,1,4.06,4.06,0,0,1,1.26,3.21,4.71,4.71,0,0,1-1.26,3.48,5.18,5.18,0,0,1-3.67,1.19,14.07,14.07,0,0,1-2-.12Zm1.48,7.4a5,5,0,0,0,.82,0c1.92,0,3.07-1.13,3.07-3.34,0-1.93-1-3-2.88-3a3.85,3.85,0,0,0-1,.1Z"/><path class="cls-10" d="M140.91,73l-.7,2.48h-1.53l2.6-8.73h1.89l2.64,8.73h-1.59L143.49,73Zm2.32-1.2-.63-2.15c-.16-.53-.29-1.13-.41-1.63h0c-.12.5-.24,1.11-.38,1.63l-.63,2.15Z"/><path class="cls-10" d="M152.26,71.55h-3v2.57h3.42v1.31h-4.9V66.7h4.72V68h-3.24v2.26h3Z"/><path class="cls-10" d="M161.21,75a7.73,7.73,0,0,1-2.61.49,4.2,4.2,0,0,1-3.18-1.17,4.53,4.53,0,0,1-1.13-3.21,4.26,4.26,0,0,1,4.51-4.53A5.19,5.19,0,0,1,161,67l-.33,1.28a4.17,4.17,0,0,0-1.84-.37,2.82,2.82,0,0,0-2.95,3.13c0,2,1.13,3.16,2.82,3.16a2.56,2.56,0,0,0,1.12-.18V71.87h-1.43V70.61h2.86Z"/><path class="cls-10" d="M165,66.7v5.09c0,1.71.66,2.5,1.66,2.5s1.71-.79,1.71-2.5V66.7h1.48v5c0,2.7-1.29,3.89-3.24,3.89s-3.09-1.13-3.09-3.87v-5Z"/><path class="cls-10" d="M175.59,66.7h4.68V68h-3.2v2.41h3v1.31h-3v3.71h-1.48Z"/><path class="cls-10" d="M184,66.7v8.73H182.5V66.7Z"/><path class="cls-10" d="M186.46,66.81a13.6,13.6,0,0,1,2.24-.18,3.6,3.6,0,0,1,2.51.7,2.44,2.44,0,0,1-.77,3.94v0A2.23,2.23,0,0,1,191.57,73a17.89,17.89,0,0,0,.64,2.44h-1.53a12.19,12.19,0,0,1-.54-2.06c-.23-1.14-.62-1.5-1.46-1.53h-.75v3.59h-1.47Zm1.47,3.86h.88a1.44,1.44,0,0,0,1.63-1.43c0-1-.63-1.4-1.59-1.4a4.14,4.14,0,0,0-.92.07Z"/><path class="cls-10" d="M198.64,71.55h-3.06v2.57H199v1.31h-4.9V66.7h4.72V68h-3.24v2.26h3.06Z"/><path class="cls-10" d="M204.36,66.81a14.64,14.64,0,0,1,2.36-.18,4.73,4.73,0,0,1,3.31,1,4.06,4.06,0,0,1,1.26,3.21A4.71,4.71,0,0,1,210,74.33a5.18,5.18,0,0,1-3.67,1.19,14.07,14.07,0,0,1-2-.12Zm1.48,7.4a5,5,0,0,0,.82,0c1.92,0,3.07-1.13,3.07-3.34,0-1.93-1-3-2.88-3a3.85,3.85,0,0,0-1,.1Z"/><path class="cls-10" d="M217.9,71.55h-3.06v2.57h3.42v1.31h-4.9V66.7h4.72V68h-3.24v2.26h3.06Z"/><path class="cls-10" d="M220.35,66.81a12.24,12.24,0,0,1,2.26-.18,3.53,3.53,0,0,1,2.4.71,2.57,2.57,0,0,1,.79,1.93,2.77,2.77,0,0,1-.7,2,3.43,3.43,0,0,1-2.56.93,3.74,3.74,0,0,1-.72,0v3.29h-1.47Zm1.47,4.07a2.81,2.81,0,0,0,.72.07,1.56,1.56,0,0,0,1.78-1.61c0-1-.62-1.49-1.65-1.49a3.61,3.61,0,0,0-.85.08Z"/><path class="cls-10" d="M228.63,73l-.7,2.48H226.4L229,66.7h1.9l2.63,8.73h-1.59L231.21,73Zm2.33-1.2-.64-2.15c-.16-.53-.29-1.13-.41-1.63h0c-.12.5-.24,1.11-.38,1.63l-.63,2.15Z"/><path class="cls-10" d="M235.45,66.81a13.41,13.41,0,0,1,2.24-.18,3.58,3.58,0,0,1,2.5.7,2.27,2.27,0,0,1,.7,1.75,2.32,2.32,0,0,1-1.47,2.19v0A2.18,2.18,0,0,1,240.55,73a19.55,19.55,0,0,0,.64,2.44h-1.53a13.31,13.31,0,0,1-.54-2.06c-.23-1.14-.61-1.5-1.46-1.53h-.74v3.59h-1.47Zm1.47,3.86h.88a1.43,1.43,0,0,0,1.62-1.43c0-1-.62-1.4-1.59-1.4a4,4,0,0,0-.91.07Z"/><path class="cls-10" d="M244.7,68h-2.32V66.7h6.13V68h-2.33v7.4H244.7Z"/><path class="cls-10" d="M257.06,71.87c-.05-1.13-.11-2.49-.1-3.68h0c-.27,1.07-.6,2.25-1,3.35l-1.18,3.78h-1.15l-1.08-3.73c-.32-1.11-.6-2.3-.82-3.4h0c0,1.15-.09,2.54-.15,3.73l-.18,3.51H250l.54-8.73h1.95l1.06,3.51c.29,1,.54,2.06.74,3h0c.22-.95.49-2,.81-3l1.12-3.49h1.92l.47,8.73h-1.44Z"/><path class="cls-10" d="M265.49,71.55h-3.06v2.57h3.42v1.31H261V66.7h4.72V68h-3.24v2.26h3.06Z"/><path class="cls-10" d="M267.94,75.43V66.7h1.68l2.1,3.74a24.08,24.08,0,0,1,1.38,2.93h0c-.1-1.17-.14-2.29-.14-3.63v-3h1.38v8.73h-1.53l-2.12-3.85a29.77,29.77,0,0,1-1.46-3l0,0c.06,1.12.08,2.28.08,3.72v3.12Z"/><path class="cls-10" d="M278.41,68H276.1V66.7h6.13V68h-2.34v7.4h-1.48Z"/></g></g></svg>