<svg viewBox="0 0 40 40" xmlns="http://www.w3.org/2000/svg">
  <path d="M20 0C16.0444 0 12.1776 1.17298 8.88861 3.37061C5.59962 5.56824 3.03617 8.69181 1.52242 12.3463C0.00866568 16.0009 -0.387401 20.0222 0.384303 23.9018C1.15601 27.7814 3.06082 31.3451 5.85787 34.1421C8.65492 36.9392 12.2186 38.844 16.0982 39.6157C19.9778 40.3874 23.9992 39.9913 27.6537 38.4776C31.3082 36.9638 34.4318 34.4004 36.6294 31.1114C38.827 27.8224 40 23.9556 40 20C39.9693 14.7051 37.8523 9.63589 34.1082 5.89179C30.3641 2.1477 25.2949 0.0307062 20 0ZM20 37.962C16.4475 37.962 12.9747 36.9085 10.0209 34.9349C7.06702 32.9612 4.76479 30.1559 3.40528 26.8738C2.04578 23.5916 1.69008 19.9801 2.38314 16.4958C3.07621 13.0115 4.78693 9.81098 7.29896 7.29895C9.81099 4.78692 13.0115 3.0762 16.4958 2.38313C19.9801 1.69007 23.5916 2.04577 26.8738 3.40528C30.1559 4.76478 32.9612 7.06701 34.9349 10.0208C36.9086 12.9747 37.962 16.4475 37.962 20C37.9648 22.3596 37.5021 24.6965 36.6004 26.877C35.6987 29.0575 34.3757 31.0387 32.7072 32.7072C31.0387 34.3757 29.0575 35.6987 26.877 36.6004C24.6965 37.502 22.3596 37.9648 20 37.962ZM35.541 22.675V24.458H29.936V15.668H31.974V22.674L35.541 22.675ZM9.42701 24.331C10.4004 24.343 11.3484 24.0207 12.1128 23.4179C12.8772 22.8151 13.4117 21.9684 13.627 21.019L18.6 24.841L23.568 21.019V24.331H29.173V22.548H25.478V15.541H23.439V18.853L18.726 22.675L17.707 21.783L20 20L22.42 18.089L21.02 16.943L16.307 20.637L15.288 19.745L20 16.178L18.6 15.032L13.632 18.854C13.3992 17.9139 12.8601 17.078 12.0996 16.4783C11.339 15.8786 10.4005 15.5492 9.43201 15.542H5.86001V24.332H9.42701V24.331ZM7.77101 22.675V17.325H9.30001C9.97421 17.3628 10.6063 17.6648 11.0594 18.1655C11.5124 18.6663 11.7498 19.3254 11.72 20C11.7508 20.6749 11.5138 21.3346 11.0606 21.8356C10.6073 22.3366 9.97458 22.6383 9.30001 22.675H7.77101Z" fill="#1885C3"></path>
</svg>