<svg xmlns="http://www.w3.org/2000/svg" viewBox="0 0 361.7 139.59"><defs><style>.cls-1{fill:#005ca2;}.cls-2{fill:#ea5504;}</style></defs><title>자산 10</title><g id="레이어_2" data-name="레이어 2"><rect class="cls-1" x="333.82" width="27.88" height="69.99"/><polygon class="cls-1" points="107.52 0 107.52 14.73 140.12 14.73 140.12 69.98 168.07 69.98 168.07 14.73 200.68 14.73 200.68 0 107.52 0"/><path class="cls-1" d="M91,14.73V0H0V56.59A13.38,13.38,0,0,0,13.37,70H91V55.23H28V42.35H91V27.62H28V14.73Z"/><polygon class="cls-2" points="284.73 37.34 251.83 37.34 289.57 74.67 322.47 74.67 284.73 37.34"/><path class="cls-2" d="M299.33,0H214.68V70h28V14.73h42.1V37.34h28v-24A13.37,13.37,0,0,0,299.33,0Z"/><path class="cls-1" d="M14.72,104.53a6.14,6.14,0,0,1-3,.63,6.11,6.11,0,0,1-3-.64,1.92,1.92,0,0,1-1.12-1.71,1.9,1.9,0,0,1,1.12-1.73,6.22,6.22,0,0,1,3-.63,6.14,6.14,0,0,1,3,.63,1.9,1.9,0,0,1,0,3.45Zm1.8-17.36H6.77v3.39h9.75Zm4.37,5.15H2.39v3.42h18.5Zm10.52,4.31H27.33V87.39H23.47v23.73h3.86V100.53h4.08ZM17.73,98.81a9.86,9.86,0,0,0-6.07-1.67,10.15,10.15,0,0,0-6,1.66,4.55,4.55,0,0,0,0,8,9.84,9.84,0,0,0,6,1.71,9.81,9.81,0,0,0,6.09-1.69,4.69,4.69,0,0,0,0-8Zm10.59,16.5H10.85v-5.26H6.77v9H28.32Z"/><path class="cls-1" d="M72.14,103.74H59v5.37H68.5v10.67H64.68v-6.91H46.32v-3.76H55v-5.37H43V100H63.39c.22-1,.46-2.24.72-3.64a40.41,40.41,0,0,0,.53-4.12H46.25V88.55H69.09a22.72,22.72,0,0,1-.26,2.83c-.17,1.3-.33,2.4-.47,3.28-.23,1.22-.41,2.24-.56,3s-.3,1.58-.48,2.34h4.82Z"/><path class="cls-1" d="M111.93,110.77h-3.82V98.67h-5.85v-3.9h5.85V87.38h3.82Zm.63,8.24H90.63V108.45h3.83v6.85h18.1ZM92.81,93h-5.6V89.22h15.31V93H96.89v.48A8.56,8.56,0,0,0,97.6,97a8.31,8.31,0,0,0,2,2.73,16.25,16.25,0,0,0,2.21,1.73,12.49,12.49,0,0,0,2.17,1l-2.32,3.31A13.92,13.92,0,0,1,100,105a16.68,16.68,0,0,1-2.06-1.44A12.45,12.45,0,0,1,96.25,102c-.48-.53-.94-1.08-1.39-1.64a11.73,11.73,0,0,1-1.21,1.86,13.49,13.49,0,0,1-1.8,1.85,15.79,15.79,0,0,1-2.23,1.66c-.7.42-1.33.77-1.89,1.07L85,103.63a22,22,0,0,0,2.54-1.43A20.19,20.19,0,0,0,90.27,100a8.44,8.44,0,0,0,1.83-2.83,9.47,9.47,0,0,0,.71-3.68Z"/><path class="cls-1" d="M133.87,94.4H127.5V90.69h16.85V94.4H138v1.36a28.27,28.27,0,0,0,.48,4.22,13.13,13.13,0,0,0,2,5.13,16.43,16.43,0,0,0,2.83,3.24,23.14,23.14,0,0,0,2.17,1.69l-2.47,3.2c-.29-.2-.85-.6-1.67-1.2a13.88,13.88,0,0,1-2.48-2.41,17.58,17.58,0,0,1-1.64-2.35c-.45-.79-.85-1.56-1.2-2.32a16.49,16.49,0,0,1-1.27,2.65,20.72,20.72,0,0,1-1.93,2.72,18.4,18.4,0,0,1-2,2.1,28.55,28.55,0,0,1-2.25,1.8l-3.16-2.8a23.75,23.75,0,0,0,3.58-3.05,17.24,17.24,0,0,0,2.75-3.71,16.86,16.86,0,0,0,1.69-4.92,24.15,24.15,0,0,0,.48-4Zm22,9.53h-4.12v15.82h-3.83V87.38h3.83v12.5h4.12Z"/><path class="cls-1" d="M186.86,116.26a17.21,17.21,0,0,1-5.13.63,15.73,15.73,0,0,1-5.11-.68c-1.28-.46-1.92-1-1.92-1.75s.65-1.31,1.93-1.64a21.49,21.49,0,0,1,5.14-.49,19.22,19.22,0,0,1,5.11.55q2,.56,2,1.65C188.83,115.27,188.17,115.85,186.86,116.26Zm3.62-5.72c-2-1.06-4.95-1.6-8.75-1.6s-6.74.51-8.74,1.53-3,2.36-3,4,1,3,3.05,4.08,4.93,1.62,8.68,1.62,6.72-.52,8.75-1.55,3.06-2.36,3.06-4S192.52,111.61,190.48,110.54Zm5.82-6.67H183.9v-2.4h9.2V98.13H174.78V96.25h17.84V93.16H174.78V91.28h17.91V87.94H170.8v13.53h8.76v2.4h-12.4v3.53H196.3Z"/><path class="cls-1" d="M235.57,110.77h-3.86V87.38h3.86Zm.66,8.24H214.38V108.9h3.9v6.4h17.95Zm-7.8-16.18-2.24,3.23a16,16,0,0,1-2.17-1.17,17.13,17.13,0,0,1-2.54-2c-.54-.52-1-1-1.49-1.59a15.26,15.26,0,0,1-1.31-1.84,14.68,14.68,0,0,1-1.25,2,19.94,19.94,0,0,1-1.8,2.11,18.11,18.11,0,0,1-2.33,2.05,24.61,24.61,0,0,1-2.12,1.38l-2.68-3a25.31,25.31,0,0,0,3-2,15.38,15.38,0,0,0,2.77-2.86,10.08,10.08,0,0,0,1.92-3.73,15.88,15.88,0,0,0,.48-3.92V88.26h4.08v3.27a14,14,0,0,0,.53,3.81A9.48,9.48,0,0,0,223,98.7a14,14,0,0,0,2.74,2.56A15.27,15.27,0,0,0,228.43,102.83Z"/><path class="cls-1" d="M262.57,93.45a5.41,5.41,0,0,1,0,6.43,4.26,4.26,0,0,1-6.24,0,5.33,5.33,0,0,1,0-6.43,4.24,4.24,0,0,1,6.24,0Zm.58-4.22a8,8,0,0,0-3.71-.86,7.63,7.63,0,0,0-5.83,2.45,8.6,8.6,0,0,0,0,11.71,7.68,7.68,0,0,0,5.83,2.43,7.81,7.81,0,0,0,3.77-.9,8.4,8.4,0,0,0,2.78-2.37h7.06v9.08h3.83V87.38h-3.83v4.15h-7.17A8,8,0,0,0,263.15,89.23Zm4.4,8.17c0-.23,0-.47,0-.72a6.4,6.4,0,0,0,0-.77c0-.24,0-.49-.07-.74h5.59v2.91H267.5C267.52,97.86,267.54,97.63,267.55,97.4Zm10,17.9h-18v-6.66h-4V119h22Z"/><path class="cls-1" d="M320.45,106.28H307.17v13.5h-3.94v-13.5H291.32v-3.72h20.12a36.94,36.94,0,0,0,.9-4.27,51.35,51.35,0,0,0,.64-5.51H294.59V89.06H317.4c0,.54-.1,1.66-.3,3.37s-.39,3.14-.59,4.32-.38,2.34-.62,3.4-.42,1.87-.52,2.41h5.08Z"/><path class="cls-1" d="M347,91a2.77,2.77,0,0,1,.94,1.82,2.65,2.65,0,0,1-.92,1.71,4.26,4.26,0,0,1-3.09.93,4.2,4.2,0,0,1-3-.93,2.58,2.58,0,0,1-.95-1.71,2.76,2.76,0,0,1,.91-1.82A5.28,5.28,0,0,1,347,91ZM360,87.37h-3.83v18.28h-6.8v3.53h6.8v2.61H360Zm-4.82,12.21a48.15,48.15,0,0,1-5.06.61q-4,.34-6.42.34h-9.93v3.79h6.81v5.45h4v-5.48c1,0,2.71-.11,5.13-.32a50,50,0,0,0,5.46-.68Zm5.48,15.71h-18v-4.23h-4.05V119h22ZM338.12,88.64a5.52,5.52,0,0,0-2,4.21,5.59,5.59,0,0,0,2,4.23q2,1.8,5.85,1.8a8.47,8.47,0,0,0,5.81-1.78,5.55,5.55,0,0,0,2-4.25,5.64,5.64,0,0,0-1.93-4.21q-1.94-1.83-5.87-1.83A8.35,8.35,0,0,0,338.12,88.64Z"/><path class="cls-1" d="M3.31,127.06H9.13V129H5.29v3H8.8V134H5.29v3.46H9.16v1.94H3.31Z"/><path class="cls-1" d="M11,126.14h1.89v13.24H11Z"/><path class="cls-1" d="M16.26,134c.09-1.23.62-2.14,1.68-2.14s1.49,1,1.54,2.14Zm4.49,3a4.23,4.23,0,0,1-2.41.91c-1.17,0-2-.83-2.08-2.29h5c0-3.18-.76-5.49-3.46-5.49-2.26,0-3.38,2.17-3.38,4.8,0,3,1.4,4.71,3.8,4.71a4.18,4.18,0,0,0,2.5-.72Z"/><path class="cls-1" d="M27.49,132.25a2.41,2.41,0,0,0-1.28-.34c-1.18,0-1.92,1.17-1.92,2.88s.63,3,2,3a3.27,3.27,0,0,0,1.45-.43l.09,2a4.87,4.87,0,0,1-1.89.3c-2.39,0-3.59-2-3.59-4.8s1.24-4.71,3.52-4.71a4.86,4.86,0,0,1,1.83.3Z"/><path class="cls-1" d="M29.67,132h-1.4v-1.73h1.4v-1.82l1.89-.76v2.58h1.68V132H31.56v4.24c0,.77.17,1.5.89,1.5a1.42,1.42,0,0,0,.86-.25l.06,1.87a4.09,4.09,0,0,1-1.4.21c-1.48,0-2.3-1.14-2.3-2.94Z"/><path class="cls-1" d="M34.58,130.29h1.69v2.06h0c.09-.84.86-2.27,2-2.27a1.65,1.65,0,0,1,.58.07v2.38a1.63,1.63,0,0,0-.84-.19c-1.54,0-1.54,2.4-1.54,3.71v3.33h-1.9Z"/><path class="cls-1" d="M41.29,134.62c0-1.37.6-2.71,1.83-2.71S45,133.22,45,134.62s-.39,3.14-1.84,3.14S41.29,136.12,41.29,134.62Zm-2,.28c0,2.61,1.4,4.69,3.8,4.69s3.81-2.08,3.81-4.69c0-3-1.65-4.82-3.81-4.82S39.32,131.9,39.32,134.9Z"/><path class="cls-1" d="M48.42,130.29h1.79v1.24h0a2.55,2.55,0,0,1,2.38-1.45c1.73,0,2.48,1.51,2.48,3.56v5.74H53.2v-4.85c0-1.12,0-2.62-1.23-2.62s-1.66,1.86-1.66,3v4.45H48.42Z"/><path class="cls-1" d="M57.09,130.29H59v9.09H57.09Zm0-3.92H59v2.26H57.09Z"/><path class="cls-1" d="M65.69,132.25a2.42,2.42,0,0,0-1.29-.34c-1.17,0-1.92,1.17-1.92,2.88s.64,3,2,3a3.27,3.27,0,0,0,1.45-.43l.09,2a4.89,4.89,0,0,1-1.9.3c-2.38,0-3.58-2-3.58-4.8s1.24-4.71,3.51-4.71a4.88,4.88,0,0,1,1.84.3Z"/><path class="cls-1" d="M71.57,132.2a3.83,3.83,0,0,0-1.7-.39,1,1,0,0,0-1.11,1c0,1.45,3.29.53,3.29,3.82a2.81,2.81,0,0,1-3,3,6.9,6.9,0,0,1-2.15-.38l.11-2a3.56,3.56,0,0,0,1.87.6,1.12,1.12,0,0,0,1.24-1.11c0-1.78-3.29-.56-3.29-3.85a2.65,2.65,0,0,1,2.85-2.82,7,7,0,0,1,2.06.33Z"/><path class="cls-1" d="M78.79,136.75c0-1.39,1.25-1.57,2.1-1.57h.82a3.49,3.49,0,0,1-.4,1.87,1.5,1.5,0,0,1-1.32.81A1.05,1.05,0,0,1,78.79,136.75Zm-1-3.95a3.35,3.35,0,0,1,2.24-1c1.12,0,1.64.49,1.64,2h-1a4.75,4.75,0,0,0-2.44.53A2.78,2.78,0,0,0,77,136.89,2.49,2.49,0,0,0,81.77,138h0a12.42,12.42,0,0,0,.08,1.36h1.66c0-.7-.07-1.34-.08-2s0-1.36,0-2.27v-1.17c0-2.68-.92-3.83-3.13-3.83a5.34,5.34,0,0,0-2.53.69Z"/><path class="cls-1" d="M85.3,130.29h1.79v1.24h0a2.56,2.56,0,0,1,2.39-1.45c1.72,0,2.47,1.51,2.47,3.56v5.74H90.09v-4.85c0-1.12,0-2.62-1.23-2.62-1.37,0-1.67,1.86-1.67,3v4.45H85.3Z"/><path class="cls-1" d="M95.44,134.81c0-1.22.34-2.9,1.57-2.9s1.69,1.63,1.69,2.9-.41,2.95-1.66,2.95S95.44,136.06,95.44,134.81Zm3.33,4.57h1.84V126.14h-1.9v5.21h0a2.42,2.42,0,0,0-2.18-1.27c-2.23,0-3.05,2.22-3.05,4.73s.82,4.78,3.05,4.78a2.5,2.5,0,0,0,2.23-1.23h0Z"/><path class="cls-1" d="M108.45,129h-2.83v-1.94h7.63V129h-2.82v10.38h-2Z"/><path class="cls-1" d="M114.12,134c.08-1.23.62-2.14,1.68-2.14s1.48,1,1.54,2.14Zm4.49,3a4.28,4.28,0,0,1-2.42.91c-1.17,0-2-.83-2.07-2.29h5c0-3.18-.76-5.49-3.46-5.49-2.26,0-3.37,2.17-3.37,4.8,0,3,1.4,4.71,3.8,4.71a4.18,4.18,0,0,0,2.5-.72Z"/><path class="cls-1" d="M120.67,126.14h1.89v13.24h-1.89Z"/><path class="cls-1" d="M125.9,134c.08-1.23.62-2.14,1.68-2.14s1.48,1,1.54,2.14Zm4.49,3a4.28,4.28,0,0,1-2.42.91c-1.17,0-2-.83-2.07-2.29h5c0-3.18-.76-5.49-3.46-5.49-2.26,0-3.37,2.17-3.37,4.8,0,3,1.4,4.71,3.8,4.71a4.2,4.2,0,0,0,2.5-.72Z"/><path class="cls-1" d="M137.13,132.25a2.44,2.44,0,0,0-1.29-.34c-1.17,0-1.92,1.17-1.92,2.88s.64,3,2,3a3.35,3.35,0,0,0,1.46-.43l.09,2a4.92,4.92,0,0,1-1.9.3c-2.39,0-3.59-2-3.59-4.8s1.25-4.71,3.52-4.71a5,5,0,0,1,1.84.3Z"/><path class="cls-1" d="M140.19,134.62c0-1.37.59-2.71,1.82-2.71s1.84,1.31,1.84,2.71-.38,3.14-1.84,3.14S140.19,136.12,140.19,134.62Zm-2,.28c0,2.61,1.39,4.69,3.79,4.69s3.82-2.08,3.82-4.69c0-3-1.65-4.82-3.82-4.82S138.22,131.9,138.22,134.9Z"/><path class="cls-1" d="M147.28,130.29h1.77v1.27h0a2.46,2.46,0,0,1,2.16-1.48,2.1,2.1,0,0,1,2.14,1.6,2.45,2.45,0,0,1,2.28-1.6c1.79,0,2.3,1.53,2.3,3.56v5.74h-1.89V134c0-.84,0-2.05-1.09-2.05-1.25,0-1.41,1.88-1.41,3.06v4.41h-1.9V134c0-.84,0-2.05-1.08-2.05-1.26,0-1.41,1.88-1.41,3.06v4.41h-1.9Z"/><path class="cls-1" d="M159.84,130.29h1.77v1.27h0a2.49,2.49,0,0,1,2.17-1.48,2.11,2.11,0,0,1,2.14,1.6,2.45,2.45,0,0,1,2.28-1.6c1.79,0,2.3,1.53,2.3,3.56v5.74h-1.89V134c0-.84,0-2.05-1.09-2.05-1.26,0-1.41,1.88-1.41,3.06v4.41h-1.9V134c0-.84,0-2.05-1.08-2.05-1.26,0-1.42,1.88-1.42,3.06v4.41h-1.89Z"/><path class="cls-1" d="M179.11,139.38h-1.8v-1.23h0a2.87,2.87,0,0,1-2.39,1.44c-1.72,0-2.47-1.51-2.47-3.56v-5.74h1.89v4.86c0,1.11,0,2.61,1.23,2.61,1.37,0,1.67-1.86,1.67-3v-4.45h1.89Z"/><path class="cls-1" d="M181.06,130.29h1.79v1.24h0a2.56,2.56,0,0,1,2.39-1.45c1.72,0,2.47,1.51,2.47,3.56v5.74h-1.89v-4.85c0-1.12,0-2.62-1.23-2.62-1.37,0-1.67,1.86-1.67,3v4.45h-1.89Z"/><path class="cls-1" d="M189.73,130.29h1.89v9.09h-1.89Zm0-3.92h1.89v2.26h-1.89Z"/><path class="cls-1" d="M198.33,132.25a2.41,2.41,0,0,0-1.28-.34c-1.17,0-1.92,1.17-1.92,2.88s.63,3,2,3a3.35,3.35,0,0,0,1.46-.43l.08,2a4.87,4.87,0,0,1-1.89.3c-2.39,0-3.59-2-3.59-4.8s1.24-4.71,3.52-4.71a4.86,4.86,0,0,1,1.83.3Z"/><path class="cls-1" d="M201.23,136.75c0-1.39,1.26-1.57,2.1-1.57h.82a3.59,3.59,0,0,1-.39,1.87,1.52,1.52,0,0,1-1.33.81A1.05,1.05,0,0,1,201.23,136.75Zm-1-3.95a3.37,3.37,0,0,1,2.24-1c1.12,0,1.64.49,1.64,2h-1a4.79,4.79,0,0,0-2.45.53,2.78,2.78,0,0,0-1.24,2.59,2.49,2.49,0,0,0,4.79,1.13h0a12.42,12.42,0,0,0,.08,1.36H206c0-.7-.07-1.34-.09-2s0-1.36,0-2.27v-1.17c0-2.68-.92-3.83-3.14-3.83a5.37,5.37,0,0,0-2.53.69Z"/><path class="cls-1" d="M208.36,132H207v-1.73h1.4v-1.82l1.9-.76v2.58h1.68V132h-1.68v4.24c0,.77.16,1.5.89,1.5a1.44,1.44,0,0,0,.86-.25l.05,1.87a4,4,0,0,1-1.4.21c-1.48,0-2.3-1.14-2.3-2.94Z"/><path class="cls-1" d="M213.28,130.29h1.89v9.09h-1.89Zm0-3.92h1.89v2.26h-1.89Z"/><path class="cls-1" d="M218.67,134.62c0-1.37.6-2.71,1.83-2.71s1.83,1.31,1.83,2.71-.38,3.14-1.83,3.14S218.67,136.12,218.67,134.62Zm-2,.28c0,2.61,1.4,4.69,3.8,4.69s3.81-2.08,3.81-4.69c0-3-1.65-4.82-3.81-4.82S216.7,131.9,216.7,134.9Z"/><path class="cls-1" d="M225.79,130.29h1.8v1.24h0a2.54,2.54,0,0,1,2.38-1.45c1.73,0,2.48,1.51,2.48,3.56v5.74h-1.9v-4.85c0-1.12,0-2.62-1.23-2.62-1.37,0-1.66,1.86-1.66,3v4.45h-1.9Z"/><path class="cls-1" d="M238.75,132.2a3.83,3.83,0,0,0-1.7-.39,1,1,0,0,0-1.11,1c0,1.45,3.29.53,3.29,3.82a2.8,2.8,0,0,1-3,3,6.9,6.9,0,0,1-2.15-.38l.11-2a3.56,3.56,0,0,0,1.87.6,1.12,1.12,0,0,0,1.24-1.11c0-1.78-3.29-.56-3.29-3.85a2.65,2.65,0,0,1,2.85-2.82,7,7,0,0,1,2.06.33Z"/><path class="cls-1" d="M246.6,129h.65c1,0,2.09.12,2.09,1.61s-1.11,1.71-2.09,1.71h-.65Zm-2,10.38h2v-5.12h.64c.83,0,1.09.36,1.37,1.27l1.18,3.85H252l-1.59-4.82c-.19-.54-.5-1.22-1-1.27v0a2.67,2.67,0,0,0,2-2.86c0-3.42-2.52-3.33-4.64-3.33h-2.14Z"/><path class="cls-1" d="M254.6,134c.08-1.23.62-2.14,1.68-2.14s1.48,1,1.54,2.14Zm4.49,3a4.28,4.28,0,0,1-2.42.91c-1.17,0-2-.83-2.07-2.29h5c0-3.18-.76-5.49-3.45-5.49-2.27,0-3.38,2.17-3.38,4.8,0,3,1.4,4.71,3.8,4.71a4.2,4.2,0,0,0,2.5-.72Z"/><path class="cls-1" d="M265.43,132.2a3.79,3.79,0,0,0-1.69-.39,1,1,0,0,0-1.12,1c0,1.45,3.29.53,3.29,3.82a2.8,2.8,0,0,1-3.05,3,7,7,0,0,1-2.15-.38l.11-2a3.56,3.56,0,0,0,1.87.6,1.12,1.12,0,0,0,1.24-1.11c0-1.78-3.29-.56-3.29-3.85a2.66,2.66,0,0,1,2.86-2.82,7,7,0,0,1,2.06.33Z"/><path class="cls-1" d="M268.72,134c.09-1.23.62-2.14,1.68-2.14s1.49,1,1.54,2.14Zm4.49,3a4.23,4.23,0,0,1-2.41.91c-1.17,0-2-.83-2.08-2.29h5c0-3.18-.76-5.49-3.46-5.49-2.26,0-3.38,2.17-3.38,4.8,0,3,1.4,4.71,3.8,4.71a4.18,4.18,0,0,0,2.5-.72Z"/><path class="cls-1" d="M276.57,136.75c0-1.39,1.26-1.57,2.11-1.57h.82a3.59,3.59,0,0,1-.4,1.87,1.5,1.5,0,0,1-1.32.81A1.06,1.06,0,0,1,276.57,136.75Zm-.95-3.95a3.33,3.33,0,0,1,2.24-1c1.12,0,1.64.49,1.64,2h-1.05a4.75,4.75,0,0,0-2.44.53,2.78,2.78,0,0,0-1.24,2.59,2.49,2.49,0,0,0,4.79,1.13h0c0,.29,0,.89.09,1.36h1.67c0-.7-.07-1.34-.09-2s0-1.36,0-2.27v-1.17c0-2.68-.91-3.83-3.13-3.83a5.34,5.34,0,0,0-2.53.69Z"/><path class="cls-1" d="M283.13,130.29h1.68v2.06h0c.08-.84.86-2.27,2-2.27a1.68,1.68,0,0,1,.58.07v2.38a1.65,1.65,0,0,0-.85-.19c-1.54,0-1.54,2.4-1.54,3.71v3.33h-1.89Z"/><path class="cls-1" d="M293.05,132.25a2.44,2.44,0,0,0-1.29-.34c-1.17,0-1.92,1.17-1.92,2.88s.64,3,2,3a3.35,3.35,0,0,0,1.45-.43l.08,2a4.84,4.84,0,0,1-1.89.3c-2.38,0-3.59-2-3.59-4.8s1.25-4.71,3.52-4.71a5,5,0,0,1,1.84.3Z"/><path class="cls-1" d="M294.6,126.14h1.9v5.39h0a2.58,2.58,0,0,1,2.29-1.45c1.72,0,2.48,1.51,2.48,3.56v5.74h-1.9v-4.85c0-1.12,0-2.62-1.23-2.62-1.37,0-1.66,1.86-1.66,3v4.45h-1.9Z"/><path class="cls-1" d="M307.16,127.06h2v12.32h-2Z"/><path class="cls-1" d="M311.09,130.29h1.79v1.24h0a2.56,2.56,0,0,1,2.39-1.45c1.72,0,2.47,1.51,2.47,3.56v5.74h-1.89v-4.85c0-1.12,0-2.62-1.23-2.62-1.38,0-1.67,1.86-1.67,3v4.45h-1.89Z"/><path class="cls-1" d="M324,132.2a3.8,3.8,0,0,0-1.7-.39,1,1,0,0,0-1.11,1c0,1.45,3.29.53,3.29,3.82a2.8,2.8,0,0,1-3,3,7,7,0,0,1-2.15-.38l.12-2a3.5,3.5,0,0,0,1.86.6,1.12,1.12,0,0,0,1.24-1.11c0-1.78-3.29-.56-3.29-3.85a2.66,2.66,0,0,1,2.86-2.82,7.09,7.09,0,0,1,2.06.33Z"/><path class="cls-1" d="M326.61,132h-1.4v-1.73h1.4v-1.82l1.89-.76v2.58h1.68V132H328.5v4.24c0,.77.17,1.5.89,1.5a1.45,1.45,0,0,0,.87-.25l.05,1.87a4,4,0,0,1-1.4.21c-1.48,0-2.3-1.14-2.3-2.94Z"/><path class="cls-1" d="M331.53,130.29h1.89v9.09h-1.89Zm0-3.92h1.89v2.26h-1.89Z"/><path class="cls-1" d="M336,132h-1.39v-1.73H336v-1.82l1.9-.76v2.58h1.68V132h-1.68v4.24c0,.77.16,1.5.88,1.5a1.45,1.45,0,0,0,.87-.25l.06,1.87a4.13,4.13,0,0,1-1.4.21c-1.49,0-2.31-1.14-2.31-2.94Z"/><path class="cls-1" d="M347.59,139.38h-1.8v-1.23h0a2.87,2.87,0,0,1-2.39,1.44c-1.73,0-2.47-1.51-2.47-3.56v-5.74h1.89v4.86c0,1.11,0,2.61,1.23,2.61,1.37,0,1.67-1.86,1.67-3v-4.45h1.89Z"/><path class="cls-1" d="M350.16,132h-1.4v-1.73h1.4v-1.82l1.89-.76v2.58h1.68V132h-1.68v4.24c0,.77.17,1.5.89,1.5a1.4,1.4,0,0,0,.86-.25l.06,1.87a4.09,4.09,0,0,1-1.4.21c-1.48,0-2.3-1.14-2.3-2.94Z"/><path class="cls-1" d="M356.38,134c.08-1.23.62-2.14,1.67-2.14s1.49,1,1.54,2.14Zm4.49,3a4.28,4.28,0,0,1-2.42.91c-1.17,0-2-.83-2.07-2.29h5c0-3.18-.76-5.49-3.46-5.49-2.26,0-3.37,2.17-3.37,4.8,0,3,1.39,4.71,3.79,4.71a4.21,4.21,0,0,0,2.51-.72Z"/></g></svg>