
<svg xmlns="http://www.w3.org/2000/svg" version="1.1" id="svg10" xml:space="preserve" width="582.40002" height="207.60001" viewBox="0 0 582.40002 207.6"><defs id="defs14"><clipPath clipPathUnits="userSpaceOnUse" id="clipPath26"><path d="M 0,841.89 H 595.28 V 0 H 0 Z" id="path24"></path></clipPath></defs><g id="g18" transform="matrix(1.3333333,0,0,-1.3333333,0,1122.52)"><g id="g20" transform="translate(-85.676,95.440821)"><g id="g22" clip-path="url(#clipPath26)"><path d="M 118.827,638.964 H 85.676 v 5.283 h 33.151 z M 102.58,611.956 c -1.936,0 -3.742,0.309 -5.415,0.921 -1.673,0.616 -3.124,1.466 -4.357,2.544 -1.234,1.078 -2.214,2.377 -2.937,3.896 -0.728,1.52 -1.093,3.204 -1.093,5.051 0,1.85 0.365,3.532 1.093,5.055 0.723,1.517 1.703,2.812 2.937,3.894 1.233,1.079 2.684,1.926 4.357,2.543 1.673,0.614 3.479,0.924 5.415,0.924 1.894,0 3.686,-0.31 5.382,-0.924 1.696,-0.617 3.158,-1.464 4.392,-2.543 1.232,-1.082 2.212,-2.377 2.939,-3.894 0.728,-1.523 1.09,-3.205 1.09,-5.055 0,-1.847 -0.362,-3.531 -1.09,-5.051 -0.727,-1.519 -1.707,-2.818 -2.939,-3.896 -1.234,-1.078 -2.696,-1.928 -4.392,-2.544 -1.696,-0.612 -3.488,-0.921 -5.382,-0.921 m -7.265,12.412 c 0,-2.135 0.706,-3.854 2.115,-5.168 1.408,-1.306 3.126,-1.963 5.15,-1.963 2.025,0 3.743,0.657 5.151,1.963 1.409,1.314 2.113,3.033 2.113,5.168 0,2.137 -0.704,3.856 -2.113,5.166 -1.408,1.313 -3.126,1.967 -5.151,1.967 -2.024,0 -3.742,-0.654 -5.15,-1.967 -1.409,-1.31 -2.115,-3.029 -2.115,-5.166 m 0.134,-32.885 v 16.51 h 6.67 v -11.096 h 30.707 v -5.414 z m 3.039,59.17 c 0,1.143 0.393,2.113 1.187,2.903 0.794,0.795 1.76,1.191 2.905,1.191 1.144,0 2.112,-0.396 2.906,-1.191 0.793,-0.79 1.187,-1.76 1.187,-2.903 0,-1.146 -0.394,-2.113 -1.187,-2.906 -0.794,-0.794 -1.762,-1.188 -2.906,-1.188 -1.145,0 -2.111,0.394 -2.905,1.188 -0.794,0.793 -1.187,1.76 -1.187,2.906 m 33.018,0.593 v -18.622 h 8.913 v -5.613 h -8.913 v -21 h -6.54 v 45.235 z" style="fill:#3a474d;fill-opacity:1;fill-rule:nonzero;stroke:none" id="path28"></path><g id="g30" transform="translate(142.2012,623.708)"><path d="M 0,0 V 5.15 H 37.972 V 20.142 H 7.925 v 5.282 H 44.64 V 5.15 h 9.38 V 0 Z M 46.028,-5.811 V -21.855 H 14.661 v -5.88 h 32.425 v -5.15 H 7.99 v 16.178 h 31.367 v 5.745 H 7.99 v 5.151 z" style="fill:#3a474d;fill-opacity:1;fill-rule:nonzero;stroke:none" id="path32"></path></g><g id="g34" transform="translate(236.9619,651.2471)"><path d="m 0,0 h 6.604 v -21.33 h 8.584 v -5.68 H 6.604 V -58.443 H 0 v 14.793 h -39.95 v 5.479 h 12.152 v 16.642 h 6.67 V -38.171 H 0 Z M -7.132,-4.096 V -31.83 h -6.67 V -9.574 H -36.45 v 5.478 z" style="fill:#3a474d;fill-opacity:1;fill-rule:nonzero;stroke:none" id="path36"></path></g><g id="g38" transform="translate(275.3301,619.8115)"><path d="M 0,0 V 10.436 H -20.007 V 15.85 H 0 v 7.396 h -19.677 v 5.416 H 6.603 V 18.096 h 12.618 v 13.338 h 6.533 V -0.924 H 19.221 V 12.482 H 6.603 V 0 Z m 25.754,-28.99 h -37.047 v 23.441 h 37.047 z m -6.67,18.031 H -4.622 v -12.615 h 23.706 z" style="fill:#3a474d;fill-opacity:1;fill-rule:nonzero;stroke:none" id="path40"></path></g><g id="g42" transform="translate(307.8184,610.7646)"><path d="M 0,0 V 5.482 H 54.02 V 0 H 40.416 v -18.623 h -6.67 V 0 H 20.273 V -18.623 H 13.604 V 0 Z M 48.01,13.209 H 5.947 v 5.478 h 7.657 V 31.963 H 5.947 v 5.482 H 48.01 V 31.963 H 40.352 V 18.687 H 48.01 Z M 20.337,18.687 H 33.612 V 31.96 H 20.337 Z" style="fill:#3a474d;fill-opacity:1;fill-rule:nonzero;stroke:none" id="path44"></path></g><g id="g46" transform="translate(392.0781,641.3398)"><path d="m 0,0 h -17.695 v -10.632 h 15.783 v -5.482 H -17.695 V -27.735 H 4.03 v -5.546 H -24.365 V 5.548 H 0 Z M 1.851,-10.698 H 12.813 V 9.907 h 6.605 v -58.445 h -6.605 v 32.162 H 1.851 Z" style="fill:#3a474d;fill-opacity:1;fill-rule:nonzero;stroke:none" id="path48"></path></g><g id="g50" transform="translate(190.2979,746.4492)"><path d="M 0,0 -37.089,-73.806 H 36.999 Z M 0,-20.475 22.162,-64.701 H -22.157 Z" style="fill:#51b848;fill-opacity:1;fill-rule:nonzero;stroke:none" id="path52"></path></g><g id="g54" transform="translate(487.2432,710.9546)"><path d="M 0,0 -35.212,35.115 V -38.31 H 35.212 V 35.115 Z M -26.017,13.337 -6.394,-6.387 -26.017,-26.011 Z m 52.02,-42.634 h -42.716 l 42.716,42.634 z" style="fill:#ed1c24;fill-opacity:1;fill-rule:nonzero;stroke:none" id="path56"></path></g><g id="g58" transform="translate(410.4395,743.9077)"><path d="m 0,0 c -19.919,0 -36.059,-16.147 -36.059,-36.061 0,-19.914 16.14,-36.064 36.059,-36.064 19.92,0 36.063,16.15 36.063,36.064 C 36.063,-16.147 19.92,0 0,0 m 0,-62.881 c -14.816,0 -26.822,12.006 -26.822,26.82 0,14.815 12.006,26.824 26.822,26.824 14.817,0 26.828,-12.009 26.828,-26.824 0,-14.814 -12.011,-26.82 -26.828,-26.82" style="fill:#f79434;fill-opacity:1;fill-rule:nonzero;stroke:none" id="path60"></path></g><g id="g62" transform="translate(344.2148,681.3218)"><path d="M 0,0 V 52.863 C 8.076,51.459 15.213,46.385 19.16,38.879 l 8.26,4.219 c -3.098,5.733 -7.603,10.61 -13.149,13.993 -5.634,3.573 -12.208,5.447 -18.866,5.447 -9.678,0 -18.688,-3.757 -25.454,-10.612 -6.857,-6.758 -10.514,-15.865 -10.514,-25.448 0,-9.669 3.657,-18.682 10.514,-25.442 6.766,-6.849 15.776,-10.523 25.454,-10.523 6.658,0 13.232,1.792 18.866,5.359 5.546,3.375 10.051,8.264 13.149,13.989 l -8.26,4.225 C 15.213,6.574 8.076,1.409 0,0 m -9.205,0 c -12.67,2.158 -22.249,13.149 -22.249,26.478 0,13.241 9.579,24.324 22.249,26.482 z" style="fill:#7c51a1;fill-opacity:1;fill-rule:nonzero;stroke:none" id="path64"></path></g><g id="g66" transform="translate(260.9395,743.1602)"><path d="M 0,0 V -25.545 L -29.667,2.341 v -72.872 h 38.87 v 23.768 L 37.186,-72.967 V 0 Z m 0,-61.416 h -20.473 v 42.537 L 0,-38.125 Z m 27.981,9.677 -18.778,17.556 v 24.975 h 18.778 z" style="fill:#00a6e5;fill-opacity:1;fill-rule:nonzero;stroke:none" id="path68"></path></g><g id="g70" transform="translate(139.9287,743.165)"><path d="M 0,0 V -17.561 H -44.883 V 0 h -9.202 v -70.521 h 9.202 v 17.469 H 0 V -70.521 H 9.294 V 0 Z m 0,-43.85 h -44.883 v 16.992 H 0 Z" style="fill:#024ea2;fill-opacity:1;fill-rule:nonzero;stroke:none" id="path72"></path></g></g></g></g></svg>