<svg xmlns="http://www.w3.org/2000/svg" viewBox="0 0 240.74 28.85"><defs><style>.cls-1{fill:#004ea2;}.cls-2{fill:#231815;}</style></defs><title>자산 10</title><g id="레이어_2" data-name="레이어 2"><rect class="cls-1" x="44.01" y="0.65" width="6.36" height="27.41"/><path class="cls-1" d="M19.13,4.82v6.83h2.41S24,11.41,24,8.19c0,0,.16-3-2.25-3.37Z"/><path class="cls-1" d="M19,15.91V23.7h2.9s2.16-.19,2.17-3.85c0,0,.19-3.84-2.25-3.94Z"/><polygon class="cls-1" points="12.33 28.11 19.65 28.11 10.64 11.98 19.23 0.63 12.81 0.63 6.37 9.49 6.37 0.61 0 0.61 0 28.08 6.37 28.08 6.37 17.55 6.84 16.97 12.33 28.11"/><path class="cls-1" d="M26.47,13.35a4.26,4.26,0,0,0,3.2-3.14A8.53,8.53,0,0,0,29,3.78S27.63,1,23.55.66H34.78s4.26,0,5.81,1.66c0,0,2.31,1.46,1.61,7.48H36.09s.42-3.65-.74-4.77a1.7,1.7,0,0,0-1.61-.58A1.87,1.87,0,0,0,31.9,6.13a9,9,0,0,0,.19,2.94,4,4,0,0,0,1.2,1.38s5.18,2.51,5.59,2.74a7.11,7.11,0,0,1,3.45,5s.54,3.59-.2,5.5c0,0-.67,3-4.75,3.9a13.91,13.91,0,0,1-4.28.5H24.19a5.85,5.85,0,0,0,5.3-4A10.11,10.11,0,0,0,30,18.5h2.12V21a5.28,5.28,0,0,0,.61,2.13,2.26,2.26,0,0,0,1.56.54,1.9,1.9,0,0,0,2-1.52,6.67,6.67,0,0,0,0-3.1S36.09,18,34.13,17Z"/><path class="cls-2" d="M59.57,4.55V2.71h9.84V4.55Zm8.14,5.18a6.07,6.07,0,0,1-3.24.78,6.14,6.14,0,0,1-3.18-.78A2.25,2.25,0,0,1,60,7.8a2.26,2.26,0,0,1,1.32-2,6.29,6.29,0,0,1,3.2-.77,6,6,0,0,1,3.23.78,2.29,2.29,0,0,1,1.24,2A2.25,2.25,0,0,1,67.71,9.73Zm-6,5.83v-4.3h2.55v2.35h9.16v2ZM61.81,2V.2h5.3V2Zm4.1,5.11a3.79,3.79,0,0,0-1.39-.24,4.18,4.18,0,0,0-1.46.24c-.43.16-.64.4-.64.72s.21.57.64.71a4.43,4.43,0,0,0,1.46.22,4,4,0,0,0,1.39-.22c.41-.14.61-.38.61-.7S66.32,7.23,65.91,7.07Zm7,0v4.69H70.57V.34H73v4.6H75V7.06Z"/><path class="cls-2" d="M84.48,8.19v2.29h5v5.43H87.07v-3.4H77.49v-2H82V8.19H75.79v-2H86.61c.1-.46.22-1,.33-1.63s.2-1.19.25-1.7H77.42V.8H89.83A14.68,14.68,0,0,1,89.45,4c-.26,1.14-.43,1.87-.52,2.2h2.44v2Z"/><path class="cls-2" d="M99.75,9.14a15,15,0,0,1-5,4.22L92.87,12a10,10,0,0,0,4.45-3.51A7.8,7.8,0,0,0,99.05,4H93.88V2h8A11.24,11.24,0,0,1,99.75,9.14Zm4.8,6.77V.34h2.37V15.91Z"/><path class="cls-2" d="M109.07,14.78v-2h6.54V9.86h2.52v2.88h6.51v2Zm13.27-4.32a11.28,11.28,0,0,1-2.94-.89,7.16,7.16,0,0,1-2.55-1.77,6.73,6.73,0,0,1-2.32,1.66,11.27,11.27,0,0,1-3.16,1L110,8.62a10,10,0,0,0,3.45-1,3.82,3.82,0,0,0,2-2h-4.78v-2h12.39v2h-4.78a3.8,3.8,0,0,0,2.19,2,15.17,15.17,0,0,0,3.29,1Zm-8.85-8v-2h6.73v2Z"/><path class="cls-2" d="M132.94,13.22c-1.57.09-3.41.14-5.52.14h-1.68v-2h2.78V6.65h2.35v4.66c.64,0,1.58,0,2.84-.12s2.2-.15,2.84-.22v2C135.71,13,134.51,13.13,132.94,13.22ZM135,6.77q-.41,2.55-.42,2.61h-2.34c0-.09.13-.81.33-2.13a26.73,26.73,0,0,0,.31-3.37h-6.34v-2h8.87A31.61,31.61,0,0,1,135,6.77Zm4.48,2v7.13h-2.35V.34h2.35V6.67h2.18V8.78Z"/><path class="cls-2" d="M142.74,4.51V2.69h9.84V4.51Zm8.15,4.86a6.23,6.23,0,0,1-3.23.74,6.44,6.44,0,0,1-3.13-.74,2.15,2.15,0,0,1-1.34-1.85,2,2,0,0,1,1.35-1.83A7,7,0,0,1,147.72,5a6.62,6.62,0,0,1,3.17.68,2,2,0,0,1,1.23,1.81A2.15,2.15,0,0,1,150.89,9.37Zm2.77,6.54v-3h-9.2V11h11.66v4.95ZM145,2V.2h5.29V2Zm4.07,4.88a3.69,3.69,0,0,0-1.36-.22,3.79,3.79,0,0,0-1.39.23c-.41.15-.61.37-.61.65s.2.5.6.66a4,4,0,0,0,1.4.23,3.47,3.47,0,0,0,1.37-.24c.37-.16.56-.38.56-.67S149.44,7,149.06,6.86Zm7.06-.28v3.67h-2.37V.34h2.37V4.46h2.06V6.58Z"/><path class="cls-2" d="M168.49,13.06a9.71,9.71,0,0,1-2.11-1.56,6.58,6.58,0,0,1-1.62-2.16,6.76,6.76,0,0,1-1.7,2.42,13.14,13.14,0,0,1-2.14,1.66l-1.7-1.63a8.57,8.57,0,0,0,2.84-2.36,7.19,7.19,0,0,0,1.43-4.76V3.8h-3.3v-2h9.15v2H166v.87a6.38,6.38,0,0,0,1.38,4.52A9.54,9.54,0,0,0,170,11.27Zm2.94,2.85V.34h2.37V15.91Z"/><path class="cls-2" d="M184.51,8.38c-1.17.08-2,.12-2.62.13v2.25h-2.41V8.53h-3.34v-2h5.22c.8,0,1.88,0,3.22-.16s2.25-.2,2.71-.28v2C186.6,8.21,185.68,8.3,184.51,8.38Zm.15-7.49a2.67,2.67,0,0,1,1,2.05A2.6,2.6,0,0,1,184.63,5a5.92,5.92,0,0,1-6.23,0,2.63,2.63,0,0,1-1.06-2.05,2.64,2.64,0,0,1,1.07-2,5.93,5.93,0,0,1,6.25,0Zm-6,14.67V11.38h2.41v2.14h9.56v2ZM183,2.16a2.09,2.09,0,0,0-1.48-.43,2,2,0,0,0-1.44.43,1.17,1.17,0,0,0-.44.78,1.12,1.12,0,0,0,.46.74,2.15,2.15,0,0,0,1.44.41A2.12,2.12,0,0,0,183,3.68a1.1,1.1,0,0,0,.43-.74A1.15,1.15,0,0,0,183,2.16Zm4.91,9.89V10.9h-3.52V9h3.52V.34h2.35V12.05Z"/><path class="cls-2" d="M204.33,11.57V7.47H201a4.61,4.61,0,0,1-1.54,1.18,4.75,4.75,0,0,1-2.09.45,4.45,4.45,0,0,1-3.26-1.26,4,4,0,0,1-1.28-3,4,4,0,0,1,1.28-3A4.48,4.48,0,0,1,197.39.64a4.8,4.8,0,0,1,1.92.37,4.59,4.59,0,0,1,1.46,1h3.56V.34h2.39V11.57Zm-9.15,4V10.37h2.41v3.15h9.48v2Zm.64-12.24a2.3,2.3,0,0,0-.57,1.55,2.31,2.31,0,0,0,.57,1.54,1.94,1.94,0,0,0,1.57.67A2,2,0,0,0,199,6.41a2.35,2.35,0,0,0,.55-1.54A2.34,2.34,0,0,0,199,3.32a2,2,0,0,0-1.61-.66A2,2,0,0,0,195.82,3.32Zm8.51.72h-2.46c0,.13,0,.26.06.4a3.11,3.11,0,0,1,0,.43,2.62,2.62,0,0,1,0,.28,1.26,1.26,0,0,1,0,.28h2.42Z"/><path class="cls-2" d="M217.5,9.5v6.41h-2.44V9.5h-6.18v-2h10.6c.12-.5.26-1.18.42-2a18.78,18.78,0,0,0,.29-2.32h-9.68v-2h12.33a18.9,18.9,0,0,1-.42,4c-.28,1.31-.46,2.11-.51,2.42h2.54v2Z"/><path class="cls-2" d="M234.42,8.38c-1.17.08-2,.12-2.62.13v2.25h-2.41V8.53h-3.34v-2h5.22c.8,0,1.87,0,3.22-.16s2.25-.2,2.71-.28v2C236.51,8.21,235.59,8.3,234.42,8.38Zm.15-7.49a2.66,2.66,0,0,1,1,2.05A2.59,2.59,0,0,1,234.54,5a4.82,4.82,0,0,1-3.11.88A4.78,4.78,0,0,1,228.31,5a2.6,2.6,0,0,1-1.06-2.05,2.64,2.64,0,0,1,1.07-2,5.93,5.93,0,0,1,6.25,0Zm-6,14.67V11.38H231v2.14h9.55v2Zm4.34-13.4a2.06,2.06,0,0,0-1.47-.43,2,2,0,0,0-1.45.43,1.15,1.15,0,0,0-.43.78,1.08,1.08,0,0,0,.46.74,2.14,2.14,0,0,0,1.43.41,2.09,2.09,0,0,0,1.46-.41,1.12,1.12,0,0,0,.44-.74A1.17,1.17,0,0,0,232.9,2.16Zm4.92,9.89V10.9h-3.53V9h3.53V.34h2.35V12.05Z"/><path class="cls-2" d="M65.17,28.63l-3-3.72-.42.38-.36.33v3H60v-8h1.38v3.3c.48-.46,1-1,1.63-1.6s1.11-1.18,1.55-1.71h1.68c-.5.62-1,1.23-1.58,1.81s-1,1.11-1.52,1.58l3.69,4.67Z"/><path class="cls-2" d="M73.36,21.54a4.58,4.58,0,0,1,1,3.05,4.61,4.61,0,0,1-1,3.06,3.63,3.63,0,0,1-5.36,0,4.56,4.56,0,0,1-1-3.06,4.54,4.54,0,0,1,1-3.05,3.63,3.63,0,0,1,5.36,0Zm-1.07,5.18a3.55,3.55,0,0,0,.6-2.13,3.48,3.48,0,0,0-.6-2.1,2,2,0,0,0-3.23,0,3.54,3.54,0,0,0-.58,2.1,3.62,3.62,0,0,0,.58,2.13,2,2,0,0,0,3.23,0Z"/><path class="cls-2" d="M80.25,28.64,78,25.51H76.83v3.13h-1.4V20.58h3.31a2.83,2.83,0,0,1,1.92.69,2.21,2.21,0,0,1,.8,1.72,2.46,2.46,0,0,1-.52,1.53,2.23,2.23,0,0,1-1.28.87L82,28.64Zm-.68-4.78A1,1,0,0,0,80,23a1,1,0,0,0-.43-.87,1.89,1.89,0,0,0-1.06-.29H76.78v2.31h1.73A1.81,1.81,0,0,0,79.57,23.86Z"/><path class="cls-2" d="M82.59,28.62v-8h5.6v1.29H84v2h4v1.29H84v2.17h4.34v1.31Z"/><path class="cls-2" d="M90.09,28.62H88.65l3.08-8.06h1.61l3.09,8.05H95l-.7-1.82H90.79Zm2.45-6.42-1.26,3.31h2.5Z"/><path class="cls-2" d="M106.55,25a1.89,1.89,0,0,1,.41,1.42,2.09,2.09,0,0,1-.84,1.57,3.16,3.16,0,0,1-2,.61h-3.46v-8h3.45a2.59,2.59,0,0,1,1.72.54,2.06,2.06,0,0,1,.76,1.28,1.68,1.68,0,0,1-.22,1.24,2.21,2.21,0,0,1-.7.7A2.4,2.4,0,0,1,106.55,25Zm-1.71-1.5a.87.87,0,0,0,.31-.72.85.85,0,0,0-.32-.67,1.39,1.39,0,0,0-.89-.26h-1.87v1.91h1.86A1.45,1.45,0,0,0,104.84,23.52Zm.31,3.46a1.1,1.1,0,0,0,0-1.56,1.4,1.4,0,0,0-1.07-.35h-2v2.25h2A1.48,1.48,0,0,0,105.15,27Z"/><path class="cls-2" d="M108.77,28.62h-1.43l3.07-8.06H112l3.09,8.05h-1.46L113,26.79h-3.49Zm2.45-6.42L110,25.51h2.5Z"/><path class="cls-2" d="M121.32,25.27a1.9,1.9,0,0,1,.3,1.3,2.34,2.34,0,0,1-.88,1.59,3.31,3.31,0,0,1-2.22.69,3.1,3.1,0,0,1-2.41-1,2.67,2.67,0,0,1-.84-2h1.37a1.54,1.54,0,0,0,.54,1.17,2,2,0,0,0,1.34.49,2,2,0,0,0,1.12-.27,1.15,1.15,0,0,0,.49-.7.82.82,0,0,0-.13-.67,1.34,1.34,0,0,0-.58-.45,3.9,3.9,0,0,0-1.09-.37,5.3,5.3,0,0,1-1.19-.35,2.93,2.93,0,0,1-1.2-.85,1.85,1.85,0,0,1-.38-1.35,2.32,2.32,0,0,1,.75-1.48,2.87,2.87,0,0,1,2.14-.71,2.6,2.6,0,0,1,2.3,1,2.7,2.7,0,0,1,.63,1.69H120a1.41,1.41,0,0,0-.38-.95,1.5,1.5,0,0,0-1.16-.41,1.48,1.48,0,0,0-1.1.31,1.1,1.1,0,0,0-.33.66.7.7,0,0,0,.3.65,3.13,3.13,0,0,0,.72.39,9.1,9.1,0,0,0,1.06.29,5.11,5.11,0,0,1,1.26.47A2.44,2.44,0,0,1,121.32,25.27Z"/><path class="cls-2" d="M122.86,28.62v-8h1.37v8Z"/><path class="cls-2" d="M132.58,25.94a4.22,4.22,0,0,1-1.06,1.92,3.08,3.08,0,0,1-2.44,1,3.33,3.33,0,0,1-2.7-1.18,4.61,4.61,0,0,1-1-3.06,4.58,4.58,0,0,1,1-3.05,3.33,3.33,0,0,1,2.7-1.18,3.09,3.09,0,0,1,2.49,1,4.13,4.13,0,0,1,1,1.81H131a2.51,2.51,0,0,0-.58-1,1.7,1.7,0,0,0-1.34-.5,2,2,0,0,0-1.64.8,3.4,3.4,0,0,0-.61,2.12,3.44,3.44,0,0,0,.61,2.14,2,2,0,0,0,1.64.82,1.71,1.71,0,0,0,1.33-.53,2.77,2.77,0,0,0,.63-1.08Z"/><path class="cls-2" d="M142.77,25.27a1.9,1.9,0,0,1,.3,1.3,2.31,2.31,0,0,1-.88,1.59,3.28,3.28,0,0,1-2.22.69,3.11,3.11,0,0,1-2.41-1,2.67,2.67,0,0,1-.84-2h1.37a1.52,1.52,0,0,0,.55,1.17,2.21,2.21,0,0,0,2.45.22,1.11,1.11,0,0,0,.49-.7.78.78,0,0,0-.12-.67,1.43,1.43,0,0,0-.59-.45,3.9,3.9,0,0,0-1.09-.37,5.45,5.45,0,0,1-1.19-.35,2.93,2.93,0,0,1-1.2-.85,1.85,1.85,0,0,1-.38-1.35,2.32,2.32,0,0,1,.75-1.48,2.89,2.89,0,0,1,2.14-.71,2.63,2.63,0,0,1,2.31,1,2.74,2.74,0,0,1,.62,1.69h-1.37a1.36,1.36,0,0,0-.38-.95,1.49,1.49,0,0,0-1.16-.41,1.51,1.51,0,0,0-1.1.31,1,1,0,0,0-.32.66.69.69,0,0,0,.29.65,3.13,3.13,0,0,0,.72.39,9.1,9.1,0,0,0,1.06.29,5.18,5.18,0,0,1,1.27.47A2.34,2.34,0,0,1,142.77,25.27Z"/><path class="cls-2" d="M151,25.94a4.22,4.22,0,0,1-1.06,1.92,3.08,3.08,0,0,1-2.44,1,3.31,3.31,0,0,1-2.69-1.18,4.56,4.56,0,0,1-1-3.06,4.54,4.54,0,0,1,1-3.05,3.31,3.31,0,0,1,2.69-1.18,3.07,3.07,0,0,1,2.49,1,4.13,4.13,0,0,1,1,1.81h-1.51a2.51,2.51,0,0,0-.58-1,1.7,1.7,0,0,0-1.34-.5,2,2,0,0,0-1.64.8,3.46,3.46,0,0,0-.61,2.12,3.51,3.51,0,0,0,.61,2.14,2,2,0,0,0,1.64.82,1.7,1.7,0,0,0,1.33-.53,2.77,2.77,0,0,0,.63-1.08Z"/><path class="cls-2" d="M152.12,28.62v-8h1.38v8Z"/><path class="cls-2" d="M155,28.62v-8h5.61v1.29h-4.23v2h4v1.29h-4v2.17h4.35v1.31Z"/><path class="cls-2" d="M166.34,28.64l-3.19-5.74,0,5.74h-1.41V20.58h1.68l3.24,5.73V20.58H168v8.06Z"/><path class="cls-2" d="M176.3,25.94a4.22,4.22,0,0,1-1.06,1.92,3.08,3.08,0,0,1-2.44,1,3.33,3.33,0,0,1-2.7-1.18,4.61,4.61,0,0,1-1-3.06,4.58,4.58,0,0,1,1-3.05,3.33,3.33,0,0,1,2.7-1.18,3.09,3.09,0,0,1,2.49,1,4.13,4.13,0,0,1,1,1.81h-1.51a2.51,2.51,0,0,0-.58-1,1.7,1.7,0,0,0-1.34-.5,2,2,0,0,0-1.64.8,3.4,3.4,0,0,0-.61,2.12,3.44,3.44,0,0,0,.61,2.14,2,2,0,0,0,1.64.82,1.71,1.71,0,0,0,1.33-.53,2.77,2.77,0,0,0,.63-1.08Z"/><path class="cls-2" d="M177.25,28.62v-8h5.61v1.29h-4.23v2h4v1.29h-4v2.17H183v1.31Z"/><path class="cls-2" d="M187.84,28.62v-8h1.37v8Z"/><path class="cls-2" d="M195.32,28.64l-3.19-5.74,0,5.74H190.7V20.58h1.68l3.24,5.73V20.58H197v8.06Z"/><path class="cls-2" d="M204,25.27a2,2,0,0,1,.29,1.3,2.31,2.31,0,0,1-.88,1.59,3.27,3.27,0,0,1-2.21.69,3.12,3.12,0,0,1-2.42-1,2.75,2.75,0,0,1-.84-2h1.37a1.55,1.55,0,0,0,.55,1.17,2.23,2.23,0,0,0,2.46.22,1.1,1.1,0,0,0,.48-.7.78.78,0,0,0-.12-.67,1.4,1.4,0,0,0-.58-.45,4,4,0,0,0-1.09-.37,5.3,5.3,0,0,1-1.19-.35,2.9,2.9,0,0,1-1.21-.85,1.9,1.9,0,0,1-.38-1.35,2.42,2.42,0,0,1,.75-1.48,2.91,2.91,0,0,1,2.14-.71,2.61,2.61,0,0,1,2.31,1,2.82,2.82,0,0,1,.63,1.69h-1.37a1.46,1.46,0,0,0-.38-.95,1.52,1.52,0,0,0-1.17-.41,1.51,1.51,0,0,0-1.1.31,1.08,1.08,0,0,0-.32.66.7.7,0,0,0,.3.65,2.76,2.76,0,0,0,.72.39,8.37,8.37,0,0,0,1.05.29,5.18,5.18,0,0,1,1.27.47A2.44,2.44,0,0,1,204,25.27Z"/><path class="cls-2" d="M208.59,21.89v6.77h-1.4V21.89h-2.5V20.61h6.41v1.28Z"/><path class="cls-2" d="M212,28.62v-8h1.37v8Z"/><path class="cls-2" d="M218.1,21.89v6.77h-1.4V21.89h-2.51V20.61h6.41v1.28Z"/><path class="cls-2" d="M227.48,26.07a2.59,2.59,0,0,1-.85,2,3.3,3.3,0,0,1-2.29.77,3.26,3.26,0,0,1-2.28-.77,2.59,2.59,0,0,1-.85-2l0-5.48h1.4v5.1a2.9,2.9,0,0,0,.28,1.26c.19.4.67.6,1.43.6s1.24-.21,1.44-.61a2.89,2.89,0,0,0,.28-1.25v-5.1h1.43Z"/><path class="cls-2" d="M232.05,21.89v6.77h-1.4V21.89h-2.51V20.61h6.41v1.28Z"/><path class="cls-2" d="M235,28.62v-8h5.61v1.29h-4.23v2h4v1.29h-4v2.17h4.35v1.31Z"/></g></svg>