<svg id="Layer_1" data-name="Layer 1" xmlns="http://www.w3.org/2000/svg" xmlns:xlink="http://www.w3.org/1999/xlink" viewBox="0 0 556.36 138.18"><defs><style>.cls-1{fill:none;}.cls-2{fill:#0077b4;}.cls-3{fill:#00a2d9;}.cls-4{fill:url(#linear-gradient);}</style><linearGradient id="linear-gradient" x1="85.36" y1="75.71" x2="85.36" y2="101.32" gradientUnits="userSpaceOnUse"><stop offset="0" stop-color="#00a2d9"/><stop offset="1" stop-color="#0077b4"/></linearGradient></defs><title>대지 20</title><rect class="cls-1" x="-132.72" y="-27.63" width="799.37" height="226.77"/><path class="cls-2" d="M479.51,67V98h2.38c1,0,1.52-.67,1.52-2.4V67Z"/><path class="cls-2" d="M459.25,88.13c6.63-4.1,10.83-10.38,10.83-16.23H459.83V68.67h12.82c1.65,0,1.71,1.2,1.71,2.14,0,9.66-7,17.37-12.81,20.47Z"/><path class="cls-2" d="M512.94,79.64H486.76v3.1H499.4v2.41h-8.52v3H508v1c0,.6-.2.76-.59.76H490.88v4.69a2.77,2.77,0,0,0,1,2.5,5.44,5.44,0,0,0,3,.67h15.25c1.06,0,1.53-.38,1.53-1.14V94.81H495.48c-.49,0-.72-.25-.72-.74V92.81h13.81a3.19,3.19,0,0,0,2.86-1.39,6.44,6.44,0,0,0,.4-2.83V86.75a1.43,1.43,0,0,0-1.63-1.6h-6.89V82.74h10.16c1.13,0,1.62-.41,1.62-1.21V79.64Z"/><path class="cls-2" d="M503.36,67.31V67h-4v.33c0,4.69-5.89,6.73-9.83,7.52l1.18,3.06c3.17-.49,8.13-1.66,10.66-5.65,2.52,4,7.49,5.16,10.65,5.65l1.18-3.06C509.25,74,503.36,72,503.36,67.31Z"/><path class="cls-2" d="M422.82,77.78V67h-3.91V98h2.39c1,0,1.52-.67,1.52-2.4V81.1h2.7c1.21,0,1.73-.44,1.73-1.3v-2Z"/><path class="cls-2" d="M410.33,85.17h3.43c1.21-4,1.51-9,1.51-14.36,0-.94,0-2.14-1.71-2.14H398.83V71.9h12.49C411.32,75,411.44,80.5,410.33,85.17Z"/><path class="cls-2" d="M406.86,88.75v-8.5H403v8.5h-5.25v3.16h17.35c1.15,0,1.65-.41,1.65-1.23V88.75Z"/><path class="cls-2" d="M304.8,80.1h0v3.21h12.11v3.92h-8.52v3.19h16.86V98h2.37c1,0,1.5-.65,1.5-2.37V88.83a1.43,1.43,0,0,0-1.63-1.6h-6.66V83.31h10c1.16,0,1.65-.41,1.65-1.23v-2Z"/><path class="cls-2" d="M324.63,78.51h3.63c.71-1.33,1.13-5.68,1.13-7.85,0-.93-.07-2.14-1.72-2.14H308.39v3.23h16.95A35.87,35.87,0,0,1,324.63,78.51Z"/><path class="cls-2" d="M345.14,70.89V67h-3.88v3.91H336V74h12.81c1.21,0,1.73-.44,1.73-1.3V70.88Z"/><path class="cls-2" d="M359.19,67v9.77h-2.73V67H352.7V98h2.24c1,0,1.52-.67,1.52-2.4V79.89h2.73V98h2.25c1,0,1.52-.67,1.52-2.4V67Z"/><path class="cls-2" d="M343.29,75.62c-3.63,0-6.56,3.17-6.56,7.63s2.93,7.62,6.56,7.62,6.56-3.17,6.56-7.62S346.91,75.62,343.29,75.62Zm0,11.92c-1.66,0-3-1.79-3-4.34s1.34-4.34,3-4.34,3,1.79,3,4.34S345,87.54,343.29,87.54Z"/><path class="cls-2" d="M393.73,73.41c1.21,0,1.73-.43,1.73-1.29V70.27H391V67H387V85.17h2.39c1,0,1.52-.66,1.52-2.39V79.49h2.78c1.21,0,1.73-.43,1.73-1.29V76.34H391V73.41Z"/><path class="cls-2" d="M381,85c-6,0-9.76,3-9.76,6.77s3.8,6.77,9.76,6.77,9.76-3,9.76-6.77S387,85,381,85Zm0,10.41c-3.59,0-5.84-1.61-5.84-3.64s2.25-3.63,5.84-3.63,5.85,1.6,5.85,3.63S384.59,95.45,381,95.45Z"/><path class="cls-2" d="M383.17,75.4a8.11,8.11,0,1,0-8.1,7.71A7.75,7.75,0,0,0,383.17,75.4Zm-12.31,0A4.22,4.22,0,1,1,375.07,80,4.29,4.29,0,0,1,370.86,75.41Z"/><path class="cls-2" d="M538.78,67V85.2h-5.14v3.12h5.14v1.74h2.39c1,0,1.52-.66,1.52-2.4V67Z"/><path class="cls-2" d="M517.52,80.62v3.1h7.64V88h2.39c1,0,1.52-.62,1.52-1.84V83.72h6.19c1.13,0,1.62-.4,1.62-1.21V80.62Z"/><path class="cls-2" d="M527.39,94.4c-.71,0-1.08-.33-1.08-1V89.6h-3.87v4.8a2.89,2.89,0,0,0,1,2.48,4.9,4.9,0,0,0,2.9.7H541.7c1.13,0,1.62-.4,1.62-1.21v-2Z"/><path class="cls-2" d="M527.06,66.85c-4.6,0-7.87,2.78-7.87,6.21s3.27,6.21,7.87,6.21,7.86-2.78,7.86-6.21S531.66,66.85,527.06,66.85Zm.05,9.32c-2.4,0-4.08-1.39-4.08-3.11S524.71,70,527.11,70s4.07,1.39,4.07,3.11S529.5,76.17,527.11,76.17Z"/><path class="cls-2" d="M451.25,86.68H433.51v3.18H449V98h2.35c1,0,1.5-.64,1.5-2.34V88.26A1.42,1.42,0,0,0,451.25,86.68Z"/><path class="cls-2" d="M452.88,73.7V67H449V85.17h2.39c1,0,1.53-.66,1.53-2.39V76.85h2.8c1.15,0,1.65-.41,1.65-1.23V73.7Z"/><path class="cls-2" d="M437.82,71c-4.3,0-7.35,3-7.35,6.7s3,6.69,7.35,6.69,7.36-3,7.36-6.69S442.13,71,437.82,71Zm.05,10.14a3.51,3.51,0,1,1,3.81-3.49A3.58,3.58,0,0,1,437.87,81.14Z"/><path class="cls-2" d="M444.71,72.56c1.21,0,1.73-.42,1.73-1.23V69.57H439.8V67h-3.89v2.59h-6.37v3Z"/><path class="cls-2" d="M299,74.37V67h-3.91V89.33h2.38c1,0,1.53-.66,1.53-2.39V77.53h2.71c1.21,0,1.74-.44,1.74-1.3V74.37Z"/><path class="cls-2" d="M283.9,94.4c-.71,0-1.07-.33-1.07-1v-5H279v6a2.92,2.92,0,0,0,1,2.48,4.92,4.92,0,0,0,2.91.7h15.39c1.13,0,1.61-.4,1.61-1.21v-2Z"/><path class="cls-2" d="M283.46,71.21a7,7,0,1,0,7.35,7A7,7,0,0,0,283.46,71.21Zm0,10.83a4.12,4.12,0,1,1,3.75-4.1A3.86,3.86,0,0,1,283.46,82Z"/><path class="cls-2" d="M290.35,72.85c1.21,0,1.73-.44,1.73-1.3V69.71h-6.64V67h-3.89v2.73h-6.37v3.14Z"/><path class="cls-2" d="M379.54,107.31c2.62,0,4.09,1.76,4.09,4.28s-1.45,4.33-4.09,4.33-4.08-1.78-4.08-4.33S376.89,107.31,379.54,107.31Zm0,7.29c1.71,0,2.34-1.51,2.34-3s-.68-3-2.34-3-2.34,1.51-2.34,3S377.83,114.6,379.54,114.6Z"/><path class="cls-2" d="M390.61,115.66a8.61,8.61,0,0,1-1.9.26c-2.69,0-4.58-1.35-4.58-4.16s1.75-4.45,4.58-4.45a5.48,5.48,0,0,1,1.89.34l-.12,1.41a3.43,3.43,0,0,0-1.8-.45,2.79,2.79,0,0,0-2.8,3,2.74,2.74,0,0,0,2.83,3,4.56,4.56,0,0,0,1.83-.34Z"/><path class="cls-2" d="M391.57,107.44h5v1.32h-3.33v2h3.05v1.32h-3.05v2.34h3.35v1.31h-5Z"/><path class="cls-2" d="M400.22,107.44h1.89l3.27,8.34h-1.85l-.72-1.91h-3.38l-.72,1.91H397Zm.92,1.68h0l-1.21,3.43h2.44Z"/><path class="cls-2" d="M405.72,107.44h2l3.18,6.24h0v-6.24h1.61v8.34h-2.05l-3.18-6.23h0v6.23h-1.6Z"/><path class="cls-2" d="M420,109a4.25,4.25,0,0,0-1.7-.36,1.16,1.16,0,0,0-1.31,1.16c0,1.45,3.66.84,3.66,3.63,0,1.83-1.45,2.52-3.13,2.52a7.43,7.43,0,0,1-2.14-.32l.15-1.51a4.08,4.08,0,0,0,1.89.51c.63,0,1.48-.31,1.48-1.07,0-1.59-3.65-.93-3.65-3.69,0-1.86,1.44-2.53,2.91-2.53a6.45,6.45,0,0,1,2,.29Z"/><path class="cls-2" d="M427.7,115.66a8.69,8.69,0,0,1-1.9.26c-2.7,0-4.57-1.35-4.57-4.16s1.74-4.45,4.57-4.45a5.48,5.48,0,0,1,1.89.34l-.12,1.41a3.47,3.47,0,0,0-1.81-.45,2.78,2.78,0,0,0-2.79,3,2.74,2.74,0,0,0,2.83,3,4.56,4.56,0,0,0,1.83-.34Z"/><path class="cls-2" d="M429,107.44h1.67v8.34H429Z"/><path class="cls-2" d="M431.88,107.44h5v1.32h-3.32v2h3v1.32h-3v2.34h3.34v1.31h-5Z"/><path class="cls-2" d="M438,107.44H440l3.18,6.24h0v-6.24h1.6v8.34h-2.05l-3.18-6.23h0v6.23H438Z"/><path class="cls-2" d="M452.16,115.66a8.61,8.61,0,0,1-1.89.26c-2.7,0-4.58-1.35-4.58-4.16s1.75-4.45,4.58-4.45a5.47,5.47,0,0,1,1.88.34l-.12,1.41a3.43,3.43,0,0,0-1.8-.45,2.78,2.78,0,0,0-2.79,3,2.74,2.74,0,0,0,2.83,3,4.54,4.54,0,0,0,1.82-.34Z"/><path class="cls-2" d="M453.23,107.44h5v1.32H454.9v2H458v1.32H454.9v2.34h3.35v1.31h-5Z"/><path class="cls-2" d="M466,113.07a3,3,0,0,0,.52-1.82H468a4.83,4.83,0,0,1-1.06,2.86l1.49,1.67h-2.06l-.56-.74a3.22,3.22,0,0,1-2.27.88c-1.64,0-3-.86-3-2.42,0-1,.43-1.73,1.75-2.29-.64-.62-1.15-1.06-1.15-2,0-1.27,1.36-1.89,2.53-1.89s2.4.53,2.4,1.88c0,1.14-.7,1.68-1.61,2.21Zm-2.83-1a1.54,1.54,0,0,0-1,1.34,1.3,1.3,0,0,0,1.41,1.23,2.08,2.08,0,0,0,1.46-.5Zm1.45-2.78a.84.84,0,0,0-.92-.86.87.87,0,0,0-.95.88c0,.47.46.87.78,1.19C463.92,110.32,464.59,109.82,464.59,109.33Z"/><path class="cls-2" d="M471.4,108.75H469v-1.31h6.45v1.31h-2.4v7H471.4Z"/><path class="cls-2" d="M476.23,107.44h5v1.31H477.9v2.06H481v1.31H477.9v2.34h3.34v1.31h-5Z"/><path class="cls-2" d="M488.3,115.65a8.14,8.14,0,0,1-1.9.27c-2.7,0-4.57-1.35-4.57-4.17s1.73-4.45,4.57-4.45a5.55,5.55,0,0,1,1.89.35l-.12,1.4a3.45,3.45,0,0,0-1.81-.44,2.79,2.79,0,0,0-2.8,3,2.75,2.75,0,0,0,2.84,3,4.65,4.65,0,0,0,1.82-.34Z"/><path class="cls-2" d="M489.37,107.44H491v3.37h3.35v-3.37h1.66v8.33h-1.66v-3.65H491v3.65h-1.67Z"/><path class="cls-2" d="M497.34,107.44h2.06l3.17,6.23h0v-6.23h1.6v8.33h-2L499,109.54h0v6.23h-1.6Z"/><path class="cls-2" d="M509.24,107.3c2.61,0,4.08,1.76,4.08,4.28s-1.44,4.34-4.08,4.34-4.08-1.78-4.08-4.34S506.59,107.3,509.24,107.3Zm0,7.3c1.71,0,2.34-1.51,2.34-3s-.68-3-2.34-3-2.34,1.5-2.34,3S507.53,114.6,509.24,114.6Z"/><path class="cls-2" d="M514.13,107.44h1.67v7H519v1.31h-4.91Z"/><path class="cls-2" d="M523.18,107.3c2.62,0,4.09,1.76,4.09,4.28s-1.44,4.34-4.09,4.34-4.08-1.78-4.08-4.34S520.53,107.3,523.18,107.3Zm0,7.3c1.71,0,2.34-1.51,2.34-3s-.68-3-2.34-3-2.34,1.5-2.34,3S521.45,114.6,523.16,114.6Z"/><path class="cls-2" d="M535,109.05a5.41,5.41,0,0,0-2.15-.44,2.84,2.84,0,0,0-3,3,2.75,2.75,0,0,0,2.83,3,4.73,4.73,0,0,0,1.1-.11v-2.18H532V111h3.37v4.49a10.42,10.42,0,0,1-2.7.43c-2.7,0-4.57-1.35-4.57-4.17s1.74-4.45,4.57-4.45a8.08,8.08,0,0,1,2.45.35Z"/><path class="cls-2" d="M538.66,112.48l-3-5h2l2,3.5,2-3.5h1.77l-3,5v3.29h-1.67Z"/><path class="cls-2" d="M275.18,107.74h1.11v3.42l3.31-3.42h1.48l-3.64,3.67,3.93,4.09h-1.62l-3.46-3.8v3.8h-1.11Z"/><path class="cls-2" d="M284.69,107.61c2.36,0,3.74,1.71,3.74,4s-1.37,4-3.74,4-3.72-1.65-3.72-4S282.34,107.61,284.69,107.61Zm0,7c1.8,0,2.56-1.49,2.56-3s-.84-3.05-2.56-3-2.55,1.46-2.55,3S282.91,114.66,284.69,114.66Z"/><path class="cls-2" d="M289.3,107.74h1.9c1.53,0,3,.24,3,2.1a1.81,1.81,0,0,1-1.6,1.77v0c.35.13.51.3.76.78l1.46,3.09h-1.27l-1.18-2.69c-.35-.75-.71-.75-1.3-.75h-.67v3.44H289.3Zm1.11,3.34h.94c1.06,0,1.68-.47,1.68-1.21s-.53-1.15-1.55-1.15h-1.07Z"/><path class="cls-2" d="M295.48,107.74h4.42v1h-3.31V111h3v1h-3v2.55h3.31v1h-4.42Z"/><path class="cls-2" d="M303.44,107.74h1.17l3.27,7.76h-1.21l-.79-2h-3.8l-.79,2h-1.17Zm.54,1.05-1.54,3.84h3.09Z"/><path class="cls-2" d="M310.29,107.74h1.11v7.76h-1.11Z"/><path class="cls-2" d="M312.93,107.74h1.51l3.43,6.25h0v-6.25H319v7.76h-1.42l-3.51-6.38h0v6.38h-1.11Z"/><path class="cls-2" d="M324.12,108.91a3.44,3.44,0,0,0-1.45-.33c-.62,0-1.36.23-1.36,1,0,1.49,3.34,1.14,3.34,3.7,0,1.65-1.29,2.31-2.84,2.31a5.48,5.48,0,0,1-1.59-.32l.11-1a4.43,4.43,0,0,0,1.62.39,1.4,1.4,0,0,0,1.52-1.27c0-1.74-3.33-1.26-3.33-3.67,0-1.38,1.08-2.11,2.48-2.11a5.17,5.17,0,0,1,1.66.28Z"/><path class="cls-2" d="M327.26,108.72h-2.41v-1h5.93v1h-2.41v6.78h-1.11Z"/><path class="cls-2" d="M331.47,107.74h1.11v7.76h-1.11Z"/><path class="cls-2" d="M335.68,108.72h-2.41v-1h5.93v1h-2.41v6.78h-1.11Z"/><path class="cls-2" d="M345.93,112.29c0,2.18-1.1,3.34-3,3.34s-3-1.16-3-3.34v-4.55H341v4.4c0,1.49.46,2.52,1.9,2.52s1.9-1,1.9-2.52v-4.4h1.11Z"/><path class="cls-2" d="M349,108.72h-2.41v-1h5.93v1h-2.41v6.78H349Z"/><path class="cls-2" d="M353.31,107.74h4.42v1h-3.31V111h3v1h-3v2.55h3.31v1h-4.42Z"/><path class="cls-2" d="M364.33,107.65c2.32,0,3.68,1.69,3.68,4s-1.34,4-3.68,4-3.69-1.63-3.69-4S362,107.65,364.33,107.65Zm0,7c1.76,0,2.52-1.47,2.52-3s-.83-3-2.52-3-2.53,1.44-2.53,3S362.56,114.61,364.33,114.61Z"/><path class="cls-2" d="M369,107.78h4.14v1h-3V111H373v1H370v3.49H369Z"/><path class="cls-3" d="M194.91,67.09H138.48c-4.68,0-11.84,1-15.47,6.4-4,5.87-1.8,13.69,8.37,16.81,0,0,8.61,2.59,12,3.92,2.43,1,3.86,2.68,3,5.36-1,3.09-6,3-9.56,3H131.4c-6.83,0-11.4,6.44-11.31,8.19,0,.46.3.39.68.39h17.92c6.18,0,14.77-.5,17.85-6.55,2.56-5,2.07-11.84-10-15.6-4.93-1.54-7.69-2.55-11.08-3.8-2.86-1-4.18-3.14-3.62-5.09,1.14-4,7.19-4.31,9.53-4.31h24.91v34.67a.63.63,0,0,0,.69.68h8.2a1.69,1.69,0,0,0,1.77-1.78V75.82h9.45c5.55,0,9.34-6.19,9.22-8.32C195.58,67,195.3,67.09,194.91,67.09Z"/><path class="cls-3" d="M68.15,67.09H61a1.66,1.66,0,0,0-1.68,1.74v36.82c0,2-.53,2.81-4.51,1.45C50.22,105.55,35.5,97.42,31.22,87,36.94,79.68,44,75,53,70.21c3.48-1.85,2.47-3.1,1.12-3.1h-9.5a10.24,10.24,0,0,0-6,1.29c-5.05,3-12.18,11.16-14.69,16.15V68.84a1.68,1.68,0,0,0-1.77-1.75h-7a1.68,1.68,0,0,0-1.76,1.75v40.57a1.67,1.67,0,0,0,1.76,1.76h7a1.68,1.68,0,0,0,1.77-1.76V90.58a52.72,52.72,0,0,0,6.17,11c5.92,8.29,12.27,9.58,17.91,9.58H65.5c3.76,0,4.34-2.11,4.34-5.5V68.83A1.67,1.67,0,0,0,68.15,67.09Z"/><path class="cls-2" d="M251.46,82.9c-7.59-22.05-33.15-14-48.85-31.43C194.73,42.7,192.19,36,191.36,32.7h0c-.27-1.1-.4-.57-.38.18.27,5.78,2.51,13.74,6.85,22a38.94,38.94,0,0,1,2.74,6.61A51.48,51.48,0,0,1,198.7,98.4c6.69-7.76,10.33-17.68,12.63-24.94a70,70,0,0,0,46.19,21.19C254.81,92.91,252.93,87.16,251.46,82.9Z"/><path class="cls-3" d="M236.27,9.66a21.87,21.87,0,0,1-5.12,8.45c-5.87,6.45-12.36,9.7-17.93,17.7-4.85,6.95-4.3,14.62-4.29,16.8.35-2.14.17-8.76,5.4-16.44a60.07,60.07,0,0,1,9.2-9.85,83.8,83.8,0,0,0,8.7-8.55,22.46,22.46,0,0,0,2.31-3.22A14.53,14.53,0,0,1,233,17.37a61.49,61.49,0,0,1-8.44,10,86.3,86.3,0,0,0-8.68,9.81,33.66,33.66,0,0,0-6.09,16.25,41,41,0,0,1,7.08-15.71c2-2.65,5.64-6.63,8.24-9.39a58.43,58.43,0,0,0,9-11.75,24.08,24.08,0,0,0,1.61-3.8,19.94,19.94,0,0,1-1.07,3.43A61,61,0,0,1,226,29.62c-2.48,3.06-5,6.09-7.48,9.13a46.31,46.31,0,0,0-7.85,15.45,53.15,53.15,0,0,1,8.68-14.74c2.58-3,5.29-6.26,7.45-9,4.12-5.3,6.91-9.87,8.45-14.31a20.9,20.9,0,0,0,1.11-4.59,20.5,20.5,0,0,1-.8,4.59c-.95,3.11-2.32,8-7.78,15.75C226,34.4,223.6,37.3,221,40.45a84.25,84.25,0,0,0-9.49,14.41,129.82,129.82,0,0,1,10.37-13.79,102.61,102.61,0,0,0,6.59-8.25A46.22,46.22,0,0,0,236,16.53c.44-2,.51-2.35.68-3.3a30.43,30.43,0,0,1-.34,3.59,44.79,44.79,0,0,1-7.5,18.77C221,45.8,217.36,49.25,212.56,55.43c4.4-4.71,12.79-12.33,18.19-20.53a42.09,42.09,0,0,0,5.88-16.73,33.65,33.65,0,0,0,.41-3.55,34.9,34.9,0,0,1-.15,5.22,44.8,44.8,0,0,1-4.44,16c-2.19,4.13-7.58,10.7-18.69,20,5.65-4.25,14.64-10.46,19.43-19.09a37.54,37.54,0,0,0,4.05-14.38c.18-2,.33-5.72.33-5.72a68.39,68.39,0,0,1,.23,8.05,29.55,29.55,0,0,1-3,13.12c-2,3.72-7.05,11-19.88,18.47,14.39-7.45,18.94-13.67,21.12-18a29.83,29.83,0,0,0,2.69-12.89A71.66,71.66,0,0,0,237,9.83C236.87,9.27,236.57,8.88,236.27,9.66Z"/><path class="cls-4" d="M74.27,84.19A17,17,0,0,0,76,95a16.56,16.56,0,0,0,14.3,8.17,11.13,11.13,0,0,0,3.22-.36c1.45-.47,1.49-1.19.37-1.42-5.52-1.09-11.63-6.41-10-15.32a13.23,13.23,0,0,1,12.8-10.63v-10A22.53,22.53,0,0,0,74.27,84.19Z"/><path class="cls-3" d="M101.46,66a24,24,0,0,0-4.77-.48h-.36v9.95h.51a12.42,12.42,0,0,1,2.58.27c7.22,1.52,11.51,8,10.44,15.62a19.8,19.8,0,0,1-2.11,6.26c-4,7.43-12.61,10.69-24.67,7.07-2.1-.63-1.23.67-.22,1.71A17.28,17.28,0,0,0,91.4,111a26.68,26.68,0,0,0,5.33.64A23.06,23.06,0,0,0,101.46,66Z"/></svg>