<svg xmlns="http://www.w3.org/2000/svg" viewBox="0 0 526.89 104.74"><defs><style>.cls-1{fill:#231815;}.cls-2{fill:#0075c2;}.cls-3{fill:#d80c18;}</style></defs><title>자산 10</title><g id="레이어_2" data-name="레이어 2"><g id="Layer_1" data-name="Layer 1"><path class="cls-1" d="M200.64,67v4.45h0L203.46,67h2.39l-3,4.76,3.31,6.35h-2.48l-2.26-4.56-.81,1.26v3.3h-2.21V67Z"/><path class="cls-1" d="M208.44,74c0-1.72.09-2.94,1.13-2.94.86,0,1.13.85,1.13,2.94s-.27,2.94-1.13,2.94C208.53,76.89,208.44,75.66,208.44,74Zm-2.12,0c0,2.9.71,4.44,3.25,4.4s3.25-1.54,3.25-4.4-.7-4.45-3.25-4.41S206.32,71.08,206.32,74Z"/><path class="cls-1" d="M214,69.76h2v1.12h0a2.12,2.12,0,0,1,1.9-1.34,2.45,2.45,0,0,1,.38,0v2c-.21,0-.45,0-.66,0a1.44,1.44,0,0,0-1.56,1.51v5H214Z"/><path class="cls-1" d="M220.86,73v-.33c0-.78.25-1.66,1.09-1.66s1,.71,1.07,2Zm4.19,1.27v-.48c0-2.57-.56-4.25-3-4.25-2.85,0-3.28,2.09-3.28,4.33,0,2.08.12,4.48,3.18,4.48,2,0,2.92-1.09,3-3H223c-.12,1-.41,1.58-1.11,1.58s-1-1-1-2v-.67Z"/><path class="cls-1" d="M230,75.59a1.26,1.26,0,0,1-1.3,1.3c-.57,0-.8-.53-.8-1.17s.34-1.17,1.2-1.35A2.89,2.89,0,0,0,230,74Zm-2-3.26V72.1c0-.66.34-1.09,1-1.09s1,.39,1,1-.21.81-.84,1l-1.19.33A2.34,2.34,0,0,0,225.87,76c0,1.12.52,2.4,2,2.4a2,2,0,0,0,2.1-1.09h0a3.5,3.5,0,0,0,.27.87h2a3.39,3.39,0,0,1-.26-1.62v-4.4c0-1.51-.48-2.57-3-2.57-1.6,0-2.9.66-2.9,2.59v.2Z"/><path class="cls-1" d="M237.36,78.13V67h2.21V78.13Z"/><path class="cls-1" d="M241.15,69.76h2v1h0a2.26,2.26,0,0,1,2.1-1.2c1.32,0,2.1.74,2.1,2.38v6.21h-2.12V72.36c0-.84-.27-1.17-.9-1.17s-1.12.45-1.12,1.39v5.55h-2.11Z"/><path class="cls-1" d="M250.36,75.39v.28a1.07,1.07,0,0,0,1.1,1.22,1,1,0,0,0,1.07-1,1,1,0,0,0-.77-1l-1.48-.54a2.31,2.31,0,0,1-1.76-2.34c0-1.38.86-2.52,3-2.52,1.91,0,2.82.88,2.82,2.38v.35h-1.9c0-.85-.25-1.26-.93-1.26a.9.9,0,0,0-1,.9c0,.4.21.74.92,1l1.27.43a2.25,2.25,0,0,1,1.82,2.4c0,1.76-1.29,2.63-3.06,2.63-2.38,0-3-1.06-3-2.66v-.3Z"/><path class="cls-1" d="M256.07,67.37h2.11v2.39h1.23v1.46h-1.23v4.53c0,.65.14.92.75.92.17,0,.34,0,.48,0v1.49c-.46,0-.89.09-1.38.09-1.66,0-2-.51-2-2.21V71.22H255V69.76h1.07Z"/><path class="cls-1" d="M260.22,69.76h2.11v8.37h-2.11Zm0-2.86h2.11v1.83h-2.11Z"/><path class="cls-1" d="M264.28,67.37h2.11v2.39h1.23v1.46h-1.23v4.53c0,.65.14.92.75.92.17,0,.34,0,.48,0v1.49c-.46,0-.89.09-1.38.09-1.66,0-2-.51-2-2.21V71.22h-1.07V69.76h1.07Z"/><path class="cls-1" d="M272.58,77.15h0a2.26,2.26,0,0,1-2.1,1.2c-1.31,0-2.1-.73-2.1-2.38V69.76h2.12v5.77c0,.84.28,1.17.9,1.17s1.12-.45,1.12-1.39V69.76h2.11v8.37h-2Z"/><path class="cls-1" d="M276.47,67.37h2.12v2.39h1.22v1.46h-1.22v4.53c0,.65.14.92.75.92.17,0,.34,0,.47,0v1.49c-.46,0-.88.09-1.38.09-1.65,0-2-.51-2-2.21V71.22H275.4V69.76h1.07Z"/><path class="cls-1" d="M282.36,73v-.33c0-.78.24-1.66,1.08-1.66s1,.71,1.08,2Zm4.18,1.27v-.48c0-2.57-.55-4.25-3-4.25-2.85,0-3.28,2.09-3.28,4.33,0,2.08.13,4.48,3.19,4.48,2,0,2.91-1.09,3-3h-1.9c-.12,1-.42,1.58-1.12,1.58s-1-1-1-2v-.67Z"/><path class="cls-1" d="M293.16,74c0-1.72.09-2.94,1.13-2.94.86,0,1.13.85,1.13,2.94s-.27,2.94-1.13,2.94C293.25,76.89,293.16,75.66,293.16,74ZM291,74c0,2.9.71,4.44,3.25,4.4s3.25-1.54,3.25-4.4-.7-4.45-3.25-4.41S291,71.08,291,74Z"/><path class="cls-1" d="M299.13,71.22h-1.07V69.76h1.07v-.94c0-1.51.85-2,2.21-2,.38,0,.75,0,1.13,0v1.53a2.82,2.82,0,0,0-.41,0c-.6,0-.81.19-.81.67v.73h1.22v1.46h-1.22v6.91h-2.12Z"/><path class="cls-1" d="M308.72,74.66V75c0,1,.29,1.71,1.46,1.71a1.28,1.28,0,0,0,1.32-1.37c0-1-.51-1.38-2-1.9-2-.68-2.86-1.51-2.86-3.36,0-2.16,1.3-3.26,3.39-3.26s3.38.85,3.38,3v.31h-2.11c0-1-.36-1.65-1.2-1.65a1.14,1.14,0,0,0-1.26,1.29c0,.69.2,1.11,1.14,1.52l1.7.74c1.65.73,2.09,1.59,2.09,2.94,0,2.35-1.42,3.41-3.8,3.41s-3.48-1.18-3.48-3.24v-.45Z"/><path class="cls-1" d="M318.8,72.78c0-.81-.15-1.68-.95-1.68-1,0-1.21.93-1.21,2.86s.19,2.93,1.14,2.93c.7,0,1-.61,1-2h2c0,2.2-.91,3.43-3.14,3.43s-3.16-1-3.16-4.4,1.39-4.41,3.34-4.41,3,1.26,3,3.24Z"/><path class="cls-1" d="M322,69.76h2.11v8.37H322Zm0-2.86h2.11v1.83H322Z"/><path class="cls-1" d="M327.41,73v-.33c0-.78.25-1.66,1.09-1.66s1,.71,1.07,2Zm4.19,1.27v-.48c0-2.57-.56-4.25-3-4.25-2.85,0-3.28,2.09-3.28,4.33,0,2.08.12,4.48,3.19,4.48,2,0,2.91-1.09,3-3h-1.9c-.12,1-.41,1.58-1.11,1.58s-1-1-1-2v-.67Z"/><path class="cls-1" d="M332.7,69.76h2v1h0a2.27,2.27,0,0,1,2.1-1.2c1.32,0,2.1.74,2.1,2.38v6.21h-2.12V72.36c0-.84-.27-1.17-.9-1.17s-1.12.45-1.12,1.39v5.55H332.7Z"/><path class="cls-1" d="M344.33,72.78c0-.81-.16-1.68-.95-1.68-1,0-1.21.93-1.21,2.86s.18,2.93,1.13,2.93c.71,0,1-.61,1-2h2c0,2.2-.9,3.43-3.14,3.43s-3.16-1-3.16-4.4,1.4-4.41,3.34-4.41,3,1.26,3,3.24Z"/><path class="cls-1" d="M349.26,73v-.33c0-.78.25-1.66,1.09-1.66s1,.71,1.07,2Zm4.18,1.27v-.48c0-2.57-.55-4.25-3-4.25-2.84,0-3.27,2.09-3.27,4.33,0,2.08.12,4.48,3.18,4.48,2,0,2.91-1.09,3-3h-1.9c-.12,1-.41,1.58-1.12,1.58s-1-1-1-2v-.67Z"/><path class="cls-1" d="M362.07,75.59a1.26,1.26,0,0,1-1.3,1.3c-.57,0-.8-.53-.8-1.17s.33-1.17,1.19-1.35a2.93,2.93,0,0,0,.91-.42Zm-2-3.26V72.1c0-.66.34-1.09,1-1.09s1,.39,1,1-.22.81-.84,1l-1.2.33A2.34,2.34,0,0,0,358,76c0,1.12.52,2.4,2,2.4a2,2,0,0,0,2.1-1.09h0a3.47,3.47,0,0,0,.26.87h2a3.52,3.52,0,0,1-.26-1.62v-4.4c0-1.51-.47-2.57-3-2.57-1.59,0-2.89.66-2.89,2.59v.2Z"/><path class="cls-1" d="M365.59,69.76h2v1h0a2.28,2.28,0,0,1,2.1-1.2c1.32,0,2.1.74,2.1,2.38v6.21h-2.11V72.36c0-.84-.28-1.17-.91-1.17s-1.11.45-1.11,1.39v5.55h-2.12Z"/><path class="cls-1" d="M375.17,74c0-1.82.18-2.76,1.1-2.76s1.12.94,1.12,2.76-.19,2.75-1.12,2.75S375.17,75.76,375.17,74Zm2.31,4.18h2V67h-2.11v3.52h0a2,2,0,0,0-1.78-1c-1.73,0-2.53,1.29-2.53,4.41s.8,4.4,2.53,4.4a2,2,0,0,0,1.87-1.11h0Z"/><path class="cls-1" d="M391.05,67v1.84h-2.39v9.27h-2.2V68.86h-2.39V67Z"/><path class="cls-1" d="M392.62,73v-.33c0-.78.24-1.66,1.08-1.66s1,.71,1.08,2Zm4.18,1.27v-.48c0-2.57-.55-4.25-3-4.25-2.85,0-3.28,2.09-3.28,4.33,0,2.08.13,4.48,3.19,4.48,2,0,2.91-1.09,3-3h-1.9c-.12,1-.42,1.58-1.12,1.58s-1-1-1-2v-.67Z"/><path class="cls-1" d="M401.87,72.78c0-.81-.15-1.68-.95-1.68-1,0-1.21.93-1.21,2.86s.18,2.93,1.13,2.93c.71,0,1-.61,1-2h2c0,2.2-.9,3.43-3.14,3.43s-3.16-1-3.16-4.4,1.4-4.41,3.35-4.41,2.95,1.26,2.95,3.24Z"/><path class="cls-1" d="M405,67h2.11v3.6h0a2.16,2.16,0,0,1,2-1.08c1.32,0,2.1.74,2.1,2.38v6.21h-2.12V72.36c0-.84-.27-1.17-.9-1.17s-1.12.45-1.12,1.39v5.55H405Z"/><path class="cls-1" d="M412.66,69.76h2v1h0a2.26,2.26,0,0,1,2.1-1.2c1.32,0,2.1.74,2.1,2.38v6.21h-2.12V72.36c0-.84-.27-1.17-.9-1.17s-1.12.45-1.12,1.39v5.55h-2.11Z"/><path class="cls-1" d="M422.15,74c0-1.72.1-2.94,1.14-2.94.86,0,1.13.85,1.13,2.94s-.27,2.94-1.13,2.94C422.25,76.89,422.15,75.66,422.15,74ZM420,74c0,2.9.7,4.44,3.25,4.4s3.25-1.54,3.25-4.4-.71-4.45-3.25-4.41S420,71.08,420,74Z"/><path class="cls-1" d="M427.75,67h2.11V78.13h-2.11Z"/><path class="cls-1" d="M433.18,74c0-1.72.1-2.94,1.14-2.94.86,0,1.13.85,1.13,2.94s-.27,2.94-1.13,2.94C433.28,76.89,433.18,75.66,433.18,74Zm-2.11,0c0,2.9.71,4.44,3.25,4.4s3.24-1.54,3.24-4.4-.7-4.45-3.24-4.41S431.07,71.08,431.07,74Z"/><path class="cls-1" d="M440.64,74.21c0-2.26.17-3,1.11-3s1.1.76,1.1,2.8c0,1.42-.26,2.4-1.15,2.4S440.64,75.36,440.64,74.21Zm2.21-4.45v.94h0a1.84,1.84,0,0,0-1.7-1.16c-2.3,0-2.59,2.31-2.59,4.27,0,3.06.84,4.23,2.53,4.23a2.23,2.23,0,0,0,1.76-1h0v1.1c0,.86-.3,1.51-1.16,1.51a1.25,1.25,0,0,1-.71-.23.75.75,0,0,1-.32-.64h-2c0,1.43,1,2.24,2.8,2.24,2.47,0,3.43-1.07,3.43-3.28V69.76Z"/><path class="cls-1" d="M446.51,79.26a2.56,2.56,0,0,0,.55,0c.78,0,1.07-.43,1.14-1.18l-2.32-8.37h2.21l1.22,5.79h0l1.08-5.79h2.11l-2,7.81c-.74,2.89-1.21,3.3-3.17,3.3h-.86Z"/><path class="cls-1" d="M457.16,78.13V67h2.2V78.13Z"/><path class="cls-1" d="M460.94,69.76h2v1h0a2.27,2.27,0,0,1,2.1-1.2c1.32,0,2.1.74,2.1,2.38v6.21h-2.11V72.36c0-.84-.28-1.17-.91-1.17s-1.12.45-1.12,1.39v5.55h-2.11Z"/><path class="cls-1" d="M469.06,71.22H468V69.76h1.07v-.94c0-1.51.84-2,2.21-2,.38,0,.75,0,1.13,0v1.53a2.88,2.88,0,0,0-.41,0c-.6,0-.82.19-.82.67v.73h1.23v1.46h-1.23v6.91h-2.11Z"/><path class="cls-1" d="M475,74c0-1.72.1-2.94,1.14-2.94.86,0,1.13.85,1.13,2.94s-.27,2.94-1.13,2.94C475.07,76.89,475,75.66,475,74Zm-2.11,0c0,2.9.7,4.44,3.25,4.4s3.24-1.54,3.24-4.4-.7-4.45-3.24-4.41S472.86,71.08,472.86,74Z"/><path class="cls-1" d="M480.49,69.76h2v1.12h0a2.14,2.14,0,0,1,1.9-1.34,2.72,2.72,0,0,1,.39,0v2l-.66,0a1.44,1.44,0,0,0-1.57,1.51v5h-2.11Z"/><path class="cls-1" d="M485.59,69.76h2v.86h0a2.36,2.36,0,0,1,2.09-1.08,1.81,1.81,0,0,1,1.9,1.34h0a2.06,2.06,0,0,1,2.08-1.34c1.4,0,2.05.89,2.05,2.51v6.08h-2.11V72.28c0-.7-.23-1.09-.83-1.09s-1.1.47-1.1,1.43v5.51h-2.11V72.28c0-.7-.23-1.09-.83-1.09s-1.1.47-1.1,1.43v5.51h-2.12Z"/><path class="cls-1" d="M501.05,75.59a1.26,1.26,0,0,1-1.3,1.3c-.57,0-.8-.53-.8-1.17s.34-1.17,1.2-1.35a3,3,0,0,0,.9-.42Zm-2-3.26V72.1c0-.66.33-1.09,1-1.09s1,.39,1,1-.21.81-.84,1l-1.2.33A2.34,2.34,0,0,0,496.93,76c0,1.12.52,2.4,2,2.4a2,2,0,0,0,2.1-1.09h0a3.47,3.47,0,0,0,.26.87h2a3.52,3.52,0,0,1-.26-1.62v-4.4c0-1.51-.47-2.57-3-2.57-1.59,0-2.89.66-2.89,2.59v.2Z"/><path class="cls-1" d="M505,67.37h2.11v2.39h1.23v1.46h-1.23v4.53c0,.65.14.92.75.92.17,0,.34,0,.48,0v1.49c-.46,0-.89.09-1.38.09-1.65,0-2-.51-2-2.21V71.22H504V69.76H505Z"/><path class="cls-1" d="M509.18,69.76h2.12v8.37h-2.12Zm0-2.86h2.12v1.83h-2.12Z"/><path class="cls-1" d="M514.62,74c0-1.72.09-2.94,1.14-2.94.85,0,1.13.85,1.13,2.94s-.28,2.94-1.13,2.94C514.71,76.89,514.62,75.66,514.62,74Zm-2.11,0c0,2.9.7,4.44,3.25,4.4S519,76.81,519,74s-.7-4.45-3.24-4.41S512.51,71.08,512.51,74Z"/><path class="cls-1" d="M520.14,69.76h2v1h0a2.26,2.26,0,0,1,2.1-1.2c1.32,0,2.1.74,2.1,2.38v6.21h-2.12V72.36c0-.84-.27-1.17-.9-1.17s-1.12.45-1.12,1.39v5.55h-2.11Z"/><path class="cls-1" d="M371.34,36.43a19.62,19.62,0,0,0,3.47,1.37,11.12,11.12,0,0,0,1.11.24l-1.82,2.71c-.05,0-.58-.14-1.58-.33a22.13,22.13,0,0,1-8.58-3.86,12.7,12.7,0,0,1-1.53-1.45A11.46,11.46,0,0,1,361,36.54a18.64,18.64,0,0,1-5.44,3,16.93,16.93,0,0,1-3.16.95c-1,.18-1.52.29-1.57.31L348.94,38c.07,0,.63-.1,1.64-.39a16.16,16.16,0,0,0,2.84-1.15,12.66,12.66,0,0,0,3.8-2.59,6.84,6.84,0,0,0,1.9-4.44v-1.3h6.63v1.34a6.85,6.85,0,0,0,2.13,4.6A12.49,12.49,0,0,0,371.34,36.43Z"/><path class="cls-1" d="M384.1,37a12.26,12.26,0,0,1-3,3.31A16.47,16.47,0,0,1,379,41.64c-.76.43-1.17.67-1.22.72l1.76,3A29.76,29.76,0,0,0,383,43.65a19.25,19.25,0,0,0,3.87-2.7,14.35,14.35,0,0,0,1.61-1.75A10.45,10.45,0,0,0,390,40.87a21.87,21.87,0,0,0,4.07,2.84,34.33,34.33,0,0,0,3.41,1.67l1.72-3c-.05,0-.48-.25-1.29-.7a15.37,15.37,0,0,1-3.2-2.32,8.88,8.88,0,0,1-2.26-3,12.66,12.66,0,0,1-.75-4.41h5.74V29H379.53v3h5.73A9.72,9.72,0,0,1,384.1,37Z"/><path class="cls-1" d="M213.72,32.56a6.61,6.61,0,0,1,2.08,2.49,7.34,7.34,0,0,1,.85,3.39,7.1,7.1,0,0,1-2.83,5.66,11.42,11.42,0,0,1-13.93,0,7.1,7.1,0,0,1-2.8-5.66,7.36,7.36,0,0,1,.81-3.36A6.79,6.79,0,0,1,200,32.56h-2.91v-3h7v-3h5.66v3h6.85v3Zm-6.84,0a4,4,0,0,0-3.23,1.57,5.76,5.76,0,0,0-1.18,3.64,5.57,5.57,0,0,0,1.28,3.68,4,4,0,0,0,6.3,0,5.49,5.49,0,0,0,1.31-3.68,5.59,5.59,0,0,0-1.21-3.64,4,4,0,0,0-3.24-1.57h0Zm11.83-4.42h5.58v7.35h4.16v3.39h-4.16V50.64h-5.58Zm-16.58,20h5.48v8.5h16.85v3.11H202.13Z"/><path class="cls-1" d="M253.94,28.68V34.9c0,4-1.54,5.6-1.54,5.6H256v3.11H244.67v5.61h9.27V60.67h-5.57V52.32H229.44v-3.1h9.65V43.61H227.68V40.5h19.15a15.16,15.16,0,0,0,.77-4.17V32H229.44V28.68Z"/><path class="cls-1" d="M276.41,38.69c0,6.9-1.3,8.43-1.3,8.43h-5.43a23.34,23.34,0,0,0,1.3-8.33V32.08H257.85V29h18.56ZM266.8,51h11.82V28.17h5.58v14.9h4.13v3.38H284.2V60.68h-5.58V54.09h-21V51h4V39.26h5.18Z"/><path class="cls-1" d="M304.27,32.56a6.63,6.63,0,0,1,2.09,2.49,7.33,7.33,0,0,1,.84,3.39,7.08,7.08,0,0,1-2.83,5.66,11.42,11.42,0,0,1-13.93,0,7.13,7.13,0,0,1-2.8-5.66,7.37,7.37,0,0,1,.82-3.36,6.76,6.76,0,0,1,2.11-2.52h-2.91v-3h7v-3h5.66v3h6.86v3Zm-6.83,0a4,4,0,0,0-3.24,1.57A5.81,5.81,0,0,0,293,37.77a5.56,5.56,0,0,0,1.27,3.68,4,4,0,0,0,6.31,0,5.49,5.49,0,0,0,1.31-3.68,5.64,5.64,0,0,0-1.21-3.64,4,4,0,0,0-3.24-1.57h0Zm11.83-4.42h5.57v7H319V39h-4.16v7.36h-5.57Zm5.57,32.49h-5.57V51.14h-17.2V48h22.77Z"/><path class="cls-1" d="M331.89,32.09H319.55V29h18.37a46.33,46.33,0,0,1-.43,5.7c-1.09,9.88-8.67,16.34-16.94,19.45l-2.2-2.89s13.54-5.19,13.54-17.43Zm8.69-3.92h5.57v32.5h-5.57Z"/><path class="cls-1" d="M348.2,44.94V41.83h28.31v3.11H365.19v2.24h9.28v8H355.72v1.75h19V60H350.25V52h18.64V50.29H350.25V47.18h9.37V44.94Z"/><path class="cls-1" d="M410.18,29h5.58v4.75h13.07V29h5.57V45.6h-9.27v6.07h11.31v3.1h-28.3v-3.1h11.41V45.6h-9.37Zm18.65,7.86H415.76V42.5h13.07Z"/><path class="cls-1" d="M460.88,41.75h-5.66v-.51a9.16,9.16,0,0,1-3.41,2.84,10.32,10.32,0,0,1-4.68,1.09,9.94,9.94,0,0,1-6.93-2.59,8.23,8.23,0,0,1,0-12.47,10,10,0,0,1,6.93-2.56,10.62,10.62,0,0,1,4.61,1,9.56,9.56,0,0,1,3.48,2.83v-.55h5.66V28.14h5.57v22.5h-5.57ZM444,32.68a6.12,6.12,0,0,0,0,7.44,3.91,3.91,0,0,0,6.25,0,5.87,5.87,0,0,0,0-7.44,4,4,0,0,0-6.25,0Zm12.86,2.54a6.38,6.38,0,0,1,.1,1.15,4.78,4.78,0,0,1-.1,1,8,8,0,0,1-.19,1h4.23V34.14h-4.27C456.7,34.52,456.78,34.88,456.84,35.22ZM443.3,48.31h5.47v8.35h17.76v3.11H443.3Z"/><path class="cls-1" d="M494.35,29v8.27c0,4.28-1.54,6.14-1.54,6.14h3.59v3.16H485V60.66h-5.58V46.53H468.07V43.37h19.17a13.45,13.45,0,0,0,1.6-6.14c0-2.33-.06-5.17-.06-5.17H469.85V29Z"/><polygon class="cls-1" points="396.71 37.74 400.95 37.74 400.95 46.34 406.52 46.34 406.52 28.17 400.95 28.17 400.95 34.63 396.71 34.63 396.71 37.74"/><path class="cls-1" d="M403.76,48.09q-3.18-2.43-8.74-2.43t-8.81,2.43a6.7,6.7,0,0,0-2.83,5.47,6.51,6.51,0,0,0,2.83,5.36q3.21,2.47,8.81,2.47t8.74-2.47a6.46,6.46,0,0,0,2.9-5.36A6.65,6.65,0,0,0,403.76,48.09Zm-4.41,8.73a7,7,0,0,1-8.69,0,4.34,4.34,0,0,1-1.46-3.26,4.43,4.43,0,0,1,1.46-3.33A6.22,6.22,0,0,1,395,48.71a6.11,6.11,0,0,1,4.33,1.52,4.32,4.32,0,0,1,1.52,3.33A4.24,4.24,0,0,1,399.35,56.82Z"/><polygon class="cls-1" points="520.82 53.84 526.39 53.84 526.39 28.16 520.82 28.16 520.82 46.97 515.44 46.97 515.44 50.08 520.82 50.08 520.82 53.84"/><polygon class="cls-1" points="508.32 56.66 508.32 51.39 502.85 51.39 502.85 59.77 526.89 59.77 526.89 56.66 508.32 56.66"/><path class="cls-1" d="M500.52,39A12.54,12.54,0,0,0,508,41a12.87,12.87,0,0,0,7-1.74,6,6,0,0,0,3-4.09A4.24,4.24,0,0,0,518,33a5.83,5.83,0,0,0-.86-1.8,8.26,8.26,0,0,0-3.43-2.67,14.55,14.55,0,0,0-5.66-1,12.49,12.49,0,0,0-7.48,2,5.8,5.8,0,0,0-2.57,4.8A5.54,5.54,0,0,0,500.52,39Zm4-7.31A5.4,5.4,0,0,1,508,30.6a5.32,5.32,0,0,1,3.45,1.12,3.31,3.31,0,0,1,1.37,2.66,3.2,3.2,0,0,1-1.37,2.54A5.26,5.26,0,0,1,508,38.09a5.34,5.34,0,0,1-3.48-1.17,3.24,3.24,0,0,1-1.33-2.54A3.36,3.36,0,0,1,504.51,31.72Z"/><polygon class="cls-1" points="505.39 50.05 510.78 50.05 510.78 45.14 518.97 45.14 518.97 42.03 498.5 42.03 498.5 45.14 505.39 45.14 505.39 50.05"/><path class="cls-2" d="M87.81,78.13H74.9V44.66H87.81Z"/><path class="cls-2" d="M145.77,40.81V78.13h-13V40.81H122.62V28.16H155.9V40.81Z"/><path class="cls-2" d="M173.29,78.13H160.38V44.66h12.91Z"/><path class="cls-2" d="M89.48,34.32a8.18,8.18,0,1,1-8.18-8.17A8.18,8.18,0,0,1,89.48,34.32Z"/><path class="cls-3" d="M75.46,87.22c25.76-10.3,50.05-24,50.05-34.27,0-5.17-3.37-8.23-12-9.29-5.61-.7-12-.11-10.88-5.17s13.67-9.51,20-10.33V18c-16.92,5.8-32.1,13.32-32.1,24.27,0,5.26,3.14,10.75,12,11.55,8.55.76,10.35,3.11,10.35,6.37C112.9,66.61,96.87,76.92,75.46,87.22Z"/><path class="cls-2" d="M174.89,34.32a8.18,8.18,0,1,1-8.18-8.17A8.18,8.18,0,0,1,174.89,34.32Z"/><path class="cls-2" d="M9.72,95.7C4.51,86.22,28.3,65,28.3,65,5.77,81.46-2.85,94.32.82,100.52c4.25,7.2,29.71,6.16,68.18-10.68C38.08,101.87,13.55,102.67,9.72,95.7Z"/><path class="cls-2" d="M185.8,5.1C179-6.11,141.56,1.1,91,27.29,133.73,7.85,171.7-.23,179,9.87c2.39,3.32,1.51,9.84-4.09,18C179.72,23.2,189.27,10.78,185.8,5.1Z"/><path class="cls-2" d="M31.91,78.13v-50H44.82V50.38L55.66,28.16H70.6L58.46,50.93l12.42,27.2H56.51L44.82,51.5V78.13Z"/><path class="cls-1" d="M82.13,88.66h2.09l1,5.79h0l1-5.79H88.5l1.07,5.79h0l1-5.79h2l-1.76,8.16H88.45L87.38,91h0l-1,5.79H83.9Z"/><path class="cls-1" d="M92.8,88.66h2.1l.95,5.79h0l1-5.79h2.27l1.08,5.79h0l1-5.79h2l-1.75,8.16H99.12L98.05,91h0l-1,5.79H94.58Z"/><path class="cls-1" d="M103.48,88.66h2.09l1,5.79h0l1-5.79h2.27l1.08,5.79h0l1-5.79h2l-1.75,8.16H109.8L108.72,91h0l-1,5.79h-2.42Z"/><path class="cls-1" d="M116.3,94.45v2.37h-2V94.45Z"/><path class="cls-1" d="M120,86v5.71h0l2.1-3h2.31l-2.35,3.22,2.7,4.94h-2.31l-1.74-3.35-.74,1v2.38H117.9V86Z"/><path class="cls-1" d="M125.47,88.66h2.1v8.16h-2.1Zm0-2.79h2.1v1.79h-2.1Z"/><path class="cls-1" d="M130.57,94.15v.27a1,1,0,0,0,1.09,1.19c.64,0,1.06-.32,1.06-1a1,1,0,0,0-.76-.93l-1.47-.53a2.25,2.25,0,0,1-1.74-2.27c0-1.35.85-2.46,3-2.46,1.9,0,2.79.85,2.79,2.32v.33h-1.88c0-.81-.24-1.22-.92-1.22a.89.89,0,0,0-1,.88c0,.39.21.72.91.95l1.26.42a2.18,2.18,0,0,1,1.8,2.34c0,1.71-1.27,2.56-3,2.56-2.35,0-3-1-3-2.59v-.29Z"/><path class="cls-1" d="M136.22,86.33h2.09v2.33h1.22v1.43h-1.22V94.5c0,.64.14.89.75.89l.47,0v1.45a12.12,12.12,0,0,1-1.37.09c-1.63,0-1.94-.5-1.94-2.15V90.09h-1.06V88.66h1.06Z"/><path class="cls-1" d="M140.33,88.66h2.09v8.16h-2.09Zm0-2.79h2.09v1.79h-2.09Z"/><path class="cls-1" d="M146,94.45v2.37h-2V94.45Z"/><path class="cls-1" d="M147.53,88.66h2v1.1h0a2.12,2.12,0,0,1,1.88-1.31l.38,0v2l-.65,0a1.41,1.41,0,0,0-1.55,1.47v4.9h-2.09Z"/><path class="cls-1" d="M154.37,91.82V91.5c0-.76.24-1.62,1.07-1.62s1,.69,1.06,1.94Zm4.14,1.24v-.47c0-2.5-.55-4.14-3-4.14-2.82,0-3.25,2-3.25,4.22,0,2,.13,4.36,3.16,4.36,2,0,2.88-1.06,2.95-3H156.5c-.12,1-.4,1.53-1.1,1.53s-1-.94-1-1.9v-.65Z"/><path class="cls-1" d="M161.72,94.45v2.37h-2V94.45Z"/><path class="cls-1" d="M165.4,86v5.71h0l2.11-3h2.31l-2.35,3.22,2.69,4.94h-2.3l-1.74-3.35-.75,1v2.38h-2.09V86Z"/><path class="cls-1" d="M170.81,88.66h2v1.1h0a2.1,2.1,0,0,1,1.88-1.31l.38,0v2c-.22,0-.44,0-.66,0a1.41,1.41,0,0,0-1.54,1.47v4.9h-2.1Z"/></g></g></svg>