<svg xmlns="http://www.w3.org/2000/svg" viewBox="0 0 127.07 36.06"><defs><style>.cls-1{fill:none;}.cls-2{fill:#92858b;}.cls-3{fill:#7fbe26;}.cls-4{fill:#004a9f;}.cls-5{fill:#fff;}</style></defs><title>자산 10</title><g id="레이어_2" data-name="레이어 2"><g id="Layer_1" data-name="Layer 1"><path class="cls-1" d="M18,13.42A6.64,6.64,0,0,0,13.42,18,6.68,6.68,0,0,0,18,22.65a6.63,6.63,0,0,0,2.91-1.71A6.46,6.46,0,0,0,22.64,18,6.64,6.64,0,0,0,18,13.42Z"/><path class="cls-2" d="M22.74,11.36a6.59,6.59,0,0,1-3.44,1.83,6.42,6.42,0,0,1-.75.1l-.52.13A6.64,6.64,0,0,1,22.64,18a4.94,4.94,0,0,0,.13-.52,6.42,6.42,0,0,1,.1-.75,6.53,6.53,0,0,1,1.83-3.43A6.64,6.64,0,0,1,30,11.4h0a6.74,6.74,0,0,1-3.44-1.83,6.68,6.68,0,0,1-1.83-3.42A6.63,6.63,0,0,1,22.74,11.36Z"/><path class="cls-3" d="M6.08,24.66l-.18,0Z"/><path class="cls-3" d="M24.66,6.15c0-.1,0-.2,0-.3l0,.29Z"/><path class="cls-3" d="M24.66,6.15h0l0-.29c0-.12,0-.24-.05-.36s0-.07,0-.11l0-.13-.09-.4-.08-.23c0-.11-.07-.22-.11-.33l-.09-.22C24.1,3.93,24,3.8,24,3.66l-.09-.17c-.08-.14-.16-.29-.25-.42a1.74,1.74,0,0,1-.11-.18l-.25-.33-.12-.15c-.13-.16-.27-.31-.41-.46a6.66,6.66,0,0,0-9.42,0c-.14.14-.27.29-.4.44l-.15.19-.21.29-.14.2c-.09.15-.18.29-.26.44l-.06.11c-.07.16-.15.31-.21.47l-.07.16c-.05.14-.1.28-.14.41l0,.17c0,.15-.08.29-.11.44a.52.52,0,0,0,0,.11l0,.08c0,.16-.05.32-.07.48s0,.1,0,.15a.09.09,0,0,1,0,0A6.6,6.6,0,0,1,9.56,9.57,6.67,6.67,0,0,1,6.13,11.4h0a6.67,6.67,0,0,1,7.08,5.36,6.42,6.42,0,0,1,.1.75c0,.17.08.35.13.52A6.64,6.64,0,0,1,18,13.42l.52-.13a6.42,6.42,0,0,0,.75-.1,6.64,6.64,0,0,0,5.36-7Z"/><path class="cls-2" d="M12.4,33a2.53,2.53,0,0,0-.13-.22A2.53,2.53,0,0,1,12.4,33Z"/><path class="cls-2" d="M13.32,34.11a5,5,0,0,1-.38-.42A5,5,0,0,0,13.32,34.11Z"/><path class="cls-2" d="M11.62,31.21c0-.11-.06-.23-.08-.34C11.56,31,11.59,31.1,11.62,31.21Z"/><path class="cls-2" d="M11.48,30.57a3,3,0,0,1-.06-.43A3.18,3.18,0,0,0,11.48,30.57Z"/><path class="cls-2" d="M11.81,31.76l-.12-.32Z"/><path class="cls-2" d="M12,32.3c0-.1-.1-.2-.14-.3C11.94,32.1,12,32.2,12,32.3Z"/><path class="cls-2" d="M12.75,33.45a1.77,1.77,0,0,1-.16-.22A1.77,1.77,0,0,0,12.75,33.45Z"/><path class="cls-2" d="M5.9,11.42l.21,0Z"/><path class="cls-2" d="M15.12,20.94A6.52,6.52,0,0,1,13.42,18c-.05-.17-.09-.35-.13-.52a6.42,6.42,0,0,0-.1-.75A6.67,6.67,0,0,0,6.11,11.4l-.21,0a5.06,5.06,0,0,0-.52.08,4,4,0,0,0-.57.14l-.14,0a3.66,3.66,0,0,0-.43.15l-.14.06A6.27,6.27,0,0,0,3,12.44l-.13.09-.37.27-.14.11a5.89,5.89,0,0,0-.45.42,6.65,6.65,0,0,0,0,9.41c.14.14.29.27.44.4l.17.14.32.23.18.13.42.24.16.08a3.55,3.55,0,0,0,.44.21l.19.07.38.14.17.05.56.14.52.07.18,0h0a6.64,6.64,0,0,1,5.26,5.26,0,0,0,0,1,0,0,6.62,6.62,0,0,1,6.11-7.19l.52-.12A6.58,6.58,0,0,1,15.12,20.94Z"/><path class="cls-4" d="M12.94,33.69l-.19-.24Z"/><path class="cls-4" d="M12.59,33.23,12.4,33Z"/><path class="cls-4" d="M30,11.4l.2,0Z"/><path class="cls-4" d="M11.9,32l-.09-.24Z"/><path class="cls-4" d="M11.69,31.44c0-.07,0-.15-.07-.23C11.65,31.29,11.67,31.37,11.69,31.44Z"/><path class="cls-4" d="M11.42,30.14a1.1,1.1,0,0,1,0-.18A1.1,1.1,0,0,0,11.42,30.14Z"/><path class="cls-4" d="M12.27,32.74c-.08-.15-.16-.29-.23-.44C12.11,32.45,12.19,32.59,12.27,32.74Z"/><path class="cls-4" d="M11.48,30.57l.06.3a1.62,1.62,0,0,1,0-.19A.43.43,0,0,1,11.48,30.57Z"/><path class="cls-4" d="M34.11,13.33a6.17,6.17,0,0,0-.46-.43l-.11-.08-.42-.31L33,12.45a6.8,6.8,0,0,0-1.1-.58l-.06,0-.53-.19-.07,0a5.63,5.63,0,0,0-.59-.14,4.85,4.85,0,0,0-.53-.08l-.2,0a6.64,6.64,0,0,0-5.25,1.93,6.53,6.53,0,0,0-1.83,3.43,6.42,6.42,0,0,0-.1.75,4.94,4.94,0,0,1-.13.52,6.46,6.46,0,0,1-1.7,2.91A6.63,6.63,0,0,1,18,22.65l-.52.12A6.65,6.65,0,0,0,11.4,30a1.1,1.1,0,0,0,0,.18,3,3,0,0,0,.06.43.43.43,0,0,0,0,.11,1.62,1.62,0,0,0,0,.19c0,.11.05.23.08.34s.05.16.07.23l.12.32.09.24c0,.1.09.2.14.3s.15.29.23.44a2.53,2.53,0,0,1,.13.22l.19.27a1.77,1.77,0,0,0,.16.22l.19.24a5,5,0,0,0,.38.42,6.66,6.66,0,0,0,9.42,0,4.09,4.09,0,0,0,.39-.44c.06-.06.11-.13.17-.2l.18-.26.17-.24c.05-.08.1-.16.14-.24s.18-.32.25-.48a2.4,2.4,0,0,0,.11-.23l.12-.29c0-.08.05-.17.08-.25l.09-.29c0-.1,0-.21.08-.31s0-.13,0-.2a.5.5,0,0,0,0-.12l.06-.39a1.36,1.36,0,0,0,0-.2v0a6.74,6.74,0,0,1,1.83-3.44,6.65,6.65,0,0,1,3.44-1.82H30l.17,0,.53-.07.57-.14.13,0,.43-.15.16-.07a4.52,4.52,0,0,0,.5-.23l.05,0,.48-.29.17-.11.34-.25.15-.12c.15-.13.31-.27.45-.41A6.65,6.65,0,0,0,34.11,13.33Z"/><path class="cls-5" d="M31.25,16.19a2.61,2.61,0,1,1-3.7,0A2.61,2.61,0,0,1,31.25,16.19Z"/><path class="cls-4" d="M44.41,2.77h4.17V9.15h0l4.72-6.38h5l-5.79,7.29,6.24,8.37H53.49l-4.87-7.12h0v7.12H44.41Z"/><path class="cls-4" d="M61.82,2.77H66V18.43H61.82Z"/><path class="cls-4" d="M72.82,5.86H69V2.77H80.84V5.86H77V18.43H72.82Z"/><path class="cls-4" d="M83.5,2.77h11v3H87.67V9h6.48v3H87.67v3.54h7.11v3H83.5Z"/><path class="cls-4" d="M110.88,18.07a17.47,17.47,0,0,1-4.65.63c-4.17,0-9-2.11-9-8,0-5.45,3.81-8.17,9-8.17a16.21,16.21,0,0,1,4.65.81l-.34,3.38a8.17,8.17,0,0,0-4.08-1.1,4.76,4.76,0,0,0-4.88,5.08c0,3.07,2.17,4.93,5.22,4.93a10.94,10.94,0,0,0,3.9-.81Z"/><path class="cls-4" d="M113.79,2.77H118v6h4.93v-6h4.17V18.43H122.9V11.72H118v6.71h-4.18Z"/><path class="cls-2" d="M51.69,24.11H50.32v7.72H46.08V29.66H44.74v2.45a.88.88,0,0,0,.17.63.78.78,0,0,0,.53.16h6.24V27.63h1.4v-1.1H51.69Z"/><polygon class="cls-2" points="61.39 24.11 54.47 24.11 54.47 25.19 60.05 25.19 60.05 27.02 54.17 27.02 54.17 28.11 57.24 28.11 57.24 29.43 54.47 29.43 54.47 30.49 60.05 30.49 60.05 32.93 61.39 32.93 61.39 29.43 58.6 29.43 58.6 28.11 61.84 28.11 61.84 27.02 61.39 27.02 61.39 24.11"/><path class="cls-2" d="M75.06,27.2a2.79,2.79,0,0,0,1.16,1.15,4,4,0,0,0,1.71.49V27.75a2.67,2.67,0,0,1-1.85-1.28,4.71,4.71,0,0,1-.34-2.37H74.3A4.89,4.89,0,0,1,74,26.45a2.69,2.69,0,0,1-1.82,1.3v1.09a4.08,4.08,0,0,0,1.64-.47A3.16,3.16,0,0,0,75.06,27.2Z"/><path class="cls-2" d="M79.8,24.1H78.47v7.7H74.12V29.68H72.78v2.43a1,1,0,0,0,.19.63.79.79,0,0,0,.52.15H79.8V27.15H81V26H79.8Z"/><rect class="cls-2" x="88.16" y="24.1" width="1.32" height="8.92"/><path class="cls-2" d="M82.23,25.4h3.6A5.57,5.57,0,0,1,85,28.68,3.78,3.78,0,0,1,82.1,30.1v1.24a5.17,5.17,0,0,0,3.29-1.18,6.15,6.15,0,0,0,1.78-4.85v-1H82.23Z"/><path class="cls-2" d="M91.34,28.22h3.29v.7H91.72v1h5.84v.49H91.72v1.85a.86.86,0,0,0,.18.61.7.7,0,0,0,.52.16H98.9V31.93H93.07v-.59H98.9V28.92H96v-.7h3.34v-1.1h-8Z"/><path class="cls-2" d="M107.26,24.88h-1.55a1.43,1.43,0,0,0-.32-.33,2.84,2.84,0,0,0-1.9-.7,3,3,0,0,0-1.93.7,2.42,2.42,0,0,0-.87,1.89,2.39,2.39,0,0,0,.87,1.86,2.92,2.92,0,0,0,1.93.7,2.79,2.79,0,0,0,1.9-.7,2.16,2.16,0,0,0,.27-.25h1.6v3.73h-4.45V29.66h-1.32v2.45a.86.86,0,0,0,.19.63.75.75,0,0,0,.52.15h6.41V24.1h-1.35Zm-2.81,2.61a1.31,1.31,0,0,1-1,.42,1.42,1.42,0,0,1-1-.42,1.38,1.38,0,0,1-.45-1,1.46,1.46,0,0,1,.45-1.08,1.34,1.34,0,0,1,1-.41,1.23,1.23,0,0,1,1,.41,1.41,1.41,0,0,1,.44,1.08A1.36,1.36,0,0,1,104.45,27.49Zm2.81-.52h-1.05a1.88,1.88,0,0,0,.06-.53,3.44,3.44,0,0,0,0-.46h1Z"/><polygon class="cls-2" points="117.59 24.11 110.82 24.11 110.82 25.18 116.24 25.18 116.24 28.07 110.3 28.07 110.3 29.17 113.5 29.17 113.5 32.97 114.84 32.97 114.84 29.17 118.02 29.17 118.02 28.07 117.59 28.07 117.59 24.11"/><path class="cls-2" d="M69.72,25.68h-.78V24.1H67.71v3.14A2,2,0,0,1,66.3,26a3.9,3.9,0,0,1-.23-1.85H64.69v.48a2.51,2.51,0,0,1-.43,1.62c-.66,1-1.25,1-1.25,1v1.11a3,3,0,0,0,2.35-1.57A3,3,0,0,0,66.67,28a2.78,2.78,0,0,0-2,2.6,3,3,0,0,0,5.94,0,2.77,2.77,0,0,0-1.69-2.49V26.76h.78v1.58h1.21V24.1H69.72Zm-2.06,6.57a1.61,1.61,0,1,1,1.63-1.61A1.61,1.61,0,0,1,67.66,32.25Z"/><path class="cls-2" d="M95.31,25.59a3.24,3.24,0,0,0,1.71.84,10.42,10.42,0,0,0,1.88.19V25.51a4.78,4.78,0,0,1-1.85-.31,1.38,1.38,0,0,1-1-1.28h0v-.2H94.6v.2a1.43,1.43,0,0,1-1.1,1.28,4.51,4.51,0,0,1-1.79.3v1.12a9.8,9.8,0,0,0,1.84-.19A3.43,3.43,0,0,0,95.31,25.59Z"/><path class="cls-2" d="M44.31,27.12a2.65,2.65,0,0,0,5.25,0,2.16,2.16,0,0,0-.71-1.58h1v-1.1H47.6v-.78H46.25v.78H44v1.1H45A2.13,2.13,0,0,0,44.31,27.12Zm2.63,1.34a1.34,1.34,0,1,1,1.33-1.34A1.35,1.35,0,0,1,46.94,28.46Z"/><path class="cls-2" d="M125.71,24.1v3.64H124A2.14,2.14,0,0,0,125,26a2.57,2.57,0,0,0-5.09,0,2.12,2.12,0,0,0,1,1.79h-1.58v1.1h2.83v2.09h1.34V28.84h2.19v1h-1.14v1.09h1.14v.85h-4.43V29.37h-1.36v2.74a.82.82,0,0,0,.2.63.77.77,0,0,0,.52.15h6.41V24.1Zm-3.25.57a1.29,1.29,0,0,1,0,2.58,1.29,1.29,0,0,1,0-2.58Z"/></g></g></svg>