<svg id="Layer_1" data-name="Layer 1" xmlns="http://www.w3.org/2000/svg" viewBox="0 0 567.44 249.96"><defs><style>.cls-1{fill:#6b6b6b;}.cls-2{fill:#a50034;}.cls-3{fill:#fff;}</style></defs><title>Artboard 10</title><polygon class="cls-1" points="343.18 43.5 305.85 43.5 305.85 205.09 420.52 205.09 420.52 173.62 343.18 173.62 343.18 43.5"/><path class="cls-1" d="M502.64,143.5H533v28.25c-5.59,2.14-16.51,4.28-26.91,4.28-33.61,0-44.81-17.08-44.81-51.74,0-33.06,10.66-52.53,44.26-52.53,18.68,0,29.33,5.87,38.13,17.07L566.91,67.5C552.77,47.24,528,41.1,504.77,41.1,452.51,41.1,425,69.63,425,124c0,54.14,24.8,83.47,79.46,83.47,25.07,0,49.61-6.4,62.94-15.73V113.37h-64.8Z"/><path class="cls-2" d="M125,250A125,125,0,1,0,0,125,125,125,0,0,0,125,250"/><polygon class="cls-3" points="120.03 70.12 120.03 179.68 154.85 179.68 154.85 169.91 129.96 169.91 129.96 70.12 120.03 70.12"/><path class="cls-3" d="M85.09,100a15,15,0,1,0-15-15,15,15,0,0,0,15,15"/><path class="cls-3" d="M130,20.4c-1.26,0-3.76-.09-5-.09A104.64,104.64,0,1,0,229.58,124.94v-4.77l-4.18,0H154.91v9.72h64.74v1.4A94.83,94.83,0,1,1,125,30.09c1.15,0,3.83,0,5,.06Z"/></svg>