<?xml version="1.0" encoding="utf-8"?>
<!-- Generator: Adobe Illustrator 24.0.1, SVG Export Plug-In . SVG Version: 6.00 Build 0)  -->
<svg version="1.1" id="layer" xmlns="http://www.w3.org/2000/svg" xmlns:xlink="http://www.w3.org/1999/xlink" x="0px" y="0px"
	 viewBox="0 0 599.9 130.6" style="enable-background:new 0 0 599.9 130.6;" xml:space="preserve">
<style type="text/css">
	.st0{fill:#E50012;}
	.st1{fill:#0055A1;}
</style>
<g>
	<path class="st0" d="M131,69.9c-0.1,1-0.1,2.1-0.1,3.2v26.8h-24.5V70L131,69.9z M106.4,65.2V33.4H130v9h0.3
		c4.5-8.2,12.3-10.4,21.5-10.4h3v23.2c-1.7-1.8-4.8-2.2-8.4-2.2c-8.6,0-13,4.9-14.6,12.2C131.8,65.2,106.4,65.2,106.4,65.2z"/>
	<path class="st0" d="M185.8,13.6c0,7.3-6,13.2-13.2,13.2c-7.3,0-13.2-6-13.2-13.2c0-7.3,6-13.2,13.2-13.2S185.8,6.4,185.8,13.6
		 M184.7,99.9h-23.9v-30h23.9V99.9z M160.8,33.4h23.9v31.8h-23.9V33.4z"/>
	<path class="st0" d="M295.9,13.6c0,7.3-6,13.2-13.2,13.2c-7.3,0-13.2-6-13.2-13.2c0-7.3,6-13.2,13.2-13.2
		C290,0.4,295.9,6.4,295.9,13.6 M294.8,69.9v30h-23.9v-30H294.8z M270.9,33.4h23.9v31.8h-23.9V33.4z"/>
	<path class="st0" d="M264.1,69.9v26.8c0,21.6-13.6,33.9-35.4,33.9c-15.8,0-35.5-5.9-37.8-25.4h26.4c-0.2,2.9,2,5.5,4.1,6.5
		s4.9,1.7,7.1,1.7c12.3,0,12.1-8.4,12.1-18.2V93c-6.1,6.1-12.3,6.9-21.1,6.9c-18.3,0-30.4-15.2-31.8-30H213
		c1.7,6.6,7.6,11.2,13.2,11.2c8.1,0,13.4-4.7,14.8-11.2L264.1,69.9z M241.3,65.2c-0.4-7.7-5.9-14-15.1-14c-9.2,0-13.3,6.3-13.7,14
		h-24.9c0.6-21.2,11-34.5,33.2-34.5c7.8,0,15.3,2.4,20,9h0.3v-6.2h23.1v31.8L241.3,65.2L241.3,65.2z"/>
	<path class="st0" d="M326.5,99.9H301v-30h25.5V99.9z M371.1,99.9h-25.5v-30h25.5V99.9z M345.7,65.2c0.3-5.5,0.7-14.8-8.8-14.8
		c-5.4,0-10.3,3.5-10.4,14.8H301V33.4l23.9,0.1V42l-0.1-0.1c5.4-8,12-10.7,21.2-10.7c17.9,0,25,11.3,25,27.6v6.4H345.7z"/>
	<path class="st1" d="M404.2,69.9v6.6h29.7v23.4h-57.7v-30H404.2z M376.2,0.3h28.1v64.9h-28.1V0.3z"/>
	<path class="st1" d="M506.9,69.9v30h-24.1v-7.4h-0.3c-4.1,6.6-11.8,9.6-19.6,9.6c-19.4,0-31.6-12.9-32.9-32.2h24.9
		c1,6.9,5.5,11.7,13.9,11.7c8.3,0,13.6-4.9,14.9-11.7C483.7,69.9,506.9,69.9,506.9,69.9z M484.1,65.2c-0.6-7.5-6.1-13.5-15.1-13.5
		c-8.9,0-13.4,6.1-14.1,13.5H430c0.5-20.3,12.2-34.3,32.3-34.3c7.6,0,16,3.2,20.5,9v-6.5h24.1v31.8H484.1z"/>
	<path class="st1" d="M588.2,69.9c-1.3,17.7-13.5,32.2-32.2,32.2c-7.8,0-15.8-3-20.1-9.6h-0.3v7.4H512v-30h23.1
		c1.2,6.8,6.5,11.7,14.9,11.7c8.3,0,12.2-4.9,13.1-11.7C563.1,69.9,588.2,69.9,588.2,69.9z M563.3,65.2c-0.4-7.5-4.2-13.5-13.2-13.5
		s-14.4,6-15.1,13.5h-22.9V0h23.6v39.9c5-5.8,13-8.7,20.6-8.7c19.2,0,31.4,15.5,32,34H563.3L563.3,65.2z"/>
	<path class="st0" d="M101,69.9c-6.3,19.3-23.1,32.9-49.1,32.9C18.1,102.8,0,79.8,0,51.5C0,28.4,12.1,8.8,34.9,2.4v67.5
		C34.9,69.9,101,69.9,101,69.9z"/>
	<path class="st0" d="M102.3,65.2c1-4.4,1.5-9,1.5-13.7c0-28.3-18.2-51.3-51.9-51.3c-4.4,0-8.4,0.4-12.3,1.1v63.9H102.3z"/>
	<path class="st1" d="M591,18.5c4.9,0,8.9,4,8.9,8.9s-4,8.9-8.9,8.9s-8.9-4-8.9-8.9S586.1,18.5,591,18.5 M591.1,35
		c4.1,0,7.2-3.3,7.2-7.6s-3.1-7.6-7.2-7.6s-7.2,3.3-7.2,7.6C583.8,31.7,586.9,35,591.1,35 M587.6,22.2h4c2.4,0,3.6,1,3.6,2.9
		c0,1.7-1.1,2.9-2.7,2.9l3,4.6h-1.8l-2.9-4.6h-1.5v4.6h-1.7V22.2z M589.3,26.7h2c1.3,0,2.1-0.3,2.1-1.6c0-1.2-1.1-1.5-2.1-1.5h-2
		V26.7z"/>
</g>
</svg>
