<svg id="Layer_1" data-name="Layer 1" xmlns="http://www.w3.org/2000/svg" viewBox="0 0 544.76 82.59"><defs><style>.cls-1{fill:#1428a0;}</style></defs><title>Artboard 10</title><path class="cls-1" d="M20.7,22.12A9.63,9.63,0,0,1,20.62,18c.53-2.48,2.22-5.25,7.13-5.25,4.55,0,7.24,2.83,7.24,7.07v4.82H54.41V19.2C54.41,2.26,39.14-.44,28.13-.44,14.29-.44,3,4.15.92,16.87a27,27,0,0,0,.16,10.5C4.45,43.29,32.13,47.89,36.15,58a10,10,0,0,1,.16,5.75C35.67,66.33,33.91,69,28.7,69c-4.87,0-7.78-2.84-7.78-7.09l0-7.5H0v6C0,77.76,13.67,83,28.31,83c14.07,0,25.63-4.8,27.51-17.83a38.54,38.54,0,0,0-.08-12.75C52.45,36.07,22.92,31.23,20.7,22.12ZM274,22.31a10.55,10.55,0,0,1-.06-4c.55-2.49,2.23-5.21,7-5.21,4.5,0,7.14,2.8,7.14,7v4.76h19.2V19.42C307.3,2.64,292.25,0,281.36,0c-13.72,0-24.92,4.52-27,17.15a25.86,25.86,0,0,0,.18,10.38c3.34,15.74,30.74,20.31,34.72,30.26a10.64,10.64,0,0,1,.15,5.71c-.6,2.59-2.34,5.2-7.51,5.2-4.85,0-7.76-2.79-7.76-7V54.24H253.5v5.94c0,17.21,13.49,22.41,28,22.41,13.91,0,25.4-4.76,27.24-17.64a37.71,37.71,0,0,0-.14-12.63C305.39,36.18,276.18,31.32,274,22.31ZM450.81,64.74,432.47,2h-28.9V79.11h19.12L421.58,14.4l19.69,64.71H469V2H449.75ZM83.38,2,69,79.92H90l10.87-72.1,10.61,72.1h20.89L118,2ZM201,2l-9.83,60.88L181.36,2H149.59l-1.68,77.88h19.46l.53-72.1,13.39,72.1H201l13.4-72.1.53,72.1h19.51L232.74,2ZM382,2h-19.7V59.65a14,14,0,0,1-.17,3c-.41,1.94-2.05,5.66-7.49,5.66s-7-3.72-7.42-5.66a12.69,12.69,0,0,1-.2-3V2H327.31V57.87c0,1.43.09,4.37.17,5.14,1.36,14.55,12.83,19.27,27.14,19.27S380.43,77.56,381.81,63a41.3,41.3,0,0,0,.17-5.14ZM517.21,36.21V47.56h8V58.83a14.06,14.06,0,0,1-.2,3c-.32,2.11-2.31,5.68-8,5.68s-7.59-3.57-7.93-5.68a18.41,18.41,0,0,1-.21-3V23.24a15.74,15.74,0,0,1,.36-3.68c.38-1.9,2.06-5.64,7.74-5.64,6,0,7.44,4,7.78,5.64a19.88,19.88,0,0,1,.24,3v4.32H544.6V24.33a45.9,45.9,0,0,0-.15-5.15C543,4.57,530.94,0,517.14,0S491.52,4.61,489.8,19.18c-.15,1.33-.39,3.72-.39,5.15V57.07a45.51,45.51,0,0,0,.31,5.14c1.28,14.2,13.59,19.24,27.37,19.24s26.08-5,27.38-19.24c.23-2.61.26-3.71.29-5.14V36.21Z"/></svg>