<svg xmlns="http://www.w3.org/2000/svg" viewBox="0 0 795.83 259.07"><defs><style>.cls-1{fill:#1d2088;}.cls-2{fill:#231815;}.cls-3{fill:#fff;}.cls-4{fill:#ad0050;}.cls-5{fill:none;}.cls-6{fill:#c5b683;}</style></defs><title>자산 10</title><g id="레이어_2" data-name="레이어 2"><polygon class="cls-1" points="327.61 72.25 312.46 98.97 299.89 98.97 322.23 59.68 333 59.68 355.33 98.97 342.57 98.97 327.61 72.25"/><path class="cls-1" d="M342,108.18a22.74,22.74,0,0,1,16.41-6.62,22.41,22.41,0,0,1,16.3,6.62,21.53,21.53,0,0,1,6.72,15.91,21,21,0,0,1-6.72,15.62,22.6,22.6,0,0,1-16.3,6.52A22.94,22.94,0,0,1,342,139.71a20.87,20.87,0,0,1-6.83-15.62A21.38,21.38,0,0,1,342,108.18Zm8.71,7.56a12,12,0,0,0,0,16.31,10.19,10.19,0,0,0,7.79,3.41,9.69,9.69,0,0,0,7.49-3.41,12.34,12.34,0,0,0,0-16.31,9.69,9.69,0,0,0-7.49-3.41A10.19,10.19,0,0,0,350.73,115.74Z"/><polygon class="cls-1" points="375.07 70.25 375.07 59.68 387.44 59.68 387.44 98.97 375.07 98.97 375.07 81.02 359.92 81.02 359.92 70.25 375.07 70.25"/><polygon class="cls-1" points="439.83 111.33 402.34 111.33 402.34 100.56 489.69 100.56 489.69 111.33 452.2 111.33 452.2 122.1 439.83 122.1 439.83 111.33"/><polygon class="cls-1" points="416.74 131.07 487.34 131.07 487.34 141.84 404.69 141.84 404.69 116.72 416.74 116.72 416.74 131.07"/><path class="cls-1" d="M427.12,60.49a29.33,29.33,0,0,1,18.77-6.19,29.87,29.87,0,0,1,18.9,6.19q7.95,6.2,7.95,14.85t-7.95,14.94a29.54,29.54,0,0,1-18.9,6.29,29,29,0,0,1-18.77-6.29q-7.85-6.28-7.83-14.94T427.12,60.49Zm9.63,6.79a10.54,10.54,0,0,0,0,16.32,13.87,13.87,0,0,0,9.5,3.4,13.11,13.11,0,0,0,9.14-3.4,10.73,10.73,0,0,0,0-16.32,13.12,13.12,0,0,0-9.14-3.41A13.88,13.88,0,0,0,436.75,67.28Z"/><path class="cls-1" d="M517.55,97.17h29.32v10.77H505.19V59.68h41.68V70.45H517.55Zm61.62-3.59h-10v49.86H556.84V59.68H569.2V82.81h10V59.68h12.37v83.76H579.17Z"/><path class="cls-1" d="M608.87,76.92a15.26,15.26,0,0,1,1.8-4.48h-6.92V61.68h20.74v-7h12.36v7h19.74V72.44h-7.17a15.09,15.09,0,0,1,2,4.57,21.44,21.44,0,0,1,.6,5.15,19.45,19.45,0,0,1-6.53,14.68A21.93,21.93,0,0,1,630,103a21.06,21.06,0,0,1-15.31-6.22A20,20,0,0,1,608.34,82,22.3,22.3,0,0,1,608.87,76.92Zm79.83,66.52H676.34V118.51h-70.6V107.74h83ZM623.5,75.37a9.68,9.68,0,0,0-2.8,6.95,9.55,9.55,0,0,0,2.9,7,9.27,9.27,0,0,0,6.77,2.92,8.67,8.67,0,0,0,6.57-2.92,9.91,9.91,0,0,0,2.7-7,9.68,9.68,0,0,0-2.8-6.95,9.06,9.06,0,0,0-13.34,0ZM688.7,81V99H676.34V59.68H688.7V70.25h9V81Z"/><rect class="cls-2" x="781.68" y="99.07" height="5.28"/><polygon class="cls-1" points="740.6 131.07 760.34 131.07 760.34 107.74 772.7 107.74 772.7 131.07 795.83 131.07 795.83 141.84 710.29 141.84 710.29 131.07 728.23 131.07 728.23 107.74 740.6 107.74 740.6 131.07"/><polygon class="cls-1" points="711.08 59.68 711.08 70.45 781.67 70.45 781.67 100.53 781.67 104.35 781.67 114.94 794.04 114.94 794.04 104.35 794.04 100.53 794.04 59.68 711.08 59.68"/><path class="cls-1" d="M319.65,168.87a5.2,5.2,0,0,0-4-1.63,5.53,5.53,0,0,0-4,1.38,4.26,4.26,0,0,0-1.42,3.14q0,2.51,3.13,3.51t5.48,2a52.59,52.59,0,0,1,5.65,3q2.71,1.68,2.72,6.61a9.61,9.61,0,0,1-3.47,7.15,11.49,11.49,0,0,1-8.33,3.14q-5.85,0-9-3.72a11.73,11.73,0,0,1-3.09-7.49h6a5.92,5.92,0,0,0,5.94,6,5.47,5.47,0,0,0,4.39-1.71,5.2,5.2,0,0,0,1.46-3.37,3.34,3.34,0,0,0-1.43-2.88,15.34,15.34,0,0,0-3.61-1.88q-3.45-1.5-7.69-3.17t-4.25-7.09a8.88,8.88,0,0,1,3.46-6.84,12,12,0,0,1,8.1-3,10.78,10.78,0,0,1,8.14,3.09,10.67,10.67,0,0,1,3.22,6.78h-5.94A4.76,4.76,0,0,0,319.65,168.87Z"/><path class="cls-1" d="M332.66,194.18a9.47,9.47,0,0,1-3-6.69V172.35h6v13.21a6.5,6.5,0,0,0,1.93,4.39,6.07,6.07,0,0,0,4.68,2.14A6.15,6.15,0,0,0,347,190a6.41,6.41,0,0,0,1.94-4.35v-13.3h6v24h-6v-3.18q-4.59,4.11-9,4.1A9.7,9.7,0,0,1,332.66,194.18Z"/><path class="cls-1" d="M381.35,174.6a9.41,9.41,0,0,1,3,6.61v15.14h-6V183.19a6.47,6.47,0,0,0-1.93-4.37,6.21,6.21,0,0,0-9.35,0,6.47,6.47,0,0,0-1.93,4.37v13.16h-6v-24h6v3.17q4.59-4,8.95-4A9.77,9.77,0,0,1,381.35,174.6Z"/><path class="cls-1" d="M409,193a12.71,12.71,0,0,1-9.45,4.1,12.8,12.8,0,0,1-8.16-21.88,11.75,11.75,0,0,1,8.24-3.64,15.25,15.25,0,0,1,4.65.8,10.63,10.63,0,0,1,4.72,3.47v-3.51h6v22.09q0,4-3.73,8.3a12.42,12.42,0,0,1-9.91,4.32q-7.86,0-13.38-9.87h5.6c2.29,3.12,4.71,4.68,7.28,4.68a7.87,7.87,0,0,0,5.69-2.38,7.58,7.58,0,0,0,2.42-5.56Zm-13.12-3a7.76,7.76,0,1,0-2.27-5.52A7.48,7.48,0,0,0,395.92,190Z"/><path class="cls-1" d="M457,162.89l5.43,23,5.27-23H474l-8.12,33.46h-6L454.3,174l-5.61,22.33h-6l-8.11-33.46h6.27l5.27,23,5.44-23Z"/><path class="cls-1" d="M479.48,175.27a12.82,12.82,0,1,1-3.77,9A12.31,12.31,0,0,1,479.48,175.27Zm3.64,3.66a7.2,7.2,0,0,0-2.3,5.38,7.8,7.8,0,0,0,7.69,7.69,7.5,7.5,0,0,0,5.48-2.27,7.35,7.35,0,0,0,2.3-5.42,7.2,7.2,0,0,0-2.3-5.38,7.58,7.58,0,0,0-5.48-2.23A7.48,7.48,0,0,0,483.12,178.93Z"/><path class="cls-1" d="M507.75,175.27a12.84,12.84,0,1,1-3.76,9A12.32,12.32,0,0,1,507.75,175.27Zm3.64,3.66a7.24,7.24,0,0,0-2.3,5.38,7.8,7.8,0,0,0,7.7,7.69,7.52,7.52,0,0,0,5.48-2.27,7.39,7.39,0,0,0,2.3-5.42,7.24,7.24,0,0,0-2.3-5.38,7.6,7.6,0,0,0-5.48-2.23A7.5,7.5,0,0,0,511.39,178.93Z"/><path class="cls-1" d="M554.85,174.6a9.39,9.39,0,0,1,3,6.61v15.14h-6V183.19a6.49,6.49,0,0,0-1.94-4.37,6.2,6.2,0,0,0-9.34,0,6.49,6.49,0,0,0-1.94,4.37v13.16h-6v-24h6v3.17q4.61-4,9-4A9.79,9.79,0,0,1,554.85,174.6Z"/><path class="cls-1" d="M579.53,162.89h6v22.69a5.75,5.75,0,0,0,2.26,4.51,7.6,7.6,0,0,0,5,1.91,7.47,7.47,0,0,0,5-2,5.79,5.79,0,0,0,2.25-4.46V162.89h6v21.92q0,4.26-3.72,8.32a12.52,12.52,0,0,1-9.67,4.06,12.22,12.22,0,0,1-9.53-4.1c-2.46-2.73-3.68-5.49-3.68-8.28Z"/><path class="cls-1" d="M632.31,174.6a9.39,9.39,0,0,1,3,6.61v15.14h-6V183.19a6.52,6.52,0,0,0-1.93-4.37,6.21,6.21,0,0,0-9.35,0,6.49,6.49,0,0,0-1.94,4.37v13.16h-6v-24h6v3.17q4.6-4,8.95-4A9.79,9.79,0,0,1,632.31,174.6Z"/><path class="cls-1" d="M639.42,168.08v-5.19h6v5.19Zm0,28.27V173.18h6v23.17Z"/><path class="cls-1" d="M647.54,172.35h6.19l6.69,17,6.69-17h6.11l-10.12,24h-5.44Z"/><path class="cls-1" d="M680.33,186.57a7.36,7.36,0,0,0,2.55,3.81,7.7,7.7,0,0,0,5.06,1.62,7,7,0,0,0,4.1-1.16,7.61,7.61,0,0,0,2.26-2.18h5.6a13.57,13.57,0,0,1-4.47,6.19,12,12,0,0,1-7.49,2.34,12.84,12.84,0,1,1,0-25.68q4.44,0,8.95,3.76t3.77,11.3Zm14.89-5.19a6,6,0,0,0-2.76-3.44,8.69,8.69,0,0,0-4.52-1.24,7.44,7.44,0,0,0-4.48,1.36,8.57,8.57,0,0,0-2.8,3.32Z"/><path class="cls-1" d="M710.23,174.44a8.12,8.12,0,0,1,2.47-1.93,8.78,8.78,0,0,1,5.52-.67v4.44a9.67,9.67,0,0,0-5.35.75,6.2,6.2,0,0,0-2.85,3,8.5,8.5,0,0,0-.75,2.51v13.8h-6v-24h6v3.43A9.85,9.85,0,0,1,710.23,174.44Z"/><path class="cls-1" d="M732,177.87a3.36,3.36,0,0,0-2.63-1.17,4,4,0,0,0-2.64.81,2.07,2.07,0,0,0-.79,2c.05.55.7,1.09,1.92,1.64s2.4,1,3.52,1.38a31,31,0,0,1,4.94,2.29,5.12,5.12,0,0,1,2.58,4.82,6.91,6.91,0,0,1-2.61,5.26,10.3,10.3,0,0,1-7.09,2.33q-5,0-7.38-3c-1.6-2-2.41-3.85-2.41-5.52h6a3.25,3.25,0,0,0,1,2.25,4,4,0,0,0,3.08,1.09,4.38,4.38,0,0,0,3.05-1,2.29,2.29,0,0,0,.9-2.05,2.12,2.12,0,0,0-1.07-1.55,10.37,10.37,0,0,0-2.45-1.14q-2.65-1.06-6.11-2.49a5.07,5.07,0,0,1-3.45-5,6.42,6.42,0,0,1,2.63-5.15,10.08,10.08,0,0,1,6.5-2.12q5.07,0,7.21,3.22t2.14,5.4h-6A3.51,3.51,0,0,0,732,177.87Z"/><path class="cls-1" d="M741.73,168.08v-5.19h6v5.19Zm0,28.27V173.18h6v23.17Z"/><path class="cls-1" d="M761,176.61v19.74h-6V176.61h-4.86v-4.26H755v-9.46h6v9.46h4.85v4.26Z"/><path class="cls-1" d="M766.74,172.35h6.19l6.69,17,6.7-17h6.1L778.7,205.72h-5.43l3.59-9.37Z"/><circle class="cls-3" cx="129.54" cy="129.54" r="129.54" transform="translate(-18.64 237.25) rotate(-81.01)"/><path class="cls-4" d="M129.54,4.79A124.25,124.25,0,1,0,253.79,129,124.25,124.25,0,0,0,129.54,4.79Zm.24,196.71A72.46,72.46,0,1,1,202.24,129,72.46,72.46,0,0,1,129.78,201.5Z"/><ellipse class="cls-5" cx="128.28" cy="129.04" rx="114.04" ry="114.03" transform="translate(-2.94 2.99) rotate(-1.32)"/><path class="cls-6" d="M1.28,129.54c0,70.72,57.54,128.25,128.26,128.25A128.39,128.39,0,0,0,257.79,129.54c0-70.72-57.53-128.26-128.25-128.26A128.41,128.41,0,0,0,1.28,129.54Zm5.39,0A122.87,122.87,0,1,1,129.54,252.4,123,123,0,0,1,6.67,129.54Z"/><path class="cls-6" d="M9.82,129.75A119.72,119.72,0,1,0,129.53,10.05,119.84,119.84,0,0,0,9.82,129.75Zm1.08,0A118.64,118.64,0,1,1,129.53,248.39,118.76,118.76,0,0,1,10.9,129.75Z"/><path class="cls-3" d="M27,111a3.75,3.75,0,0,0-2.42.34,2.14,2.14,0,0,0-1,1.63,2.49,2.49,0,0,0,.4,2,2.74,2.74,0,0,0,1.84,1,2.31,2.31,0,0,0,1.93-.39,6.38,6.38,0,0,0,1.27-2,10.25,10.25,0,0,1,1.14-1.92,6.52,6.52,0,0,1,1.7-1.57,4.12,4.12,0,0,1,1.55-.58,5.74,5.74,0,0,1,1.65,0,5.66,5.66,0,0,1,3.82,2.15,5.27,5.27,0,0,1,1,4.16,4.84,4.84,0,0,1-2,3.39,6.58,6.58,0,0,1-4.49.93l.52-3.31a3.13,3.13,0,0,0,1.94-.31,1.76,1.76,0,0,0,.78-1.28,2,2,0,0,0-.34-1.59,2.38,2.38,0,0,0-1.56-.78,4.37,4.37,0,0,0-.66,0,1.43,1.43,0,0,0-.52.23,3,3,0,0,0-.71.83,12.51,12.51,0,0,0-.59,1.18l-.6,1.19A6.19,6.19,0,0,1,29,118.82a5.46,5.46,0,0,1-3.51.52,6.32,6.32,0,0,1-4.2-2.33,5.58,5.58,0,0,1-1.13-4.52,5.3,5.3,0,0,1,2.37-3.79,6.79,6.79,0,0,1,4.94-.89Z"/><path class="cls-3" d="M38.43,126.78l-12.07-.2a6.17,6.17,0,0,0-3.11.48,2.55,2.55,0,0,0-1,2.3,2.31,2.31,0,0,0,.9,2.16,6.32,6.32,0,0,0,3.09.58l12.07.2-.05,3.53-12-.2a15.44,15.44,0,0,1-2.65-.22,5.52,5.52,0,0,1-2.18-.84,6,6,0,0,1-1.95-2.23,6.43,6.43,0,0,1-.64-3,7.09,7.09,0,0,1,.71-3.14,5.92,5.92,0,0,1,2-2.27,5.55,5.55,0,0,1,2.34-.84,21.46,21.46,0,0,1,2.52-.06l12.05.2Z"/><path class="cls-3" d="M19.49,141l18.93-3.26.57,3.33L27.92,151.33l12.47-2.15.59,3.43-18.93,3.26-.55-3.18,11.41-10.44-12.82,2.21Z"/><path class="cls-3" d="M39.9,175.47a11.43,11.43,0,0,1-8.23,0,9.08,9.08,0,0,1-5.15-5.31,9.47,9.47,0,0,1-.67-4,9.64,9.64,0,0,1,3.27-6.8,10.91,10.91,0,0,1,3.19-1.94,9.79,9.79,0,0,1,7.68.15,9.3,9.3,0,0,1,3.1,2.14,10.47,10.47,0,0,1,2,3.33,9.13,9.13,0,0,1,.54,5.32,10,10,0,0,1-2.79,4.93l-1.53-3.86a5.61,5.61,0,0,0,.42-5.3,6.11,6.11,0,0,0-1.24-2,5.77,5.77,0,0,0-2-1.31,6.41,6.41,0,0,0-2.49-.54,6.53,6.53,0,0,0-2.47.47,7.22,7.22,0,0,0-2.21,1.34,5.8,5.8,0,0,0-1.44,2,6.2,6.2,0,0,0-.59,2.43,5.62,5.62,0,0,0,.4,2.36,5.83,5.83,0,0,0,2,2.66,6.12,6.12,0,0,0,3.3,1.08l-2.21-5.58,3.21-1.27Z"/><path class="cls-3" d="M49.9,174.61l-8.54,10.33,12.43-4.74,1.52,2.19-8.77,9.94,12.63-4.39,2,2.94-19,6.27-1.76-2.53,8.48-9.4-11.81,4.62-1.74-2.5,12.51-15.67Z"/><path class="cls-3" d="M57.81,195a9.48,9.48,0,0,1,3.81-.95,10,10,0,0,1,3.69.55,9.79,9.79,0,0,1,3.22,2,9.9,9.9,0,0,1,2.3,3,9.61,9.61,0,0,1,.94,3.66,10,10,0,0,1-.54,3.87,9.52,9.52,0,0,1-2,3.37,10.42,10.42,0,0,1-3,2.33,9.52,9.52,0,0,1-3.48,1,10.58,10.58,0,0,1-4.07-.45,9.58,9.58,0,0,1-3.52-2.05,9.39,9.39,0,0,1-2.38-3.3,10.11,10.11,0,0,1-.81-4,9.89,9.89,0,0,1,.73-3.52,10.46,10.46,0,0,1,2-3.15A9.85,9.85,0,0,1,57.81,195ZM56,202a5.93,5.93,0,0,0-.42,2.41,6.18,6.18,0,0,0,.56,2.44,5.57,5.57,0,0,0,1.4,1.94,5.93,5.93,0,0,0,4.6,1.6,6.54,6.54,0,0,0,4.49-2.3,5.71,5.71,0,0,0,1.18-2,6.19,6.19,0,0,0,.38-2.34,6.26,6.26,0,0,0-.47-2.52A6.63,6.63,0,0,0,64.14,198a5.48,5.48,0,0,0-2.32-.29,6.05,6.05,0,0,0-2.46.63,6.49,6.49,0,0,0-2,1.51A7.36,7.36,0,0,0,56,202Z"/><path class="cls-3" d="M74,209.17a9.37,9.37,0,0,1,3.51-1.76,9.85,9.85,0,0,1,3.72-.28,9.68,9.68,0,0,1,3.57,1.2,9.84,9.84,0,0,1,2.91,2.44,9.69,9.69,0,0,1,1.72,3.37,9.92,9.92,0,0,1,.33,3.89,9.57,9.57,0,0,1-1.2,3.72,10.28,10.28,0,0,1-2.43,2.94A9.66,9.66,0,0,1,83,226.47a10.57,10.57,0,0,1-4.07.45A9.57,9.57,0,0,1,75,225.7,9.71,9.71,0,0,1,72,223a9.6,9.6,0,0,1-1.74-7.35,10.72,10.72,0,0,1,1.26-3.51A9.82,9.82,0,0,1,74,209.17Zm-.28,7.18a6.1,6.1,0,0,0,.13,2.45A6.18,6.18,0,0,0,75,221.05a5.57,5.57,0,0,0,1.79,1.59,5.91,5.91,0,0,0,4.84.55A6.51,6.51,0,0,0,85.46,220a5.59,5.59,0,0,0,.72-2.2,6.17,6.17,0,0,0-.14-2.37A6.39,6.39,0,0,0,85,213a6.1,6.1,0,0,0-1.94-1.64,6,6,0,0,0-2.23-.76,5.62,5.62,0,0,0-2.33.22A6.23,6.23,0,0,0,76.26,212a6.41,6.41,0,0,0-1.63,1.92A7.38,7.38,0,0,0,73.75,216.35Z"/><path class="cls-3" d="M88.77,232.12l5.77-18.32,3.22,1,4.06,14.55,3.8-12.07,3.32,1-5.77,18.33-3.08-1-4-14.92-3.91,12.41Z"/><path class="cls-5" d="M20.87,129.75A108.67,108.67,0,1,1,129.53,238.41,108.78,108.78,0,0,1,20.87,129.75Z"/><path class="cls-5" d="M27.85,93.13a108.08,108.08,0,1,0,138.3-65.06A108.21,108.21,0,0,0,27.85,93.13Z"/><path class="cls-3" d="M31.42,88l5.66,8.17-1.77,3.66-8.3-12,1.51-3.14,14.58-1-1.79,3.71Zm6.09-14.1-3.08-1.49,1.74-3.6,11.45,5.53L45.88,78l-5.23-2.53-2.13,4.42-3.14-1.52Zm6.41,15a7.59,7.59,0,0,1,4.59-9.53,7,7,0,0,1,5.58.28A6.8,6.8,0,0,1,57.7,83.8a7.7,7.7,0,0,1-4.6,9.53,6.73,6.73,0,0,1-5.51-.21A6.88,6.88,0,0,1,43.92,88.9Zm3.42-1.48a3.89,3.89,0,0,0,4.75,2.3,3.33,3.33,0,0,0,2.09-1.79,3.13,3.13,0,0,0,.06-2.66A4,4,0,0,0,49.49,83a3.17,3.17,0,0,0-2.05,1.71A3.32,3.32,0,0,0,47.34,87.42Z"/><path class="cls-3" d="M117.2,31.54l9.48-.15.06,3.48-13.48.22L113,19.49l13.47-.22.06,3.48-9.48.15Zm19.91-1.48-3.23.05.27,16.12-4,.07-.44-27.09,4-.06.12,7.48,3.22-.05-.12-7.48,4-.07.44,27.08-4,.07Z"/><path class="cls-3" d="M182.26,65.52l-3.39-2.13,4.3-6.82L163.84,44.41l1.86-2.94,22.71,14.28Zm-10.4-32a5.08,5.08,0,0,1,1.26-.91l-1.89-1.19,1.85-2.95,5.68,3.57,1.2-1.91,3.39,2.13-1.21,1.91,5.41,3.4-1.86,3-2-1.24a4.78,4.78,0,0,1-.24,1.6,7.16,7.16,0,0,1-.72,1.51,6.3,6.3,0,0,1-4.32,2.89,7.08,7.08,0,0,1-5.3-1A6.8,6.8,0,0,1,170,40a6.47,6.47,0,0,1,.81-5.13A7.63,7.63,0,0,1,171.86,33.56Zm4.27,2.1a3.21,3.21,0,0,0-2.37,3.82,3,3,0,0,0,1.35,2,2.83,2.83,0,0,0,2.31.33,3.15,3.15,0,0,0,1.93-1.44,3.07,3.07,0,0,0,.43-2.38,2.84,2.84,0,0,0-1.32-2A2.91,2.91,0,0,0,176.13,35.66ZM193,48.44l-3.09,4.91-3.39-2.13,6.77-10.75,3.38,2.13-1.82,2.89L197.32,47,195.46,50Z"/><path class="cls-6" d="M53.37,130.08c-1,4.78,1.13,11.88,3.77,15.95a53,53,0,0,0,4.92,6.36c1.68,1.88,4,2.46,5.54,3.79-2.1-5-2-10.24-4.88-15-1.89-3.12-9.4-7.9-9.13-11.29"/><path class="cls-6" d="M48.05,146.46s3.32,9.75,12.62,15.06a64.08,64.08,0,0,0,16.61,6.86,9.86,9.86,0,0,1,4.87,2.21c1.77,1.77.88-.88.88-.88s-4.42-4.43-4.86-7.08-1.56-5.1-2.67-13.07-8.63-13.5-8.63-13.5,2,3.2,2,6c-.86,3.29.44,9.51,1.1,10.84s1.11,4.43,4.43,10-.89.66-.89.66-10.84-8.19-18.37-10.4C48.49,150.19,48.05,146.46,48.05,146.46Z"/><path class="cls-6" d="M59.94,165.88a25.67,25.67,0,0,0,7.11,4.46c3.64,1.32,8.09,1.82,14,2s8.77,1.49,8.77,1.49a20.69,20.69,0,0,1-4.47-5.62c-2.47-4.13-2.72-4.31-3.3-6.44s-2-6.12-2-6.12,14.88,14.05,18.18,17,4.48,2.65,6.12,3.31a9,9,0,0,0,3.47.33l-.17,2A52,52,0,0,0,99,177c-3.14,0-7.28,3.31-12.24,3.47a33,33,0,0,1-12.55-2.48c-2.83-1.1-9.1-5.45-9.1-5.45s-4-3.14-5.28-5.29S59.94,165.88,59.94,165.88Z"/><path class="cls-6" d="M72.52,180.4s5,4.26,14.69,4.26,18-5,22.25-6.39a21.7,21.7,0,0,1,10-1c3.08.24,19.89,3.55,31.25,18.94.72.24-2.83,3.79-2.83,3.79s-8.06-12.78-18.72-17.52c-4.26.24-16.1,14-18.93,17.52-.72,0-2.61-3.79-2.61-3.79l17.05-15.86a24.89,24.89,0,0,0-9,.47c-4.26,1.19-9.37,6.18-13.73,7.81C98.55,189.8,84.13,195.31,72.52,180.4Z"/><path class="cls-6" d="M205.71,130.08c1,4.78-1.14,11.88-3.77,15.95a54.06,54.06,0,0,1-4.92,6.36c-1.69,1.88-4,2.46-5.55,3.79,2.1-5,2-10.24,4.88-15,1.89-3.12,9.41-7.9,9.14-11.29"/><path class="cls-6" d="M211,146.46s-3.32,9.75-12.62,15.06a64.08,64.08,0,0,1-16.61,6.86,9.86,9.86,0,0,0-4.87,2.21c-1.77,1.77-.88-.88-.88-.88s4.43-4.43,4.87-7.08,1.55-5.1,2.66-13.07,8.63-13.5,8.63-13.5-2,3.2-2,6c.85,3.29-.44,9.51-1.11,10.84s-1.1,4.43-4.43,10,.89.66.89.66,10.85-8.19,18.37-10.4C210.59,150.19,211,146.46,211,146.46Z"/><path class="cls-6" d="M199.13,165.88a25.54,25.54,0,0,1-7.1,4.46c-3.64,1.32-8.1,1.82-14.05,2s-8.76,1.49-8.76,1.49a20.81,20.81,0,0,0,4.46-5.62c2.48-4.13,2.72-4.31,3.31-6.44s2-6.12,2-6.12-14.87,14.05-18.18,17-4.48,2.65-6.12,3.31a8.94,8.94,0,0,1-3.46.33l.16,2a52,52,0,0,1,8.76-1.32c3.14,0,7.27,3.31,12.23,3.47a33,33,0,0,0,12.56-2.48c2.82-1.1,9.09-5.45,9.09-5.45s4-3.14,5.29-5.29S199.13,165.88,199.13,165.88Z"/><path class="cls-6" d="M186.55,180.4s-5,4.26-14.68,4.26-18-5-22.26-6.39a21.7,21.7,0,0,0-10-1c-3.08.24-19.89,3.55-31.25,18.94-.71.24,2.84,3.79,2.84,3.79s8-12.78,18.71-17.52c4.26.24,16.1,14,18.94,17.52.71,0,2.6-3.79,2.6-3.79L134.45,180.4a24.89,24.89,0,0,1,9,.47c4.27,1.19,9.37,6.18,13.74,7.81C160.52,189.8,175,195.31,186.55,180.4Z"/><path class="cls-6" d="M53,119.41l1.07.14a76.19,76.19,0,0,1,151-.17l1.06-.14A77.26,77.26,0,0,0,53,119.41Z"/><path class="cls-6" d="M56.15,119l4.8.68a69.28,69.28,0,0,1,137.17.08l4.8-.67A74.13,74.13,0,0,0,56.15,119Z"/><polygon class="cls-4" points="99.88 106.54 123.61 106.54 123.61 99.03 135.08 99.03 135.08 106.15 159.2 106.15 159.2 129.94 147.34 129.94 147.34 117.22 144.03 117.22 144.03 129.92 131.56 129.92 131.56 117.11 128.33 117.11 128.33 129.92 115.87 129.92 115.87 117 112.52 117 112.52 129.69 100.06 129.69 99.88 106.54"/><path class="cls-4" d="M112.38,145.71v14.1h-3.9v-9.23a11.88,11.88,0,0,1-1.83,1.15,14.78,14.78,0,0,1-2.21.84v-3.13a9.12,9.12,0,0,0,3-1.53,6.26,6.26,0,0,0,1.7-2.2Z"/><path class="cls-4" d="M116.76,156.69l3.84-.48a2,2,0,0,0,.51,1.14,1.21,1.21,0,0,0,.88.34,1.57,1.57,0,0,0,1.44-.94,8.93,8.93,0,0,0,.57-2.93,4.69,4.69,0,0,1-1.42,1,3.92,3.92,0,0,1-1.69.34,4.21,4.21,0,0,1-3.15-1.33,4.63,4.63,0,0,1-1.28-3.35,4.88,4.88,0,0,1,.66-2.51,4.24,4.24,0,0,1,1.79-1.72,6.34,6.34,0,0,1,2.88-.58,6.75,6.75,0,0,1,3.35.71,5,5,0,0,1,2,2.27,9.55,9.55,0,0,1,.75,4.11c0,2.5-.52,4.34-1.57,5.5a5.64,5.64,0,0,1-4.39,1.74,7.31,7.31,0,0,1-2.61-.38,4.06,4.06,0,0,1-1.59-1.12,5.17,5.17,0,0,1-1-1.85m7.1-6.19a2.54,2.54,0,0,0-.57-1.76,1.76,1.76,0,0,0-1.38-.64,1.59,1.59,0,0,0-1.27.58,2.54,2.54,0,0,0-.51,1.73,2.66,2.66,0,0,0,.53,1.78,1.63,1.63,0,0,0,1.3.62,1.75,1.75,0,0,0,1.36-.6A2.47,2.47,0,0,0,123.86,150.5Z"/><path class="cls-4" d="M129.7,156.69l3.83-.48a2.09,2.09,0,0,0,.51,1.14,1.21,1.21,0,0,0,.88.34,1.6,1.6,0,0,0,1.45-.94,8.74,8.74,0,0,0,.56-2.93,4.57,4.57,0,0,1-1.42,1,3.88,3.88,0,0,1-1.68.34,4.18,4.18,0,0,1-3.15-1.33,4.6,4.6,0,0,1-1.29-3.35A5,5,0,0,1,130,148a4.29,4.29,0,0,1,1.81-1.72,6.27,6.27,0,0,1,2.87-.58,6.72,6.72,0,0,1,3.35.71,5,5,0,0,1,2,2.27,9.54,9.54,0,0,1,.76,4.11c0,2.5-.53,4.34-1.58,5.5a5.64,5.64,0,0,1-4.39,1.74,7.31,7.31,0,0,1-2.61-.38,4.06,4.06,0,0,1-1.59-1.12,5,5,0,0,1-1-1.85m7.09-6.19a2.54,2.54,0,0,0-.57-1.76,1.77,1.77,0,0,0-1.38-.64,1.59,1.59,0,0,0-1.27.58,2.54,2.54,0,0,0-.51,1.73,2.66,2.66,0,0,0,.53,1.78,1.65,1.65,0,0,0,1.31.62,1.74,1.74,0,0,0,1.35-.6A2.47,2.47,0,0,0,136.79,150.5Z"/><path class="cls-4" d="M142.53,145.94h11.24v2.61a14,14,0,0,0-2.46,2.87,16.26,16.26,0,0,0-1.88,4.16,19.73,19.73,0,0,0-.75,4.23h-3.83a22.13,22.13,0,0,1,1.43-5.69,20.69,20.69,0,0,1,3.08-4.91h-6.83Z"/><path class="cls-4" d="M148.86,215.94a18.24,18.24,0,1,0-31.59,18.24,9.12,9.12,0,1,1,15.8-9.12,9.12,9.12,0,0,0,15.79-9.12Z"/><path class="cls-3" d="M148.93,216.07a9.12,9.12,0,1,1-15.79,9.12,9.12,9.12,0,1,0-15.8,9.12,18.24,18.24,0,1,0,31.59-18.24Z"/><path class="cls-3" d="M148.47,216.34a8.58,8.58,0,0,1-9.65,12.58,8.5,8.5,0,0,1-5.21-4,9.66,9.66,0,0,0-16.74,9.65,18.77,18.77,0,0,0,32.55-18.72.17.17,0,0,1,0,0ZM117.81,234a8.58,8.58,0,1,1,14.86-8.58,9.63,9.63,0,0,0,5.87,4.5,9.57,9.57,0,0,0,11.93-7.62,18,18,0,0,1,.37,2.82,17.7,17.7,0,0,1-33,8.88Z"/><path class="cls-3" d="M123.75,208.93a18.27,18.27,0,0,0-7.85,23.29,9.8,9.8,0,0,0,1,2.35h0l.94-.53h0A17,17,0,0,1,117,232a8.58,8.58,0,0,1,15.72-6.49,9.63,9.63,0,0,0,5.87,4.5,9.52,9.52,0,0,0,7.32-1,9.67,9.67,0,0,0,3.54-13.19h0A18.79,18.79,0,0,0,123.75,208.93Zm-8.31,16.29a17.7,17.7,0,0,1,33-8.88,8.58,8.58,0,1,1-14.86,8.58,9.67,9.67,0,0,0-17.7,2.33c-.07.26,0,.53-.1.79A18,18,0,0,1,115.44,225.22Z"/><path class="cls-3" d="M159.9,214.77l4.5,11.2a6.33,6.33,0,0,0,1.65,2.68,2.55,2.55,0,0,0,2.5,0,2.3,2.3,0,0,0,1.64-1.66,6.42,6.42,0,0,0-.66-3.08L165,212.71l3.28-1.32,4.49,11.18a14.59,14.59,0,0,1,.82,2.53,5.29,5.29,0,0,1,.07,2.33,6,6,0,0,1-1.29,2.67,6.25,6.25,0,0,1-2.5,1.74,7.17,7.17,0,0,1-3.17.57,5.84,5.84,0,0,1-2.88-1,5.5,5.5,0,0,1-1.69-1.82,24,24,0,0,1-1-2.3l-4.5-11.18Z"/><path class="cls-3" d="M181.78,226.08l-10.41-16.15,2.84-1.83L188,214.27l-6.86-10.63,2.92-1.89,10.41,16.14-2.71,1.75-14.06-6.41,7.05,10.94Z"/><path class="cls-3" d="M199.41,213.67l-12.61-14.5,2.66-2.31,12.61,14.49Z"/><path class="cls-3" d="M210.51,202.9l-19.19-7.27,2.48-2.82,12.65,5L199.81,186l2.45-2.78,9.7,18.06Z"/><path class="cls-3" d="M219.52,191.58l-16.31-10.15,5.53-8.88,2.8,1.74-3.66,5.89,3.91,2.44,3.67-5.89,2.78,1.73-3.66,5.89,3.91,2.44,3.67-5.89,2.89,1.8Z"/><path class="cls-3" d="M222.75,163.77a6.5,6.5,0,0,1,.78,3.8l9.36-2.26-1.72,4.07-8.86,2-.08.19,6.8,2.87-1.35,3.2L210,170.17l1.82-4.32a23.53,23.53,0,0,1,1.07-2.26,5.4,5.4,0,0,1,1.46-1.65,4.91,4.91,0,0,1,2.67-1,5.84,5.84,0,0,1,3,.43A5.64,5.64,0,0,1,222.75,163.77Zm-6.21.85a4.43,4.43,0,0,0-1.55,2.17l-.61,1.46,4.8,2,.59-1.39a4.58,4.58,0,0,0,.5-2.67,2.28,2.28,0,0,0-1.51-1.54A2.42,2.42,0,0,0,216.54,164.62Z"/><path class="cls-3" d="M228.82,156.84a3.75,3.75,0,0,0,2.45-.14,2.2,2.2,0,0,0,1.15-1.53,2.48,2.48,0,0,0-.25-2,2.71,2.71,0,0,0-1.75-1.12,2.29,2.29,0,0,0-1.95.23,6.23,6.23,0,0,0-1.43,1.85,10.06,10.06,0,0,1-1.3,1.82,6.31,6.31,0,0,1-1.82,1.42,4.13,4.13,0,0,1-1.59.45,5.55,5.55,0,0,1-1.64-.17,5.63,5.63,0,0,1-3.64-2.46,5.29,5.29,0,0,1-.61-4.22,4.9,4.9,0,0,1,2.28-3.21,6.59,6.59,0,0,1,4.55-.56l-.79,3.26a3,3,0,0,0-1.95.15,1.75,1.75,0,0,0-.9,1.21,2,2,0,0,0,.21,1.61,2.42,2.42,0,0,0,1.5.91,3.9,3.9,0,0,0,.64.1,1.24,1.24,0,0,0,.54-.18,2.82,2.82,0,0,0,.78-.77c.16-.22.39-.6.69-1.13l.69-1.13a6.18,6.18,0,0,1,2.77-2.34,5.51,5.51,0,0,1,3.54-.23,6.28,6.28,0,0,1,4,2.68,5.53,5.53,0,0,1,.76,4.59,5.28,5.28,0,0,1-2.69,3.58,6.75,6.75,0,0,1-5,.48Z"/><path class="cls-3" d="M237.55,144.49l-19.07-2.26.41-3.5L238,141Z"/><path class="cls-3" d="M238.49,132.31l-15.88-.26-.06,3.73-3.33-.05.18-11,3.33.05-.06,3.76,15.88.26Z"/><path class="cls-3" d="M237.06,111.74l.52,3.49-7,1-11.12,7.63-.59-3.92,7.57-4.93-8.67-2.45-.59-3.89,13,4Z"/><polygon class="cls-3" points="77.21 51.47 66.88 57.97 65.01 55.01 89.07 39.85 90.94 42.81 80.61 49.32 82.48 52.29 79.08 54.43 77.21 51.47"/><polygon class="cls-3" points="74.27 60.91 93.72 48.66 95.59 51.62 72.82 65.97 68.46 59.05 71.78 56.96 74.27 60.91"/><path class="cls-3" d="M64.88,39.67a9.53,9.53,0,0,1,4.1-5,9.74,9.74,0,0,1,6.28-1.58A6,6,0,0,1,80,35.84a6.07,6.07,0,0,1,.4,5.5,9.69,9.69,0,0,1-4.12,5,9.46,9.46,0,0,1-6.26,1.53,6.09,6.09,0,0,1-4.75-2.76A6,6,0,0,1,64.88,39.67Zm3.83.2a3.42,3.42,0,0,0,2.83,4.49,4.51,4.51,0,0,0,3.21-.71,4.23,4.23,0,0,0,1.93-2.52,3.5,3.5,0,0,0-2.83-4.5,4.29,4.29,0,0,0-3.11.65A4.49,4.49,0,0,0,68.71,39.87Z"/><polygon class="cls-3" points="214.65 88.96 207.86 92.25 205.07 86.5 211.86 83.21 210.12 79.61 203.33 82.9 200.8 77.68 197.66 79.19 209.73 104.09 212.86 102.58 209.6 95.84 216.39 92.55 214.65 88.96"/><polygon class="cls-3" points="233.39 91.99 221.69 67.84 218.56 69.36 228.51 89.91 219.41 94.32 219.41 94.31 216.44 95.78 218.22 99.36 220.46 98.25 233.39 91.99"/></g></svg>