<svg xmlns="http://www.w3.org/2000/svg" viewBox="0 0 737.01 109.91"><defs><style>.cls-1,.cls-2{fill:#0176c2;}.cls-2{font-size:8px;font-family:MalgunGothicBold, Malgun Gothic;letter-spacing:-0.03em;}</style></defs><title>대지 10</title><g id="레이어_2" data-name="레이어 2"><polygon class="cls-1" points="0 45.23 43.77 1.93 107.72 1.93 64.71 45.23 0 45.23"/><polygon class="cls-1" points="228.29 45.23 184.52 1.93 120.57 1.93 163.58 45.23 228.29 45.23"/><polygon class="cls-1" points="160.37 109.91 116.78 67.84 116.78 6.16 160.37 49.17 160.37 109.91"/><polygon class="cls-1" points="67.44 109.91 111.59 67.84 111.59 6.16 67.44 49.17 67.44 109.91"/></g><g id="레이어_3" data-name="레이어 3"><path d="M261.32,45.17h-8.1V8H242.11V0h30.32V8H261.32Z"/><path d="M300.65,6.87H285.89V18.14h14v6.19h-14v14h15.56v6.82H277.08V0h23.57Z"/><path d="M316.71,37.56H331.1v7.61H308.61V0h8.1Z"/><path d="M367.32,0h15.86Q391.24,0,395,7.55c1.85,3.72,1.36,8.39,1.36,14,0,6.11.41,11.25-1.6,15.44q-3.9,8.17-11.81,8.18H367.32Zm8.53,37.45h6.44c2.79,0,3.75-1.61,5.13-4.84,1.19-2.65.65-6.11.65-10.37,0-5.91.16-10-1.78-12.27-1.26-1.46-1.9-2.19-4.19-2.19h-6.25Z"/><path d="M422.3,45.17h-8.1V28.4L401.44,0h8.85l7.77,19.76L425.69,0h8.47L422.3,28.29Z"/><path d="M464.81,0h7.81V45.17H461.5L447.9,11.6V45.17h-8.14V0h11.92l13.13,33.22Z"/><path d="M359.6,6.87H344.83V18.14h14v6.19h-14v14H360.4v6.82H336V0H359.6Z"/><path d="M504.75,6.87H490V18.14h14v6.19H490v14h15.56v6.82H481.18V0h23.57Z"/></g><g id="레이어_4" data-name="레이어 4"><path d="M527.11,2.74h5.69V44.79h-5.69Z"/><path d="M576.87,7,563.63,45.19h-4.71L547.47,7.5l-.22,37.69h-4.62V2.85h8.42l10.22,35.49L572.94,2.85h8.49V45.19H576.8Z"/><path d="M606.29,26.25a24,24,0,0,1-4.46.54c-.42,0-5.28.05-5.28,0V45.15h-5.76V2.88h8.41a28.75,28.75,0,0,1,9,1.09,12,12,0,0,1,5.55,3.64A12.13,12.13,0,0,1,616.26,14a9.41,9.41,0,0,1-1.07,6,12.11,12.11,0,0,1-6.78,5.64A19.75,19.75,0,0,1,606.29,26.25Zm-3.52-17.8c-.92-.09-6.22-.07-6.22-.07V21.25h4.06a26.1,26.1,0,0,0,3.73-.2,8.9,8.9,0,0,0,3.59-1.17,7.41,7.41,0,0,0,2.49-2.82,6.34,6.34,0,0,0-.39-5.15,8.34,8.34,0,0,0-3.6-2.81A11.29,11.29,0,0,0,602.77,8.45Z"/><path d="M656.91,3h5.89V39.65h15.77V45H656.91Z"/><path d="M685.92,42a14.83,14.83,0,0,1-4.47-9.75h5.42a9.74,9.74,0,0,0,2.7,5.86,6.89,6.89,0,0,0,5.11,2.11,7.94,7.94,0,0,0,5.61-2.11A6.69,6.69,0,0,0,702.62,33a6.07,6.07,0,0,0-1.7-4.21A9.69,9.69,0,0,0,697,26.25c-.55-.21-1.13-.42-1.76-.63-.43-.09-1-.24-1.83-.45a33.89,33.89,0,0,1-3.59-1.09,12,12,0,0,1-3.28-1.84,10.9,10.9,0,0,1-2.84-3.64,10.92,10.92,0,0,1-.88-4.33,10.79,10.79,0,0,1,3.59-8.36A12.49,12.49,0,0,1,695,2.85a11.07,11.07,0,0,1,7.94,3.06A14.47,14.47,0,0,1,707,15H701.8a10.06,10.06,0,0,0-2.65-5.3A6.39,6.39,0,0,0,694.62,8,6.29,6.29,0,0,0,690,9.8a6.19,6.19,0,0,0-1.82,4.53A5.19,5.19,0,0,0,691,18.92a25.1,25.1,0,0,0,5.73,2l1.64.38c.55.17,1,.34,1.45.51A12.4,12.4,0,0,1,705.52,26a10.92,10.92,0,0,1,2.39,7,11.54,11.54,0,0,1-4,8.86,13,13,0,0,1-9.07,3.51A12.52,12.52,0,0,1,685.92,42Z"/><path d="M714.64,3.09h21.79V7.45H720.05V20.56h15v5.15h-15V40.23h16.42v5H714.64Z"/><path d="M641.38,43.77a11.69,11.69,0,0,1-5.7,1.51,12.54,12.54,0,0,1-5.76-1.38A11.84,11.84,0,0,1,625.38,40a15.84,15.84,0,0,1-2.65-6.15,36.29,36.29,0,0,1-.52-6.68V2.84h5.12V27.15a29.4,29.4,0,0,0,.29,4.45A12.29,12.29,0,0,0,629,35.66a7.52,7.52,0,0,0,2.77,3,7.36,7.36,0,0,0,3.91,1,6.72,6.72,0,0,0,3.46-1,7.82,7.82,0,0,0,2.76-2.55,12,12,0,0,0,1.55-4.25,27.36,27.36,0,0,0,.35-4.78V2.84H649V27.15a31.34,31.34,0,0,1-.57,6.42,17.75,17.75,0,0,1-2.36,6A13.8,13.8,0,0,1,641.38,43.77Z"/></g><g id="레이어_6" data-name="레이어 6"><path class="cls-1" d="M252.91,57h20.56v2.56H255.72V70.77h16.81v2.56H255.72v12h18v2.56H252.91Z"/><path class="cls-1" d="M275.69,65.6h2.81l6.76,19.19L292,65.6h2.65l-8.11,22.34h-2.85Z"/><path class="cls-1" d="M301.66,83.87a6.26,6.26,0,0,0,5.12,2.39,6.51,6.51,0,0,0,4.2-1.38,5.92,5.92,0,0,0,2.14-3.83h2.56a8,8,0,0,1-2.93,5.42,9.24,9.24,0,0,1-6.18,2.1,8.63,8.63,0,0,1-7-3.07Q297,82.4,297,76.9t2.6-8.78a8.77,8.77,0,0,1,7.1-3.07A8.53,8.53,0,0,1,313.5,68q2.52,3,2.52,8.4v.84H299.69A10.24,10.24,0,0,0,301.66,83.87Zm11.67-8.7a8.61,8.61,0,0,0-2-5.79,6,6,0,0,0-4.71-2.06,6.25,6.25,0,0,0-4.82,2.06,8.11,8.11,0,0,0-2.1,5.79Z"/><path class="cls-1" d="M320.15,65.6h2.52v3.91a6.54,6.54,0,0,1,6.5-4.46h.3V67.7h-.38a5.78,5.78,0,0,0-4.7,2,9,9,0,0,0-1.68,5.88V87.94h-2.56Z"/><path class="cls-1" d="M338.27,94.31a5.82,5.82,0,0,1-3.65,1.09,4.7,4.7,0,0,1-.92-.08c-.28,0-.59-.07-.93-.13V92.84l1,.13.84.13a3.13,3.13,0,0,0,2.39-.93,7.43,7.43,0,0,0,1.47-2.43l1.37-3.48L331,65.6h2.77l7.41,17.91,6.28-17.91h2.77L340.63,91A8.13,8.13,0,0,1,338.27,94.31Z"/><path class="cls-1" d="M351.17,65.6h2.61l5.75,18.69,5.12-18.69h2.9l4.92,18.69,5.75-18.69h2.6l-7.05,22.34H371l-5-18.69-5.12,18.69h-2.69Z"/><path class="cls-1" d="M384.32,57h2.56V69.09a8.65,8.65,0,0,1,11-3.2,6.39,6.39,0,0,1,2.65,2.31,6.76,6.76,0,0,1,.8,2.61,34.65,34.65,0,0,1,.12,3.52V87.94h-2.56V74.38q0-3.82-1-5.34c-.75-1.14-2.2-1.72-4.32-1.72a6.3,6.3,0,0,0-4.83,2,7.8,7.8,0,0,0-1.89,5.5V87.94h-2.56Z"/><path class="cls-1" d="M411.21,83.87a6.27,6.27,0,0,0,5.12,2.39,6.47,6.47,0,0,0,4.2-1.38,6,6,0,0,0,2.15-3.83h2.56a8,8,0,0,1-2.94,5.42,9.22,9.22,0,0,1-6.18,2.1,8.64,8.64,0,0,1-7-3.07q-2.57-3.1-2.56-8.6t2.6-8.78a8.77,8.77,0,0,1,7.1-3.07,8.52,8.52,0,0,1,6.8,2.94q2.52,3,2.52,8.4v.84H409.24A10.3,10.3,0,0,0,411.21,83.87Zm11.68-8.7a8.62,8.62,0,0,0-2-5.79,6,6,0,0,0-4.7-2.06,6.27,6.27,0,0,0-4.83,2.06,8.11,8.11,0,0,0-2.1,5.79Z"/><path class="cls-1" d="M430,65.6h2.52v3.91a7.18,7.18,0,0,1,2.65-3.41,7.05,7.05,0,0,1,3.86-1h.29V67.7h-.37a5.78,5.78,0,0,0-4.71,2,9,9,0,0,0-1.68,5.88V87.94H430Z"/><path class="cls-1" d="M446.26,83.87a6.28,6.28,0,0,0,5.13,2.39,6.51,6.51,0,0,0,4.2-1.38,6,6,0,0,0,2.14-3.83h2.56a8,8,0,0,1-2.94,5.42,9.21,9.21,0,0,1-6.17,2.1,8.65,8.65,0,0,1-7-3.07c-1.7-2.07-2.56-4.94-2.56-8.6s.87-6.68,2.61-8.78a8.74,8.74,0,0,1,7.09-3.07A8.52,8.52,0,0,1,458.1,68q2.52,3,2.52,8.4v.84H444.29A10.3,10.3,0,0,0,446.26,83.87Zm11.68-8.7a8.62,8.62,0,0,0-2-5.79,6,6,0,0,0-4.7-2.06,6.27,6.27,0,0,0-4.83,2.06,8.11,8.11,0,0,0-2.1,5.79Z"/><path class="cls-1" d="M484.77,65.6,475.47,90Q472.38,98,466.31,98a11.35,11.35,0,0,1-3.54-.48V92.79a5.69,5.69,0,0,0,2.73.67,3.85,3.85,0,0,0,3.75-2.68l1.35-3.15-8.86-22h6.48l4.65,14.47c.14.46.32,1.32.56,2.58h.09a16.66,16.66,0,0,1,.63-2.54l4.78-14.51Z"/><path class="cls-1" d="M485,76.77a11.47,11.47,0,0,1,3.19-8.55,11.77,11.77,0,0,1,8.65-3.14,10.56,10.56,0,0,1,11.38,11.31A11.73,11.73,0,0,1,505.1,85a13,13,0,0,1-17,.13A11.28,11.28,0,0,1,485,76.77Zm5.92-.08q0,6.94,5.78,7,5.56,0,5.56-7.12,0-6.88-5.58-6.89a5.16,5.16,0,0,0-4.25,1.88A8.11,8.11,0,0,0,491,76.69Z"/><path class="cls-1" d="M532.16,87.67h-5.84v-3.4h-.11a7.55,7.55,0,0,1-6.76,3.94q-7.74,0-7.74-9.32V65.6h5.85V78.28q0,5.35,4.16,5.36A4.23,4.23,0,0,0,525,82.18a5.75,5.75,0,0,0,1.28-3.92V65.6h5.84Z"/><path class="cls-1" d="M536.42,57H539V88h-2.56Z"/><path class="cls-1" d="M561.57,68.8a12.84,12.84,0,0,1,2.56,8.1,12.61,12.61,0,0,1-2.56,8,9.83,9.83,0,0,1-15.37,0,12.76,12.76,0,0,1-2.52-8,13,13,0,0,1,2.52-8.1,9.9,9.9,0,0,1,15.37,0Zm-13.35,1.55a12.09,12.09,0,0,0,0,13,6.53,6.53,0,0,0,5.66,3,6.61,6.61,0,0,0,5.67-3,10.67,10.67,0,0,0,1.93-6.47,10.83,10.83,0,0,0-1.93-6.51,6.93,6.93,0,0,0-11.33,0Z"/><path class="cls-1" d="M585.55,68.8a12.9,12.9,0,0,1,2.56,8.1,12.66,12.66,0,0,1-2.56,8,9.83,9.83,0,0,1-15.37,0,12.76,12.76,0,0,1-2.52-8,13,13,0,0,1,2.52-8.1,9.9,9.9,0,0,1,15.37,0Zm-13.36,1.55a12.09,12.09,0,0,0,0,13,6.53,6.53,0,0,0,5.67,3,6.61,6.61,0,0,0,5.67-3,10.67,10.67,0,0,0,1.93-6.47,10.83,10.83,0,0,0-1.93-6.51,6.94,6.94,0,0,0-11.34,0Z"/><path class="cls-1" d="M592.31,57h2.56V76.56l10.79-10.87H609l-8.28,8.23L610,88h-2.93L598.94,75.6l-4.11,4.11,0,8.32h-2.56Z"/><text class="cls-2" transform="translate(608.12 62.76)">TM</text></g></svg>