<?xml version="1.0" encoding="utf-8"?>
<!-- Generator: Adobe Illustrator 24.0.1, SVG Export Plug-In . SVG Version: 6.00 Build 0)  -->
<svg version="1.1" id="layer" xmlns="http://www.w3.org/2000/svg" xmlns:xlink="http://www.w3.org/1999/xlink" x="0px" y="0px"
	 viewBox="0 0 600.2 106.1" style="enable-background:new 0 0 600.2 106.1;" xml:space="preserve">
<path d="M597.1,18.3c-4,4-10.4,4-14.5,0l0,0c-2-1.9-3.1-4.5-3.1-7.3c0-2.7,1.1-5.3,3.1-7.2c4-4,10.5-4,14.5,0c2,1.9,3.1,4.5,3.1,7.2
	C600.1,13.8,599,16.4,597.1,18.3 M583.6,4.9c-1.7,1.6-2.6,3.8-2.6,6.2c0,2.3,0.9,4.5,2.6,6.2c3.4,3.4,9,3.4,12.4,0l0,0
	c1.6-1.6,2.6-3.8,2.6-6.2c0-2.3-0.9-4.5-2.6-6.2c-3.4-3.4-8.9-3.4-12.3,0 M589.7,5.5c1-0.1,2.1,0.1,3.1,0.4c1.2,0.4,1.9,1.6,1.8,2.8
	c0.1,0.9-0.4,1.8-1.1,2.2c-0.5,0.3-1,0.5-1.6,0.5c0.8,0.1,1.5,0.5,1.9,1.1c0.4,0.5,0.6,1.1,0.6,1.8V15c0,0.3,0,0.6,0,0.9
	c0,0.2,0,0.4,0,0.6l0,0h-1.8l0,0v-1.4c0.1-1-0.3-2-1-2.6c-0.7-0.3-1.5-0.4-2.2-0.4h-1.6v4.4h-2V5.4L589.7,5.5z M591.9,7.3
	c-0.7-0.3-1.6-0.5-2.4-0.4h-1.7v4h1.8c0.6,0,1.3-0.1,1.9-0.2c0.7-0.3,1.2-1,1.1-1.8C592.6,8,592.4,7.4,591.9,7.3"/>
<path d="M501.3,12.2c-6.5-8.4-15.1-11.9-29.2-11.9c-21.2,0-34.9,12-34.9,30.6v74.7h13.4v-73c0-12.9,7.3-19.2,22.2-19.2
	c14.1,0,21.9,6.4,21.9,18v74.2h13.4V31.4c0-11.6,7.8-18,21.9-18c14.9,0,22.2,6.2,22.2,19.2v72.9h13.4V30.8
	c0-18.5-13.7-30.6-34.9-30.6C516.4,0.3,507.9,3.8,501.3,12.2"/>
<path d="M385.4,0.1H368c-24.6,0-35.9,16.4-35.9,31.6v42.8c0,15.2,11.2,31.6,35.8,31.6h17.6c24.6,0,35.8-16.4,35.8-31.6V31.7
	C421.3,16.4,410.1,0.1,385.4,0.1 M407.9,72.8c0,12.8-8.4,20.2-23,20.2h-16.3c-14.9,0-23.1-7.2-23.1-20.2V33.4
	c0-12.8,8.4-20.2,23.1-20.2h16.3c14.6,0,23,7.4,23,20.2V72.8z"/>
<path d="M280.3,0.1c-24.6,0-35.9,16.4-35.9,31.6v42.8c0,15.2,11.2,31.6,35.8,31.6h15.4c12.5,0,20.7-1.8,27.3-6.2l0.9-0.6l-7.7-11.2
	l-0.8,0.5c-4.9,3.1-11.1,4.2-21.5,4.2H281c-14.9,0-23.1-7.2-23.1-20.2V33.4c0-13.1,8.1-20.2,23.1-20.2h12.7
	c10.3,0,16.5,1.2,21.5,4.2l0.8,0.5l7.7-11.1l-0.9-0.6C316.2,1.9,308.1,0,295.5,0L280.3,0.1z"/>
<path d="M181.2,0.1c-8-0.4-16.1,0.8-23.6,3.7l-1.1,0.4l6.7,11.9l0.8-0.3c4.6-1.9,9.6-2.5,18.9-2.5h10c14.6,0,23,7.4,23,20.2v39.4
	c0,12.8-8.4,20.2-23,20.2h-16.2c-15,0-22.3-6.2-22.3-18.5s7.3-18.5,22.3-18.5h22.8V42.9H176c-22.3,0-35,11.5-35,31.7
	c0,19.5,13.4,31.6,35,31.6h17.6c24.6,0,35.8-16.4,35.8-31.6V31.8c0-15.2-11.2-31.6-35.8-31.6L181.2,0.1L181.2,0.1z"/>
<path d="M115.1,0.8v72.9c0,12.9-7.3,19.2-22.2,19.2C78.8,92.9,71,86.5,71,75V0.8H57.5V75c0,11.6-7.8,17.9-21.9,17.9
	c-14.9,0-22.2-6.2-22.2-19.2V0.8H0v74.7c0,18.5,13.7,30.6,34.9,30.6c14.2,0,22.7-3.5,29.2-11.9c6.5,8.4,15.1,11.9,29.2,11.9
	c21.2,0,34.9-12,34.9-30.6V0.8L115.1,0.8L115.1,0.8z"/>
</svg>
