<?xml version="1.0" encoding="utf-8"?>
<!-- Generator: Adobe Illustrator 24.0.1, SVG Export Plug-In . SVG Version: 6.00 Build 0)  -->
<svg version="1.1" xmlns="http://www.w3.org/2000/svg" xmlns:xlink="http://www.w3.org/1999/xlink" x="0px" y="0px"
	 viewBox="0 0 54.9 8.3" style="enable-background:new 0 0 54.9 8.3;" xml:space="preserve">
<style type="text/css">
	.st0{fill:#ED1C24;}
	.st1{fill:#FFFFFF;}
	.st2{font-family:'NYJGothicR';}
	.st3{font-size:3.2px;}
</style>
<g id="레이어_1">
	<title>자산 10</title>
	<g id="레이어_2_1_">
		<g id="레이어_3">
			<path d="M2.9,6.4c0.3,0,0.6,0,0.8-0.2C3.9,6.2,4.2,6,4.4,5.9l0.3,0.3C4.4,6.4,4.1,6.6,3.8,6.6c-0.3,0.1-0.7,0.1-1,0.1
				c-0.4,0-0.7-0.1-1.1-0.2C1.4,6.4,1.1,6.2,0.8,6C0.6,5.8,0.4,5.5,0.2,5.1C0.1,4.8,0,4.4,0,4.1C0,3.7,0.1,3.3,0.2,3
				c0.1-0.3,0.3-0.6,0.6-0.9c0.3-0.2,0.6-0.4,0.9-0.6c0.4-0.1,0.8-0.2,1.1-0.2c0.3,0,0.6,0,0.9,0.1c0.3,0.1,0.6,0.2,0.8,0.4L4.3,2.2
				L4.1,2C3.9,1.9,3.8,1.9,3.7,1.9c-0.1,0-0.3-0.1-0.4-0.1c-0.2,0-0.3,0-0.5,0c-0.3,0-0.7,0.1-1,0.2C1.6,2,1.3,2.2,1.1,2.4
				C0.9,2.6,0.8,2.9,0.7,3.2C0.6,3.5,0.5,3.8,0.5,4.1c0,0.3,0.1,0.6,0.2,0.9C0.8,5.3,1,5.5,1.2,5.7C1.4,5.9,1.7,6.1,2,6.2
				C2.3,6.3,2.6,6.4,2.9,6.4z"/>
			<path d="M9.2,4.7c0,1.1-0.8,2-1.9,2.1c-0.1,0-0.1,0-0.2,0c-1.1,0-2-0.9-2-2c0-1.1,0.8-2,1.9-2.1c0.1,0,0.1,0,0.2,0
				c1.1-0.1,2,0.8,2,1.8C9.2,4.6,9.2,4.7,9.2,4.7z M5.4,4.8c0,0.9,0.6,1.6,1.5,1.7c0,0,0.1,0,0.1,0c0.9,0,1.7-0.7,1.7-1.6
				c0,0,0-0.1,0-0.1c0-0.9-0.7-1.6-1.6-1.7c0,0,0,0-0.1,0C6.2,3,5.5,3.7,5.4,4.6C5.4,4.7,5.4,4.7,5.4,4.8z"/>
			<path d="M10.3,4.1c0-0.4,0-0.8,0-1.2h0.4v0.8l0,0c0.3-0.6,1-0.9,1.7-0.9c1,0,1.9,0.8,1.9,1.8c0,0,0,0.1,0,0.1
				c0,1.1-0.8,2-1.9,2.1c0,0-0.1,0-0.1,0c-0.6,0-1.2-0.3-1.5-0.8l0,0v2.3h-0.4L10.3,4.1z M10.7,5.1c0,0.1,0,0.2,0,0.3
				c0.2,0.6,0.8,1,1.5,1c0.9,0,1.6-0.7,1.6-1.5c0-0.1,0-0.1,0-0.2C13.9,3.8,13.3,3,12.4,3c-0.8-0.1-1.5,0.4-1.7,1.2
				c0,0.1-0.1,0.2-0.1,0.3L10.7,5.1z"/>
			<path d="M15.3,4.1c0-0.4,0-0.8,0-1.2h0.4v0.8l0,0c0.3-0.6,1-0.9,1.7-0.9c1,0,1.9,0.8,1.9,1.8c0,0,0,0.1,0,0.1
				c0,1.1-0.8,2-1.9,2.1c0,0-0.1,0-0.1,0c-0.6,0-1.2-0.3-1.6-0.8l0,0v2.3h-0.4L15.3,4.1z M15.7,5.1c0,0.1,0,0.2,0,0.3
				c0.2,0.6,0.8,1,1.5,1c0.9,0,1.6-0.6,1.6-1.5c0-0.1,0-0.2,0-0.2c0-0.9-0.7-1.6-1.5-1.6c-0.7,0-1.3,0.4-1.5,1.1
				c0,0.1-0.1,0.2-0.1,0.3L15.7,5.1z"/>
			<path d="M20.4,4.8c-0.1,0.9,0.6,1.6,1.4,1.7c0.1,0,0.2,0,0.2,0c0.4,0,0.9-0.1,1.3-0.2l0.1,0.3C23,6.7,22.5,6.8,22,6.8
				c-1,0.1-1.9-0.7-2-1.8c0-0.1,0-0.1,0-0.2c-0.1-1.1,0.8-2,1.9-2.1c0,0,0.1,0,0.1,0c0.9,0,1.7,0.7,1.7,1.7c0,0,0,0.1,0,0.1
				c0,0.1,0,0.2,0,0.2L20.4,4.8z M23.3,4.5c0.1-0.7-0.5-1.3-1.2-1.4c-0.1,0-0.1,0-0.2,0c-0.8,0-1.4,0.6-1.5,1.4H23.3z"/>
			<path d="M24.8,1h0.4v5.7h-0.4V1z"/>
			<path d="M27.2,1.7c0,0.2-0.1,0.3-0.3,0.3c0,0,0,0,0,0c-0.2,0-0.3-0.2-0.3-0.4c0-0.2,0.2-0.3,0.3-0.3C27,1.4,27.2,1.5,27.2,1.7z
				 M26.6,6.7V2.9h0.4v3.8L26.6,6.7z"/>
			<path d="M30.9,6.7l-0.1-0.6l0,0c-0.3,0.4-0.9,0.7-1.4,0.7c-0.6,0.1-1.2-0.4-1.3-1c0,0,0,0,0,0c0-0.9,0.8-1.4,2.7-1.4V4.2
				c0.1-0.5-0.3-1.1-0.8-1.1c-0.1,0-0.2,0-0.3,0c-0.4,0-0.8,0.1-1.1,0.3l-0.1-0.3c0.4-0.2,0.8-0.4,1.3-0.4c1.3,0,1.5,1,1.5,1.6v1.4
				c0,0.3,0,0.6,0.1,0.9H30.9z M30.8,4.7c-1,0-2.3,0.1-2.3,1c0,0.4,0.3,0.8,0.7,0.8c0,0,0.1,0,0.1,0c0.6,0,1.1-0.3,1.3-0.8
				c0-0.1,0-0.2,0-0.2V4.7z"/>
			<path class="st0" d="M32.7,6.1c0.5,0.3,1,0.4,1.5,0.4c1,0,1.6-0.4,1.6-1.1s-0.3-0.9-1.4-1.2c-1.2-0.3-1.7-0.8-1.7-1.4
				s0.8-1.3,1.9-1.3c0.5,0,0.9,0.1,1.4,0.3L35.8,2c-0.4-0.2-0.8-0.3-1.2-0.3c-1.1,0-1.5,0.6-1.5,1c0,0.6,0.4,0.9,1.4,1.1
				s1.7,0.7,1.7,1.5s-0.6,1.4-2.1,1.4c-0.6,0-1.1-0.1-1.6-0.4L32.7,6.1z"/>
			<path class="st0" d="M38.1,1.7c0,0.2-0.2,0.4-0.4,0.4c-0.2,0-0.4-0.2-0.4-0.4c0-0.2,0.2-0.3,0.4-0.3C37.9,1.4,38.1,1.5,38.1,1.7
				C38.1,1.7,38.1,1.7,38.1,1.7z M37.5,6.7V2.9H38v3.8L37.5,6.7z"/>
			<path class="st0" d="M39.5,3.8c0-0.3,0-0.6,0-0.9h0.4v0.7l0,0c0.3-0.5,0.9-0.9,1.6-0.8c0.6,0,1.2,0.4,1.4,0.9l0,0
				c0.1-0.2,0.3-0.4,0.5-0.5c0.3-0.3,0.8-0.4,1.2-0.4c0.9,0,1.6,0.7,1.6,1.5c0,0.1,0,0.2,0,0.3v2.1h-0.4V4.6c0-1-0.5-1.5-1.3-1.5
				c-0.5,0-1,0.3-1.3,0.8c-0.1,0.1-0.1,0.2-0.1,0.4v2.4h-0.4V4.4c0.1-0.6-0.4-1.2-1.1-1.3c0,0-0.1,0-0.1,0c-0.6,0-1.1,0.4-1.4,0.9
				C40,4.1,40,4.2,40,4.4v2.3h-0.5L39.5,3.8z"/>
		</g>
		<g id="레이어_2-2">
			<polyline points="47.7,0 47.7,2.9 54,2.9 54.9,0 			"/>
		</g>
	</g>
</g>
<g id="레이어_2">
	<text transform="matrix(1 0 0 1 48.5011 2.3091)" class="st1 st2 st3">pro</text>
</g>
</svg>
