<svg xmlns="http://www.w3.org/2000/svg" viewBox="0 0 54.89 8.29"><defs><style>.cls-1{fill:#ed1c24;}.cls-2{fill:#fff;}</style></defs><title>자산 10</title><g id="레이어_2" data-name="레이어 2"><g id="레이어_3" data-name="레이어 3"><path d="M3.16,6.42A2,2,0,0,0,4,6.26a3.65,3.65,0,0,0,.65-.36l.27.33a2.21,2.21,0,0,1-.82.42,3.71,3.71,0,0,1-1,.12A3.24,3.24,0,0,1,2,6.57,2.59,2.59,0,0,1,1.12,6a2.5,2.5,0,0,1-.61-.85A2.58,2.58,0,0,1,.29,4.08,2.59,2.59,0,0,1,.51,3a2.38,2.38,0,0,1,.6-.86A2.88,2.88,0,0,1,2,1.56a3.25,3.25,0,0,1,1.14-.2,3.48,3.48,0,0,1,.93.12,2.5,2.5,0,0,1,.81.42l-.27.32L4.34,2A2.4,2.4,0,0,0,4,1.86a2.66,2.66,0,0,0-.39-.11,2.26,2.26,0,0,0-.47-.05,2.4,2.4,0,0,0-1,.2,2.2,2.2,0,0,0-.75.52A2.44,2.44,0,0,0,1,3.17a2.53,2.53,0,0,0-.17.91A2.47,2.47,0,0,0,1,5a2.13,2.13,0,0,0,.51.74,2.1,2.1,0,0,0,.75.48A2.42,2.42,0,0,0,3.16,6.42Z" transform="translate(-0.29 -0.01)"/><path d="M9.48,4.73A2,2,0,0,1,7.36,6.79a2,2,0,0,1-2-2,2,2,0,0,1,2.1-2.06A1.93,1.93,0,0,1,9.48,4.73Zm-3.75.06A1.61,1.61,0,0,0,7.38,6.47a1.65,1.65,0,0,0,1.7-1.72A1.63,1.63,0,0,0,7.42,3.08,1.62,1.62,0,0,0,5.73,4.79Z" transform="translate(-0.29 -0.01)"/><path d="M10.56,4.1c0-.42,0-.83,0-1.24h.39l0,.8h0a1.8,1.8,0,0,1,1.66-.9A1.88,1.88,0,0,1,14.54,4.7a2,2,0,0,1-2,2.09A1.79,1.79,0,0,1,11,6h0V8.29h-.41ZM11,5.15a1.06,1.06,0,0,0,0,.31,1.54,1.54,0,0,0,1.49,1,1.59,1.59,0,0,0,1.63-1.76A1.59,1.59,0,0,0,11,4.14a1.3,1.3,0,0,0-.07.33Z" transform="translate(-0.29 -0.01)"/><path d="M15.62,4.1c0-.42,0-.83,0-1.24H16l0,.8h0a1.81,1.81,0,0,1,1.66-.9A1.87,1.87,0,0,1,19.59,4.7a2,2,0,0,1-2,2.09A1.76,1.76,0,0,1,16,6h0V8.29h-.4ZM16,5.15a1.55,1.55,0,0,0,0,.31,1.55,1.55,0,0,0,1.49,1,1.58,1.58,0,0,0,1.63-1.76,1.59,1.59,0,0,0-3.09-.57,1.3,1.3,0,0,0-.07.33Z" transform="translate(-0.29 -0.01)"/><path d="M20.69,4.78a1.56,1.56,0,0,0,1.67,1.68,2.81,2.81,0,0,0,1.27-.24l.11.31a3.38,3.38,0,0,1-1.42.26,1.88,1.88,0,0,1-2-1.92,2,2,0,0,1,2-2.11A1.67,1.67,0,0,1,24,4.54a1.56,1.56,0,0,1,0,.24Zm2.88-.32a1.28,1.28,0,0,0-1.35-1.38,1.51,1.51,0,0,0-1.5,1.38Z" transform="translate(-0.29 -0.01)"/><path d="M25.09,1h.4V6.7h-.4Z" transform="translate(-0.29 -0.01)"/><path d="M27.48,1.72a.34.34,0,0,1-.35.35.34.34,0,0,1-.32-.35.35.35,0,0,1,.34-.34A.34.34,0,0,1,27.48,1.72Zm-.54,5V2.86h.41V6.7Z" transform="translate(-0.29 -0.01)"/><path d="M31.2,6.7l-.07-.6h0a1.73,1.73,0,0,1-1.43.69,1.12,1.12,0,0,1-1.26-1c0-.88.83-1.44,2.68-1.42V4.23A1,1,0,0,0,30,3.09a2.07,2.07,0,0,0-1.14.32l-.13-.28A2.44,2.44,0,0,1,30,2.76c1.34,0,1.49,1,1.49,1.62V5.77a5.91,5.91,0,0,0,.07.93Zm-.1-2c-1.05,0-2.25.13-2.25,1a.78.78,0,0,0,.86.81,1.41,1.41,0,0,0,1.34-.78.68.68,0,0,0,.05-.23Z" transform="translate(-0.29 -0.01)"/><path class="cls-1" d="M33,6.09a3.09,3.09,0,0,0,1.53.38c1,0,1.59-.44,1.59-1.08s-.35-.93-1.38-1.2C33.49,3.86,33,3.43,33,2.76s.78-1.33,1.91-1.33a3.08,3.08,0,0,1,1.37.26L36.1,2a2.56,2.56,0,0,0-1.21-.27c-1.1,0-1.45.56-1.45,1,0,.56.39.87,1.39,1.14s1.72.68,1.72,1.51-.62,1.44-2.09,1.44a3.51,3.51,0,0,1-1.64-.39Z" transform="translate(-0.29 -0.01)"/><path class="cls-1" d="M38.38,1.72a.37.37,0,0,1-.74,0A.37.37,0,0,1,38,1.38.35.35,0,0,1,38.38,1.72Zm-.59,5V2.86h.45V6.7Z" transform="translate(-0.29 -0.01)"/><path class="cls-1" d="M39.82,3.79c0-.32,0-.62,0-.93h.42l0,.74h0a1.76,1.76,0,0,1,1.58-.84,1.47,1.47,0,0,1,1.38.91h0a1.71,1.71,0,0,1,.45-.53,1.81,1.81,0,0,1,1.2-.38,1.56,1.56,0,0,1,1.57,1.79V6.7H46V4.56c0-1-.48-1.46-1.28-1.46a1.46,1.46,0,0,0-1.28.77,1.12,1.12,0,0,0-.09.38V6.7h-.44V4.36A1.16,1.16,0,0,0,41.71,3.1,1.54,1.54,0,0,0,40.35,4a1.06,1.06,0,0,0-.08.37V6.7h-.45Z" transform="translate(-0.29 -0.01)"/></g><g id="레이어_2-2" data-name="레이어 2"><polyline points="47.67 0 47.67 2.94 54.04 2.94 54.89 0"/><path class="cls-2" d="M48.94,1.82a.57.57,0,0,0,.61.62A1,1,0,0,0,50,2.35l0,.12a1.25,1.25,0,0,1-.52.1.69.69,0,0,1-.73-.72.72.72,0,0,1,.72-.78.61.61,0,0,1,.62.66.25.25,0,0,1,0,.09ZM50,1.7a.47.47,0,0,0-.49-.51A.56.56,0,0,0,49,1.7Z" transform="translate(-0.29 -0.01)"/><path class="cls-2" d="M51.8.4V2.19c0,.11,0,.23,0,.34h-.13v-.3h0a.59.59,0,0,1-.57.34.69.69,0,0,1-.69-.72.73.73,0,0,1,.72-.78.59.59,0,0,1,.53.27h0V.4Zm-.14,1.28a.68.68,0,0,0,0-.14.51.51,0,0,0-.52-.35.58.58,0,0,0-.57.64.56.56,0,0,0,.57.62.55.55,0,0,0,.52-.39.51.51,0,0,0,0-.13Z" transform="translate(-0.29 -0.01)"/><path class="cls-2" d="M53.54,2.19c0,.11,0,.23,0,.34h-.14V2.24h0a.6.6,0,0,1-.55.33c-.16,0-.54-.06-.54-.67V1.1h.15v.77c0,.34.11.57.43.57a.53.53,0,0,0,.47-.3.47.47,0,0,0,0-.17V1.1h.14Z" transform="translate(-0.29 -0.01)"/></g></g></svg>