<svg xmlns="http://www.w3.org/2000/svg" viewBox="0 0 315.77 252.5"><defs><style>.cls-1,.cls-2,.cls-3{fill:none;stroke-width:13px;}.cls-1,.cls-2{stroke:#323232;}.cls-1{stroke-linecap:square;}.cls-3{stroke:#0066e5;}</style></defs><title>자산 30</title><g id="레이어_2" data-name="레이어 2"><g id="레이어_2-2" data-name="레이어 2"><path class="cls-1" d="M6.53,47.82a30.37,30.37,0,0,0,21.69-9.23"/><path class="cls-1" d="M28.22,38.59c12.17,12.17,30.71,12.45,43.17,0"/><path class="cls-1" d="M71.39,38.59c12.17,12.17,30.71,12.45,43.17,0"/><path class="cls-1" d="M114.56,38.59c12.17,12.17,30.71,12.45,43.17,0"/><path class="cls-1" d="M157.73,38.59c12.17,12.17,30.71,12.45,43.17,0"/><path class="cls-1" d="M200.9,38.59c12.17,12.17,30.71,12.45,43.16,0"/><path class="cls-1" d="M244.06,38.59c12.18,12.17,30.72,12.45,43.17,0"/><path class="cls-1" d="M287.23,38.59a30.54,30.54,0,0,0,21.49,9.23"/></g><g id="레이어_8" data-name="레이어 8"><path class="cls-2" d="M139.83,246c7.79,0,17.3-5.56,21.12-12.35l24.47-43.51c3.82-6.79,7-18.73,7-26.52V120a14.22,14.22,0,0,0-14.17-14.17H23.92A14.22,14.22,0,0,0,9.75,120v43.66c0,7.79,3.08,19.75,6.85,26.58l23.94,43.39c3.77,6.83,13.23,12.41,21,12.41Z"/><path class="cls-2" d="M38.3,105.79V97.18c0-4.73,6.37-8.6,14.17-8.6h97.72c7.79,0,14.17,3.87,14.17,8.6v8.61"/><line class="cls-1" x1="44.17" y1="124.86" x2="81.12" y2="124.86"/><line class="cls-1" x1="121.43" y1="124.86" x2="158.37" y2="124.86"/><path class="cls-2" d="M43.3,142.2a8.53,8.53,0,0,0-8.51,8.5v15.77a39.65,39.65,0,0,0,4.07,16l18.86,34.61a15.82,15.82,0,0,0,12.58,7.47h60.53a16,16,0,0,0,12.65-7.43l19.41-34.7A38.76,38.76,0,0,0,167,166.47V150.7a8.52,8.52,0,0,0-8.5-8.5Z"/><line class="cls-2" x1="41.63" y1="187.52" x2="160.03" y2="187.52"/><path class="cls-2" d="M59.52,142.2v8.74a8.52,8.52,0,0,0,8.5,8.5h65.89a8.53,8.53,0,0,0,8.5-8.5V142.2"/><line class="cls-2" x1="100.82" y1="88.58" x2="100.82" y2="59.12"/><line class="cls-2" x1="100.82" y1="31.07" x2="100.82"/><line class="cls-2" x1="192.37" y1="148.89" x2="212.58" y2="130.45"/><line class="cls-2" x1="192.94" y1="167.85" x2="221.26" y2="142.77"/><line class="cls-2" x1="238.76" y1="122.59" x2="270.5" y2="122.59"/><line class="cls-2" x1="238.76" y1="137.75" x2="270.5" y2="137.75"/><polyline class="cls-2" points="311.14 122.97 298.54 110.18 283.76 110.18 270.69 122.97 270.69 137.37 283.76 149.78 298.54 149.78 311.14 137.37"/><circle class="cls-3" cx="225.61" cy="130.12" r="13.15"/><line class="cls-2" x1="183.85" y1="200.35" x2="212" y2="224.74"/><line class="cls-2" x1="190.37" y1="186.49" x2="220.97" y2="212.99"/><line class="cls-2" x1="238.18" y1="233.17" x2="269.92" y2="233.17"/><line class="cls-2" x1="238.18" y1="218.01" x2="269.92" y2="218.01"/><polyline class="cls-2" points="310.56 232.79 297.96 245.58 283.18 245.58 270.1 232.79 270.1 218.39 283.18 205.98 297.96 205.98 310.56 218.39"/><circle class="cls-3" cx="225.02" cy="225.64" r="13.15"/></g></g></svg>