<svg xmlns="http://www.w3.org/2000/svg" viewBox="0 0 370.03 368.6"><defs><style>.cls-1,.cls-2{fill:none;stroke-width:13px;}.cls-1{stroke:#323232;}.cls-2{stroke:#0066e5;}</style></defs><title>자산 10</title><g id="레이어_2" data-name="레이어 2"><g id="레이어_2-2" data-name="레이어 2"><path class="cls-1" d="M52,132,95.62,88.35l43.26,43.27L87.13,183.36c-16,16-23.47,31.11-23.47,53.23,0,38.58,30.14,68.73,68.73,68.73,21.64,0,37.41-6.68,54.58-23.85l49.62-49.62,43.91,43.91-58.21,57.58A133.14,133.14,0,0,1,6.5,229C6.5,182.05,28.41,155.54,52,132Z"/><polygon class="cls-2" points="138.88 131.62 177.31 94 133.64 50.33 95.62 88.35 138.88 131.62"/><rect class="cls-2" x="250.61" y="203.58" width="54.22" height="62.11" transform="translate(-84.57 265.1) rotate(-45)"/><line class="cls-1" x1="155.63" y1="39.47" x2="190.24" y2="4.58"/><line class="cls-1" x1="188.52" y1="72.36" x2="223.27" y2="37.61"/><line class="cls-1" x1="297.54" y1="180.98" x2="332.09" y2="146.43"/><line class="cls-1" x1="330.69" y1="214.53" x2="365.44" y2="179.78"/><circle class="cls-1" cx="310.26" cy="59.54" r="36.69"/></g></g></svg>