<svg id="레이어_3" data-name="레이어 3" xmlns="http://www.w3.org/2000/svg" viewBox="0 0 170.52 170.5"><defs><style>.cls-1,.cls-2{fill:none;stroke:#000;stroke-miterlimit:10;stroke-width:6px;}.cls-2{stroke-linecap:round;}</style></defs><title>대지 10</title><circle class="cls-1" cx="85.24" cy="85.24" r="7.24"/><path class="cls-1" d="M70.11,100.36a21.4,21.4,0,0,1,0-30.25"/><path class="cls-1" d="M100.37,70.11a21.38,21.38,0,0,1,0,30.25"/><path class="cls-2" d="M55.26,115.22a42.41,42.41,0,0,1,0-60"/><path class="cls-2" d="M115.23,55.25a42.41,42.41,0,0,1,0,60"/><path class="cls-2" d="M40,130.52A64,64,0,0,1,40,40"/><path class="cls-2" d="M130.53,40a64,64,0,0,1,0,90.57"/><circle class="cls-1" cx="85.24" cy="85.24" r="82.24"/><path class="cls-1" d="M76,157.73,77.44,111s-.4-5.4,7.8-5.4,7.81,5.4,7.81,5.4l1.42,46.71"/></svg>