<?xml version="1.0" encoding="utf-8"?>
<!-- Generator: Adobe Illustrator 24.0.1, SVG Export Plug-In . SVG Version: 6.00 Build 0)  -->
<svg version="1.1" id="layer" xmlns="http://www.w3.org/2000/svg" xmlns:xlink="http://www.w3.org/1999/xlink" x="0px" y="0px"
	 viewBox="0 0 600 168" style="enable-background:new 0 0 600 168;" xml:space="preserve">
<style type="text/css">
	.st0{fill:#F7323F;}
	.st1{opacity:0.55;}
	.st2{clip-path:url(#SVGID_2_);}
</style>
<title>대지 1</title>
<path class="st0" d="M315.5,75.2c-0.6-0.1-1.1-0.7-1.1-1.3V57.3c0-0.7,0.6-1.3,1.3-1.4c2.8-0.3,5-2.7,5-5.5c0-3-2.4-5.5-5.5-5.5
	c0,0,0,0,0,0h-30.7c-3,0-5.5,2.5-5.5,5.6c0,2.8,2.1,5.1,4.9,5.4c0.7,0.1,1.3,0.7,1.3,1.4v21.3c0,6.7-6.3,6.1-10.7,6.1
	c-16.1,0-23-17.9-23-36.7s7.1-34,22.1-34c6.8,0,14.7,3.6,21,9.6c2,1.9,3.8,4.3,6,5.5c0.8,0.5,1.7,0.8,2.7,0.8c2.9,0,5.3-2.4,5.3-5.3
	c0-0.6-0.1-1.2-0.3-1.8l-7.4-18.2l0,0c-0.8-2.2-2.9-3.7-5.3-3.7c-3.2,0-5.1,3-8.5,1.9C281.8,1,276.2,0.1,270.6,0
	c-28.7,0-50,22-50,49.1s23.3,49.1,52,49.1c16.8,0,36.6-8.7,44.9-15.6c1.5-1.2,1.5-2.2,1.5-3.6C318.8,77.1,317.4,75.5,315.5,75.2"/>
<path class="st0" d="M55.3,64.6H37.7c-1,0.1-1.9-0.6-2-1.6c0-0.4,0-0.8,0.2-1.1l9.5-21.3c0.7-1.5,1.7-1.5,2.4,0L57,61.9
	c0.5,0.8,0.3,1.9-0.5,2.4C56.2,64.6,55.7,64.7,55.3,64.6 M104,86c-2.6-1.1-4.4-0.7-6.4-4.9S66.3,8.7,64.9,5.4s-3-3.1-4.1-3.1H32
	c-3,0-4.2,3.1-4.2,4.4c0,1.3,0.4,4.3,3.3,4.7s4.8,1.6,5.5,3.1c0.7,1.5,1.3,3.1,2.3,5.5s0.3,3.1-0.2,4.3S15.5,75.8,13.9,79.6
	c-1.2,3-3.7,5.2-6.8,6C4.6,86.3,0,86.8,0,91.3S3.8,96,5.4,96h19.3c3,0,7.1-0.5,7.1-4.7s-3.7-4.9-4.7-5.3s-1.7-0.8-1.4-1.5
	s1.4-3,1.9-4.3c0.4-1,1.4-1.7,2.5-1.5h31.8c1.9,0,2.5,0.3,3,1.5s3.6,8.5,5,11.6s2,4.2,4.2,4.2h27.5c3.2,0,6.6-0.9,6.6-4.6
	S106.6,87.1,104,86"/>
<path class="st0" d="M205.3,73.2c-0.8,0-1.7,0.2-2.4,0.6c0,0-6.8,4.4-11.5,7.2c-3.3,1.9-7.8,2.3-11.3,2.3h-23.4
	c-0.8,0-1.4-0.6-1.4-1.4V56.3c0-0.8,0.6-1.4,1.4-1.4h21.8c2.3,0,3.3,2.5,3.6,3.2c0.9,2,2.8,3.2,5,3.2c1.8,0,3.4-0.8,4.4-2.3
	l9.9-15.6l0,0c0.6-0.9,0.9-1.9,0.9-3c0-3-2.4-5.4-5.4-5.4c-1.3,0-2.5,0.5-3.5,1.3c-1.2,1-4.4,4.8-10.4,4.8h-26.3
	c-0.8,0-1.4-0.6-1.4-1.3c0,0,0,0,0-0.1V16.2c0-0.8,0.6-1.4,1.4-1.4h23.4c3.5,0,8.1,0.4,11.3,2.3c4.7,2.8,11.5,7.2,11.5,7.2
	c0.7,0.4,1.6,0.6,2.4,0.6c2.8,0,5-2.2,5-5c0-0.9-0.3-1.8-0.8-2.6c0,0-10-13.6-10.2-13.9c-0.6-0.8-1.5-1.2-2.5-1.2h-73.7
	c-2.4,0-4.3,1.9-4.3,4.2c0,0,0,0,0,0.1c-0.1,2.4,1.6,4.5,4,4.9c1.7,0.2,2.9,1.6,2.9,3.3v68.5c0,1.7-1.2,3.1-2.9,3.3
	c-2.4,0.4-4.1,2.5-4,4.9c0,2.4,1.9,4.3,4.2,4.3c0,0,0,0,0.1,0h73.7c1,0,1.9-0.5,2.5-1.2c0.2-0.3,10.2-13.9,10.2-13.9
	c0.5-0.8,0.8-1.7,0.8-2.6C210.2,75.3,208,73.2,205.3,73.2"/>
<path d="M463.2,93.3v2.6h-48.9v-2.6h3.1c2.3,0.1,4.5-0.4,6.6-1.4c1.3-0.7,2.3-1.9,2.8-3.3c0.5-1.1,0.8-4,0.8-8.7V18.3
	c0-4.8-0.3-7.8-0.8-8.9c-0.6-1.4-1.7-2.5-3.1-3.1c-1.9-1-4.1-1.4-6.3-1.3h-3.1V2.4h48.9v2.7h-3.1c-2.3-0.1-4.5,0.4-6.5,1.4
	c-1.3,0.7-2.3,1.9-2.8,3.3c-0.5,1.1-0.8,4-0.8,8.7v61.6c0,4.8,0.3,7.8,0.8,9c0.7,1.3,1.8,2.4,3.1,3.1c1.9,1,4.1,1.4,6.2,1.3h3.1
	L463.2,93.3z"/>
<path d="M504.2,7.6v73c0,3.9,0.2,6.2,0.6,7.1c0.4,0.9,1.1,1.6,1.9,2c1.7,0.8,3.5,1.1,5.4,1c7.7,0,13.5-2.6,17.6-7.9
	c5.5-7.1,8.3-18.1,8.3-33c0-12-1.9-21.6-5.7-28.8c-3-5.6-6.8-9.4-11.5-11.5C517.3,8.2,511.8,7.5,504.2,7.6 M468.5,95.9v-2.6h3.1
	c2.2,0.1,4.4-0.3,6.3-1.3c1.4-0.8,2.6-2,3.2-3.5c0.4-1,0.6-3.9,0.6-8.7V18.2c0-4.8-0.3-7.8-0.8-9c-0.6-1.4-1.7-2.5-3.1-3.1
	c-1.9-1-4.1-1.4-6.3-1.3h-3.1V2.2h41.9c11.2,0,20.2,1.5,27,4.6c8,3.4,14.6,9.4,18.9,16.9c4.4,7.8,6.6,16.6,6.5,25.6
	c0,6.2-1,12.4-3.2,18.2c-1.8,5-4.6,9.7-8.2,13.7c-3.3,3.6-7.2,6.5-11.6,8.7c-5.1,2.4-10.5,4.1-16.1,5.1c-2.8,0.6-7.2,0.8-13.2,0.8
	h-41.9L468.5,95.9z"/>
<path d="M291.4,131.4v4.5h10.3v31h5.1v-31h10.3v-4.5H291.4z M279.9,152.4c0,1.2,0,3.1,0.1,5.3c0,0.5,0.2,2.9,0.2,3.4s0,0.5-0.2,0.8
	l-0.3-0.1c-0.2-0.6-1.2-3.4-1.5-4l-1.5-3.5l-10.3-22.8h-6.3v35.6h4.1v-23.6c0-0.3-0.3-5.6-0.3-6.6l0.3-0.5l0.3,0.1
	c0.8,2.6,1.7,5.1,2.8,7.6l10.4,23.1h6.2v-35.5h-4.1L279.9,152.4L279.9,152.4z M233.2,150.6h12.5v-4.5h-12.5v-10.3h17v-4.4h-22.1
	v35.5h23v-4.5h-17.8v-11.8H233.2z M205.7,150.6v4.5h6.2c-0.1,2.4-0.2,4.3-2.1,6.5c-1,1.3-2.6,2.1-4.2,2c-1,0-3.9-0.2-5.7-3.9
	c-1.5-3-1.9-6.6-1.9-10.5c0-2.7,0.3-5.4,0.9-8.1c1.7-5.8,5.3-6.3,6.6-6.3c4,0,5.3,3.7,5.8,5.3l4.6-1c-0.9-5.1-5.5-8.8-10.7-8.6
	c-3.9,0.2-7.5,2.4-9.4,5.8c-2.2,3.7-2.8,8.9-2.8,13.1c0,4,0.8,10.7,4.1,14.7c1.8,2.5,4.7,3.8,7.7,3.7c3.8,0,6.5-1.2,8.2-2.9
	c4.7-4.9,4.3-14.5,4.3-14.5h-11.6L205.7,150.6z M174.9,134.6h3v29.2h-3v3.1h11.2v-3.1h-3.2v-29.2h3.2v-3.2h-11.2V134.6z
	 M152.2,131.4h-4.9v35.5h21.3v-4.5h-16.4L152.2,131.4L152.2,131.4z M122.6,131.4h-4.9v35.5H139v-4.5h-16.4L122.6,131.4L122.6,131.4z
	 M90.6,150.6H103v-4.5H90.5v-10.3h17v-4.4H85.4v35.5h23v-4.5H90.6L90.6,150.6z M52,135.9h10.3v31h5.1v-31h10.3v-4.5H52L52,135.9z
	 M40.4,152.4c0,1.2,0,3.1,0.1,5.3c0,0.5,0.2,2.9,0.2,3.4s0,0.5-0.2,0.8l-0.3-0.1c-0.2-0.6-1.2-3.4-1.5-4l-1.5-3.5l-10.3-22.8h-6.3
	v35.6h4.1v-23.6c0-0.3-0.2-5.6-0.2-6.6l0.3-0.5l0.2,0.1c0.3,0.8,1.6,4.6,2.9,7.6l10.4,22.9h6.2v-35.5h-4.1L40.4,152.4z M0.1,134.6h3
	v29.2h-3v3.1h11.2v-3.1H8.2v-29.2h3.1v-3.2H0.1L0.1,134.6z"/>
<path class="st0" d="M555.5,131.4v13.2c0,1.3,0,1.6,0.1,4.1l0.2,3.6h-0.2l-0.8-1.8c-0.3-0.7-0.8-1.7-1.2-2.4l-9.2-16.6H537v35.5h7.2
	v-16.6c0-0.9-0.2-5.4-0.3-6.5h0.3c1.8,4.3,1.9,4.5,2.6,5.9l9.4,17.2h6.4v-35.5h-7.1V131.4z M520.4,155.1c0,2.5,0,6.4-4.2,6.4
	c-3.5,0-4.2-2.7-4.2-6.4v-12.4c0-1.4,0-5.5,4.3-5.5c4.1,0,4.1,3,4.1,5.5L520.4,155.1L520.4,155.1z M516,130.7
	c-3.3,0-6.7,0.9-8.9,3.4c-2.5,2.7-3.1,6.2-3.1,9.8v9.6c0,2.4,0.3,4.9,0.9,7.2c1.8,6,7.5,7.3,11,7.3c2.3,0,6.5-0.3,9.5-3.5
	c2.2-2.4,3.1-5.6,3.1-10.6v-8.6c0-5.7-1.1-8.9-3.1-11C523,131.6,519.6,130.7,516,130.7 M482.6,134.5h4.1v29.3h-4.1v3.1h16.2v-3.2
	h-4.2v-29.2h4.2v-3.1h-16.2L482.6,134.5z M453.4,137.9h9.1v29.2h8.1v-29.1h8.9v-6.5h-26.1V137.9z M433.4,153.8l3.9-16.1h0.2
	l3.9,16.1H433.4z M432.6,131.4l-10,35.5h7.6l1.8-7h10.9l1.8,7h7.6l-10.2-35.5H432.6z M406.3,161.2c-4.3,0-4.3-3.7-4.3-5.7v-13.4
	c-0.1-1.4,0.3-2.8,1.3-3.9c0.8-0.7,1.8-1.1,2.9-1.1c3.9,0,4,3.9,4,5.6h7.8c-0.1-2.9-0.5-7.2-3.7-9.7c-2.3-1.6-5-2.5-7.8-2.4
	c-8.3,0-12.6,4.6-12.6,12.7V154c0,7.3,1.9,9.3,3.3,10.7c2.3,2.2,5.1,3.2,9.2,3.2c1.5,0,5.2-0.3,7.7-2.4c2-1.6,3.3-3.9,3.7-6.4
	c0.2-1.5,0.3-2.9,0.3-4.4h-7.8C410.5,158.7,409.5,161.3,406.3,161.2 M372.4,134.6h4.2v29.3h-4.2v3.1h16.2v-3.2h-4.2v-29.2h4.2v-3.1
	h-16.2V134.6z M345.3,166.9h7.8v-14.8h10.5v-6.6h-10.5v-7.7h15.8v-6.5h-23.6V166.9z M324,134.5h4.1v29.3H324v3.1h16.2v-3.2H336
	v-29.2h4.2v-3.1H324V134.5z M294.9,137.9h9.1v29.1h8.1v-29.1h8.9v-6.5h-26.1V137.9z M281.3,144.6c0,1.3,0,1.6,0.1,4.1l0.2,3.6h-0.3
	l-0.8-1.8c-0.3-0.7-0.8-1.7-1.2-2.4l-9.2-16.6h-7.5v35.5h7.2v-16.6c0-0.9-0.2-5.4-0.3-6.5h0.3c1.8,4.3,1.9,4.5,2.6,5.9l9.4,17.2h6.4
	v-35.5h-6.9V144.6z M237.9,151.9h11v-6.5h-11.1v-7.6h16.1v-6.5H230v35.5h25v-6.6h-17.1V151.9z M213.9,153.2c0,6.8-3.2,7.4-6.3,7.4
	h-2.3v-22.9c4.2,0,5.9,0,7.4,2.2c1.2,1.7,1.3,4.7,1.3,9C214.1,150,213.9,151.9,213.9,153.2 M206.1,131.4h-8.6v35.5
	c5.8,0,10.9,0,11.9-0.1c2.9-0.3,5.1-0.5,7.6-1.8c3.9-2,4.9-6.3,4.9-10.3v-6.1c0-8-0.6-10.5-2.1-12.8
	C217.8,133,214.7,131.4,206.1,131.4 M176,134.5h4.2v29.3H176v3.1h16.2v-3.2H188v-29.2h4.2v-3.1H176V134.5z"/>
<g class="st1">
	<g>
		<defs>
			<rect id="SVGID_1_" x="171" y="126.4" width="151.3" height="45.6"/>
		</defs>
		<clipPath id="SVGID_2_">
			<use xlink:href="#SVGID_1_"  style="overflow:visible;"/>
		</clipPath>
		<g class="st2">
			<path d="M317.2,131.4h-22.3v4.5h6.9v2h2.1v29.1h2.9v-31h10.3v-4.6L317.2,131.4z M283.9,131.4h-2.6v13.2c0,1.3,0,1.6,0.1,4.1
				l0.2,3.6h-0.3l-0.8-1.8c-0.2-0.4-0.5-1-0.7-1.5v3.5c0,1.2,0,3.1,0.1,5.3c0,0.5,0.2,2.9,0.2,3.4s0,0.5-0.2,0.8l-0.3-0.1
				c-0.2-0.6-1.2-3.4-1.5-4l-1.5-3.5l-10.3-22.8h-3.7v35.5h1.5v-23.6c0-0.3-0.3-5.6-0.3-6.6l0.3-0.5l0.3,0.1
				c0.8,2.6,1.7,5.1,2.8,7.6l2.5,5.7c0-1-0.1-2.5-0.1-3.7c0-0.9-0.1-1.6-0.1-2h0.3c1.8,4.3,1.9,4.5,2.6,5.9l9.4,17.2h1.9v-35.8
				L283.9,131.4z M250.2,131.4h-20.1v35.5h21v-4.5h-17.8v-11.8h12.5v-4.5h-12.5v-10.3h17v-4.4H250.2z M206.1,131.4h-4.2
				c-1.7,0.6-3.2,1.6-4.4,3v30.2c0.7,0.9,1.7,1.7,2.7,2.3c4.6,0,8.4,0,9.2-0.1h0.4c0.4,0,0.7-0.1,1-0.1c0.9-0.4,1.6-0.9,2.3-1.6
				c4.7-4.9,4.3-14.5,4.3-14.5h-3.3v5l0,0c-0.4,2.7-1.5,4-2.9,4.6c-0.3,0.5-0.7,1-1.1,1.5c-1,1.3-2.6,2.1-4.2,2
				c-1,0-3.9-0.2-5.7-3.9c-1.5-3-1.9-6.7-1.9-10.5c0-2.7,0.3-5.4,0.9-8.1c1.7-5.8,5.3-6.3,6.6-6.3c2.1,0,4,1.2,4.9,3.1l0,0
				c1,0.3,1.8,1,2.3,1.8v0.1l3.2-0.6c-0.7-3.5-3.1-6.4-6.4-7.8c-0.6,0-1.3-0.1-2-0.1L206.1,131.4 M186.1,131.4H176v3.1h4.2v29.3H176
				v3.1h10.1v-3.1h-3.2v-29.2h3.2V131.4z"/>
		</g>
	</g>
</g>
<path class="st0" d="M589.4,131.4h-5v13.1h3.4v-8.6h0.1l2.9,8.6h2.8l2.9-8.6h0.1v8.6h3.4v-13.1h-5l-2.8,7.6L589.4,131.4z
	 M581.5,131.4h-10.9v2.9h3.6v10.2h3.8v-10.2h3.6L581.5,131.4L581.5,131.4z"/>
</svg>
