<svg id="layer" xmlns="http://www.w3.org/2000/svg" xmlns:xlink="http://www.w3.org/1999/xlink" viewBox="0 0 651.97 226.77"><defs><style>.cls-1{fill:none;}.cls-2{fill:#f7323f;}.cls-3{opacity:0.55;}.cls-4{clip-path:url(#clip-path);}</style><clipPath id="clip-path"><rect class="cls-1" x="197.68" y="151.35" width="151.3" height="45.6"/></clipPath></defs><title>대지 1</title><path class="cls-2" d="M342.18,100.15a1.39,1.39,0,0,1-1.1-1.3V82.25a1.45,1.45,0,0,1,1.3-1.4,5.61,5.61,0,0,0,5-5.5,5.48,5.48,0,0,0-5.5-5.5h-30.7a5.52,5.52,0,0,0-.6,11,1.45,1.45,0,0,1,1.3,1.4v21.3c0,6.7-6.3,6.1-10.7,6.1-16.1,0-23-17.9-23-36.7s7.1-34,22.1-34c6.8,0,14.7,3.6,21,9.6,2,1.9,3.8,4.3,6,5.5a5.4,5.4,0,0,0,2.7.8,5.34,5.34,0,0,0,5.3-5.3,5.66,5.66,0,0,0-.3-1.8l-7.4-18.2h0a5.63,5.63,0,0,0-5.3-3.7c-3.2,0-5.1,3-8.5,1.9a53.42,53.42,0,0,0-16.5-2.8c-28.7,0-50,22-50,49.1s23.3,49.1,52,49.1c16.8,0,36.6-8.7,44.9-15.6,1.5-1.2,1.5-2.2,1.5-3.6a4.25,4.25,0,0,0-3.5-3.8"/><path class="cls-2" d="M82,89.55H64.38a1.82,1.82,0,0,1-1.8-2.7l9.5-21.3c.7-1.5,1.7-1.5,2.4,0l9.2,21.3a1.75,1.75,0,0,1-1.7,2.7m48.7,21.4c-2.6-1.1-4.4-.7-6.4-4.9S93,33.65,91.58,30.35s-3-3.1-4.1-3.1H58.68c-3,0-4.2,3.1-4.2,4.4s.4,4.3,3.3,4.7,4.8,1.6,5.5,3.1,1.3,3.1,2.3,5.5.3,3.1-.2,4.3-23.2,51.5-24.8,55.3a10.07,10.07,0,0,1-6.8,6c-2.5.7-7.1,1.2-7.1,5.7s3.8,4.7,5.4,4.7h19.3c3,0,7.1-.5,7.1-4.7s-3.7-4.9-4.7-5.3-1.7-.8-1.4-1.5,1.4-3,1.9-4.3a2.32,2.32,0,0,1,2.5-1.5h31.8c1.9,0,2.5.3,3,1.5s3.6,8.5,5,11.6,2,4.2,4.2,4.2h27.5c3.2,0,6.6-.9,6.6-4.6s-1.6-4.3-4.2-5.4"/><path class="cls-2" d="M232,98.15a4.75,4.75,0,0,0-2.4.6s-6.8,4.4-11.5,7.2c-3.3,1.9-7.8,2.3-11.3,2.3h-23.4a1.41,1.41,0,0,1-1.4-1.4V81.25a1.43,1.43,0,0,1,1.4-1.4h21.8c2.3,0,3.3,2.5,3.6,3.2a5.32,5.32,0,0,0,5,3.2,5.27,5.27,0,0,0,4.4-2.3l9.9-15.6h0a5.07,5.07,0,0,0,.9-3,5.39,5.39,0,0,0-8.9-4.1c-1.2,1-4.4,4.8-10.4,4.8h-26.3a1.37,1.37,0,0,1-1.4-1.4V41.15a1.41,1.41,0,0,1,1.4-1.4h23.4c3.5,0,8.1.4,11.3,2.3,4.7,2.8,11.5,7.2,11.5,7.2a4.75,4.75,0,0,0,2.4.6,5,5,0,0,0,5-5,4.46,4.46,0,0,0-.8-2.6s-10-13.6-10.2-13.9a3.17,3.17,0,0,0-2.5-1.2h-73.7a4.27,4.27,0,0,0-4.3,4.3,4.78,4.78,0,0,0,4,4.9,3.27,3.27,0,0,1,2.9,3.3v68.5a3.27,3.27,0,0,1-2.9,3.3,4.78,4.78,0,0,0-4,4.9,4.27,4.27,0,0,0,4.3,4.3h73.7a3.32,3.32,0,0,0,2.5-1.2c.2-.3,10.2-13.9,10.2-13.9a5,5,0,0,0,.8-2.6,5,5,0,0,0-5-4.8"/><path d="M489.88,118.25v2.6H441v-2.6h3.1a14,14,0,0,0,6.6-1.4,6.23,6.23,0,0,0,2.8-3.3c.5-1.1.8-4,.8-8.7V43.25c0-4.8-.3-7.8-.8-8.9a6.6,6.6,0,0,0-3.1-3.1,12.32,12.32,0,0,0-6.3-1.3H441v-2.6h48.9V30h-3.1a13.34,13.34,0,0,0-6.5,1.4,6.23,6.23,0,0,0-2.8,3.3c-.5,1.1-.8,4-.8,8.7V105c0,4.8.3,7.8.8,9a7.09,7.09,0,0,0,3.1,3.1,12.17,12.17,0,0,0,6.2,1.3h3.1Z"/><path d="M530.88,32.55v73c0,3.9.2,6.2.6,7.1a4.09,4.09,0,0,0,1.9,2,11,11,0,0,0,5.4,1c7.7,0,13.5-2.6,17.6-7.9,5.5-7.1,8.3-18.1,8.3-33q0-18-5.7-28.8c-3-5.6-6.8-9.4-11.5-11.5-3.5-1.3-9-2-16.6-1.9m-35.7,88.3v-2.6h3.1a12.32,12.32,0,0,0,6.3-1.3,7.25,7.25,0,0,0,3.2-3.5q.6-1.5.6-8.7V43.15c0-4.8-.3-7.8-.8-9a6.6,6.6,0,0,0-3.1-3.1,12.32,12.32,0,0,0-6.3-1.3h-3.1v-2.6H537c11.2,0,20.2,1.5,27,4.6a40,40,0,0,1,18.9,16.9,50.74,50.74,0,0,1,6.5,25.6,51.17,51.17,0,0,1-3.2,18.2,42.65,42.65,0,0,1-8.2,13.7,41.07,41.07,0,0,1-11.6,8.7,62.27,62.27,0,0,1-16.1,5.1c-2.8.6-7.2.8-13.2.8h-41.9Z"/><path d="M318.08,156.35v4.5h10.3v31h5.1v-31h10.3v-4.5Zm-11.5,21c0,1.2,0,3.1.1,5.3,0,.5.2,2.9.2,3.4s0,.5-.2.8l-.3-.1c-.2-.6-1.2-3.4-1.5-4l-1.5-3.5-10.3-22.8h-6.3V192h4.1v-23.6c0-.3-.3-5.6-.3-6.6l.3-.5.3.1A76.43,76.43,0,0,0,294,169l10.4,23.1h6.2v-35.5h-4.1v20.8Zm-46.7-1.8h12.5v-4.5h-12.5v-10.3h17v-4.4h-22.1v35.5h23v-4.5H260v-11.8Zm-27.5,0v4.5h6.2c-.1,2.4-.2,4.3-2.1,6.5a5,5,0,0,1-4.2,2c-1,0-3.9-.2-5.7-3.9-1.5-3-1.9-6.6-1.9-10.5a36.79,36.79,0,0,1,.9-8.1c1.7-5.8,5.3-6.3,6.6-6.3,4,0,5.3,3.7,5.8,5.3l4.6-1a10.52,10.52,0,0,0-10.7-8.6,11.32,11.32,0,0,0-9.4,5.8c-2.2,3.7-2.8,8.9-2.8,13.1,0,4,.8,10.7,4.1,14.7a9,9,0,0,0,7.7,3.7c3.8,0,6.5-1.2,8.2-2.9,4.7-4.9,4.3-14.5,4.3-14.5h-11.6Zm-30.8-16h3v29.2h-3v3.1h11.2v-3.1h-3.2v-29.2h3.2v-3.2h-11.2Zm-22.7-3.2H174v35.5h21.3v-4.5h-16.4v-31Zm-29.6,0h-4.9v35.5h21.3v-4.5h-16.4v-31Zm-32,19.2h12.4v-4.5h-12.5v-10.3h17v-4.4h-22.1v35.5h23v-4.5h-17.8Zm-38.6-14.7H89v31h5.1v-31h10.3v-4.5H78.68Zm-11.6,16.5c0,1.2,0,3.1.1,5.3,0,.5.2,2.9.2,3.4s0,.5-.2.8l-.3-.1c-.2-.6-1.2-3.4-1.5-4l-1.5-3.5-10.3-22.8h-6.3V192h4.1v-23.6c0-.3-.2-5.6-.2-6.6l.3-.5.2.1c.3.8,1.6,4.6,2.9,7.6L65,191.85h6.2v-35.5h-4.1Zm-40.3-17.8h3v29.2h-3v3.1H38v-3.1h-3.1v-29.2H38v-3.2H26.78Z"/><path class="cls-2" d="M582.18,156.35v13.2c0,1.3,0,1.6.1,4.1l.2,3.6h-.2l-.8-1.8c-.3-.7-.8-1.7-1.2-2.4l-9.2-16.6h-7.4V192h7.2v-16.6c0-.9-.2-5.4-.3-6.5h.3c1.8,4.3,1.9,4.5,2.6,5.9l9.4,17.2h6.4v-35.5h-7.1Zm-35.1,23.7c0,2.5,0,6.4-4.2,6.4-3.5,0-4.2-2.7-4.2-6.4v-12.4c0-1.4,0-5.5,4.3-5.5,4.1,0,4.1,3,4.1,5.5v12.4Zm-4.4-24.4c-3.3,0-6.7.9-8.9,3.4-2.5,2.7-3.1,6.2-3.1,9.8v9.6a26.42,26.42,0,0,0,.9,7.2c1.8,6,7.5,7.3,11,7.3,2.3,0,6.5-.3,9.5-3.5,2.2-2.4,3.1-5.6,3.1-10.6v-8.6c0-5.7-1.1-8.9-3.1-11-2.4-2.7-5.8-3.6-9.4-3.6m-33.4,3.8h4.1v29.3h-4.1v3.1h16.2v-3.2h-4.2v-29.2h4.2v-3.1h-16.2Zm-29.2,3.4h9.1V192h8.1v-29.1h8.9v-6.5h-26.1Zm-20,15.9,3.9-16.1h.2l3.9,16.1Zm-.8-22.4-10,35.5h7.6l1.8-7h10.9l1.8,7H479l-10.2-35.5ZM433,186.15c-4.3,0-4.3-3.7-4.3-5.7V167a5.09,5.09,0,0,1,1.3-3.9,4.77,4.77,0,0,1,2.9-1.1c3.9,0,4,3.9,4,5.6h7.8c-.1-2.9-.5-7.2-3.7-9.7a12.62,12.62,0,0,0-7.8-2.4c-8.3,0-12.6,4.6-12.6,12.7v10.7c0,7.3,1.9,9.3,3.3,10.7,2.3,2.2,5.1,3.2,9.2,3.2,1.5,0,5.2-.3,7.7-2.4a10,10,0,0,0,3.7-6.4,22.88,22.88,0,0,0,.3-4.4H437c.2,4-.8,6.6-4,6.6m-33.9-26.7h4.2v29.3h-4.2v3.1h16.2v-3.2h-4.2v-29.2h4.2v-3.1h-16.2ZM372,191.85h7.8v-14.8h10.5v-6.6h-10.5v-7.7h15.8v-6.5H372Zm-21.3-32.4h4.1v29.3h-4.1v3.1h16.2v-3.2h-4.2v-29.2h4.2v-3.1h-16.2Zm-29.1,3.4h9.1V192h8.1v-29.1h8.9v-6.5h-26.1Zm-13.6,6.7c0,1.3,0,1.6.1,4.1l.2,3.6H308l-.8-1.8c-.3-.7-.8-1.7-1.2-2.4l-9.2-16.6h-7.5V192h7.2v-16.6c0-.9-.2-5.4-.3-6.5h.3c1.8,4.3,1.9,4.5,2.6,5.9l9.4,17.2h6.4v-35.5H308Zm-43.4,7.3h11v-6.5h-11.1v-7.6h16.1v-6.5h-23.9v35.5h25v-6.6h-17.1Zm-24,1.3c0,6.8-3.2,7.4-6.3,7.4H232v-22.9c4.2,0,5.9,0,7.4,2.2,1.2,1.7,1.3,4.7,1.3,9,.1,1.1-.1,3-.1,4.3m-7.8-21.8h-8.6v35.5c5.8,0,10.9,0,11.9-.1,2.9-.3,5.1-.5,7.6-1.8,3.9-2,4.9-6.3,4.9-10.3v-6.1c0-8-.6-10.5-2.1-12.8-2-2.8-5.1-4.4-13.7-4.4m-30.1,3.1h4.2v29.3h-4.2v3.1h16.2v-3.2h-4.2v-29.2h4.2v-3.1h-16.2Z"/><g class="cls-3"><g class="cls-4"><path d="M343.88,156.35h-22.3v4.5h6.9v2h2.1V192h2.9V161h10.3v-4.6Zm-33.3,0H308v13.2c0,1.3,0,1.6.1,4.1l.2,3.6H308l-.8-1.8c-.2-.4-.5-1-.7-1.5v3.5c0,1.2,0,3.1.1,5.3,0,.5.2,2.9.2,3.4s0,.5-.2.8l-.3-.1c-.2-.6-1.2-3.4-1.5-4l-1.5-3.5L293,156.55h-3.7v35.5h1.5v-23.6c0-.3-.3-5.6-.3-6.6l.3-.5.3.1a76.43,76.43,0,0,0,2.8,7.6l2.5,5.7c0-1-.1-2.5-.1-3.7,0-.9-.1-1.6-.1-2h.3c1.8,4.3,1.9,4.5,2.6,5.9l9.4,17.2h1.9v-35.8Zm-33.7,0h-20.1v35.5h21v-4.5H260v-11.8h12.5v-4.5H260v-10.3h17v-4.4Zm-44.1,0h-4.2a10.83,10.83,0,0,0-4.4,3v30.2a9.21,9.21,0,0,0,2.7,2.3c4.6,0,8.4,0,9.2-.1h.4c.4,0,.7-.1,1-.1a7.85,7.85,0,0,0,2.3-1.6c4.7-4.9,4.3-14.5,4.3-14.5h-3.3v5h0c-.4,2.7-1.5,4-2.9,4.6a7.17,7.17,0,0,1-1.1,1.5,5,5,0,0,1-4.2,2c-1,0-3.9-.2-5.7-3.9-1.5-3-1.9-6.7-1.9-10.5a36.79,36.79,0,0,1,.9-8.1c1.7-5.8,5.3-6.3,6.6-6.3a5.41,5.41,0,0,1,4.9,3.1h0a4.32,4.32,0,0,1,2.3,1.8v.1l3.2-.6a10.7,10.7,0,0,0-6.4-7.8c-.6,0-1.3-.1-2-.1h-1.7m-20,0h-10.1v3.1h4.2v29.3h-4.2v3.1h10.1v-3.1h-3.2v-29.2h3.2Z"/></g></g><path class="cls-2" d="M616.08,156.35h-5v13.1h3.4v-8.6h.1l2.9,8.6h2.8l2.9-8.6h.1v8.6h3.4v-13.1h-5l-2.8,7.6Zm-7.9,0h-10.9v2.9h3.6v10.2h3.8v-10.2h3.6v-2.9Z"/></svg>