<?xml version="1.0" encoding="utf-8"?>
<!-- Generator: Adobe Illustrator 24.0.1, SVG Export Plug-In . SVG Version: 6.00 Build 0)  -->
<svg version="1.1" id="layer" xmlns="http://www.w3.org/2000/svg" xmlns:xlink="http://www.w3.org/1999/xlink" x="0px" y="0px"
	 viewBox="0 0 230 80" style="enable-background:new 0 0 230 80;" xml:space="preserve">
<style type="text/css">
	.st0{fill:#01AAE9;}
</style>
<polygon class="st0" points="127.7,49.1 131.2,49.1 133.8,53.9 136.5,49.1 139.8,49.1 139.8,56.8 137.4,56.8 137.4,51.5 134.4,56.8 
	133.1,56.8 130.1,51.5 130.1,56.8 127.7,56.8 "/>
<path class="st0" d="M146,50.8l1.5,2.9h-2.9L146,50.8z M144.4,49.1l-3.9,7.7h2.5l0.7-1.4h4.7l0.7,1.4h2.6l-4.1-7.7H144.4z"/>
<g>
	<g>
		<path class="st0" d="M156.6,57c-4.2,0-5.1-2.3-5.1-3.9v-0.3c0-1.5,0.8-3.8,5.2-3.8h0.4c4.3,0,5.1,1.9,5.1,2.9l0,0h-2.6
			c-0.1-0.2-0.3-1.1-2.7-1.1c-2.4,0-2.9,1-2.9,2.1V53c0,1,0.8,2.1,2.9,2.1c2.3,0,3-0.9,3-1.1v0h-3v-1.5h5.4v4.3h-1.5
			c0-0.3-0.2-0.9-0.3-1.2c-0.3,0.4-1.3,1.3-3.7,1.3H156.6z"/>
	</g>
</g>
<polygon class="st0" points="166.5,49.1 171.4,54 171.4,49.1 173.8,49.1 173.8,56.8 171.4,56.8 166.2,51.7 166.2,56.8 163.8,56.8 
	163.8,49.1 "/>
<polygon class="st0" points="183.5,49.1 183.5,50.8 177.7,50.8 177.7,52 183.4,52 183.4,53.8 177.7,53.8 177.7,55 183.6,55 
	183.6,56.8 175.4,56.8 175.4,49.1 "/>
<polygon class="st0" points="187.8,50.9 184.6,50.9 184.6,49.1 193.5,49.1 193.5,50.9 190.3,50.9 190.3,56.8 187.8,56.8 "/>
<rect x="194.6" y="49.1" class="st0" width="2.4" height="7.7"/>
<g>
	<g>
		<path class="st0" d="M203.5,57c-4.5,0-5.2-2.5-5.2-3.9v-0.3c0-1.4,0.6-3.8,5.2-3.8h0.4c4.5,0,5.2,2.1,5.2,3v0.1h-2.5
			c-0.1-0.2-0.4-1.3-2.8-1.3c-2.3,0-2.8,1-2.8,2v0.1c0,0.9,0.6,2.1,2.8,2.1c2.5,0,2.7-1.2,2.8-1.3h2.5v0.1c0,1-0.7,3.1-5.2,3.1
			L203.5,57L203.5,57z"/>
		<path class="st0" d="M214.4,57c-4,0-4.5-1.7-4.5-2.8v-0.1h2.5c0,0.4,0.3,1.2,2.3,1.2h0.1c2,0,2.2-0.4,2.2-0.8c0-0.4-0.2-0.7-2-0.8
			l-1.3,0c-2.9-0.1-3.7-1-3.7-2.2v-0.1c0-1.2,0.7-2.4,4.2-2.4h0.7c3.6,0,4.5,1.3,4.5,2.4v0.1h-2.5c0-0.3-0.2-0.9-2.2-0.9h-0.1
			c-1.9,0-2,0.3-2,0.7s0.2,0.6,1.8,0.7l1.3,0c2.9,0,4.1,0.7,4.1,2.3v0.1c0,1.3-0.6,2.6-4.5,2.6L214.4,57L214.4,57z"/>
	</g>
</g>
<rect x="87.1" y="23.4" class="st0" width="7.8" height="5.5"/>
<rect x="66.8" y="23.4" class="st0" width="7.8" height="5.5"/>
<g>
	<g>
		<path class="st0" d="M87,33.5c-0.2,2.4-1.7,4.5-6.2,4.5c-5.2,0-6.3-3-6.3-5.5v-2.3l-7.8,3.4v0.1c0,4.1,2.2,10.5,13.5,10.5h1.1
			c11.6,0,13.5-7,13.5-11V30L87,33.5z"/>
		<path class="st0" d="M16.4,44.2c-11.2,0-13.8-6-13.8-10.3v-0.7C2.6,28.7,5,23,17,23h1.1c12.5,0,14.2,5,14.3,7.9v0h-8.1
			c-0.1-0.5-0.9-2.6-6.6-2.6c-5.5,0-7,2.4-7,5.1v0.3c0,2.6,1.9,5.2,7,5.2c5.3,0,7-1.9,7-2.5h-7.2v-4h15.1v11.5h-4.9
			c-0.1-0.7-0.6-2.1-1-2.8c-0.8,0.9-3.3,3.2-9.7,3.2L16.4,44.2L16.4,44.2z"/>
		<path class="st0" d="M50.4,23c13.2,0,14.9,6.3,14.9,10.1v0.8c0,3.8-1.7,10.2-14.9,10.2h-1.2c-13.2,0-14.9-6.4-14.9-10.2v-0.8
			c0-3.9,1.7-10.1,14.9-10.1H50.4z M49.7,28.5c-6.1,0-7.4,2.7-7.4,4.8v0.3c0,2.1,1.4,5,7.4,5s7.4-2.8,7.4-5v-0.4
			C57.2,31.1,55.8,28.5,49.7,28.5"/>
	</g>
</g>
<g>
	<g>
		<path class="st0" d="M97.2,23.4h14.5c11.8,0,14.7,4.8,14.7,9.7v0.8c0,4.6-2.5,10-14.7,9.9H97.2L97.2,23.4L97.2,23.4z M105,38.4
			h5.8c6.8,0,7.5-3,7.5-4.8v-0.1c0-1.8-0.7-4.7-7.5-4.7h-5.8L105,38.4L105,38.4z"/>
		<path class="st0" d="M127.1,36.9v-0.3h8.5c0.1,1.1,0.7,2.9,5.1,2.9h0.3c4.3,0,5-0.9,5-1.9v0c0-1-0.5-1.7-4.8-1.8l-3.8-0.1
			c-7.9-0.3-10-3-10-6.1v-0.3c0-3.3,2.2-6.2,11.7-6.2h2.4c10.1,0,12.4,3.2,12.4,6.4v0.2h-8.4c-0.1-0.7-0.5-2.2-4.9-2.2h-0.3
			c-4.1,0-4.5,0.7-4.5,1.5v0c0,0.8,0.6,1.5,4.5,1.6l3.7,0.1c7.8,0.2,10.8,2.1,10.8,6.1v0.4c0,3.4-1.9,6.9-12.7,6.9h-2.5
			C128.3,44.2,127.1,39.6,127.1,36.9"/>
		<polygon class="st0" points="156.3,23.4 167.1,23.4 173.3,34.8 179.7,23.4 190,23.4 190,43.8 182.2,43.8 182.2,31.1 175.1,43.8 
			171.1,43.8 163.9,31.1 163.9,43.8 156.3,43.8 		"/>
		<rect x="192.4" y="23.4" class="st0" width="7.8" height="20.4"/>
		<polygon class="st0" points="210.8,28.9 202,28.9 202,23.4 227.4,23.4 227.4,28.9 218.6,28.9 218.6,43.8 210.8,43.8 		"/>
	</g>
</g>
</svg>
