<svg xmlns="http://www.w3.org/2000/svg" viewBox="0 0 659.36 93.16"><defs><style>.cls-1{fill:#ed1f23;}.cls-2{fill:#292672;}.cls-3{fill:#000101;}</style></defs><title>자산 1</title><g id="레이어_2" data-name="레이어 2"><g id="Layer_1" data-name="Layer 1"><path class="cls-1" d="M89.08,42.82h0l62.47-29.13C105.88-8.31,49.89,2.77,45.23,16.77S89.08,42.82,89.08,42.82Z"/><path class="cls-2" d="M89.08,42.82,28.31,71.17c8.83,4,20,7.27,33.57,9.19,39.07,5.49,67.79,3.43,74.65-9.24L138,65.58C137,50.73,89.1,42.82,89.08,42.82Z"/><path class="cls-3" d="M97.48,84a267.44,267.44,0,0,1-35.74-2.81c-19.7-2.77-35.92-8.62-46.9-16.9C5.27,57,0,48.23,0,39.49,0,23.41,16.06,14.64,16.75,14.27a1,1,0,0,1,1.35.41A1,1,0,0,1,17.69,16C17.53,16.12,2,24.62,2,39.49,2,55,20.56,73.33,62,79.17c45.61,6.41,72.2,2.08,74.88-12.2a6.73,6.73,0,0,0-1.33-5.28c-8.14-11.62-46.27-18-46.65-18.08C87.32,43.21,51.5,34.2,45,22.34a7.37,7.37,0,0,1-.7-6.08c1.2-3.6,5.31-7,11.9-9.75,21.47-9.08,62.35-10,95.8,6.08,19.56,9.42,29.9,19.87,30.73,31.06.4,5.39-1.27,16-16.93,26.67a1,1,0,0,1-1.13-1.66c5.13-3.48,16.95-12.88,16.06-24.86-.77-10.43-10.73-20.32-29.59-29.41C118.19-1.47,78-.56,57,8.35c-6,2.52-9.78,5.55-10.78,8.54a5.35,5.35,0,0,0,.55,4.48C52.83,32.48,89,41.56,89.32,41.65c1.53.25,39.27,6.59,47.89,18.9a8.77,8.77,0,0,1,1.66,6.79C136.43,80.3,117.78,84,97.48,84Z"/><path class="cls-3" d="M28.3,72a1,1,0,0,1-.66-.25,1,1,0,0,1-.29-1L44.28,16.28a1,1,0,1,1,1.91.59L29.93,69.11l121.2-56.53a1,1,0,0,1,1.39,1.15L138.74,67.91a1,1,0,0,1-1.21.72,1,1,0,0,1-.73-1.22l13.26-52.12L28.73,71.87A.94.94,0,0,1,28.3,72Z"/><path class="cls-3" d="M245.22,73.77,228.13,35.69l-3.52-8.21V73.77H213.67V10h14.75l17.43,38.33,3.08,7.48V10h10.94V73.77Z"/><path class="cls-3" d="M316.07,45.16c0,.81,0,1.87-.08,3.17s-.12,2.53-.22,3.67H283.16a15.31,15.31,0,0,0,1,5.76A11.18,11.18,0,0,0,287,61.93a12.36,12.36,0,0,0,4.39,2.57,17.65,17.65,0,0,0,5.69.87,56.63,56.63,0,0,0,7.74-.56A60.19,60.19,0,0,0,313.38,63v9.47c-1.27.36-2.65.69-4.15,1s-3,.55-4.59.78-3.14.4-4.74.51-3.14.18-4.64.18a29.77,29.77,0,0,1-10.15-1.62,20.1,20.1,0,0,1-7.62-4.76,20.78,20.78,0,0,1-4.78-7.78A31.82,31.82,0,0,1,271.05,50a34.48,34.48,0,0,1,1.66-11,25.41,25.41,0,0,1,4.68-8.5A20.63,20.63,0,0,1,284.74,25a23.36,23.36,0,0,1,9.65-1.93,24.77,24.77,0,0,1,9.32,1.63,18.88,18.88,0,0,1,6.79,4.57,19.49,19.49,0,0,1,4.15,7A26.91,26.91,0,0,1,316.07,45.16ZM304,43.45a14.21,14.21,0,0,0-.74-5.1,10,10,0,0,0-2.12-3.59,8.48,8.48,0,0,0-3.12-2.1,10.55,10.55,0,0,0-3.84-.68,9.77,9.77,0,0,0-7.37,3q-2.88,3-3.42,8.47Z"/><path class="cls-3" d="M361.77,73.77l-11.33-16.7-11.38,16.7h-14.4l18.6-25L325.63,24.16h14.51l11.13,16.31,11-16.31h13.38L358.54,48.68l18,25.09Z"/><path class="cls-3" d="M427.73,73.28q-3.23.73-6.49,1.18a47.18,47.18,0,0,1-6.2.44,30.65,30.65,0,0,1-8.43-1,14.62,14.62,0,0,1-5.86-3.12,12.49,12.49,0,0,1-3.41-5.35,24.07,24.07,0,0,1-1.1-7.74V33.44H382.91V24.16h13.33V11.47l12.2-.06V24.16h19.29v9.28H408.44V56.78q0,4.24,2,6.42t6.54,2.17a33.5,33.5,0,0,0,5.71-.48c1.86-.33,3.55-.7,5.08-1.13Z"/><path class="cls-3" d="M486.81,54.49a20,20,0,0,1-1.93,9.08,17.31,17.31,0,0,1-5.39,6.37,24.12,24.12,0,0,1-8.25,3.74,42.44,42.44,0,0,1-10.45,1.22,78.33,78.33,0,0,1-9.72-.59,57.38,57.38,0,0,1-9.28-2V60.49q2.25.78,4.69,1.47c1.63.45,3.26.85,4.91,1.19s3.28.61,4.9.81a41,41,0,0,0,4.74.29,24.8,24.8,0,0,0,5.81-.58,12.11,12.11,0,0,0,3.91-1.62,6.1,6.1,0,0,0,2.19-2.44,7,7,0,0,0,.69-3.12,5.89,5.89,0,0,0-1.34-3.93,12.59,12.59,0,0,0-3.54-2.81,32.48,32.48,0,0,0-5-2.2c-1.87-.65-3.78-1.35-5.71-2.1a61.68,61.68,0,0,1-5.71-2.54,20.31,20.31,0,0,1-5-3.51,16.12,16.12,0,0,1-3.54-5,16.5,16.5,0,0,1-1.34-7,18.77,18.77,0,0,1,1.36-7.13,15.39,15.39,0,0,1,4.3-5.89,21.7,21.7,0,0,1,7.52-4,36.23,36.23,0,0,1,11.08-1.49c1.27,0,2.6.06,4,.17s2.75.26,4.11.44,2.65.39,3.9.63,2.4.5,3.44.76v11c-1-.39-2.18-.75-3.41-1.08s-2.52-.61-3.84-.85-2.64-.43-4-.56-2.6-.2-3.81-.2a24.21,24.21,0,0,0-5.37.51,11.87,11.87,0,0,0-3.61,1.42,5.42,5.42,0,0,0-2.05,2.22,6.73,6.73,0,0,0-.64,2.93,4.84,4.84,0,0,0,1.35,3.44,12.75,12.75,0,0,0,3.56,2.59,40.64,40.64,0,0,0,5,2.15c1.87.67,3.79,1.38,5.76,2.15a58.57,58.57,0,0,1,5.77,2.61,22.65,22.65,0,0,1,5,3.57,16.39,16.39,0,0,1,3.56,4.95A15.88,15.88,0,0,1,486.81,54.49Z"/><path class="cls-3" d="M541.69,73.28q-3.23.73-6.49,1.18a47.18,47.18,0,0,1-6.2.44,30.53,30.53,0,0,1-8.42-1,14.49,14.49,0,0,1-5.86-3.12,12.41,12.41,0,0,1-3.42-5.35,24.35,24.35,0,0,1-1.1-7.74V33.44H496.87V24.16H510.2V11.47l12.21-.06V24.16h19.28v9.28H522.41V56.78q0,4.24,2,6.42t6.54,2.17a33.5,33.5,0,0,0,5.71-.48c1.86-.33,3.55-.7,5.08-1.13Z"/><path class="cls-3" d="M601,45.16c0,.81,0,1.87-.07,3.17s-.13,2.53-.23,3.67H568.06a15.31,15.31,0,0,0,1,5.76,11.3,11.3,0,0,0,2.83,4.17,12.41,12.41,0,0,0,4.4,2.57,17.58,17.58,0,0,0,5.68.87,56.63,56.63,0,0,0,7.74-.56A60.19,60.19,0,0,0,598.28,63v9.47c-1.27.36-2.65.69-4.15,1s-3,.55-4.59.78-3.14.4-4.73.51-3.15.18-4.64.18A29.79,29.79,0,0,1,570,73.28a20.17,20.17,0,0,1-7.62-4.76,20.9,20.9,0,0,1-4.78-7.78A31.82,31.82,0,0,1,556,50a34.48,34.48,0,0,1,1.66-11,25.42,25.42,0,0,1,4.69-8.5A20.45,20.45,0,0,1,569.65,25a23.31,23.31,0,0,1,9.64-1.93,24.77,24.77,0,0,1,9.32,1.63,18.79,18.79,0,0,1,6.79,4.57,19.49,19.49,0,0,1,4.15,7A26.65,26.65,0,0,1,601,45.16Zm-12.11-1.71a14.44,14.44,0,0,0-.73-5.1A10.13,10.13,0,0,0,586,34.76a8.32,8.32,0,0,0-3.12-2.1A10.55,10.55,0,0,0,579,32a9.77,9.77,0,0,0-7.37,3q-2.88,3-3.42,8.47Z"/><path class="cls-3" d="M659.36,48.09a32.83,32.83,0,0,1-1.92,11.82,22.62,22.62,0,0,1-5.37,8.27,21.51,21.51,0,0,1-8.14,4.88,31.52,31.52,0,0,1-10.2,1.59,28.77,28.77,0,0,1-3.71-.24,29.83,29.83,0,0,1-3.37-.64V93.16H614.74v-69H625l.29,7.33A34.27,34.27,0,0,1,628.48,28,18.43,18.43,0,0,1,632,25.36a17.43,17.43,0,0,1,4.1-1.69,19.22,19.22,0,0,1,4.93-.58,16.77,16.77,0,0,1,7.82,1.76,15.87,15.87,0,0,1,5.73,5,23.87,23.87,0,0,1,3.54,7.86A40.4,40.4,0,0,1,659.36,48.09Zm-12.5.49a35.76,35.76,0,0,0-.58-7,15,15,0,0,0-1.69-4.73,7,7,0,0,0-2.68-2.71,7.56,7.56,0,0,0-3.64-.86,8.65,8.65,0,0,0-5.78,2.44,42.31,42.31,0,0,0-5.84,6.65V64.06a19.19,19.19,0,0,0,3.49.88,26.8,26.8,0,0,0,4.22.34,11.31,11.31,0,0,0,5.16-1.17,11.45,11.45,0,0,0,4-3.33A15.64,15.64,0,0,0,646,55.53,25.66,25.66,0,0,0,646.86,48.58Z"/></g></g></svg>