<?xml version="1.0" encoding="utf-8"?>
<!-- Generator: Adobe Illustrator 24.0.1, SVG Export Plug-In . SVG Version: 6.00 Build 0)  -->
<svg version="1.1" id="레이어_2_1_" xmlns="http://www.w3.org/2000/svg" xmlns:xlink="http://www.w3.org/1999/xlink" x="0px"
	 y="0px" viewBox="0 0 230 22.8" style="enable-background:new 0 0 230 22.8;" xml:space="preserve">
<style type="text/css">
	.st0{fill:#0E5BA0;}
</style>
<title>대지 1</title>
<path class="st0" d="M28.6,2.8c0,0-8-2.9-12.4,3.6l-4.1,5.4c0,0-4.3,5.9-8.6,7.7c0,0,5.7,4,12.4-4.1l4.7-5.6
	C20.6,9.9,24.6,4.7,28.6,2.8z"/>
<path class="st0" d="M37.8,2.8c-4.5-1.5-9.4-0.1-12.4,3.6l-4.1,5.4c0,0-4.3,5.9-8.6,7.7c0,0,5.7,4,12.4-4.1l4.7-5.6
	C29.8,9.8,33.8,4.7,37.8,2.8z"/>
<path class="st0" d="M47.1,2.8c-4.5-1.5-9.5,0-12.3,3.7l-4.1,5.3c0,0-4.3,5.9-8.6,7.7c0,0,5.7,4,12.4-4.1l4.7-5.6
	C39.1,9.9,43.1,4.7,47.1,2.8z"/>
<path class="st0" d="M61.8,11.6c-2.7-0.2-8.2-0.3-8.2-0.3c-0.9,0-1.7-0.7-1.7-1.6c0,0,0-0.1,0-0.1c-0.1-1.1,0.6-2.1,1.7-2.2
	c0,0,0.1,0,0.1,0C56,7,58.3,6.9,60.6,7.2c1.2,0.1,2,1.1,1.9,2.3c0,0,0,0.1,0,0.1h1.3V8.5c0,0,0-2-3-2.5c-2.3-0.2-4.7-0.2-7,0
	c0,0-3.4,0.3-3.4,3.5c0,0-0.1,2.7,2.1,2.9c2.7,0.2,8.2,0.3,8.2,0.3c0.9,0,1.7,0.8,1.7,1.7c0,0,0,0,0,0.1c0.1,1.1-0.6,2.1-1.7,2.2
	c0,0-0.1,0-0.1,0c-2.3,0.3-4.6,0.4-6.9,0.2c-1.2-0.1-2-1.1-1.9-2.3c0,0,0-0.1,0-0.1h-1.3v1.1c0,0,0,2,3,2.5c2.3,0.2,4.7,0.2,7,0
	c0,0,3.5-0.3,3.5-3.5C64,14.5,64.1,11.8,61.8,11.6z"/>
<path class="st0" d="M80,18.2h1.4L74.3,6h-1.8l-7,12.2h1.4l1.7-2.8h9.8L80,18.2z M69.2,14.3l4.3-7.4l4.3,7.4H69.2z"/>
<polygon class="st0" points="83.3,6 83.3,18.2 84.5,18.2 84.5,12.4 94.2,12.4 94.2,11.4 84.5,11.4 84.5,7.2 94.7,7.2 94.7,6 "/>
<polygon class="st0" points="96.8,6 96.8,18.2 108.9,18.2 108.9,17 98.4,17 98.4,12.4 108.4,12.4 108.4,11.2 98.4,11.2 98.4,7.2 
	108.9,7.2 108.9,6 "/>
<path class="st0" d="M121.7,6L121.7,6H111v12.2h1.5v-4.8h9.2l0,0c1.5,0.1,2.8-1.1,2.8-2.6c0,0,0,0,0-0.1V8.9
	C124.5,7.4,123.3,6.1,121.7,6z M123.1,10.3c0,0,0,1.8-2.1,1.8h-8.7V7.2h8.7c0,0,2.1,0,2.1,2L123.1,10.3z"/>
<polygon class="st0" points="126.5,18.2 137.4,18.2 137.4,17 127.8,17 127.8,6 126.5,6 "/>
<path class="st0" d="M152,18.2h1.4L146.3,6h-1.9l-7,12.2h1.4l1.7-2.8h9.8L152,18.2z M141.1,14.3l4.3-7.4l4.3,7.4H141.1z"/>
<path class="st0" d="M166.2,11.6c-2.7-0.2-8.2-0.3-8.2-0.3c-0.9,0-1.7-0.7-1.7-1.6c0,0,0-0.1,0-0.1c-0.1-1.1,0.6-2.1,1.7-2.2
	c0,0,0.1,0,0.1,0c2.3-0.3,4.6-0.4,6.9-0.2c1.2,0.1,2,1.1,1.9,2.3c0,0,0,0.1,0,0.1h1.3v-1c0,0-0.1-2-3-2.5c-2.3-0.2-4.7-0.2-7,0
	c0,0-3.4,0.3-3.4,3.5c0,0-0.1,2.7,2.1,2.9c2.7,0.2,8.2,0.3,8.2,0.3c0.9,0,1.7,0.7,1.7,1.6c0,0,0,0.1,0,0.1c0.1,1.1-0.6,2.1-1.7,2.2
	c0,0-0.1,0-0.1,0c-2.3,0.3-4.6,0.4-6.9,0.2c-1.2-0.1-2-1.1-1.9-2.3c0,0,0-0.1,0-0.1h-1.3v1.1c0,0,0,2,3,2.5c2.3,0.2,4.7,0.2,7,0
	c0,0,3.4-0.3,3.4-3.5C168.4,14.5,168.5,11.8,166.2,11.6z"/>
<polygon class="st0" points="175.9,7.2 175.9,18.2 177.3,18.2 177.3,7.2 183.4,7.2 183.4,6 169.8,6 169.8,7.2 "/>
<path class="st0" d="M207.6,8.8c-0.3-2-0.8-2.3-2.8-2.7c-0.1,0-2.8-0.2-4.5-0.2l0,0c-1.7,0-4.4,0.2-4.5,0.2c-2,0.4-2.4,0.7-2.8,2.7
	c0,0-0.3,2.1-0.3,3.4s0.3,3.3,0.3,3.3c0.3,1.8,0.9,2.4,2.8,2.7c0.1,0,2.9,0.2,4.5,0.2l0,0c1.6,0,4.3-0.2,4.5-0.2
	c1.9-0.3,2.5-0.9,2.8-2.7c0.1-1.1,0.2-2.2,0.3-3.3C207.9,11,207.8,9.9,207.6,8.8z M205.4,16.5c-0.5,0.5-3.3,0.4-5,0.4l0,0
	c-1.7,0-4.5,0.1-5-0.5c0,0-1.1-0.1-1.1-4.6c0-3.7,1-4.3,1-4.3c0.5-0.4,3.3-0.6,5.2-0.6l0,0c1.9,0,4.6,0.1,5.2,0.6c0,0,1,0.6,1,4.3
	C206.5,16.4,205.4,16.5,205.4,16.5z"/>
<polygon class="st0" points="209.4,6 216.3,13 216.3,18.2 217.7,18.2 217.7,13 224.6,6 222.8,6.1 217,12 211.2,6 "/>
</svg>
