<svg id="레이어_2" data-name="레이어 2" xmlns="http://www.w3.org/2000/svg" viewBox="0 0 230 80"><defs><style>.cls-1{fill:#0e5ba0;}</style></defs><title>대지 1</title><path class="cls-1" d="M28.61,31.42s-8-2.91-12.38,3.6l-4.1,5.43s-4.3,5.88-8.59,7.71c0,0,5.68,4,12.38-4.08l4.67-5.59S24.57,33.32,28.61,31.42Z"/><path class="cls-1" d="M37.81,31.42A11.35,11.35,0,0,0,25.43,35l-4.1,5.43s-4.3,5.88-8.59,7.71c0,0,5.68,4,12.38-4.08l4.67-5.59S33.77,33.32,37.81,31.42Z"/><path class="cls-1" d="M47.11,31.42a11,11,0,0,0-12.33,3.72l-4.15,5.31s-4.3,5.88-8.59,7.71c0,0,5.68,4,12.38-4.08l4.67-5.59S43.07,33.32,47.11,31.42Z"/><path class="cls-1" d="M61.83,40.19c-2.69-.17-8.2-.25-8.2-.25a1.69,1.69,0,0,1-1.73-1.76,2,2,0,0,1,1.8-2.25,27.12,27.12,0,0,1,6.91-.15,2.1,2.1,0,0,1,1.91,2.4h1.31V37.12s0-2-3-2.48a34.46,34.46,0,0,0-7,0s-3.44.35-3.44,3.54c0,0-.1,2.67,2.12,2.9,2.68.18,8.19.26,8.19.26A1.7,1.7,0,0,1,62.4,43.1a2,2,0,0,1-1.8,2.25,30.17,30.17,0,0,1-6.91.15,2.1,2.1,0,0,1-1.91-2.4H50.46v1.06s0,2,3,2.48a34.46,34.46,0,0,0,7,0S64,46.29,64,43.1C64,43.1,64.05,40.43,61.83,40.19Z"/><path class="cls-1" d="M80,46.83h1.42L74.35,34.64H72.51l-7,12.19h1.38L68.54,44h9.83ZM69.16,42.92l4.32-7.38,4.28,7.38Z"/><polygon class="cls-1" points="83.31 34.64 83.31 46.83 84.54 46.83 84.54 41.04 94.15 41.04 94.15 40 84.54 40 84.54 35.78 94.72 35.78 94.72 34.64 83.31 34.64"/><polygon class="cls-1" points="96.81 34.64 96.81 46.83 108.93 46.83 108.93 45.58 98.37 45.58 98.37 40.99 108.36 40.99 108.36 39.83 98.37 39.83 98.37 35.83 108.93 35.83 108.93 34.64 96.81 34.64"/><path class="cls-1" d="M121.7,34.67v0H111V46.83h1.51V42h9.16v0a2.72,2.72,0,0,0,2.82-2.69V37.53A2.84,2.84,0,0,0,121.7,34.67Zm1.44,4.3s0,1.78-2.12,1.78h-8.69V35.83H121s2.12,0,2.12,2Z"/><polygon class="cls-1" points="126.5 46.83 137.4 46.83 137.4 45.58 127.83 45.58 127.83 34.64 126.5 34.64 126.5 46.83"/><path class="cls-1" d="M152,46.83h1.42l-7.1-12.19h-1.85l-7,12.19h1.37L140.55,44h9.83Zm-10.87-3.91,4.31-7.38,4.29,7.38Z"/><path class="cls-1" d="M166.24,40.21c-2.68-.18-8.19-.26-8.19-.26a1.69,1.69,0,0,1-1.74-1.76,2,2,0,0,1,1.8-2.25,27.69,27.69,0,0,1,6.91-.15,2.1,2.1,0,0,1,1.91,2.4h1.32v-1s-.05-2-3-2.48a33.81,33.81,0,0,0-7,0s-3.44.34-3.44,3.53c0,0-.1,2.68,2.12,2.91,2.69.17,8.2.25,8.2.25a1.69,1.69,0,0,1,1.73,1.76,2,2,0,0,1-1.8,2.25,30.17,30.17,0,0,1-6.91.15,2.1,2.1,0,0,1-1.91-2.4h-1.32v1.06s0,2,3,2.48a34.46,34.46,0,0,0,7,0s3.44-.35,3.44-3.54C168.36,43.11,168.46,40.44,166.24,40.21Z"/><polygon class="cls-1" points="175.91 35.83 175.91 46.83 177.33 46.83 177.33 35.83 183.4 35.83 183.4 34.64 169.75 34.64 169.75 35.83 175.91 35.83"/><path class="cls-1" d="M207.64,37.4c-.32-2-.78-2.28-2.75-2.67-.08,0-2.81-.24-4.49-.24v0c-1.68,0-4.4.22-4.48.23-2,.4-2.43.71-2.76,2.67,0,.05-.27,2.14-.27,3.37s.27,3.27.27,3.29c.28,1.76.88,2.37,2.76,2.67.15,0,2.91.19,4.49.19h0c1.57,0,4.33-.17,4.48-.19,1.88-.3,2.48-.92,2.75-2.67a31.42,31.42,0,0,0,.27-3.29A33.5,33.5,0,0,0,207.64,37.4Zm-2.2,7.75c-.53.52-3.33.44-5,.44v0c-1.7,0-4.5.08-5-.45,0,0-1.09-.13-1.09-4.56,0-3.66,1-4.25,1-4.25.51-.44,3.29-.57,5.17-.57h0c1.87,0,4.65.13,5.16.57,0,0,1,.58,1,4.25C206.53,45,205.45,45.14,205.44,45.15Z"/><polygon class="cls-1" points="209.35 34.64 216.32 41.6 216.32 46.83 217.69 46.83 217.69 41.65 224.6 34.64 222.83 34.69 216.98 40.6 211.19 34.64 209.35 34.64"/></svg>