<?xml version="1.0" encoding="utf-8"?>
<!-- Generator: Adobe Illustrator 24.0.1, SVG Export Plug-In . SVG Version: 6.00 Build 0)  -->
<svg version="1.1" id="Layer_1" xmlns="http://www.w3.org/2000/svg" xmlns:xlink="http://www.w3.org/1999/xlink" x="0px" y="0px"
	 viewBox="0 0 230 56.9" style="enable-background:new 0 0 230 56.9;" xml:space="preserve">
<style type="text/css">
	.st0{fill:#272626;}
	.st1{fill:#2B76BB;}
</style>
<title>Artboard 1</title>
<polyline class="st0" points="91.3,2.5 91.3,4.9 87.9,4.9 87.9,17.1 84.8,17.1 84.8,4.9 81.4,4.9 81.4,2.5 91.3,2.5 "/>
<polyline class="st0" points="92.7,17.1 92.7,2.5 100.8,2.5 100.8,4.6 95.8,4.6 95.8,8.3 100.3,8.3 100.3,10.5 95.8,10.5 95.8,14.8 
	100.9,14.8 100.9,17.1 92.7,17.1 "/>
<polyline class="st0" points="102.9,17.1 102.9,2.5 106,2.5 106,14.6 110.6,14.6 110.6,17.1 102.9,17.1 "/>
<polyline class="st0" points="111.9,17.1 111.9,2.5 119.9,2.5 119.9,4.6 115,4.6 115,8.3 119.5,8.3 119.5,10.5 115,10.5 115,14.8 
	120.1,14.8 120.1,17.1 111.9,17.1 "/>
<path class="st0" d="M122.1,2.5h5.1c4,0,4.8,2.6,4.8,7.2c0,2.3,0.4,7.5-4.9,7.5h-5L122.1,2.5 M125.1,14.8h1.5c1.8,0,2.3-1.4,2.3-5.1
	c0-2.7,0-5.1-2.2-5.1h-1.6V14.8z"/>
<polyline class="st0" points="137.2,12 133.4,2.5 136.6,2.5 138.9,8.6 141.2,2.5 144.4,2.5 140.2,12 140.2,17.1 137.2,17.1 
	137.2,12 "/>
<polyline class="st0" points="145.8,17.1 145.8,2.5 150,2.5 153.9,12.6 153.9,2.5 156.7,2.5 156.7,17.1 152.7,17.1 148.7,6.4 
	148.7,17.1 145.8,17.1 "/>
<polyline class="st0" points="159.3,17.1 159.3,2.5 167.3,2.5 167.3,4.6 162.4,4.6 162.4,8.3 166.9,8.3 166.9,10.5 162.4,10.5 
	162.4,14.8 167.4,14.8 167.4,17.1 159.3,17.1 "/>
<polyline class="st0" points="91.3,20.9 91.3,23.3 87.9,23.3 87.9,35.5 84.8,35.5 84.8,23.3 81.4,23.3 81.4,20.9 91.3,20.9 "/>
<polyline class="st0" points="92.5,35.5 92.5,20.9 100.5,20.9 100.5,23.2 95.7,23.2 95.7,26.8 100.2,26.8 100.2,29 95.7,29 
	95.7,33.3 100.8,33.3 100.8,35.5 92.5,35.5 "/>
<path class="st0" d="M102.4,28.2c0-3.8,0-7.5,5-7.5c3.1,0,4.4,1.6,4.3,4.8h-3c0-2-0.3-2.6-1.3-2.6c-1.7,0-2,1.6-2,5.3s0.2,5.4,2,5.4
	c1.5,0,1.4-1.8,1.4-3h3c0,4-1.5,5.2-4.4,5.2C102.4,35.8,102.4,32.1,102.4,28.2"/>
<polyline class="st0" points="120.3,26.8 120.3,20.9 123.3,20.9 123.3,35.5 120.3,35.5 120.3,29 116.8,29 116.8,35.5 113.7,35.5 
	113.7,20.9 116.8,20.9 116.8,26.8 120.3,26.8 "/>
<polyline class="st0" points="125.8,35.5 125.8,20.9 129.9,20.9 133.8,31 133.9,31 133.9,20.9 136.8,20.9 136.8,35.5 132.7,35.5 
	128.7,24.8 128.6,24.8 128.6,35.5 125.8,35.5 "/>
<path class="st0" d="M139,28.2c0-3.8,0-7.5,5-7.5s5.1,3.7,5.1,7.5s0,7.6-5.1,7.6S139,32.1,139,28.2 M145.9,28.2
	c0-3.7-0.2-5.3-1.9-5.3s-2,1.6-2,5.3s0.2,5.4,2,5.4S146,32,145.9,28.2L145.9,28.2z"/>
<polyline class="st0" points="151.4,35.5 151.4,20.9 154.4,20.9 154.4,33 159,33 159,35.5 151.4,35.5 "/>
<path class="st0" d="M160,28.2c0-3.8,0-7.5,5.1-7.5s5.1,3.7,5.1,7.5s0,7.6-5.1,7.6S160,32.1,160,28.2 M167,28.2
	c0-3.7-0.2-5.3-1.9-5.3s-1.9,1.6-1.9,5.3s0.2,5.4,1.9,5.4S167,32,167,28.2z"/>
<path class="st0" d="M179.1,25.3c0-1.3-0.2-2.5-1.8-2.5c-1.9,0-1.9,2.6-1.9,5.4c0,4.5,0.4,5.4,2.2,5.4c0.5-0.1,1-0.2,1.5-0.3v-3.3
	h-1.7v-2.3h4.8v7.5c-1.4,0.2-2.7,0.4-4.1,0.4c-5.2,0-5.8-2.1-5.8-7.7c0-3.7,0.2-7.4,5.2-7.4c3,0,4.9,1.6,4.7,4.7H179.1"/>
<rect x="184.6" y="20.9" class="st0" width="3" height="14.6"/>
<polyline class="st0" points="190,35.5 190,20.9 198,20.9 198,23.2 193,23.2 193,26.8 197.6,26.8 197.6,29 193,29 193,33.3 
	198.1,33.3 198.1,35.5 190,35.5 "/>
<path class="st0" d="M203.9,35.8c-3.8,0-4.4-2.2-4.3-4.8h3.1c0,1.4,0,2.6,1.7,2.6c0.8,0,1.5-0.6,1.5-1.4c0-0.1,0-0.2,0-0.2
	c0-2.7-6.2-2.8-6.2-7.2c0-2.4,1.1-4.1,4.9-4.1c2.9,0,4.4,1.3,4.2,4.3h-3c0-1.1-0.1-2.2-1.4-2.2c-0.8-0.1-1.4,0.4-1.5,1.2
	c0,0.1,0,0.2,0,0.3c0,2.8,6.2,2.6,6.2,7.2C209.1,35.3,206.3,35.8,203.9,35.8"/>
<polyline class="st1" points="93.1,39.6 93.1,40.5 86,40.5 86,44.9 92.6,44.9 92.6,45.8 86,45.8 86,50.5 93.2,50.5 93.2,51.5 
	84.8,51.5 84.8,39.6 93.1,39.6 "/>
<polyline class="st1" points="94.8,42.9 97.5,50.5 100.2,42.9 101.3,42.9 98,51.5 97,51.5 93.6,42.9 94.8,42.9 "/>
<path class="st1" d="M103.1,48.7c0.1,0.4,0.2,0.7,0.4,1.1c0.2,0.3,0.5,0.6,0.9,0.9c0.4,0.2,0.9,0.3,1.3,0.2c0.7,0.1,1.3-0.1,1.8-0.5
	c0.5-0.4,0.8-1,0.9-1.6h1.1c-0.2,0.9-0.6,1.6-1.2,2.3c-0.7,0.6-1.7,0.9-2.6,0.9c-0.6,0-1.2-0.2-1.7-0.4c-0.5-0.2-0.9-0.6-1.2-1
	c-0.3-0.4-0.6-0.9-0.8-1.4c-0.1-0.6-0.2-1.2-0.2-1.8c0-0.5,0.1-1.1,0.2-1.6c0.2-0.5,0.4-1,0.8-1.5c0.3-0.4,0.8-0.7,1.2-1
	c0.5-0.3,1.1-0.5,1.7-0.4c0.6,0,1.3,0.2,1.8,0.4c0.4,0.3,0.9,0.7,1.2,1.1c0.3,0.5,0.6,1,0.7,1.6c0.1,0.6,0.2,1.2,0.2,1.7h-6.7
	C102.9,47.8,103,48.2,103.1,48.7 M108.3,45.4c-0.1-0.4-0.3-0.7-0.5-1c-0.2-0.3-0.5-0.5-0.9-0.7c-0.4-0.2-0.8-0.3-1.2-0.3
	c-0.4,0-0.8,0.1-1.1,0.3c-0.3,0.2-0.6,0.4-0.9,0.7c-0.2,0.3-0.4,0.6-0.5,1c-0.2,0.4-0.3,0.8-0.3,1.2h5.6
	C108.5,46.2,108.5,45.8,108.3,45.4L108.3,45.4z"/>
<path class="st1" d="M111.9,42.9v2h0.1c0.2-0.6,0.6-1.2,1.2-1.6c0.6-0.4,1.3-0.5,2.1-0.4v1c-0.4,0-0.9,0.1-1.3,0.2
	c-0.4,0.1-0.8,0.3-1,0.7c-0.3,0.3-0.5,0.6-0.8,1c-0.1,0.4-0.2,0.9-0.2,1.3v4.5h-1v-8.5H111.9"/>
<path class="st1" d="M116.4,42.9l2.9,7.4l2.6-7.4h1.1l-3.8,9.9c-0.1,0.4-0.2,0.7-0.4,1c-0.1,0.2-0.2,0.4-0.4,0.6
	c-0.2,0.1-0.3,0.2-0.5,0.3c-0.2,0-0.5,0.1-0.9,0.1h-0.4c-0.1-0.1-0.2-0.1-0.3-0.1v-0.9h0.3c0.1,0,0.2,0.1,0.4,0.1
	c0.2,0,0.4-0.1,0.5-0.1c0.1-0.1,0.3-0.2,0.4-0.3s0.1-0.2,0.2-0.4c0.1-0.2,0.2-0.4,0.3-0.6l0.3-1l-3.5-8.6L116.4,42.9"/>
<polyline class="st1" points="124.3,42.9 126.4,50.3 126.6,50.3 128.6,42.9 129.8,42.9 131.9,50.3 132,50.3 134.1,42.9 135.4,42.9 
	132.5,51.5 131.3,51.5 129.3,44.2 129.2,44.2 127.1,51.5 125.9,51.5 123.1,42.9 124.3,42.9 "/>
<path class="st1" d="M137.5,39.6v4.8c0.2-0.5,0.6-0.9,1.1-1.2c0.5-0.3,1-0.5,1.6-0.5c0.5,0,1,0.1,1.5,0.2c0.4,0.2,0.7,0.4,1,0.8
	c0.3,0.2,0.5,0.6,0.5,1c0.1,0.5,0.2,0.9,0.2,1.4v5.5h-1.1v-5.3c0-0.4,0-0.7-0.1-1.1c-0.1-0.3-0.2-0.5-0.3-0.9
	c-0.2-0.2-0.5-0.4-0.8-0.5c-0.3-0.2-0.7-0.2-1-0.2c-0.4,0-0.8,0.1-1.2,0.3c-0.3,0.1-0.6,0.3-0.9,0.5c-0.2,0.3-0.3,0.7-0.6,1
	c-0.1,0.4-0.1,0.8-0.1,1.2v5h-1.1v-12H137.5"/>
<path class="st1" d="M146.2,48.7c0.1,0.4,0.3,0.8,0.5,1.1c0.2,0.3,0.5,0.6,0.9,0.9c0.4,0.2,0.9,0.3,1.3,0.2c0.7,0.1,1.3-0.1,1.9-0.5
	c0.4-0.5,0.7-1,0.9-1.6h1.1c-0.2,0.9-0.6,1.7-1.3,2.3c-0.7,0.6-1.6,0.9-2.5,0.9c-0.6,0-1.2-0.2-1.7-0.4c-0.5-0.2-1-0.5-1.3-1
	c-0.3-0.4-0.6-0.9-0.7-1.4c-0.1-0.6-0.2-1.2-0.2-1.8c0-0.5,0.1-1.1,0.2-1.6c0.1-0.5,0.3-1.1,0.7-1.5c0.4-0.4,0.8-0.8,1.3-1
	c0.5-0.3,1.1-0.5,1.7-0.4c0.6,0,1.2,0.2,1.7,0.4c0.5,0.3,0.9,0.6,1.2,1.1c0.3,0.5,0.6,1,0.6,1.6c0.2,0.6,0.3,1.2,0.2,1.8h-6.6
	C146.1,47.9,146.1,48.3,146.2,48.7 M151.4,45.4c-0.1-0.4-0.3-0.7-0.6-1c-0.2-0.3-0.5-0.5-0.9-0.7c-0.3-0.2-0.7-0.3-1.1-0.3
	c-0.4,0-0.8,0.1-1.2,0.3c-0.3,0.2-0.6,0.4-0.9,0.7c-0.2,0.3-0.4,0.6-0.5,1c-0.1,0.4-0.2,0.8-0.2,1.2h5.5
	C151.6,46.2,151.5,45.8,151.4,45.4L151.4,45.4z"/>
<path class="st1" d="M155.1,42.9v2c0.3-0.6,0.8-1.2,1.3-1.6c0.6-0.4,1.3-0.5,2-0.4v1c-0.4,0-0.9,0.1-1.3,0.2
	c-0.7,0.3-1.3,0.9-1.6,1.6c-0.2,0.4-0.3,0.9-0.2,1.3v4.5h-1.1v-8.5H155.1"/>
<path class="st1" d="M159.9,48.7c0.1,0.4,0.3,0.8,0.6,1.1c0.2,0.3,0.5,0.6,0.9,0.9c0.4,0.2,0.9,0.3,1.3,0.2c0.6,0.1,1.3-0.1,1.7-0.5
	c0.5-0.5,0.8-1,1-1.6h1.1c-0.2,0.9-0.7,1.7-1.3,2.3c-0.7,0.6-1.6,0.9-2.5,0.9c-0.6,0-1.3-0.2-1.9-0.4c-0.5-0.2-0.9-0.6-1.2-1
	c-0.3-0.4-0.6-0.9-0.6-1.4c-0.2-0.6-0.3-1.2-0.2-1.8c0-0.6,0-1.1,0.2-1.6c0.1-0.5,0.3-1.1,0.6-1.5c0.3-0.4,0.7-0.7,1.2-1
	c0.6-0.3,1.2-0.5,1.9-0.4c0.6,0,1.2,0.2,1.7,0.4c0.5,0.3,0.9,0.6,1.2,1.1c0.3,0.5,0.6,1,0.6,1.6c0.2,0.6,0.3,1.2,0.2,1.7h-6.7
	C159.7,47.8,159.8,48.2,159.9,48.7 M165.1,45.4c-0.1-0.4-0.3-0.7-0.5-1c-0.2-0.3-0.5-0.5-0.9-0.7c-0.3-0.2-0.7-0.3-1.1-0.3
	c-0.4,0-0.8,0.1-1.2,0.3c-0.3,0.2-0.6,0.4-0.9,0.7c-0.2,0.3-0.4,0.6-0.6,1c-0.1,0.4-0.2,0.8-0.3,1.2h5.6
	C165.3,46.2,165.2,45.8,165.1,45.4L165.1,45.4z"/>
<path class="st1" d="M166.8,42.8h2.1l2.3,6.5h0.1l2.2-6.5h2L172,52c-0.1,0.3-0.3,0.8-0.4,1.1s-0.3,0.7-0.6,1
	c-0.3,0.2-0.6,0.5-0.9,0.7c-0.4,0.1-0.8,0.2-1.2,0.2c-0.4,0-0.9,0-1.3-0.1v-1.7c0.1,0,0.2,0.1,0.4,0.1h1l0.3-0.3l0.3-0.3
	c0-0.2,0.1-0.4,0.1-0.5l0.2-0.7L166.8,42.8"/>
<path class="st1" d="M180.5,51.8c-0.7,0-1.4-0.2-2-0.4c-0.5-0.2-0.9-0.5-1.3-0.9c-0.4-0.4-0.7-1-0.9-1.5c-0.2-0.6-0.3-1.2-0.3-1.8
	c0-0.6,0.1-1.3,0.3-1.8c0.2-0.5,0.5-1,0.9-1.4c0.4-0.4,0.8-0.8,1.3-1c0.6-0.2,1.3-0.4,2-0.3c0.6,0,1.3,0.1,1.8,0.3
	c0.5,0.2,0.9,0.6,1.3,1c0.4,0.4,0.7,0.9,0.9,1.4c0.2,0.6,0.3,1.2,0.3,1.8c0,0.6-0.1,1.3-0.3,1.8c-0.2,0.6-0.5,1.1-0.9,1.5
	c-0.4,0.4-0.8,0.7-1.3,0.9C181.7,51.6,181.1,51.7,180.5,51.8 M180.5,50.2c0.4,0,0.8-0.1,1.1-0.3c0.3-0.2,0.5-0.4,0.8-0.7
	c0.2-0.3,0.3-0.6,0.4-1c0.1-0.4,0.1-0.8,0.1-1.2c0-0.4,0-0.7-0.1-1.1c-0.1-0.4-0.2-0.7-0.4-1c-0.2-0.3-0.4-0.5-0.8-0.7
	c-0.3-0.2-0.7-0.3-1.1-0.3c-0.4,0-0.8,0.1-1.2,0.3c-0.3,0.1-0.6,0.3-0.8,0.7c-0.2,0.3-0.3,0.6-0.4,1c-0.1,0.4-0.1,0.7-0.1,1.1
	c0,0.4,0,0.8,0.1,1.2c0.1,0.4,0.2,0.7,0.4,1c0.2,0.2,0.5,0.5,0.8,0.7C179.6,50.2,180,50.3,180.5,50.2L180.5,50.2z"/>
<path class="st1" d="M194,51.5h-2v-1.2c-0.2,0.5-0.6,0.8-1,1.1c-1.2,0.7-2.8,0.5-3.8-0.4c-0.6-0.7-0.9-1.7-0.9-2.6v-5.5h2v5.3
	c-0.1,0.6,0.1,1.2,0.4,1.6c0.3,0.3,0.7,0.5,1.2,0.5c0.4,0,0.7-0.1,1.1-0.2c0.2-0.1,0.5-0.3,0.6-0.5c0.1-0.2,0.2-0.5,0.3-0.8
	c0.1-0.3,0.1-0.6,0.1-0.9v-5.1h2v8.7"/>
<rect x="196" y="39.6" class="st1" width="1.1" height="11.9"/>
<path class="st1" d="M204.4,43c0.5,0.2,1,0.6,1.3,1c0.3,0.4,0.6,0.9,0.9,1.4c0.1,0.6,0.2,1.2,0.2,1.7c0,0.6-0.1,1.2-0.2,1.8
	c-0.2,0.5-0.5,1-0.9,1.4c-0.3,0.4-0.8,0.8-1.3,1c-0.5,0.3-1.1,0.4-1.7,0.4c-0.6,0-1.2-0.2-1.7-0.4c-0.5-0.2-1-0.6-1.3-1
	c-0.3-0.4-0.6-0.9-0.8-1.4c-0.2-0.6-0.3-1.2-0.2-1.8c0-0.6,0-1.2,0.2-1.7c0.2-0.5,0.4-1,0.8-1.4c0.3-0.4,0.8-0.8,1.3-1
	c0.5-0.3,1.1-0.5,1.7-0.4C203.3,42.6,203.9,42.7,204.4,43 M201.4,43.8c-0.4,0.3-0.7,0.5-1,0.9c-0.2,0.4-0.4,0.8-0.5,1.2
	c-0.3,0.9-0.3,1.8,0,2.7c0.1,0.4,0.3,0.8,0.5,1.2c0.3,0.3,0.6,0.6,1,0.9c0.4,0.2,0.9,0.3,1.3,0.2c0.4,0.1,0.9,0,1.3-0.2
	c0.4-0.2,0.7-0.5,1-0.9c0.3-0.3,0.5-0.8,0.5-1.2c0.2-0.4,0.3-0.9,0.2-1.4c0-0.4,0-0.9-0.2-1.3c-0.1-0.4-0.3-0.9-0.5-1.2
	c-0.2-0.4-0.6-0.7-1-0.9c-0.4-0.2-0.8-0.4-1.3-0.3C202.3,43.5,201.8,43.6,201.4,43.8L201.4,43.8z"/>
<path class="st1" d="M213.8,43c0.5,0.2,1,0.6,1.3,1c0.4,0.4,0.6,0.9,0.8,1.4c0.2,0.6,0.3,1.1,0.3,1.7c0,0.6-0.1,1.3-0.3,1.8
	c-0.1,0.5-0.4,1-0.8,1.4c-0.3,0.5-0.8,0.8-1.3,1c-0.5,0.3-1.1,0.4-1.7,0.4c-0.6,0-1.2-0.2-1.7-0.4c-0.5-0.2-1-0.6-1.3-1
	c-0.4-0.4-0.6-0.9-0.8-1.4c-0.2-0.6-0.3-1.2-0.3-1.8c0-0.6,0.1-1.2,0.3-1.7c0.1-0.5,0.4-1,0.8-1.4c0.3-0.4,0.8-0.8,1.3-1
	c0.5-0.3,1.1-0.5,1.7-0.4C212.6,42.5,213.2,42.7,213.8,43 M210.8,43.8c-0.4,0.2-0.8,0.5-1,0.9c-0.2,0.4-0.4,0.8-0.5,1.2
	c-0.3,0.9-0.3,1.8,0,2.7c0.1,0.4,0.3,0.8,0.5,1.2c0.3,0.4,0.6,0.7,1,0.9c0.8,0.3,1.8,0.3,2.6,0c0.4-0.2,0.8-0.5,1-0.9
	c0.2-0.4,0.4-0.8,0.6-1.2c0.1-0.5,0.2-0.9,0.2-1.4c0-0.4-0.1-0.9-0.2-1.3c-0.1-0.4-0.3-0.8-0.6-1.2c-0.2-0.4-0.6-0.7-1-0.9
	C212.5,43.3,211.6,43.3,210.8,43.8z"/>
<polyline class="st1" points="218.7,39.6 218.7,47 223.5,42.9 224.9,42.9 221.2,46.1 225.1,51.5 223.8,51.5 220.5,46.8 218.7,48.2 
	218.7,51.5 217.7,51.5 217.7,39.6 218.7,39.6 "/>
<polyline class="st1" points="224.1,39.4 225.9,39.4 225.9,39.8 225.1,39.8 225.1,41.8 224.7,41.8 224.7,39.8 224.1,39.8 
	224.1,39.4 "/>
<polyline class="st1" points="226.2,39.4 226.8,39.4 227.4,41.3 228.1,39.4 228.6,39.4 228.6,41.8 228.3,41.8 228.3,40 227.6,41.8 
	227.2,41.8 226.6,40 226.6,41.8 226.2,41.8 226.2,39.4 "/>
<polyline class="st1" points="41.7,2.8 62.3,2.8 77.2,17.4 56.1,17.4 41.7,2.8 "/>
<polyline class="st1" points="37.7,2.8 17,2.8 2.5,17.4 23.2,17.4 37.7,2.8 "/>
<polyline class="st1" points="40.6,4.1 54.9,18.4 54.9,38.6 40.6,24.5 40.6,4.1 "/>
<polyline class="st1" points="38.9,4.1 38.9,24.5 24.2,38.6 24.2,18.8 38.9,4.1 "/>
</svg>
