<svg id="레이어_2" data-name="레이어 2" xmlns="http://www.w3.org/2000/svg" viewBox="0 0 230 80"><defs><style>.cls-1{fill:#1769a5;}.cls-2{fill:#231815;}.cls-3{fill:#2e70af;}</style></defs><title>대지 1</title><polygon class="cls-1" points="36.79 22.8 23.62 36.16 4.48 36.16 17.94 22.8 36.79 22.8"/><polygon class="cls-1" points="38.12 24.13 38.12 42.7 24.66 55.58 24.66 37.39 38.12 24.13"/><polygon class="cls-1" points="41.01 22.8 54.17 36.16 73.31 36.16 59.86 22.8 41.01 22.8"/><polygon class="cls-1" points="39.68 24.13 39.68 42.7 53.13 55.58 53.13 37.39 39.68 24.13"/><polygon class="cls-2" points="77.19 22.32 77.19 24.6 80.42 24.6 80.42 35.68 83.02 35.68 83.02 24.6 86.15 24.6 86.15 22.32 77.19 22.32"/><polygon class="cls-2" points="87.57 22.32 87.57 35.68 94.91 35.68 94.91 33.79 90.32 33.8 90.32 29.67 94.39 29.67 94.39 27.92 90.32 27.92 90.32 24.2 94.91 24.2 94.91 22.32 87.57 22.32"/><polygon class="cls-2" points="97.09 22.32 97.09 35.68 103.86 35.68 103.86 33.6 99.5 33.6 99.5 22.32 97.09 22.32"/><polygon class="cls-2" points="105.26 22.32 105.26 35.68 112.6 35.68 112.6 33.79 108.01 33.8 108.01 29.67 112.08 29.67 112.08 27.92 108.01 27.92 108.01 24.2 112.6 24.2 112.6 22.32 105.26 22.32"/><path class="cls-2" d="M120.11,22.32h-5.4V35.68h5.45s3.46.26,3.46-6V27.92S123.76,22.32,120.11,22.32Zm1,8c0,3.65-1.92,3.41-1.92,3.41h-1.87V24.2h1.9c2,0,1.89,3,1.89,3Z"/><polygon class="cls-2" points="124.74 22.32 128.62 30.92 128.62 35.69 131.02 35.69 131.02 30.92 135.06 22.32 132.28 22.32 129.82 28.36 127.01 22.32 124.74 22.32"/><polygon class="cls-2" points="136.36 35.68 138.85 35.68 138.85 26.27 142.71 35.68 146.21 35.68 146.21 22.32 143.94 22.32 143.94 31.45 140.05 22.32 136.36 22.32 136.36 35.68"/><polygon class="cls-2" points="148.68 22.28 148.68 35.64 156.03 35.64 156.03 33.75 151.43 33.75 151.43 29.63 155.5 29.63 155.5 27.87 151.43 27.87 151.43 24.16 156.03 24.16 156.03 22.28 148.68 22.28"/><rect class="cls-2" x="162.74" y="23.12" width="1.52" height="12.52"/><polygon class="cls-2" points="167.15 35.64 167.15 23.12 169.66 23.12 173.02 33.79 176.48 23.12 178.99 23.12 178.99 35.68 177.43 35.68 177.43 24.74 173.68 35.64 172.31 35.68 168.66 24.7 168.66 35.64 167.15 35.64"/><path class="cls-2" d="M186.43,23.12h-4.36V35.64h1.23V30.19h3.17s2.61.15,2.61-3.46S186.43,23.12,186.43,23.12ZM186.15,29H183.3V24.42H186s1.57-.1,1.57,2.31S186.15,29,186.15,29Z"/><path class="cls-2" d="M191.21,23.12v9.06s0,3.5,2.61,3.5l2.6,0s2.63,0,2.63-3.53v-9h-1.42v9.06a2.15,2.15,0,0,1-2.46,2.3c-2.68,0-2.47-2.25-2.47-2.25V23.12Z"/><polygon class="cls-2" points="201.82 23.12 201.82 35.68 207.84 35.68 207.84 34.57 203.29 34.57 203.29 23.12 201.82 23.12"/><path class="cls-2" d="M209.08,32.6A3.7,3.7,0,0,0,213,36.09a3.36,3.36,0,0,0,3.49-3.49,2.7,2.7,0,0,0-.71-2.17l-4.58-3.25a1.34,1.34,0,0,1-.29-1,2,2,0,0,1,4.09,0,1.73,1.73,0,0,1,0,.32h1.45c0-.11,0-.21,0-.32a3.5,3.5,0,0,0-7,0,2.61,2.61,0,0,0,1.22,2.37l4.17,2.95c.31.31.2,1.14.2,1.14A2.23,2.23,0,0,1,213,34.85a2.6,2.6,0,0,1-2.44-2.25v-.32h-1.44Z"/><polygon class="cls-2" points="218.97 23.12 218.97 35.68 225.41 35.68 225.41 34.17 220.58 34.17 220.58 29.91 224.94 29.91 224.94 28.39 220.58 28.39 220.58 24.36 225.41 24.36 225.41 23.13 218.97 23.12"/><polyline class="cls-3" points="86.76 39.54 86.76 40.27 81.44 40.27 81.44 43.54 86.43 43.54 86.43 44.28 81.44 44.28 81.44 47.8 86.84 47.8 86.84 48.54 80.54 48.54 80.54 39.54 86.76 39.54"/><polyline class="cls-3" points="88.07 42.07 90.12 47.8 92.16 42.07 92.98 42.07 90.52 48.54 89.71 48.54 87.16 42.07 88.07 42.07"/><path class="cls-3" d="M94.37,46.41a2.44,2.44,0,0,0,.33.82,2.37,2.37,0,0,0,.65.65,2,2,0,0,0,1,.17,1.7,1.7,0,0,0,1.38-.42,2.13,2.13,0,0,0,.66-1.22h.82a3.41,3.41,0,0,1-.9,1.72,2.81,2.81,0,0,1-2,.65A3.46,3.46,0,0,1,95,48.46a2.58,2.58,0,0,1-.91-.76,4.5,4.5,0,0,1-.57-1.06,7.22,7.22,0,0,1-.16-1.39A6.38,6.38,0,0,1,93.55,44a6.16,6.16,0,0,1,.57-1.15,4.09,4.09,0,0,1,.91-.75,2.4,2.4,0,0,1,1.31-.34,3.46,3.46,0,0,1,1.38.34,4.13,4.13,0,0,1,.91.81,2.8,2.8,0,0,1,.49,1.23,7.22,7.22,0,0,1,.16,1.32H94.21a3.4,3.4,0,0,0,.16.89m3.93-2.46a3.23,3.23,0,0,0-.41-.75,1.87,1.87,0,0,0-.66-.49,1.58,1.58,0,0,0-.89-.25,1.33,1.33,0,0,0-.82.25,2,2,0,0,0-.66.49,2.71,2.71,0,0,0-.4.75,3.24,3.24,0,0,0-.25.91h4.25A3.18,3.18,0,0,0,98.3,44Z"/><path class="cls-3" d="M101,42.07v1.47h.06a2.73,2.73,0,0,1,.9-1.22,2.54,2.54,0,0,1,1.55-.33v.75a4.09,4.09,0,0,0-1,.16,1.16,1.16,0,0,0-.75.5,3.92,3.92,0,0,0-.58.76,3.94,3.94,0,0,0-.16,1v3.39h-.76V42.07h.66"/><path class="cls-3" d="M104.56,42.07l2.21,5.56,2-5.56h.83l-2.86,7.45a1.53,1.53,0,0,1-.33.76.73.73,0,0,1-.32.41,1.91,1.91,0,0,1-.41.24c-.17,0-.41.09-.66.09h-.32a.3.3,0,0,0-.25-.09v-.65h.25c.08,0,.16.08.32.08l.41-.08c.08-.08.25-.16.33-.24s.08-.17.16-.33a2.5,2.5,0,0,0,.25-.41l.24-.76-2.62-6.47h.82"/><polyline class="cls-3" points="110.63 42.07 112.27 47.64 112.35 47.64 113.91 42.07 114.8 42.07 116.37 47.64 116.44 47.64 118.08 42.07 118.98 42.07 116.86 48.54 115.95 48.54 114.4 43.05 114.31 43.05 112.76 48.54 111.86 48.54 109.73 42.07 110.63 42.07"/><path class="cls-3" d="M120.72,39.54v3.6a1.76,1.76,0,0,1,.82-.9,2.19,2.19,0,0,1,1.23-.42,3.66,3.66,0,0,1,1.14.17,1.77,1.77,0,0,1,.75.57,1.09,1.09,0,0,1,.41.76,4.19,4.19,0,0,1,.17,1.06v4.15h-.83v-4a2.46,2.46,0,0,0-.09-.81c-.08-.25-.16-.41-.25-.66a2.91,2.91,0,0,0-.57-.4,1.5,1.5,0,0,0-.75-.17,1.62,1.62,0,0,0-.91.25,2.63,2.63,0,0,0-.65.41c-.16.25-.25.49-.41.75a3.05,3.05,0,0,0-.08.9v3.77h-.82v-9h.82"/><path class="cls-3" d="M127.47,46.41a2.53,2.53,0,0,0,.41.82,2.37,2.37,0,0,0,.65.65,1.77,1.77,0,0,0,1,.17,1.9,1.9,0,0,0,1.4-.42,2.88,2.88,0,0,0,.65-1.22h.82a3.06,3.06,0,0,1-1,1.72,2.62,2.62,0,0,1-1.89.65,3.08,3.08,0,0,1-1.3-.32,2.11,2.11,0,0,1-1-.76,2.47,2.47,0,0,1-.5-1.06,5.42,5.42,0,0,1,0-2.62,2.89,2.89,0,0,1,.5-1.15,3,3,0,0,1,1-.75,2.21,2.21,0,0,1,1.3-.34,3.19,3.19,0,0,1,1.32.34,2.87,2.87,0,0,1,.89.81,2.94,2.94,0,0,1,.5,1.23,3.63,3.63,0,0,1,.16,1.35h-5a3.32,3.32,0,0,0,.09.89m3.93-2.46a2.77,2.77,0,0,0-.42-.75,1.8,1.8,0,0,0-.64-.49,1.36,1.36,0,0,0-.83-.21,1.61,1.61,0,0,0-.9.25,1.83,1.83,0,0,0-.65.49,3,3,0,0,0-.41.75,4,4,0,0,0-.17.91h4.18a3.78,3.78,0,0,0-.16-.94Z"/><path class="cls-3" d="M134.38,42.07v1.47a3.62,3.62,0,0,1,1-1.22,2.17,2.17,0,0,1,1.51-.33v.75a4.66,4.66,0,0,0-1,.16,2.25,2.25,0,0,0-1.23,1.23,2.08,2.08,0,0,0-.17,1v3.42h-.81V42.07h.75"/><path class="cls-3" d="M138,46.41a1.53,1.53,0,0,0,.41.82,2.51,2.51,0,0,0,.65.65,1.78,1.78,0,0,0,1,.17,1.66,1.66,0,0,0,1.31-.42,3.08,3.08,0,0,0,.75-1.22h.82a3.58,3.58,0,0,1-1,1.72,2.61,2.61,0,0,1-1.88.65,3.54,3.54,0,0,1-1.4-.32,2.63,2.63,0,0,1-.9-.76,2.45,2.45,0,0,1-.49-1.06,3.85,3.85,0,0,1-.17-1.39,3.39,3.39,0,0,1,.17-1.23,3,3,0,0,1,.49-1.15,4,4,0,0,1,.9-.75,2.53,2.53,0,0,1,1.4-.34,3.1,3.1,0,0,1,1.3.34,2.79,2.79,0,0,1,1.39,2,3.69,3.69,0,0,1,.17,1.32h-5.08a3.87,3.87,0,0,0,.16.89m3.94-2.46a4.19,4.19,0,0,0-.41-.75,1.87,1.87,0,0,0-.66-.49,1.32,1.32,0,0,0-.81-.25,1.62,1.62,0,0,0-.91.25,1.83,1.83,0,0,0-.65.49,3,3,0,0,0-.41.75c-.09.34-.16.58-.25.91h4.26a3.21,3.21,0,0,0-.18-.87Z"/><path class="cls-3" d="M143.32,42h1.56l1.71,4.91h.09L148.31,42h1.51l-2.57,7c-.08.25-.24.57-.33.81a3.82,3.82,0,0,1-.41.76,4.43,4.43,0,0,1-.65.49,2.81,2.81,0,0,1-.91.16,3.64,3.64,0,0,1-1-.08V49.85c.09,0,.17.08.34.08h.75l.25-.24.24-.25a3,3,0,0,0,.08-.41l.17-.49L143.35,42"/><path class="cls-3" d="M153.83,48.78a3.67,3.67,0,0,1-1.5-.32,3,3,0,0,1-1-.66,3.12,3.12,0,0,1-.65-1.15,3.46,3.46,0,0,1-.25-1.39,3.83,3.83,0,0,1,.25-1.38,2.8,2.8,0,0,1,.65-1.07,3,3,0,0,1,1-.75,4.3,4.3,0,0,1,2.89,0,2.88,2.88,0,0,1,1,.75,2.64,2.64,0,0,1,.66,1.07,4.06,4.06,0,0,1,.25,1.38,3.46,3.46,0,0,1-.25,1.39,2.89,2.89,0,0,1-.66,1.12,2.74,2.74,0,0,1-1,.66,3.87,3.87,0,0,1-1.39.32m0-1.15a1.48,1.48,0,0,0,.82-.24,1.82,1.82,0,0,0,.91-1.24,3.92,3.92,0,0,0,.08-.9,3.26,3.26,0,0,0-.08-.82,3,3,0,0,0-.34-.75,1,1,0,0,0-.57-.49,1.58,1.58,0,0,0-1.71,0,1.08,1.08,0,0,0-.58.49,3,3,0,0,0-.33.75,3.25,3.25,0,0,0-.07.82,3.42,3.42,0,0,0,.07.9,3.35,3.35,0,0,0,.33.75,3,3,0,0,0,.58.49,1.51,1.51,0,0,0,.89.27Z"/><path class="cls-3" d="M164.05,48.53h-1.5v-.91a2,2,0,0,1-.76.84,2.42,2.42,0,0,1-2.87-.33,2.71,2.71,0,0,1-.65-2V42h1.51v4a1.74,1.74,0,0,0,.33,1.23,1.26,1.26,0,0,0,.9.4,2.29,2.29,0,0,0,.82-.15,2.73,2.73,0,0,0,.49-.41,3.46,3.46,0,0,0,.24-.57,1.67,1.67,0,0,0,.08-.66V42h1.51v6.54"/><rect class="cls-3" x="165.64" y="39.54" width="0.82" height="9"/><path class="cls-3" d="M172.23,42.15a2.29,2.29,0,0,1,1,.76,5.53,5.53,0,0,1,.66,1.06,7.42,7.42,0,0,1,.15,1.32,8.21,8.21,0,0,1-.15,1.39,4.83,4.83,0,0,1-.66,1.06,2.29,2.29,0,0,1-1,.76,3.17,3.17,0,0,1-1.32.32,3.45,3.45,0,0,1-1.3-.32,2.26,2.26,0,0,1-1-.76,4.34,4.34,0,0,1-.57-1.06,3.84,3.84,0,0,1-.16-1.39,3.69,3.69,0,0,1,.16-1.32,4.53,4.53,0,0,1,.57-1.06,2.26,2.26,0,0,1,1-.76,2.38,2.38,0,0,1,1.3-.33,2.34,2.34,0,0,1,1.32.33m-2.27.58a4.67,4.67,0,0,0-.75.66,2.89,2.89,0,0,0-.41.89,3.27,3.27,0,0,0,0,2,3.33,3.33,0,0,0,.41.9,5.14,5.14,0,0,0,.75.65,2,2,0,0,0,1,.17,1.78,1.78,0,0,0,1-.17,1.88,1.88,0,0,0,.75-.65,1.81,1.81,0,0,0,.41-.9,2.17,2.17,0,0,0,.16-1.07,2.07,2.07,0,0,0-.16-1,1.74,1.74,0,0,0-.41-.89,1.83,1.83,0,0,0-.75-.66,1.72,1.72,0,0,0-1-.25,2.1,2.1,0,0,0-1,.25Z"/><path class="cls-3" d="M179.36,42.15a2.29,2.29,0,0,1,1,.76,2.76,2.76,0,0,1,.58,1.06,3.79,3.79,0,0,1,0,2.71,2.57,2.57,0,0,1-.58,1.06,2.23,2.23,0,0,1-1,.76,3.08,3.08,0,0,1-1.3.32,3.51,3.51,0,0,1-1.32-.32,2.29,2.29,0,0,1-1-.76,2.73,2.73,0,0,1-.57-1.06,3.94,3.94,0,0,1,0-2.71,2.87,2.87,0,0,1,.57-1.06,2.29,2.29,0,0,1,1-.76,2.45,2.45,0,0,1,1.32-.33,2.2,2.2,0,0,1,1.3.33m-2.26.58a1.8,1.8,0,0,0-.76.66,2.86,2.86,0,0,0-.4.89,3.13,3.13,0,0,0,0,2,3,3,0,0,0,.4.9,1.84,1.84,0,0,0,.76.65,3,3,0,0,0,2,0,1.84,1.84,0,0,0,.76-.65,3.33,3.33,0,0,0,.41-.9,4.33,4.33,0,0,0,.16-1.07,4.09,4.09,0,0,0-.16-1,3.14,3.14,0,0,0-.41-.89,1.8,1.8,0,0,0-.76-.66A2.06,2.06,0,0,0,177.1,42.73Z"/><polyline class="cls-3" points="183.03 39.54 183.03 45.18 186.63 42.07 187.69 42.07 184.92 44.44 187.86 48.54 186.88 48.54 184.34 45.02 183.03 46.08 183.03 48.54 182.21 48.54 182.21 39.54 183.03 39.54"/><polyline class="cls-3" points="187.34 39.45 188.73 39.45 188.73 39.69 188.16 39.69 188.16 41.26 187.84 41.26 187.84 39.69 187.34 39.69 187.34 39.45"/><polyline class="cls-3" points="188.97 39.45 189.39 39.45 189.88 40.84 190.37 39.45 190.78 39.45 190.78 41.26 190.53 41.26 190.53 39.86 190.04 41.26 189.72 41.26 189.22 39.86 189.22 41.26 188.97 41.26 188.97 39.45"/></svg>