<?xml version="1.0" encoding="utf-8"?>
<!-- Generator: Adobe Illustrator 24.0.1, SVG Export Plug-In . SVG Version: 6.00 Build 0)  -->
<svg version="1.1" id="레이어_2_1_" xmlns="http://www.w3.org/2000/svg" xmlns:xlink="http://www.w3.org/1999/xlink" x="0px"
	 y="0px" viewBox="0 0 421.9 63.8" style="enable-background:new 0 0 421.9 63.8;" xml:space="preserve">
<style type="text/css">
	.st0{fill:#1769A5;}
	.st1{fill:#231815;}
	.st2{fill:none;stroke:#231815;stroke-width:1.5;stroke-miterlimit:10;}
	.st3{fill:#FFFFFF;}
	.st4{fill:none;stroke:#1769A5;stroke-width:1.3;stroke-miterlimit:10;}
	.st5{fill:none;stroke:#1769A5;stroke-width:1.8;stroke-miterlimit:10;}
</style>
<g id="레이어_2_2_">
	<title>대지 1</title>
	<polygon class="st0" points="61.9,1 36.6,26.6 0,26.6 25.7,1 	"/>
	<polygon class="st0" points="64.4,3.6 64.4,39.1 38.7,63.8 38.7,28.9 	"/>
	<polygon class="st0" points="70,1 95.3,26.6 131.9,26.6 106.2,1 	"/>
	<polygon class="st0" points="67.5,3.6 67.5,39.1 93.2,63.8 93.2,28.9 	"/>
	<polygon class="st1" points="139.4,0 139.4,4.4 145.5,4.4 145.5,25.7 150.5,25.7 150.5,4.4 156.6,4.4 156.6,0 	"/>
	<polygon class="st1" points="159.3,0 159.3,25.7 173.3,25.7 173.3,22 164.5,22 164.5,14.2 172.3,14.2 172.3,10.7 164.5,10.7 
		164.5,3.6 173.3,3.6 173.3,0 	"/>
	<polygon class="st1" points="177.5,0 177.5,25.7 190.5,25.7 190.5,21.7 182.1,21.7 182.1,0 	"/>
	<polygon class="st1" points="193.2,0 193.2,25.7 207.2,25.7 207.2,22 198.4,22 198.4,14.2 206.3,14.2 206.3,10.7 198.4,10.7 
		198.4,3.6 207.2,3.6 207.2,0 	"/>
	<path class="st1" d="M221.6,0h-10.4v25.7h10.4c0,0,6.7,0.6,6.7-11.5v-3.5C228.3,10.7,228.7,0,221.6,0z M223.5,15.3
		c0,7.1-3.6,6.5-3.6,6.5h-3.6V3.6h3.6c3.8,0,3.6,5.8,3.6,5.8V15.3z"/>
	<polygon class="st1" points="230.4,0 237.9,16.5 237.9,25.7 242.5,25.7 242.5,16.5 250.4,0 245,0 240.2,11.7 234.8,0 	"/>
	<polygon class="st1" points="252.9,25.7 257.6,25.7 257.6,7.7 264.9,25.7 271.6,25.7 271.6,0 267.2,0 267.2,17.6 259.9,0 252.9,0 	
		"/>
	<polygon class="st1" points="276.4,0 276.4,25.7 290.4,25.7 290.4,22 281.6,22 281.6,14.2 289.5,14.2 289.5,10.7 281.6,10.7 
		281.6,3.6 290.4,3.6 290.4,0 	"/>
</g>
<g id="레이어_3">
	<line class="st2" x1="304.8" y1="1.5" x2="304.8" y2="25.7"/>
	<path class="st2" d="M333,25.7V2.2c0,0-1.4,0-2.4,0c-1.5,4.4-7.3,22.9-7.3,22.9S317.4,6.6,316,2.2c-1.1,0-2.6,0-2.6,0v23.5"/>
	<path class="st2" d="M341.2,13h7.7c0,0,3.5,0.2,3.5-5.4s-4-5.4-4-5.4h-6.9c0,5.3,0,23.5,0,23.5"/>
	<path class="st2" d="M359.4,1.5c0,0,0,16.5,0,16.7c0,1.2,0,2.3,0.6,3.5c1.5,2.7,5.6,2.9,8.2,2.1c1-0.4,1.7-0.8,2.3-1.5
		c1.2-1.5,1-3.3,1-5.2c0-1.2,0-14.2,0-15.5"/>
	<polyline class="st2" points="379.6,1.5 379.6,24.2 389.7,24.2 	"/>
	<path class="st2" d="M393.8,19v0.2c0,0-0.2,5,5,5s5.2-5,5.2-5s0.2-1.9-1.5-3.3l-7.1-4.8c-1.7-1.2-1.5-4.1-1.5-4.1s-0.2-4.7,5.2-4.7
		c5.2,0,5,4.7,5,4.7"/>
	<line class="st2" x1="421" y1="13" x2="411" y2="13"/>
	<path class="st2" d="M421.9,24.2H411c0-4.4,0-17.6,0-21.9h10.9"/>
</g>
<rect x="319.7" y="25.7" class="st3" width="6.5" height="3.7"/>
<line class="st4" x1="157" y1="41.5" x2="146.6" y2="41.5"/>
<path class="st5" d="M157.8,49.5h-11.2c0,0,0,0-0.1,0c0-7.9,0-15.4,0-15.4h11.2"/>
<g>
	<path class="st0" d="M169.7,38l-4.8,12.5h-1.5L158.5,38h1.7l3.8,10.9l4-10.9H169.7z"/>
</g>
<g>
	<path class="st0" d="M170.5,44.2c0-0.9,0.1-1.7,0.4-2.4c0.3-0.8,0.7-1.4,1.2-2s1.1-1,1.8-1.3s1.4-0.5,2.2-0.5c1.6,0,3,0.6,4.1,1.8
		s1.7,2.8,1.7,4.7H172c0,1.3,0.4,2.4,1.2,3.2c0.8,0.9,1.8,1.3,3,1.3c0.8,0,1.6-0.2,2.3-0.7s1.2-1.1,1.5-2h1.6
		c-0.4,1.3-1.1,2.3-2.1,3.1s-2.1,1.1-3.4,1.1c-0.8,0-1.5-0.2-2.2-0.5s-1.3-0.8-1.8-1.3c-0.5-0.6-0.9-1.3-1.2-2
		C170.6,45.9,170.5,45.1,170.5,44.2z M180.2,43c-0.2-1-0.7-1.8-1.4-2.5s-1.6-1-2.6-1s-1.9,0.3-2.7,1c-0.7,0.7-1.2,1.5-1.4,2.5H180.2
		z"/>
</g>
<g>
	<path class="st0" d="M185.1,50.4h-1.7V38.3h1.7v2.6c0.6-1.3,1.4-2,2-2.4s1.3-0.6,2-0.6c0.2,0,0.5,0,0.8,0v1.8h-0.4
		c-1.1,0-2.1,0.4-2.8,1.2c-0.8,0.8-1.5,1.8-1.6,3.1V50.4z"/>
</g>
<g>
	<path class="st0" d="M201.5,38l-5.4,14c-0.8,2-2,3-3.7,3c-0.5,0-1.1-0.1-1.8-0.3v-1.5c0.5,0.1,1,0.2,1.4,0.2c0.7,0,1.2-0.2,1.7-0.5
		c0.4-0.4,0.9-1.2,1.3-2.6L190.3,38h2.1l3.6,9.4l3.7-9.4H201.5z"/>
</g>
<g>
	<path class="st0" d="M219.5,38l-4,12.4h-1.8l-3.1-9.2l-2.9,9.2h-1.8L201.8,38h2.2l3,9.2l2.9-9.2h1.6l3.1,9.3l3.1-9.3H219.5z"/>
</g>
<g>
	<path class="st0" d="M231.3,50.4c0,0-1.5,0-1.5,0c-0.1,0,0-7,0-7.6c0,0,0-0.1,0-0.1c-0.1-0.5-0.2-1.1-0.4-1.6
		c-0.5-1-1.6-1.8-2.7-1.8c-0.9,0-1.7,0.4-2.4,0.9c-0.7,0.6-1.3,1.3-1.6,2.1c-0.2,0.6-0.3,1.2-0.3,1.8c-0.1,2,0.1,4.1,0,6.1
		c-0.5,0-1,0-1.5,0c0-2,0-4,0-6c0-1.8,0-3.6,0-5.4c0-1.4,0-2.7,0-4.1c0-0.3,0-0.7,0-1c0,0,1.9-0.6,1.9-0.6c0,0.8,0,1.6,0,2.4
		c0,1.2,0,2.5,0,3.7c0,0.2,0,0.5,0,0.7c0.1-0.2,0.2-0.4,0.3-0.5c0.1-0.2,0.3-0.4,0.5-0.5c0.3-0.3,0.7-0.6,1.1-0.8
		c0.8-0.4,1.8-0.5,2.7-0.4c0.9,0.1,1.8,0.3,2.5,0.9c0.7,0.6,1.1,1.5,1.2,2.5c0.1,0.8,0.1,1.6,0.1,2.4c0,1.4,0,2.9,0,4.3
		C231.3,48.1,231.3,50.4,231.3,50.4z"/>
</g>
<g>
	<path class="st0" d="M233.7,44.2c0-0.9,0.1-1.7,0.4-2.4c0.3-0.8,0.7-1.4,1.2-2s1.1-1,1.8-1.3s1.4-0.5,2.2-0.5c1.6,0,3,0.6,4.1,1.8
		s1.7,2.8,1.7,4.7h-9.9c0,1.3,0.4,2.4,1.2,3.2c0.8,0.9,1.8,1.3,3,1.3c0.8,0,1.6-0.2,2.3-0.7s1.2-1.1,1.5-2h1.6
		c-0.4,1.3-1.1,2.3-2.1,3.1s-2.1,1.1-3.4,1.1c-0.8,0-1.5-0.2-2.2-0.5s-1.3-0.8-1.8-1.3c-0.5-0.6-0.9-1.3-1.2-2
		C233.8,45.8,233.7,45,233.7,44.2z M243.4,42.9c-0.2-1-0.7-1.8-1.4-2.5s-1.6-1-2.6-1s-1.9,0.3-2.7,1c-0.7,0.7-1.2,1.5-1.4,2.5H243.4
		z"/>
</g>
<g>
	<path class="st0" d="M249.3,50.4h-1.7V38.3h1.7v2.6c0.6-1.3,1.4-2,2-2.4s1.3-0.6,2-0.6c0.2,0,0.5,0,0.8,0v1.8h-0.4
		c-1.1,0-2.1,0.4-2.8,1.2c-0.8,0.8-1.5,1.8-1.6,3.1V50.4z"/>
</g>
<g>
	<path class="st0" d="M253.9,44.2c0-0.9,0.1-1.7,0.4-2.4c0.3-0.8,0.7-1.4,1.2-2s1.1-1,1.8-1.3s1.4-0.5,2.2-0.5c1.6,0,3,0.6,4.1,1.8
		s1.7,2.8,1.7,4.7h-9.9c0,1.3,0.4,2.4,1.2,3.2c0.8,0.9,1.8,1.3,3,1.3c0.8,0,1.6-0.2,2.3-0.7c0.7-0.5,1.2-1.1,1.5-2h1.6
		c-0.4,1.3-1.1,2.3-2.1,3.1s-2.1,1.1-3.4,1.1c-0.8,0-1.5-0.2-2.2-0.5s-1.3-0.8-1.8-1.3c-0.5-0.6-0.9-1.3-1.2-2
		C254.1,45.8,253.9,45,253.9,44.2z M263.7,42.9c-0.2-1-0.7-1.8-1.4-2.5c-0.7-0.7-1.6-1-2.6-1s-1.9,0.3-2.7,1
		c-0.7,0.7-1.2,1.5-1.4,2.5H263.7z"/>
</g>
<g>
	<path class="st0" d="M266.2,38h3l3.3,9.5l3.1-9.5h2.9l-4.2,12.5l-0.8,2.3c-0.3,0.8-0.5,1.3-0.8,1.7s-0.3,0.4-0.6,0.7
		s-0.7,0.4-1.2,0.6c-0.5,0.1-1,0.2-1.6,0.2s-1.2-0.1-1.8-0.2v-2.7c0.5,0.1,0.7,0.2,1.1,0.2c0.7,0,1,0,1.3-0.4
		c0.4-0.5,0.6-1.1,0.8-1.8L266.2,38z"/>
</g>
<g>
	<path class="st0" d="M279.8,44.1c0-1.1,0.3-2.1,0.8-3.1s1.3-1.7,2.3-2.3c1-0.5,2.1-0.8,3.3-0.8c1.9,0,3.4,0.6,4.6,1.8
		s1.8,2.7,1.8,4.5s-0.6,3.3-1.8,4.5c-1.2,1.2-2.7,1.8-4.6,1.8c-1.1,0-2.2-0.2-3.3-0.7c-1-0.5-1.8-1.2-2.4-2.2
		C280,46.6,279.8,45.4,279.8,44.1z M283.1,44.2c0,1.2,0.3,2.1,0.9,2.7c0.6,0.6,1.3,0.9,2.2,0.9c0.9,0,1.6-0.3,2.2-0.9
		c0.6-0.6,0.9-1.5,0.9-2.7s-0.3-2.1-0.9-2.7s-1.3-0.9-2.2-0.9c-0.9,0-1.6,0.3-2.2,0.9S283.1,43,283.1,44.2z"/>
</g>
<g>
	<path class="st0" d="M303.1,50.4v-1.9c-0.5,0.7-1.1,1.2-1.8,1.6s-1.5,0.6-2.3,0.6s-1.6-0.2-2.3-0.6c-0.7-0.4-1.1-0.9-1.4-1.6
		c-0.3-0.7-0.4-1.6-0.4-2.8v-7.9h3.3v5.7c0,1.8,0.1,2.8,0.2,3.2s0.3,0.7,0.7,0.9c0.3,0.2,0.7,0.3,1.2,0.3c0.6,0,1.1-0.2,1.5-0.5
		s0.8-0.7,0.9-1.2c0.2-0.5,0.2-1.6,0.2-3.4v-5.3h3.3V50h-3.1V50.4z"/>
</g>
<g>
	<path class="st0" d="M318.8,50.4c-1.8,0-3.2-0.6-4.2-1.8s-1.5-2.7-1.5-4.4c0-1.9,0.6-3.4,1.7-4.5s2.6-1.7,4.3-1.7
		c1.8,0,3.3,0.6,4.3,1.8s1.6,2.6,1.6,4.4c0,1.8-0.6,3.3-1.7,4.5S320.6,50.4,318.8,50.4z M318.9,48.9c1,0,1.9-0.4,2.6-1.2
		s1.1-2,1.1-3.6s-0.4-2.8-1.1-3.5s-1.6-1.1-2.6-1.1s-1.9,0.4-2.6,1.1c-0.7,0.7-1.1,1.9-1.1,3.5c0,1.7,0.4,2.9,1.1,3.6
		C317,48.5,317.9,48.9,318.9,48.9z"/>
</g>
<g>
	<path class="st0" d="M310.5,50.4h-1.9V33.2h1.9V50.4z"/>
</g>
<g>
	<path class="st0" d="M332.6,50.4c-1.8,0-3.2-0.6-4.2-1.8s-1.5-2.7-1.5-4.4c0-1.9,0.6-3.4,1.7-4.5s2.6-1.7,4.3-1.7
		c1.8,0,3.3,0.6,4.3,1.8s1.6,2.6,1.6,4.4c0,1.8-0.6,3.3-1.7,4.5S334.4,50.4,332.6,50.4z M332.8,48.9c1,0,1.9-0.4,2.6-1.2
		s1.1-2,1.1-3.6s-0.4-2.8-1.1-3.5s-1.6-1.1-2.6-1.1s-1.9,0.4-2.6,1.1c-0.7,0.7-1.1,1.9-1.1,3.5c0,1.7,0.4,2.9,1.1,3.6
		C330.9,48.5,331.8,48.9,332.8,48.9z"/>
</g>
<g>
	<path class="st0" d="M340.5,50.4V33.1h2.3V43l5.4-5.1h3l-5.2,4.6l5.7,7.9h-2.8l-4.5-6.4l-1.6,1.4v5H340.5z"/>
</g>
<g>
	<path class="st0" d="M351.4,36.4v-3h-1.1v-0.6h2.9v0.6h-1.1v3H351.4z"/>
	<path class="st0" d="M353.6,36.4v-3.6h1.1l0.7,2.4l0.6-2.4h1.1v3.6h-0.7v-2.8l-0.7,2.8H355l-0.7-2.8v2.8H353.6z"/>
</g>
</svg>
