<?xml version="1.0" encoding="utf-8"?>
<!-- Generator: Adobe Illustrator 24.0.1, SVG Export Plug-In . SVG Version: 6.00 Build 0)  -->
<svg version="1.1" id="레이어_2" xmlns="http://www.w3.org/2000/svg" xmlns:xlink="http://www.w3.org/1999/xlink" x="0px"
	 y="0px" viewBox="0 0 230 80" style="enable-background:new 0 0 230 80;" xml:space="preserve">
<style type="text/css">
	.st0{fill:#083C6F;enable-background:new    ;}
	.st1{fill:#083760;}
	.st2{fill:#07355D;}
	.st3{enable-background:new    ;}
	.st4{fill:#F1B51B;}
	.st5{fill:#0A3257;}
	.st6{fill:#09335A;}
	.st7{fill:#093154;}
</style>
<polyline class="st0" points="5,33.8 13.7,33.8 20.2,44.5 26.8,33.8 35.6,33.8 24.7,51.1 15.6,51.1 5,33.8 "/>
<path class="st1" d="M48,33.8h-8.8L28.3,51.1h8.4l1.6-2.7h10.5l1.5,2.7h8.5L48,33.8z M41.6,43.1l1.8-3l2,3H41.6z"/>
<path class="st2" d="M76.7,40.8h6.5v-4.2c0,0,0-2.8-3.2-2.8c-3.5,0-17.7,0-17.7,0s-3.5-0.1-3.5,3.5s0,10.6,0,10.6S58.5,51,61.9,51
	C65,51,80,51,80,51s3.1-0.1,3.1-3.1s0.1-3.9,0.1-3.9h-6.5v0.7c0,0,0,0.8-0.8,0.8c-1,0-9.1,0-9.1,0s-0.7,0-0.7-0.7c0-0.7,0-4.6,0-4.6
	s0-0.7,0.7-0.7c0.8,0,9,0,9.3,0s0.7,0.1,0.7,0.7L76.7,40.8z"/>
<path class="st2" d="M86,33.9l6.7,0v11.2c0,0,0,0.8,0.8,0.8c0.5,0,8.7,0,8.7,0s0.9,0.1,0.8-0.8c0-0.8,0-11.1,0-11.1l7,0v13.4
	c0,0,0.1,3.8-3.8,3.8s-17.1,0-17.1,0s-3,0-3-4.1C86.1,43.4,86,33.9,86,33.9z"/>
<g class="st3">
	<path class="st4" d="M133.7,36.8l-6.9,6.9l-7.7-7.2v-6.6l5.3,5.3V21c-5.7,2.7-9.7,8.5-9.7,15.2c0,9.3,7.5,16.8,16.8,16.8
		c0.7,0,1.4-0.1,2.1-0.2V36.8z"/>
	<path class="st4" d="M131.5,19.3c-0.7,0-1.5,0.1-2.2,0.2v15.7l7-7l7.4,7.4v6.2l-5.1-5.1v14.6c5.7-2.7,9.6-8.5,9.6-15.2
		C148.4,26.9,140.8,19.3,131.5,19.3z"/>
</g>
<polygon class="st2" points="152.3,33.8 152.3,51.1 171.2,51.1 171.2,45.5 159.5,45.5 159.5,33.8 "/>
<rect x="173.6" y="33.8" class="st5" width="6.9" height="17.2"/>
<polygon class="st6" points="183.4,33.8 183.4,51.1 190.3,51.1 190.3,46.5 197.6,46.5 197.6,41.5 190.3,41.5 190.3,39.2 202.3,39.2 
	202.3,33.8 "/>
<polygon class="st7" points="204.4,33.8 204.4,39.3 210.3,39.3 210.3,51.1 217.4,51.1 217.4,39.3 223.5,39.3 223.5,33.8 "/>
</svg>
